<mxfile host="app.diagrams.net" modified="2023-05-29T20:30:42.155Z" agent="Mozilla/5.0 (Windows NT 10.0; Win64; x64) AppleWebKit/537.36 (KHTML, like Gecko) Chrome/113.0.0.0 Safari/537.36" etag="gW2kkKWmNRclod2idFCW" version="21.3.5" type="device">
  <diagram name="Page-1" id="-k1Cf2SsV-DwRVKk2aT5">
    <mxGraphModel dx="2035" dy="605" grid="1" gridSize="10" guides="1" tooltips="1" connect="1" arrows="1" fold="1" page="1" pageScale="1" pageWidth="850" pageHeight="1100" math="0" shadow="0">
      <root>
        <mxCell id="0" />
        <mxCell id="1" parent="0" />
        <mxCell id="qkkkB0GDpSP-I1iQ6_yL-1" value="" style="shape=image;verticalLabelPosition=bottom;labelBackgroundColor=default;verticalAlign=top;aspect=fixed;imageAspect=0;image=data:image/png,iVBORw0KGgoAAAANSUhEUgAAAYUAAAGFCAYAAAASI+9IAAAAOXRFWHRTb2Z0d2FyZQBNYXRwbG90bGliIHZlcnNpb24zLjcuMSwgaHR0cHM6Ly9tYXRwbG90bGliLm9yZy/bCgiHAAAACXBIWXMAAA9hAAAPYQGoP6dpAADQkUlEQVR4nO296XJkN5Km7RHcdzK1VFV39Vc9939bYzOtKSkXbkEyyYjvR9oDPuclgpmSmIskuBmNZMQ5OIDD4cvrDpzZarVa1aBBgwYNGlRV86/dgUGDBg0a9O3QMAqDBg0aNKjRMAqDBg0aNKjRMAqDBg0aNKjRMAqDBg0aNKjRMAqDBg0aNKjRMAqDBg0aNKjRMAqDBg0aNKjR5qdeOJvNPmc/Bg0aNGjQZ6ZP2as8IoVBgwYNGtRoGIVBgwYNGtRoGIVBgwYNGtRoGIVBgwYNGtRoGIVBgwYNGtRoGIVBgwYNGtRoGIVBgwYNGtRoGIVBgwYNGtRoGIVBgwYNGtRoGIVBgwYNGtRoGIVBgwYNGtRoGIVBgwYNGtRoGIVBgwYNGtRoGIVBgwYNGtRoGIVBgwYNGtRoGIVBgwYNGtRoGIVBgwYNGtRoGIVBgwYNGtRoGIVBgwYNGtRoGIVBgwYNGtRoGIVBgwYNGtRoGIVBgwYNGtRoGIVBgwYNGtRoGIVBgwYNGtRoGIVBgwYNGtRoGIVBgwYNGtRoGIVBgwYNGtRoGIVBgwYNGtRoGIVBgwYNGtRoGIVBgwYNGtRoGIVBgwYNGtRoGIVBgwYNGtRoGIVBgwYNGtRoGIVBgwYNGtRoGIVBgwYNGtRoGIVBgwYNGtRoGIVBgwYNGtRoGIVBgwYNGtRoGIVBgwYNGtRoGIVBgwYNGtRoGIVBgwYNGtRoGIVBgwYNGtRoGIVBgwYNGtRoGIVBgwYNGtRoGIVBgwYNGtRoGIVBgwYNGtRoGIVBgwYNGtRoGIVBgwYNGtRoGIVBgwYNGtRoGIVBgwYNGtRoGIVBgwYNGtRoGIVBgwYNGtRoGIVBgwYNGtRoGIVBgwYNGtRoGIVBgwYNGtRoGIVBgwYNGtRoGIVBgwYNGtRoGIVBgwYNGtRoGIVBgwYNGtRoGIVBgwYNGtRoGIVBgwYNGtRoGIVBgwYNGtRoGIVBgwYNGtRoGIVBgwYNGtRoGIVBgwYNGtRoGIVBgwYNGtRoGIVBgwYNGtRoGIVBgwYNGtRoGIVBgwYNGtRoGIVBgwYNGtRoGIVBgwYNGtRoGIVBgwYNGtRoGIVBgwYNGtRoGIVBgwYNGtRoGIVBgwYNGtRoGIVBgwYNGtRoGIVBgwYNGtRoGIVBgwYNGtRoGIVBgwYNGtRoGIVBgwYNGtRoGIVBgwYNGtRoGIVBgwYNGtRoGIVBgwYNGtRoGIVBgwYNGtRoGIVBgwYNGtRoGIVBgwYNGtRoGIVBgwYNGtRoGIVBgwYNGtRoGIVBgwYNGtRoGIVBgwYNGtRoGIVBgwYNGtRoGIVBgwYNGtRoGIVBgwYNGtRoGIVBgwYNGtRoGIVBgwYNGtRoGIVBgwYNGtRoGIVBgwYNGtRoGIVBgwYNGtRoGIVBgwYNGtRoGIVBgwYNGtRoGIVBgwYNGtRoGIVBgwYNGtRoGIVBg74wzedj2Q36dmlI56BBX5A2NjZqc3OzZrPZ1+7KoEFdGkZh0KAvSJubm7W1tVUbGxtfuyuDBnVp82t3YNCgvwrNZrPa3Nys7e3tqqparVb18PDw5DrgpeVy+UX7N2hQ1TAKgwZ9MdrY2Kjt7e3a3t5uin+xWDTlP5/Pa2trq7a2tmo2m9X9/X3d3t4O4zDoi9IwCoMGfSHCIBg+Wi6XdX9/X1XVDMLGxkYzEKvVqm5ubr5mtwf9xWgYhUGDvgBtbGzU3t5e7e7u1ubmZj08PNRsNqvZbFZ3d3e1XC5rc3OzNjc3m1FYrVZ1f39f79+/78JMgwZ9DhpGYdCvpq2trZrP53V3d1er1eprd+ebp42NjTo4OKiDg4Pa29ur1WrVqo8wDA8PDzWfzyeG4eHhoba3t+v9+/e1WCy+8igG/VVoGIVBv4p2dnbq8PCw5vN5XV1d1WKxGIbhGZrP57W7u1t7e3u1vb1dOzs7LUrge/IHs9msNjY22s9sNqvt7e26u7sbRmHQF6NhFAZ9Mm1ubtbJyUkdHR21/+fzeV1fX49kaIfm83nt7OzUzs5ObW1ttXJUIgGigc3NzQn/MBSOGBaLRb1///6Tn537IDDcfD4M+aB1NIzCoE+i2WxWe3t7tb+/X7u7uw32oKxyeLJT2tjYqK2trYlBILnMbyKDVOB8Tk6hquru7q7Oz88/KbfABjnaXq1WtVqtaj6ft3Zvb2/r7u7uhUc96M9AwygM+iTa3NysnZ2dthuX/+/v7+vu7q4eHh66SuZb8ExRjF+Ktre3a3d3t1UbARuhqMkpbG5+WH5EBrPZrOUV5vN5LZfLuru7azmH1WpVV1dXTyKG+Xze2uB/ohJ/RwKbxPUwCoN6NIzCoI/SfD6v7e3tpsTu7+8b3LG5uVn7+/u1XC4n2LjhDzzeL5WY5vmz2ayVed7f39fNzc1nff7m5mbt7u42g4BidqSwWq0a7/DkHS2guJ1oXi6Xtbu7W/v7+y1SIC/h/AOEEaAdRw3L5bKWy+WAjwatpWEUBj1LwCDb29tN6fs7vNK9vb2az+d1f3/foAq+q6p6//5981KBM/gxocyT8PYzd4Gy8/OsbPGWee7nqPmnYiijAnvnKGqUso0q/WecVdUig6pHz589DowlDW9WNNkwUOL68PDQ2v7SEdQfieBdT+b+7DSMwlckYIKqaou1R18LgvGxDCgvNlvhyRJFoLhQWFbQVR+iC+AmjwMFiYKyYuM6HyLH8/0Me8Su84fA0PGQXypioTrI0UAaJZSLy04Z8/39fTOaNoTumyElt893PCMNgg0JRgMZ+yNFCzZwOCbL5bKNw2PoORnPtVtVE/l1tMa8zufzBrXd3d3V+/fvm/z9UXj4a2kYha9ACDgKAU8EQUPJ2cs0DOOF/TkF0x4uC85HMuSCpZ9VNVHSVR+MAn3n+1SE6ZWhQM2L5XLZFLyxc1f0mF/L5bLev3/fohy8ZIzX7+ENEZQNp6Mn96d3MiqeKOTv0xFgLmwIuc4GgWsdWXjs79+/r9vb219VyfQ1CJna2dmZ8JhxsxZub28nkBprI42GjbMjOObQfDVcurOz0xwgNhLe3NzU7e1t3d7e1s3NTYNG/ywRxTAKX5jsfaNAEVyEGNjDioXFjUJD8FP4rWQQZIQ5leA66IYFRB/SMKBs0yvHECS0QdtbW1vtuvRwfTicDY8Jrw3jkB60FzXXMEbw+Z2dnVqtVrW9vd34Aw8/df4YJxFCRgpZaeTjK+Ad/bfhTTjHyo1oCtmxgcW4wHfnERyJ3t7e1mKxqNvb208a65cmR03sh9nd3W2yYv6ShN/a2prIDUl0eGaorKqeOFyeS4yD5Wp3d7cZBhsifogg7u7u6urqqi4vL//wu8//8kbBCuRzWXp7Jj4UzUrfXnUuAEcLVTUROitpwxUQig8BRplgLAiFe1i+DYQVV/LOf29tbU2UHu0wXi+4jBTgf86D8xiGrqqqa0AhG6TE8XkePLi7u5tATOvmEOVuZY9C8RjNr4Rx6IcVlecSHtAXK3wUIkbU879arRofbNBxCr7VMtStra22uQ8yPzO3wnrlM/PTPOUneYRsOmrorTc7RKxf9p3AS4zQ/f19nZ2d1WKxqDdv3tTFxcVEbv9I9Jc2CoTXVTXxuBEsV9n8VsryQJKyu7u7Ew+Tvhgj9++EFgy/0G/DFjZ2wAYoB0cPQAkJ76RS4rn87mH3XoT2Ym0I7FHbqKRR9iJmHoiiEmbqjdnGYblcTjxKbxaDPxjO9+/fP4EC0kjbQGAQMrnMb+43Xp1985idYE5YxMrRifdUilZyhhm/NQwcJ2JnZ6edCeXvqh7lwnJmY+5Ir5cUdqTU45fnwnLqwoCHh4cnO81d+XV3dzeRh93d3To4OKhffvnlD7l/5y9pFGazWVPMmZCESC4Zs/y1tLGx0TBRPMXt7e06ODhom8B6MBEGxJ66PSMbGfptr9QCnB4xCgY44e7urmGkNzc3LRS2srSxcB+8QKz8q6ZQAP1Nj8w4L9cyHp6HUbCBTu85YSgbTBtLFLcNv+eb54ATWx7SQDMW70lI2MuREjxBCaUR9Lz4OxuKVGzmE/1hs5yVHZRj/tqU5bK9/pmnNhRpCJL3aQTN36rHNWPD6T7ZQEHInB02ZJiIIQsefv7557q+vv6mjPHH6C9nFLa2tppCtvK04vXGHqpVPsXLsnJ0eSK4JF7E4eFh2x3s3IK9j0wgZr7BieqeoGYVD0rPlS+OEjAO/NhYuB1DFJlYdoK3aqpIMzy3Z9/D1a0A2WdgQin4HsaG4s8IB371chVVj5g0EVQq7oSEmAuMDXPh3+sig4T4jH+nd28liGKzsXZSFicknZ3PCY/+VupFOcxlwkA2qFxvx8JG1HKehgOjMJvNGh9tAOzEJGTqPlr5E13a6fJ6+Pnnn+vi4uIPYxj+UkZhZ2enTk5OWoSAZ5WKyAeWIQAoCwusvWR7PSiKnZ2dFpHwY2PgXa69sDc9YJS/oSb6boOA0kdpPtcmz6a/u7u7zSBcX1/XYrGoxWJRNzc3kwVlmMQ5j3U5B+O69qATV/e9vtYL1+NjPvidUBtt8W4C2rIiccIfY7m5udmUhvuXHmIPUnDCOHNBKCPud5+qPkCW/rxnHFweaajMcKJhk/SSvxViHp3oTzmwfCGvVY95IZLurFtkPiOEjLp5tuc5I450vHrJ6qpqpdYYBxythDXPz8+/OcPco7+EUQAuOjs7awkt48H2ENMgbG5uNkWBYKbHkN47kcHOzk7t7+/X3t5eMxAYBBR6ekiGRXKBVE3P1MnqJQzCzc1NG0u2lX13DgC46+7urhmz6+vr2t3drcvLywms8rF+VlVboImBU0Hk+3pJuUzKJoRjZYIiTI84jY49zMT86ZuVu+9FATu6TCOYeZacO/jG3CQsxnOyCsk5ICK5zP+QO+L/2Ww2eR/Dt6aQEtp0qS2OTtXTggfGwTxiIFDKyDHOHG34fit51v/NzU1bv1VPlb/7bSfQbXCqLYYBeHF3d7d+/vnnev369TeZ7Df9JYzC8fFxnZ2d1cHBwaRSJHe7Gm9MSAehsgfuUBMve3t7u8FTCATfYSBcXmqlYkWQOHv+dl99P8KdRsHloCgzKzvGyWIEl2Zs29vbE2gpFYwXR47H8BB9z0isx4vEhX1dGiNflwbWfMtoie8ygup5rusiIxtYjzsjFo/NUENCRk6y0ybvVLi+vu7ynxwR8BlG/luNEiBDm71KOBtpk2XYjgHf8duOE0Y9nSUbJ6LkXCeeXxwQz30aio2NjTYm59O2t7frp59++mbLgqv+5EZhPp/X6elp/fDDD3VwcDBJ+AIhObx0VUrVNPEJ3IQHgGBkSeL+/v6TJLKrjJyo7Cm1XtSQnxtLdl8d8fgaICIvAPjjcdsrN8QBzAZsgWJKRWNlRjses8N6K0Evth7vrSidg/C4uTYNgyMIPnfbaSB8ryt+MAAuSbWxy2jIz/I8+1m5T8LKzfPLvFIbn84Dea/c1IgHnXtZviVCGaN4ma90MpwnQsFabjLS9LpxnivhRq+xh4eHurm5mUSNbiNhOs9lRhTcA9JgiHk2m9VPP/30zb5m9U9rFLa2tur777+v7777rg4PD5u3y8TgORNu9uqhM2npKhi8a5eUEiYSCaSSy0Sla/Wt0HqbqnJvAr8tmMZKDd30cHauhyzA6b07Ynh4eKiDg4P24hdDSlY8GZ5nX3Ms8MvXpUHwZwk1mLzoWaiZjOS6jNhyPnAIHD05eZ4wWPbTifjenHEP3r9lCyXpDVK9aNJRbkZhvYjrWyNgr0wo22Goehwv8gh/kL9egQH/ZySWhOH1GvJrUA0bWq5N9J9n2yGw88F1//t//+9vMmL4UxqFzc3N+uGHH+rHH39sBiE3TmVUUDXFrauebiri/sQ4aQ+jw0KuqqbAaL+qX/aWyiQ9PBQF16yDPNJLtTHyvemdu2LCisneMZ+TJCdCokoJpZWGyknjNBS96IB+MgfmDfkIvC+39RwZKrCXaEqFm/Oc8IAjLfMSfib/e/20dw//DBvhIPTe05xjsHGwYf+W4SPInr4jAq+xdQl+OwqOsmwQnjMW6UDAM/Oc51LZlZAVZDnLirSM7N+/f1//9//+32/uyJE/nVHY2dmpH3/8sf72t7/V0dHR5FyTTBLae6iqifJNhe0wtuctMuE+BZTPM7RdB1lkPTrP9v/0EyFOWAZyhGBF6Ptd1eFFku3YsBmawBBub2/X9fV1S+wRbfQSrunNrVYf8iAZNZkvbse1/B5LD3Ljfs+tx5V/531e/HyW1UaefytyeOU5s8FOvvf6aZw79030eOX+e65yn8nnoPSiXbn1qcT1RAJV1aJur2EXGniTZEKyTuyb947IcTJsYGyUXAhgCDEdH57hyCDzIBmZY3h++umnJ+vua9Kfyijs7u7W3//+92YQclOYlbkTcKlIoMQI7THSjssNndzd2NhokUNWCVnxp7eb/WFxpeJI6KSnvCAvCpRResL2MlOxuN3e3ggrSBLR6f0kNGIPDy/aC8rPpN8YyNzo5cjLys8eeg+ayjEatlmtHt96ZiPuvEaO37ANzoCVBXw2P8zX1erxNFfuXXdulZVbPjvH/bkVjjfNMU/M/28xDJZV/+3IwevC84As0JbzCVXTiNzyg5Gpmh5b7twcPD88PGzOgNeNEYZe8YQj7fl8XkdHR/W3v/2tbm9v6/Xr17+O6Z+R/jRGYW9vr/7jP/6j/va3v9Xh4eGTCfKGFBYdu5W9ONcRC9ceelVNjogAF/amGisDbzyqevSuDP3YuPhoCsNH7mvipAlp2XPyQuAeLyie7+gEwba3ZOWd0IpDeMZpxZ84sSn7ym/4Y2NAQp322G+SisTefXrVbt/ka91WykPCd2kUepEGbboYwPe4Zj6hH7xLX+856TkOz8n0S9BsNpvsual6dJB+K8EfZMnrY11yGdnrOTe9CMr9R9k7wvM6MPzEvVQymvI5NmLz+bzlL+nv7u5unZyc1N///ve6vb2tq6ur38yzl6Q/hVE4ODio//qv/6off/yxveyFCem9+YoNQFR02CO0QmBBGUoyjEL5mrFH75pNSMCHuSXObGXgRLMVBOQSvizjI7z1vglDG+mp2hN3++ld93IQPkMpj6Kwt+TkPIYIXqWB8TMgY782njybRc3YczzpSdPmOrgMPNjeo+cTOcmoy2RjRH8tN7nrtqqak5IKDAVv2Uzv2H3lM3ixWq0+W228I2H6mkUSv4W8JjhuxpvJoJ6DlQ6N5xleeh07Ksz7PUfoDWT96OjoiWHAcCUMyW+jBpubH95a+OrVq7q+vm77LL42/eGNwt7eXv3zn/+sH3/8sfb39yfJKCtG471AHFa49qxsDIzLW4FTmkn1DUkol8vRh/TCewLn47AxID3Ig++IdKyIGXeWrGZFRFX/fQZJXiBV06jEdfbGrj0uwyjGtjHShO5pDBz1eIHaaOYzGafL/rwgPaY0EobrPN/mOX3NnILbznuTl55vR5dVNYkIM+rIiheMnyFMlFHKPv2hsuxzUMq2jdNvJeb77u6uRQF7e3vNsbJDZAXcy1kZIrVMOAI1hNibv8ViMTlplqKA4+PjST6MNlL+DL1WTQs7Dg8P67vvvqvr6+v697//3X3+l6Q/tFE4ODiof/7zn/W3v/2tGQTDJyRBM+R02J5lhUwigohnD97LjlLOpcdT5ZksRpenJpZMaO2KHr/RyQrECsteeY7FuLXhhl4kkF4zBNxhj4soiL9tEBiPx9ardIGHmSw1X+zZWVEnZcRgg0lZo42xn+W6c1Piwp4X8xDv2+fimNYpHCt2kvBEDPDU8+m5NOTZi4DToDpKwPC+f/++KdKXpox2/P+6SAHDbafD827nAMOwtbXVThz1vhrus1Hk+HbayHVU9VgdRh+ei2roI44YBoI5Yg9UogN2bjg5gXtms1lzAra3t+v4+Lh+/PHHuru7q7dv3/7+ifkd9Ic1CoaM9vf3m3AY287zgbzwbQyyMslKHs+bl74vFouJUuQZ7FrO3c0WdCs0lHtVdaODVJYPDw8tMvCxBenJs8C4zoo3K6V8H4qHZzn/4SNAEibKhZawTCrVqseQ333JReXxGJuHT67IcfRmLzkNPco+PXHj/+a7+0+7GWGZekYh59JjM+yY0ZC9T0cEzhcllAIZOsIB+VzeJ/PBM5CBdR43zhpy6d+050gQmbu5uWnX7OzsTBw5nm3D4PyG+QTM1pvrpJ5zgnP47t277lvhHJHQn6r1Z5nBu4ODg+YofO0XIf0hjcLOzk7985//rH/84x+Tc9jtracnlQk7djT7NFMbEU/eYrF44v1aEGiDvjipjbDaMGXIy3OskE0IYh6EZgWXOQEqcbJyBeXmRVRVTxYhz/EJkM4dmFIp8BxHLfDdCtUQV0IviZHTx/Tq4Kc/twwY5mGhZqTk+e4pMxRy9uk5eMpko2+IzbzKxLP7YefFp7La4eHZhrmASjNP8dKUEW6Pf3ZMDOdiqJkbRw2es7u7uwm/Wb/+zPKMTtjZ2Wm88dw4r9eD/FxV2CO/ac2nF1iOLW82DmnMecbh4WG9evWqLi8v66efflr77M9NfzijsLm5WX//+9/rH//4Rx0dHU2EIY+csFL2b0JMnwxqT5/7WFTX19cThXN4eFhV012OfqYVNPdZQXoB8J29BofeXIuitodsb9x/9yAMJ7lcYud+OipwziCjBffPCdOqpxv9PG+O5uARfaRyK71tRzOGy+CXeZaVZBw+6IXvqjS3awXUg7/cXysU2upFEFxrIwsEgfLOKhf3g7H4RT4c/c7/PDMjOPPUn38OsuwmWe5YJ1aeCZNWTfMovsbGzc5YRgw9GYOsqC2Pfj73Psez5XJZi8Wi3r17N9mFvb+//2QzYzo+PVlBfy2XywZPv3nz5lPY/+L0hzMK33//ff3nf/5nnZ6e1ubm5hNMn4PuXKePckuhA0Yy5IRAELJeXFzUxcVFg48wHsYGndxMYTJ0lIvTCtRGK0vt3Gcr215lTC+sTgG0oTCPepVEjh6skOmnIxt7i+C+ToQyHkMh9txcSZVVXJnIpP/MFTwzNMVYvUeF7/i7h2P3jLq9ceY4o0rfY5iQc4ky0vJ9qSzML+eodnd36+jo6Ak8idHxS5KgXv7jS5EVryNxvnMk777aILgke7VaTaL0bI82MmLw+HPtOgfi+cy+mVarDzms6+vrSZRQVe1dLXYuzQue67ZYK4eHh3V2dlaXl5d1fX39VWCkP5RROD09rX/+85/1/fff18HBwUTZ58vTe7h5huOeJMi43vn5eZ2fn7cqI7w75yF6QgRZkaSy6kEOGdUYn2QR+L0AvXwCYzMOzYLM/tkrNkzUK4O1wvePYS/anM1mk/FawdOW+5hGh2vpNx51Qmv0gX5zn/t3d3c3gfacK6JfXqDMjcfqyIDxZqkv47IyzgjKc2YeIL/03fOekezBwUEdHBxM4JOHh4fa2dlpSso4v/n4HNb/0pRrK9dc7zpj8vDMfXZ0yD4G74fIeTR64LJZrwvLcUKf9K/qqWFwhHt1dTXJNxHFGEbK3ATP8dxAR0dH9eOPP9b19XX9z//8z2eN8nr0hzEKrjQ6ODiY7ChkUVlRQ17cia0nLotyWSwWzVIvFovmeTlBvc6g+G976VYK/t9Ri7/zQnHFias1LGj+3PilsWjjuBZ2krTUyRsicghsGMYwBUp9HWFk3DePzf33M+3N85uqFUcGQDKu6iIHg0LlbxagFcOnEPPfIxuM9Hi9t8C8srHzvUBczB2vb+X9FrybI8usPQeOUpAblBQG43PmGVzEkY6IlX/PE0em161bQ3JOolsfwH8n3Ks+yIojVeeciDh9v/uL8fW6JVoAYk4dlDCujT0OgCMK5J6k89XVVV1dXdW7d+9edH4+Rn8Io7CxsVF/+9vf6u9//3sdHBw0JtoiW2FXTRO3PuYZgcjdvn6BCefWW9EYZkpBN/WUtJVaKj7I3pAVpp9pDyoJZZdhMvyz8GMIUVLexJcVPc4/2MDxfXrDhj8yh2LPGD5kWaWNjRUEcw1ZCaIA8ZLn8/kEsnGOZG9vbwLFsTjNH9qEd4lJe4weF58xXhsfz8nGxsak1JfnZHXcxsbGk7f3eUMifUsll3J/f3/f3uPhqMzz/alE++sooVhf73FZFpKfjpaT91lNaMNqRdxzttxHO23+SWPJusv5TXjr5uam5Tj8vhbG5oS6nTKPx0b94OBgAiN9yUPzvnmjMJ/P6+9//3v913/9V52cnEy8x957VKumB4ElJJGVKV4YeJfsR6ByxwraSjVDQlt7f+/FTv+gVJJg1V5cHuPW1tZEQNKz4dkZMfhz9zXLT1MZc18urkyQQvDSn8M3NiJhwNKjgjdsDDJ8w3UJg5EkthFjfAkBpLE1/1Op+EiChIXSw2VDlRWA+5BRH3PrN/1lCSpzT9kjBsEwjD1MwxY7Ozt1e3vbXhOJIcRAvn//vhkIQ28JYaYM2GA+ZxgcDfjvjLTdXhrodI6IBlwGCvRoB8Qvk0pj3Osfc+T/cw2nIrescv3t7W1dX19P8prMRxoWzzPXWW6Xyw+vxz09Pa2bm5u6vLys//f//t8Xgf2qvnGjMJvN6tWrV/W//tf/qh9++KFNOJMKHGDlZoPA/wiEN5dZIL271FUiCGh6PikcEMLrRWNlkp68P4csoAh2ev/etWnPOkPehJG8wHhuJo/dJ/c9PeSqpwl87rFxsUe1zjvlWhZJ5kqAtVCcrmpCeTs/4XZ57sbGRpvj7e3tJxFdQo/eXJWREjw1L/jdM87Mh9+H0HM0rEiJElDy7Jb383uOiefb0YTfRe7oK2ETz5sdB8aRcpHk65kzy5+9eNqzY8R9jrS4zlVYzKE3/zHHlGN7DXgePEeeDxslz2EaBkeCtEFhiqNQr18bb9YqBiQNOzxztHB5efnFzkb6po3CwcFB/etf/6q///3vtb+/P1HS3jHszWW5SJiYXHwseCsqH0SX+K6VRgpE1VToEjayMfB9GYobY/QiYhwWUK63cbBnlQvQsJex2Fzk9tCqprs5WexJqUBcZUU/fGqmjXjirvSXa7meKrNUjl5IhtCcq7DDQJvcZ75ZiTqCyGvSOJoH/J0QBbztQQj03zK2ubk5eZ94OgeWQytsZCXfA041mCM58495tszR34zkEmLxs5GVVIAJo1nGUqYcAdjDdhk5EBzXeC2ThPbzsr/+O423r7chTYfQ7eC80F9vaLXRs37KfSZZzTabzerk5KSVvvqcts9J36xR2Nraqv/+7/+u//qv/6qDg4PGLG8UI7FTVZNKBE9u1fS0QnutrrvvebE9BW0IyF5Fhta9SMFeKP9bebF4fWZTwke+PzF9+mxPJY0EyUfur5oqKwtpDy7I8aBYWZQZdaQn7YVrnNXkOm/DG/DK39sQUmFkQ0e/UIpp4FwZZVgDj7UnR2kEfX1Gg77OTgb9oN2tra0m095rY0VhGTC/M0qkrYODg+YwOe/jnIY9+5Td5Ac8Z148RpPXRhoFZNrRXkY8Nlh2UjCQzLGfh9OQiX1kzNG/o8mcq4TM3Ic0Jjb8tMuZaBhmDFhG7rmXgTH5mcj72dlZq0Z6/fr1Z4eRvlmjwH6E4+Pjxkwf0WumGnbAe7CXUDXFAb1Dl8WauLqxX4fAVc/j91bSGRVUTZNtvg8FgYfhSgYrEogkm5+FoNoYeKFYiWYfIUc6aSyScsxeVBl9wCuuZR6s7Lx4UOJAArRjo83cASHaw3QlEu2aHHWmN8/nNlrZR2TGtffg9Yw/f8MDGzfGgmwDjThR2Yve0ghbHufzD7mXvb29xhfzGgXqnAZKLQ2DibZtGOFF7/qMHi3zCb89J2Nei3kP/9OX6+vr2t7eroeHD8fCIOvp9Nlw0E/z4LlI5rk1BKRFLsDOq9cnTgRj7EFaVdWO1/7uu+/aDurPvXfhmzQKx8fH9a9//at++OGHVo+N4vcCt5eEp2hIwB6IF1LW4xvOqJom+jKsN/VgnlQikL0vvIjEVfncL+exUbIQ2pgxxsQxn1PovbAZQbXQ+16P1xFTeli9v7MP9ja94LnWc4FhuL+/bxi4+TCbzZqzYKMDT/webcNoLNKeYnUUkQbBBtO5DMbqqqjsC5RwINAIfSRiSKjHFVWWXcuZ+7azs/MkovK80QdHRRlJM/fmA7i9jek66sGtjAfemSw/PItn441zX+YSNzY+lCNnQQJjWgfp2WiY1hmGNNSsF3jJ+xEw7hh8O7SWca9TOxEbGxu1t7dXp6endXV1VW/evKmffvppLa9fgr45o7C1tVX//Oc/6z//8z/r8PBw4jF7QaZ34tyBmcqE2yCwqKqmdc8Z6mY+wnijPWrDUpCvtVfqcdAm9wEbeMx5D0oAL9bwjRcu7fe81nWUIXl6tzyPBQev150BbxhhNptNFiUKHvKityFnofMc87hqep4+z7BMoGCtXHp8YEEaqrDBt5Hw2NLDSx5m7Xt6oPQbpQHc4EilavoyJzYa5ovmeWYqVZKZPTm18+Co1TKT0bCNS0aFSV6rntOU3ZQ3PzPhTstQ7qp3/6wvMldoA+drss95Hd9n1Ejf4R0wEhHb0dFRK6fvOYwepyHlqmqnqC4Wi/ruu+/q/Py8nRj7OeibMwqGjVCOebBZVd9D5dqq6fn0wAnGFZN6WKIn0NGAvS3+t3dmD9sLKb1z7mVx9DwGqKfo3Xf6Y+8zeeX+ZBSQUUfy1orR+Qm+Mw8NGTAuV/OQ6DWcYAXkyI55RXnZe2Vuraw9D+ugNPMAA0s/8jDFXpTlMTPGLH82P3vKzj+GiywD9q4twzYKhsvSw2SuiKAcLVDRlXOBjKQjZD5YFjPKWkfwyJCZIym3kwaIubcn3oOEGHvOW0JjJke/dtLsRPX0gP83b31sN1ENp57a2CZPoXRquQ4Y6dWrV/XLL7+087M+B31TRmF/f7/+v//v/6vvv/++Ze2rpnXM9ghTaVn54FnydrSbm5snE+P7Lfz2ENOzh/iuarprOhOteV9+buFyxYTL+vzMhMOsPK1IGFMaCvc5xw6vrdy51pAUYwSndoTmKKrnTeOx0S4KyzzxYszvuM8eXyrejO48f4Yhyd94zoGZ2BSZvM0IFK/Q0SB9TKXp3/TPO2zTSPfmAf5n5Zz3djjZ6qKFTPJXVUs6Z5TrtlIGab/37ugeMee0hSGqenwHcq6Z/NtGIQ2Co0N47sjjOfJ13lNAG74uy2sz4meshoWWy2XLL3Dk92q1mhy94XnOPCB6bmNjow4ODlqkcHFxUdfX1x8d32+hb8YobGxs1N///vfJrmUUCtCIPQCYawjHE8NmEs4tSs8qF4GVv5WKw0crPk+kQ3gnquwdQ3mvFUR6OPb0+d/39YSX9nxftmdlm+2vi1KYI/jL5yg2vodHzvfY4KJEkxcoLXvtHnP2j/89J/TB/bK3zA8Yr73pvAcDnd4d8ujKHSv7hFis8HI+eK4xZsNyaaD9XM8dO5c9L8BzRCJEdnjrVPBxRAMOk41JVU1O5fXYqmqijJ8j9525RzZsFJhfxs1c+zOvt+SR18tv8aIxVunN26GwgwM5sssokOqvi4uLScS7v79fu7u77X7f60q5hNuOj4/r1atXdXZ29uc3Cqenp/Vf//VfdXZ21kKw9KAzlLTCxqvzJFxcXEzOLloXQlY93fCTnrwplTMGIQUJJUqf+bvq6YY1jw/qQUSGWRCghMT8vfuc/fDz0ttO79Vj9KJlfrjOis37BqxI0tjZAXBUwqLo8Z8+2+BmUUDmZNIgIBMZAdoJYGH3FE1PGXm8tJF4tz1xF0/wuXcYGyoxBGoHxPCR7+F5PsWTPjFXwFZE00R/5ofn0QrexvhTyHmPh4eHSWGAn5d8tKykDPC3naRf0ycTfPTahWfIUa5DR6+5/pnLm5ubOj8/7661vb29SfEDz6yaOlnQzs5OnZyc1Pfff1+vX7/+LLmFb8Io7O7u1n//93/XP/7xj9rZ2XniJfQSbyZC2fv7+3Z+ETsADTMZbzUlrACl55wef9VjvXhCUqnkrbizLzy/R9muBc+QmvvspHMuXBQPfEVZOj9gxWgjkHzJ/QKr1WPS2Qs6+9Lz9GgnMWxHKU5OM69p3Bwd+H7PmR0L88dhv0s1TYl99yI788qQpufMUYmhOTs8fl4qYj5zohX+MS7vBDc06Uhic3OzDg4OJsbJe1lSBlLpfooCtkPiN/g5f5LKFf73PPbnnv1bDQKUMKSdil5kklVz3Etb6Ca8esbmd8TPZrPJcdt2ftF5GNT5/MPx2j/88EP9/PPP9X/+z//53WNO+iaMwvfff99gI5iRCsVeO/8bW3VSx/kDwl5b74Q0mHwwRYezXsRVj5OaCsWK3n2G8n+u65EFwwrTCspefCqjnkfC5/aCDDH0sNKq6Y7gNGbAPvCU/xPi6PE+DS7XM86EkfAuXW3khDNeFfOIcTQ5qvMi97zh3WFYM8LjGhQq/fOZ/4zVCfC8l2S2y1CZk3XzaUiqB1lamTq6cY7EUYyjcTa8pVwy9/Ai5eBTKOUcHsOjXoRsI+l+27HwZy9N3jeUDo2Ngh09j8PODs5Sypl1TL71EYMDz73Wt7e36+joqM7Ozj5LtPDVjcLh4WH985//rNPT0ybMVY+KEQ/eygsclXDXybabm5vmjaSiSyEzTJAKsQdbJNmDM56b0QU/+VzIi974odtLBWeDwf8IIorD7WVVlH/TnzRcqdzdR19L31CU9MtJsqrpWfapBNIzrHoMnxm/F6XHZm+YHytnj898Yo4MXWU0kzw3H6yQrIj5v6d8DeG4BNljNtTJGHrvw7CszefzieJx/xeLRdvD4z0Q8/m8OU8bGxuTU2jpJ+vK7Znvz9FsNptswOP5HqtPJUiD3XOk4HdG4utg4d9D9/f3EyjbTmBGv+t0RUZ2XvsofpwZ/49M4mQ5d7axsVH7+/v13Xff1c8//9yO+Hkp+qpGYWNjo7777rv6/vvvJwehWUHlD0J6eXnZ3p3sSME7mg3NMIGOAmwMrKSNkUOGGOxx9ry5VBhWPJCVBn2zEqKPaTAge/lu04qz115CSSgDww5WSLTrvnAv5Oc46UxFTM/zNZxhKIjvrBQMryTEY9gk+eixYjg8Vywyz1c+w46KeWt+0Jd8d7Z5Z28wnZxUfM4peO6Qc8+HlWLOBf9Twpp7fuw4Md9UZPE5cGDuXfiYEsYgOOJPxwuj+CnVTMn7HpzzOQgZtqPB+NLB8t+51pgX0AwiWo7EYF6IGjOnkUYIGAnD8KlJ/0+hr2oU9vf3629/+1vt7+83ZZSK04tquVy2N6JdXV1NknCUn2JUEL4s/bL32DM6qdTtadOGE31e/Osgj1QQvUUNuY+GUawsEzapmoakkBcR12QY6mjJu7whGyPazgRhL1HmPvbI0YK9KfPAfaWPKBAcBI+LueEe98cLKtt3pGDZ84LMxC6fG05LQ2W4wBU/+VYu8zbnNOUjnR3z3V60lZINA21jIHixPQnm3MUNHx4eHlpEgwNmD98REgrfSVI7X2kkc54YSy+6S0erF9G9JBkBcNRDH/htWUrDkP2maODm5mbCFzsMNpaO2uzYAiMdHR296Pucv5pRmM/n9eOPP9bZ2VnzKu1FwCQUzsPDQzst8Orqqp1rApPtlWaY7lKwnkefXkDVtPzSSprIhMR2VU0WU9XT81SMN3qMFrD0LKqm1S1W+owlvdaeYPoeFpqVyebmZt3c3DzBLT0WPrOCSO+ctnhmT6G5zR5E5ugN/tlTN//8fPfBixhChuxZco2rcZbL5UTmegY8IaZ1z4QPyFqWx9Ifz6sjJr+i0YofSCNLfhMSQyZpC+eJnAWKJ/fGVE0ND/12lMIzUFQutvDazQjIPPVzLROGeOFpRgR2tHoQ50vTc+1bHmwcUhbMNzuy8BfomyjCTomdXNqaz+etEum7776rt2/fvli09NWMwt7eXp2dndX+/n5VTUstbRDA15xEplLGkUJCQr08gRUnnxmDhuyl4P1l+Ow8QXqZtFE1TTBndJJ96glSehm9aMB95TPz0oswFZ7Dziy99GLwOLnfhsleqmEJ7vVY0sOmbTylHqRmZ4G+ZcjsPEp60MkjK047BZ4bz7Xly+2mLLhty1rmUWyQrPRsYNKwckw8Sj6NGGO3weztzl7neBFtWx7NY/jFy3v4PnnkdZhK3Y4Yz3Wps6PSdK5Y72kUPhd0BGXf1sl/rmXrhdQvhr1pn+jB5cPwynqNZ25ubtb+/n6dnp7W/v7+i71v4asYhdlsVmdnZ3V2dtaSW1ZctpBmFlu77TGkh2LoJrP5VtBV00TmOmtM2xbWFAJ76I4I0jCkd2sskbZ7vPJzTeugNnjj9q0QrGx7Cn0dXmwe9qKR7NdsNmv98P298fV4bwXttrP6Jj1IZAmyB8c4SXKuy1/Rnj1RR032+FxoQB8NfXgcjmItC9m2+eGIEBgK5YiC9qYwe5nMv4/vsELuRQW3t7dP5NrGxrBT5heSz27DiVavVX5ndO15zUpD8+pLkI2+ZTKNhaM7j8Pzwlg9PuA9jALzs7u7O4n20hnd3d2ts7OzOjk5qevr6xfhx1cxCnt7e/X999/X4eHhBMbgh7AW7JLXZKZVTey2aqoAYHgqxqpHJWQvylCCJ5dFCtmL899WxlaExp/532+RSq+j95w0Rj0ozF6noQOPCUVmRedIxHysqif8YIwIqPvKbxsOkz8zP1OBpSL1fObRDk72u5TUc+3oCBnjxEorUI/DkYiVonm4Wq0mZzH15MSVRWkY0ou2vGVUwdy7PfqBHCWvrXQpf+WdEzY4XEMbs9msGQbPfVW1F9igrMwfyLLDNZlbc/+YI3Zbu5y8F52nA7LOiXlJQvZy7bkow3LnggBHyIwfsjwDSfPOdPQGuYx0lunXwcHB5Eyk30tf3CjMZrM6OjpqB97BKOP/LAwY5I0etOFw8jlPtGqq4PltT9FKFcWKQrBV9jOcRLOQZwTh8I/rUUq8N6Fq+q7h9LqsQKqebvLKZ/RKYM0HyIvZO2Yd6q+r1+9Ren6JDVsGzKfE8Xtwi72pxJGtlP18z7U94Xy5uuGqdd6cjWjCHTlGPsvotDeuvM9K0PLoa2nPkbIdDhSnIx/LnKOYdASy9DXHbuNjpZ0evMdb9Vhqa/m28bPym80eK62QR0Mnmfvwsz8XWbF7HVoO0wliXJ4zt+Wo3BCZ9R5rz8UHhrSrPpzZdHJyUgcHB39Mo7C9vV3ff/99HR0dTYQTgUZI8tWYCL+Pv63qv9OgqiZhc0I2CR944wgE46sehd8hnL17KMdA/7y4Z7PpqZiu9rCQ9CAq2rWi8O/ENd33hFgcMTjissJNo+TPrZgYs/cr2HBxj+fMMIlhQ8aXBjpPBnU+yRvabGCsnPnOL7Fhzo2b98pWzcvV6nEfSDoL8DaNumFKGxzzBspyYMu3+8mLZOAzcgbE6giAXE3u4yDSsXLGSLtNeOToiblzhFz19OTaXAuWLxcm2KA415BOTRpYlPTnjhZoOx2Q3jUmnCrnwtBnVPFlxRo7ynvRZDocyPbR0VG9evWq3rx587v58MWNwsnJSZ2dndXe3l77LBdLHk3BYjO2WPX0OGrIBsICRTjPwsAoeAORPWf+x3C4LNECayXOM9PjtRea0BN99vPdTi8C+pg3W1UTJZWKinvTEPC5v+9FSTwnQ2Y+t7KuelQAqWzSk7JxzgXDYjKOn5ARc8uzDNV57m107FnngvL8ptJPmMfzAQ+AQR2Vus2esbRs8AOvHcX5PQnca4+c+fDLhWygUN6usEtHgN83NzdtPH75D4qM3CCv/kwl7fWbEZllxQqUv1lrvWS95zMdxqRceynzObd+Tn72a8j3+xlVT8vGM1qww5Xr0FEEL+LZ3t7+3dHCFzUK29vbdXZ2VkdHR00JOxSzB+7PUgHYI7Y3akqFi8dE/a83EvmYAU+S/7bF7mGoqejyB+rlN9h/4FDcXqYXqp/JOPnfXowVWC+s7XnAadQYlxf4OuiD/mVy1mPmeit+G03PVcISnv9sOw0uY3KE4FyVjYF5kVFnRm3pEadspKH2371o1u3wfCtpz2VCSzg4Oe4sFjB0ZHgmE+Eemw2MeWGljieP8lqtVo3Hhi5pz/ORkKTx8ZRV88a/aQ9jt7293fJMnPlkuSTvAg/wyDNnkQa151z+Wsr5tVPiyBZeeL75Wbf2+Zz3LRwfH9e///3vX91H0xc1CoeHh3V6etrOWIHS+ltgmDC/IMceUdXTyAB80sz37kkbBqAEKyKEHu+OxZC1173F57CWvrgKykaBPmcFi8fvRcj41nkcViYWrDRMGZLTrzR2PWKBo4x5Vs6f57WXv1lnzLne0QEGIQ3XuiS6eY3sgIWngk+56Xn+/HY/jGtb0brvvfYy6ku4qJdLSf66DUM9jNnRkxP4/rHxdb4OQ5zzkZCSP5/NZq1Udnt7e7KJ1PzF8WLtpoOV3nvOS8q9jZfHNZs9vgBqY+PDK0n39/drb2+v9ZXTEGx0eZ6jxnQYnotEniMbBDuijtosu/DL79ZmfuyQsI62trbq8PCwTk5O6vXr178rx/LFjMLm5mYdHx/X0dHRpFywarp7FIHj86rHJKMXItenonBUkEp6neJOok36yZES9A3FgKdko2AFmPCIx1b1uNMUgVjnbVZNzxzqRQmpbOzpprK3174OaktlZa+PtoDUcvF4fPaIyO8k3w2leM6d//C4MvfkfI3HZIUI36xkMwLDCPl/e46ebyiNA3OYHnwPTrGHmhES9/DbEUkqJRQfY0HJWyYtgwlTWSky5oR5iACc1PXc8hlQmZUSsBP30E6eFOoxwyM7aqkMe2sYZ4GIgNdhckR1RnHOV2IIkt+0m3Lxa8j6zdGC15ydlfl83iq9kgf0xzSbfThpFaf79+xZ+GJG4eDgoE5PT+vg4GCC+cJ4L2YLJuVZhKipbFOh2BtHaGwg7O0kTAC5TfrJ79VqVbu7u7VarSZvsPKk2yhUPU4gQumNcB6vvVcLpMNv2rNnZ0WbXl7Pq3GykHZdBYX39ylRgyM2hJbPbIST9zZMNgDZZyti95Pv0vOtmr4m1TJgPJ1noKSsDFJJulzQ82PFz7is3JBFw4PmlX/3PGc7Mqks04kw9LRcTt/TYGfEBgv+21PNMlzLNLSxsdH2RWRUT4msjW9CfuY/6zznxfxKh8MG3x49+gHnAziLMlxkJuEZKBVuOl+MfZ1x/hjlOvA8eAx2FojALJ/w3LxH1ngX9O/Zs/BFjMJ8Pq+Tk5M6OTmZCBcDtOVMg+BD7lw9kQlc2ktPks+tOBK+qZou0vTKHE5aIGezWUuwWWB97osXuIWsF6ZnXyw0idNW9b2qhMB6Xo3bsXFNrw+F2eOF5zYNmz0tz0f+pDLveYYmVxVhEJxY7kVXli9XHSXEl89NWMpjh3dWupxCyrh6sgcf0ytPQ2FP3rJsKI3I2dBJetDJ23Si6EMm0Ol3yiJjxCjwXSaQe/CQecjaMBzr9WNF53HZuJhHEHxwYt3wMDolIbN0wuBL9qHntHwK8Tzn1hhDRpKst9SFz+VpvOZwvl+/fr1Wv3yMvohR2N3draOjoyZUVrzG9vF0EZ77+/u2kaXqUeG6pt3CnQrLk2iP2mGir7OS6HkDhHWGQugXnye5P1zrPqXiy9A+vYn0yhm7P7MXllFFjjP5Zc+SBezxo4gszFbKjoD4zDxNcgTQU1B+vo0U46C/yIu/TzjPeaWUAxvQ9H55lhO1ni8rHj/X47MC5bs0pF4XPaW3Wj2+d9w5F0419ZqyXKQ3asqKnXXOFjzZ3NxsL4TpQV8oX0dfLnvlxwUJmaexofA8ZLTl9pBVSo4Zh50Gnukx54/nnGfk/PyWKMFef2/teX14nM5buk/ZD/q2s7PTCnm+WaMwm83aSX4YhapH6MEbiLieBc45Rwhj4tNc63CwanqeTu/HTO2Vyfn73t8oCJQUz+TH7T7n2aRSTwOSkQbXppDktVZC9LfnBVq5O1KwUUmllp6mx2aysjOlgbPiySql+Xw+gTQMGbgvPR5meO75SE+eqM9KyDw2n0yOGnEKeh66fycfUvGhCGwoHYmh1NLbT4PgNZGRs8fnAg5HGUBQvbmGXxRfGJe3kTC8CtF+FkJgGPxOB/PZeiEri8x/dqrn/Jp3djxZqzlPGdVBv9YY5H02ZMkT98dGtwejWR/RLm3t7e3V4eHhb375zmc3Chzvyiv/qh4Zg3LPTSx5tEWGxNzn0KpXFeBIxNCDlRHPTa/aSiAVFYvC3k0q3d5ip10r0fR8UmlBiX2msPpzwyFWjNxD/63sXCfuaME88tzx2Tqow3OTXl5GQ26XPgEP+dWQhoLos/MzTjib78yTlRTXpvK2h+/ve1GOecXvXPDJP/5mrAkB+DobCMiylXORWHnKpteQn2VnyGOxjMGLfK7HYZ74eueQzPtcdy5Tt6xyb9bfIwuUmhpBMJ/hjWG3XpSQztNLUc9hyHnzPinzJ41TQk6eY3i5u7tbBwcH9fPPP/+m8Xx2o7C7u1uHh4ct2QMzfDhX1WOSyrXG6SE6ecY9HM1gLM6LFaNguCcZtU7JegKtmJjkXLD0lesgh8deJPlce6nuP33OBOg6spGxAK2LnOh3eu8ev3HRXGwow8S/IS+6njEw75gn55RYMMgBvAPX7kUJ6eUhK4Yv3E8ratq3551jMX9TBtIA9PriftIHK1wbV8vgOh4arknPkvJMruW7NPTOTawbsxUWstAzXDmvVoJV1XI89tBdiZQymiWWQEV7e3sT3dJLIqNT2IBno2lj4IjkUygjM/PT37v0HYRjXXvJJ9rmx3osd3zbKBwfH9fu7u5vihY+q1HY2Piw/RqjYC+NqgA+Iyy098e1qdh9jUsnDeF4c1rvGIucwKrpouS7tOzZhiMCX+fFO5/PmwKzB4Dy6RkpU3rafNZT4FCvn74m/weic9tcZ16kd7IOWnH77nfvWtrn0DYMLkbARg55AVbsJUmt9CxHhjlQtsnLhJZsWHNu7AFiND1mK+u8n3uhxI7zmY5ikzzWLBF2BJLKOqOzNHA2APTDytkKNCPElNWMnnku+ypSHqseo4TctEpeg70HTiQ7MnTOgleK5ho0OepJmeqRk9pVNYHhcoxcZ5SBNWfHz5EW8jqbPZ4F5Zyeq81AVGhzf3+/9vf3vz2jsL29XYeHh7W3tzc5g8iL3yEb3oItuBXzavX4Amw+z7C1aorbZXTAhFiIoRSS9MzsgfY8wDQmVY8LC+HmmXyP92rvu6q6yo62vTjt3SQ0kx7zc8YuIwDflwba0ILniXucTO15XlYQnmO8PxQ4v63Uqqbvfna5J3MG/+wwWOGmcsj+eTzmsdvvRQn21vOzlK30fJPXOZc5D/Cez7OUNClhCD7zb8jtW3bSIejxzp/ZCKQiTucpi0cSaqFNvO7d3d0GG2Vi/Tk42Yqa9eFojb7m/CSh6DFKs9ms7btY9yxH/+m0peNgZy2jP9YcRoFIkDY3Nj5Uw+3t7U3ynp9Kn9UoHB8fT6IEBkJ1AJSeTiZ+udbHZ8Ncf2/hMtRgRZeGo+pxEnIxoVDSgq/zINLTyO/cJoSnZB70cELayIghoxP/pg1fB2+8ADNk51n2QhwRIJxWXO5vL+LICIzn9RaM+Y9M0EfX56en7vnyc9NDy3lx3zzWdDycMzCfzOuEUnqy0FPavaglyf2wN+x9HN5clwqo1z8o8xuWqTQkNrJp4O2sZCTKvNlBms8fj69Hdmxwc663trZqf3+/6ZSMornOcKhllP4RgVqWkTW881xH8JV+GL7ic5fq9pzKjNbs5fccDcuODWs6zMgp4yfZnBsJP4U+m1HY2tqqg4ODOjg4qN3d3cnhc1QY2BCQBKqaev38dkKx5w1zLaEliiCPAoYcTqey6E0e93Cf+7JcPq3wsFKiX6vV46mUhivshT1nUNIg8Bz3txd1oODdFxvKVIwQi5f+mT/mEzzAWNMvnulnpHHKg+LScFhGDMlwvZ2Dqmo5Jn/maxhLQoUmR6rMbU+GcvGu89B9Db9zgTtCsJNiBynla7lcTvIFtA3fU7nyfbbTM942pMmH5ImNmKMz/3h+kRMrWTsGPSM2m83a+yAODw8n3nk+07mO3vw5AjWcCCRpWUm+Jh/tgMK/LK3lbxt+8ysdO6+hnp6i6ssGMDecbm9v1/7+fu3s7NTNzc0TuXyOPptR2N/fb9AReNq6hC/K0uVmVjwo0qpq93uhp2cEk7Ia4WOUyi6VZS9Urnqs5klFzIRaKPHsEHaXWHJtCmB6jhmWI9z29pxDQVh6eHnPk4e/nh/DLzlWC7mvsbdGu+n1ZUSXbTDW2WzWKpG4Nxe+++no0ePy3M1mj+9CNoxg3psPJhuAjxnyhAbWQZY9iCvhmjQONsg5R7TjNeJ2TOnh24tO4+LnoNToi2FIK0LaZuxZr08/fb1lGoQBRceY6LfnG2O6tbU1eXWvZdLFBI6uUjfZabMzuFqturmOnNMkK3XDXTjKXqOJgjCftINTRaRifQSvjo6O6vz8vCvD6+izGIXNzc06PDxspaiEWFaOGVo6DK56XLQsUtq1dbRnwYTnKwcNH9mjz3AdykW3LmLgO/chPUC34dAu8cH0piws9vp9PEX2xZVJFnwn99NTSY/KiogfKoBS4VhZ2jj3QudeZGTD7YjBSsdYqp9LeExZMs/126o8d17U/txht3mX0BB96MExHlu2lQYBBeR1ss5osSYcQSR0avL8WeZ68mL59LN9j5/N3FiROlLO5DYynusg5SeTyBlp4dHjBOzu7jY94v6lcwMZgfD+BMtEL2rLCMXz7pNVvU5saOycMe6eHoF3hqxcLs547Eyls+OcGn2iSnBvb6/29/cncN2n0GcxCoR4BwcHzbJj3SEGboGwUrRScLiU3qZhBCwkhsEKyEJno8AkQ8l0LxQr1fSgfI+v4XPwUguhYQzaT6/OirGXPEvPsOox0YbSTL6lQpzNZk3xE3VgEDKCg0epcK0Eesk0+GrhzmjByjvlwHNA5AlPsqoo58KylUo1lbZ5BFl5QAkNJHnuet9ZZnLe3a5lzR5qbsBKPtE2Y+d/G7GerHoN+hk+2Thhq3XtJP8svyhd5t+J8lwPJE7Z/GqHJUtM6TfHZ5P8dUVj1fRMLcbAXDjv4vHQT/Obfjgv4ujJ7TK+lBf6RTuZk+tFXTY0jpyZF3Ie6N+vahTm83nbwUyU4OojmJKLkoXqypV1nhGMyASzz7UxLEO/vMj4cdlXek9WeG4nBQmP6TlF4vAysUw/04o1Bb03sWkUDFNhiNKAImyJp8JvQ1zpTXkOerCEDQZ16OkpuT+GAtNb80Ly/3xmWfJ3hgqyhJLn2+h40TqaMX+tzFIW3R8rDD73b/hvqMFjJpowrJLefUYRKdPmWxoGy00aFPfDn/sY6tlsemBgrrF0kNKxSQdsPp83WBAvm/4xFy5f9+GEjjIYL5EtxsCeffaHPlvxG0bz+Kyn3J4dqfTaWfO5w9ryxlqg/4zLz/GcZeQFj3ymHG0RXe3t7f2qU1Nf3ChQI3t4eFiHh4dPKgWM+UPO9qeHx+fOIdjTrJrCOFY2PS+fdlNYYTAWl+to34qiFxL3PPYMTXMsDkGrHhVO5gPyORn1ME4rAI+N7534tUJJrwml4wqR5BuCm0R78MvzDLEQeguENjz3jKvq6UYot8GizGjIffDCMh5tSNKyw/WpfDwnOdf+vmco0nN3xROGnDWREUBGsM45ZGWN5SLnyBEkxLxn9Jc5MCvMVLLIdUYvvm4+f6w4SmOW84zCS9nI6Jnx+5WtGR2kU2J4NkuHbaRzHLSVBsOf+zPG0yPkjrlb54TRZxfPWFdiFJxjc4VUOkjP0YsbBSyTf0iiIKhAPOlFp5D1cD1DQ97aDqzQe7tWhl29H+AWGxJb4owE3Pc0CBkBpELHOPYURpanWTgchufiMe96igB+8gwLnCMCK8we/GFl6aIAK8KMAPIte3yfoXKPcnHwmQ2U++oo0n01fw1R0B87HTbI+XyUpK+z8sh5NtyQsuxFnTI0nz9i9b4u23ckklGRlRPK+GNt5Xx7nhljwm+pFHme2/Tc++1nxuXNS65Nh8RGAOfE8ogxsJNDv9ZFjh5bj3f8dj/NSxQ2usfvfkEWM6dnfuS823F27pSIybzx2oO3jqDZS/FrSlNf1CjM5/NJGSobTHowD51EMGACLwvhbytmW0pCIx+gxcYWe5dpHNKD4TcTkUo2w2B7COmtZ7ifXlBVP+lkj4fP7d2m4rMCZFwJDfl5hoXc7zR0jGW5XE5yDKaeF5PKsKqeVAo5p5AeYMIg5iHj9nXuqw2+F15Cbelp8pkXXkaEPD8VNzxMheX+w3PnrFzm2ZMBnp3wUI//5gH324ny//Amr08eeQx2DqxMzL9cC+DrbsPzaWehqiZH46cX7nnLCDUrxHoyybXmqylRgp4B8ZrPqNaRKMoXuNTGxxGP73EfNjY+bNrkOh+JwW8bgcx7pvHHMCBvtPGppakvahSwSsBH+/v7kzDRSWAvcoc87HT2gjDcYC+TY3LN3MwlpKdi78UeUEIHuXBT8NKLTIPAPbnwrPzBUw3XZAid3oXHYmLRITCJs3uR9KIMLxoWd49SWfV45PkA18UhcCVLzyPPcaaxxAg678SzPb+WnTTIeZZSFjG4PVMaIJTvOh47L+OxOmfgz81DPuvJVcIuPZlIjxhl5cjCz0mvOftib9nzkArO663ncDB3WSCQPM/7c93ls3IebDjclvc79eQ4DV2O386NUQvDlMCYXGco1XkZjDbX+B7fx/MZb5axWw4NU/Feao4D+dS8wosZhfl83upiyScYOlqtVs37x6La44CR7HZ2+GQmWDj4zorHeH166A4x/XwrB8biZ62LGNKjXadQ0hPOxWbhdrVP5jeyXXsg6V3ZuGGcvAFsNnt8j20qKC8m8yPHY8jKn9O35XLZ5sXP6c2nF4l5+hz1lBqLjIiTz2gvo1bzL6OrqqnytxzQJvdZpvJcLsbjHI2VuftAmy40yLVi79/RVH7vQg3mp7eODJ3wXf5vw2Zv3acTpIOUkabxcJeIep6SUKC0i0Fh3B6v5dBGB171ImX+N9yYEQT/2wimfrIO8fwY5rbzaacUsuzwvx3G9+/ft0179CNRC+daMQo+8uJT6MWMwt7eXp2entbZ2VmdnZ3VyclJ23lIZ+mkE2kWNq7LUwUJrbjeC3S1mr54BEbZW+U+VyukR2vL7MVWtT7Zy9/pffWiC+8x8PN7Cmm5XLbx2LtDcdvDsPLP66qmL1Hx8yAbSkdLNkJWOG4/28nn2zBgDDJKyUgqIwQrDc+rKXFZL2LPBbxMLznvdf9S0Xm87rONAPzs9dUYOoYp+5GQidtjjpz/Ss835Y41lbLka6GMgN12j7/39/e1u7s7iYgs3zlPGMReBGg+8Jnv6UUU5puNMOsdw8PxE15rjljz+V7LjiKRKeTZ6IdPbuAzw9y+19EC6x3Ff3t7OzHg/Pb1NjQ9ZxEdSh99HMfH6EWMws7OTp2entb3339ff/vb3+o//uM/6h//+Eednp62UJ3OeXs6E0J+gYXrhLENiRWoLeTNzU17/wL1ySYWlndG2yPzTypeUy4Yf85zUnB7Hv5zZMNnBYlCgJ4LryGqMdynXhs9z9zClm1bCdu4JkwCP214PCYLvRV+5k8YiynH34MybLh63q+VZs8IVNWkksWfm8epuK0U03ikV21C7oAUrdjcdiYfWRNZpmm4IXllSuOZjg5/24CnV0u0ZFmj3TRcjDEdtOxLwjjpTGWEZsfPspTtw2vLtXMIng+iG+sers9NdXt7exPPHIPB5wkFut/w5O7urq6vrxt/uN8FNPQLZ9l95m/rW0Ptn0K/2yjs7OzUd999V//4xz/qP//zP+tf//pX/etf/6off/yxDg8P23WE9Jubm80q4vE4PHKI59I6lAgb4TzI29vbur29rcViURcXF3V1ddW1/P7f2HsmG6F1YXVOQhoFT3q2k9FGKhXzIT12Flp6ralc8Yy8t8ELrGfsaN8QTl5nZZLjoU82tNlHj9VjSFiAPvFjY56GcB3kAB9yfL6G/+0QeI49J5m7yDm3Ml/nNLjfKVc2frSVkF8+jz5ndR9zbpjFUbT7ZaWSspnGwd95vwDrx2+Es3PlcXIfkXBGyhDyYacC8tpFprxzOWXIzo8Nq50Gy1tVdZ3QxPqJCDACh4eH7RBQGwV+EzX7YE/aY77u7u5qd3e3OXOU+AP/kHfFEFV9cFzQq56n9+/fPzFYn0K/yyhsbGzU8fFxHR8f19nZWf3www/1ww8/1HfffffkhD6HadfX13V1dVVXV1d1e3tbV1dXdX193QSd0AhP6ObmpuF1BwcHzThgRe/vP7y6k1zF+/fvJ5n2XKSGN5gUT3oqPP620u/BPvz2ok+PEeF0bsOCbaVA3+xdpseTAltVk/ZYWL4vlaOVlseXPPM403Ag4K67ZvEZtukl/9yXnjeV30OGLOxdpnF22J7G2pv63K55wbWe35SJhEpQGr6X/qGIMzJLPgGx5hw4mvJLW8ybdCYcufJ8R4kJX+Z43KZllfXWm6NeNIRhSI88lT/88E5nPncyv2doelGl280fz0tvbSDX65LKe3t7dXBwUKenp/XDDz/U4eHh5FjvjACZWxs9J7Bt5ClDPTg4mBgZ3pcAP0BK4AGw2c3NTdvVnBvc1tHvMgpktn2+EeGsFVxVNQNxfX1dr1+/rvPz8wb7XFxc1OXlZTMKho8cFVBpNJ/PG6NcHzyff3iZzcXFRWOqvc/Eb3venz0UKwJ7azYKhntYDK5wyEjFZGXVO7aA++1JWAmu80AdxqcHtq4fUEIuvi+NhyEgjyeVJTz1YvD4UvnTfkYh7v+6aCT5kQqw56H1DL2jmjQE8Cn76j0XafTsHCGrOReOUDxOxpDK3e26b+Y/4/aufXvzCdt43tK79t+GaG5vbycKtTcu0zrF3YOw1sF1Hj+wcR7LknNnr99z4wITry+vPyv53Huws7NTR0dH9erVqzo7O2tVlyhh+ndzc1PX19d1c3MzeS+M9+s4AoN4Bkl95yp2d3drNptNeIAB2t7eroeHh7q8vGzRxqfQ7zIK6XEvlx/w/cvLy6bkHOY+PDzU27dv6/Xr13VxcTGBfBaLRT08PB5+5Zdp8Jal3d3dJgxOnmA15/N5LRaLltSxR5NKMkPjHn6ZCstKqhd65kJP5W0PNGGGjBQs/AiO++1x2MvEY/rU+Uuv0DBaKoH8nH7zG6XihQysUFXt1Zp+W5WVVuLnfJ9eXM8w+Lvkbc/bNrbM3GQUhwzbe+dePLyMHo35Mj+sAStj+AxlKauVgitWUmnl/Hmsvg4F6d3Bvo+xJc6f/DR/PPcZsblfjh6St72owp59rj/3jyiFH17h6yiZ+XJEkIq9qp5EuGk0nNh1RLyxsVF7e3t1dHRUJycnbY8WckC/rq+v6+Lioi4uLur6+noCodN+VU0gyOXyQw4KvZdRKeiJDYb5Q84BnfzmzZv6FPpdRuH+/r5tPnGS5O3bt5NFgWe0WCzq559/rnfv3tVisajr6+sGJaHIXClBlLC/v193d3e1v7/fmIHly8w/+yS2t7drsVg8EdSqp3kFe9j+39emAoBsOPx5Gp9caDwrDYEXDH1G2Tz3nPTE6VsvmkgYJr00j/s5D9D32wO30Uye472Y571x+7k9KMuGu6f0PZZUql5YVjhZIea/HXEmHzJ/kVUtGU0az04P0c5BlhBmXsh9MtlJSJnJiI8x9ubW8m75zdxPr13z0xCXDb/v7/E1jUB+btikV8WWc+x1b9jQhgJFDr9R2r21hLNmBxWkhOff3NzUYrGoy8vLOj8/r/Pz87q8vGzvi6aNdUa/qtqBdsBDe3t7raBmtVrV4eFhg9qQt/l83t5pc3p6Wqenp3VycvJkjnv0u4wC2L1Do/Pz8w8NawMHjLq8vKzXr1/X5eVlY9Tl5eUkQbK9vd0SJ7b+MIRJNWTEIiPMIsljeMGCbw+ePjqk7S20qqe7IGkLsrDyHRPn+3x/r2KE3/ZM/PyeQrf3xtgwJNybygFyqAwv/H8qXZ6THpz5ZMNAfqSqWnTIYkB5pGLqKX7Pn5VURmQZAeGF2fDZeKHoMgK0rKQcOElqOTL5MxsKeGEYiSiPti0PqbzMY8MozAFrz585CrFs0U/zOR2YlFmPjevv7u6eyCVtwm94nV58QkSWd68l8x4nFMjE7a2rQMr8S+bick2D7/s4nbzXiV/v2VguP8BqeOi//PJLvX37tuVPMQrMV9Xja2YdcaLc0YU4x3t7e3Vzc1M3Nzd1dnZWOzs7Tfdg4KxHSIR/Cv0uo/Dw8DApBb26umrePBAOi/v+/r7evXtXV1dXbTCLxWLCHGh7e3siDGCW8/m8Li8vJ/XBhFc+a52wiuolFEfi31X9vQf8b4Xhz+3BWCHweXopqfBysaVhYNwWEPIlGdoyFgyDKQ1AjtUKL2EhK7xUfgkfJCWksbW11byixWLRxsx8ZZ/8/HV9ZW7yBE/4kVCeeZm86M2VDV/yLRUkZO/T91j23Ad4ZejMBhKeGe6wkjWv3VcbVPchI9SEkSxHjg5s9N22n2F4zP1K2KxncI3l8zmUz7OjmPi7PfSMnD3++/v7yaFyvteOrPWM5coGwdCSDQyoyfn5eb17967evn3bKiNBRryzveqx/NmyDHLi9WYnGaN4cHDQZAZjBjpzc3PTjMOn0O8uSWWSSJ7c3t627DlW7u7urq6urlpy2ThgKqxckCwKXrGIMbm6umrJ57Ozs4k3knsO0tuu6m/tTwXeE35/ngvLi9MKPu/nM3uDiWGv81jdz6qn3ibXeqz5XF/DPNkoWIHZm8x++HNHLDlWe6xEl9fX13V0dFR7e3uThdHrV2+OeKYrfGw8XMljRUm7VqIZIRrOYi7sOSeEQpvw3Lvj08NP5wQybIRs+TuUhXHwJNruGdiesbJjg1K0p9szfvCFNYqxMv+8jhzl2KC5rLQXidFvzznP9g/X2djlGC0f6xwaj9PK3gbBesXnsBEpYGgwVkZD0FtA5i45JRfQyyVtbGzU7e3tRHbtfHKdc7iz2ayhMzc3N03v9hyZHv1uo0C0kJl/C8rd3V1jDtdgKRPesUdC+xZEyk+vr68blocldNIGgwGj13kovdA/vR0+S+HMCCCho/RcerTO67SHSChIn3uYc0Y0kJUD0I+VhhdlKqxev+xVJuRlPsEPiOupI0eQqaXOUB7hz+igx7P0Qj1e98Pz0YsI+G0ZzSiR5zvU9/Nms1nLhdmDzDO5sm85j5YtoC17jb42lbv5n9GfP+/13e8Qp207AMi/cffsP/Nhb9pG0f20YrShSmO1XC5b/tIRguUAfeJo3eseHeE1XDV9wxv/+0wsG/aMDihy4b3w9/f3dXV1VW/fvq03b960CAHIHF3Js11y677nvOd82nHEKLqEF3TFe7dub2/rU+h3GwWHuoQ/7vRy+Zhs8YYcb1QzU2BIzwP2tU5wIxwu12IntE9hzOdVTYW051VyDWP1pPCZqWdk3EZPyTwXRuOZOBIyf7yonceBevg/bRveM48NrfUiJD8vS2l5phd2em94wl4IvZMgzRfzwQvHis338CwrfPPDCW5f45M7Lc9enJZ5eOE+eM4dsTK/acC8TyblDHlxfigjl/zcc5HRQ8qG+9SDnaqmEafXCGPv5QUyQs/vsl3+T9jJTqEdScsR96JbjDJ4TBnJw/sch4tdHHl6Ljc3N1vlI5vV5vN5yyO8ffu2fvnll3r9+nUzBlkEYv7ykxFQruk87cGGijys2wVVWSwWn1yV+CJGwQvVUAiWC8+ekInJ9T1euAnFwCAmzaEgAmrh86Tyt3E7npVQCNT7LI1B5iRozxgqCtF8MtadCiG9YitDeznmh/vg8Bwjx+f00YuFZGNvcVqR+RnmEW34vuwLi7rXjhc8R6zb2OVCNC+sLL2wvYjTU7Z8+t3T/DiZZ6MFz/K8oUzIZ3Rjb9ORhZUwMJcjNis9/7iQIJWc77fh7kExhtaSN15fzHGv8CCdHxuShP343PfZgbCR9+eG5HJOcj6NJvhZGR07srIcwi+cSubNBtAyj15xkrmqGiry7t275qFzbEUarEQkPA6uybl0hIMcA6tjFAylAWGhfz+FXsQoYN28oLyAPKEO/dJyQ2kQvACt8GxYsKpVjy8aZyJZMG7XhsH/QyzY9EzzOvpn6sEc6WX7vh5sYyPozy3YVU8xWXvoPCvhk1Qe9mI9JvfLbaT3lzAWv51At8J2X1DGPg7AhtLQgyMI89k4eI47owV4BzTk/JbhifTogFac7M15pQ+M12M3r9IZQUY9Vpcqm68ZUfC9K9XWRavmWSptf5/ylHPL5+nxm2eei+eekwq658hYmeZa4xrngHrP8bjT0Bo+SmUNv33+kQ0C76In73l1ddWgIuQpXw/qCJNnewzr8lXuu+UYMlwO366vr1uk8sXgo6rHl2UkhGSDYQWfYV56IpAjDnsIXEfSkkHPZrPJDmgUjCtUYH7PK6vq17mnV8V36fUwFrdhIesluNIwuG9Vj+VqPkDMfegpgTQcNgJWrFY02S8b3wzre3yjfRauFSzkMrvkiUNyIjsfLWBDmRGEPdw0eIYZ4Inl1b+p7kpPzu2gRNYZ0t7/KSP5w9gpKySxmGeBpSOQUVlCro4gcn1lNMVnmdNz+/ZokU07OMyj58P39PIKPdnz/xnt+fqesnTE4++t0HON2zCgb+CJq75sIPb39+v09LSOj4/bPgKSyM4bGA2xYXMEQj/WrSlHF/CnF+nCF3QrBUAYhHXvSEl6EaNA1RELy5tw6JStYU56hq4IU3rpKAoLIiE/zySXwKtAqXZy2LzOy8vFyjNyUrmWPrm/qZwM+WRI6OjIQsd4De/YkFZNYRMvareb43N/GZv77r4wH15s9kxTSfC3S+UsqCw65sBtOFy+ubmZ5ITu7++fHE6Gp0ZOA546IsEQ+JRT+ulclAsGMhns8aZDAJ+yXJA+0n9wXytcG2QUFX/bgLFuDH/YqUnv1zzqRYPpdNEvO2gZxT5HOX+06XsZN8o2I0330zK1Ltpx28iC59CymFValvWcL4/JhtHrHDyfs97Ozs4mZ69Rbu8IOddI8q6qnlzP9/6NnLDG7DjR/4QqE8H5okYhJ5QfFHYqAxNCRTuZqEsl4Pvw+tgjcXt723Yz+/AoFEeGt1Za9oCyf7bgttoZ/veijKopZsl3NoL+zAaB8WZC1N+t85LTuPZgg1yQJvPL43dUl8aTxZ+bsPjexgZ+MP88y+E2J0bme7dpA5nK8mao15fVajV5ubsXHXJjY9grO/a4zU/klF31nApspZ/k3I1xbPpvxWKe2QuGfF1GPM8p4t5YTFZqKSfmSXr/Xm9sVEz4yz+Jp9sw4ABw3zpla8zd4yUaM689hl7hhkuANzY+7Ic6Pj5uZxxhEEjk5lEbdkYy4uG5jsJ8Dd9xnQkjBF8MG/WKITJv8zF60Tev9fB+Qhx/z2BtIaumYXBP0dIuk4Qg3d3d1WKxqMViUaenp+3MJBY5npV/W8BzolL404JnKA55QfQm1N/bwPCdI5k0CjwXYTXZqzCO7cXX8xTzOy/Q3jO8eB3R2DjnuwBsaPFiWKA9o0B7xogfHh6aYeCHZ3ouMyTnGuTMlW/0o+qxBLGnJDES7j/5iIxgfZa+DULy3t58z6vn4DLa5yj4NPCMtwfjmOdVj6WPvTxVUkYLnnffYy86veCUtTRsVoY9pxJec62dyoRRIeamp/wMH3k81jFej8iEDcr+/n6dnZ3V999/X4eHh7VardrmNIyZ8weJjqQTwlj8XMsgaz13PCPHdvwyOsJZYh25qulj9GJGAUFgElnYwAgbGxvtCAvCmAz5EPAM7fCeaNP4JIxFIFarVTsviV3O9A2lBWPT0/DfnsR1EYL76YXQSxp7vPlj3iG0VlT2NGinqp54BRY+Qyn0MRdqepk2ePbI7fnZ8+cee0SGZFLZwXMW+DqjwPez2Yfkbi+6WS6np3N6sfm5NhxZAcKzXN7n9vwsjBHtp8ziiJDTYiFn/sTzZjnx+OjT4eHhRGFxaKSdB/rRg74sj1a2hiVT8WfOKI0u85xj8Pd8znORi14+yPLXWxPZD4/HPPOa7pGjPp90AE9sKLI8mmMiTk5OWh5hc3Oz3r59W+/evavLy8vJHKeRY3xeOylfuf68F4L5vr29bX3ikDzrXOsK5ikLKD6FXswoQCwasCySZlZonmgz0AyzF5LelkNAh9z2kl0qhqJCmIwpp5WG3E//zmjH91mQncxlDB5vhoyQk1lVT89Ggkf8Nk/ScKAs6K+NbArsc0qVawyDmSc2SLTjvmTeCEoDk3LkdolAWBg5HntX5ok9XPjqxQdW7KqnjDrsgdJGvlEQebOHSR9yTDa8aYAg2tnZ2amDg4MncmCeUu2XkbWdDPPDayENas5XOhr8n1GgFRv9T3l1/wz/IWupCxKK8pygY+wwrjMI5n86aFaUKGNotVq1wzY5BfXw8LA2Nzfbkf/A1i6X7kUxbtM8S8NrubY82tHzO+57erX3jI/1y/QiRoGF6VAHWAfsC+Yb4+0tCguEcwn82JNx6AzOtlgs2g5ZH2ZFlIKxWiwWkwSZw0va9w9kATfmmTAA3pTx5Pl8/sQIpPJgTCgdrrfhW8d/ng0/EwLK5/UUAv1krD3YIhWG8flUduabDasXQPbTjgA8yHyPF05i9tyb5asuk855t5EwtGMP0p4qCpvTMW0omIdUUp4j8yTnhjHQxv7+/gQKc2WL78VJoB084jR27ovlzkrYTlsPgkAWsyTaCjwVLM9EuRkCtnLjb2Pk8IRn8J2TzB+jXtWaHQbPsyObg4OD9jKxvb29ev/+fTMIjk6eU752DBlDwklee5YVK3ugU0cDllEb457B+BR6UaNgxWiFmh6GMTczJL0qL2hHBXxmo7BcLlsFwN7eXmMgi5Xncf7Izc3NJJw3PoeRyfA6F1AqmIQDEP51Y0xBQWCt6Hr8SE8WfveSgVxnTyahpfSO7Z2l92ElwXdOZtFX+lQ13Z1uPqG4zSf66tAZXvbkjvHkWFDQnsMMtT0eP9tGtqray53oJ6Wzh4eHdXR01IWeHN30jKT5ZIOKY4XSc0GBzxnLc8N8f0Yd5h/X8b+jGstRJkutdM074L2EfVHW8JGNVZ4HvyPE68MRleeZvw0B2bHLuU2yPuopYM9HyiHzwEF3HNnj+9YpXiv+XsKcvzPK8zx5XIYP1xmgXuT9qfSi1Uf8bc8CgQfvzzNLYJQHnYal6qn36DAeDBClf3l52UL6g4ODVgHlw/TWnd3CZxma2ehZoCzIq9VTTNaTZ+/TXgLt9jDtdZNpPvA8jILvywgmPXYvZHuwPQE3XJGRnr2VNEr2wJPPGSlgCPjdMwYmLyzj3MnLquk5M+ZhD+oxn21gkLv9/f3mPXoO+EnF1gv1nfTkfxtI84mqJuS5l9B3HsPjhTepeHrePnPoo2FyHXqOXZ3lZzFeOzjIKMqWeaqq1v+Myh2lpjORspWynuQIoGr6JkajHcw5Pxg5DrYjmZxyxHO9rjEozPHH4LIsT05YyfNtJ9Dz73mwcfmUaKrqBXMKVuQOb2BAhr0ZXnphmXphJZPmKiOUyPv37+v8/Ly9gGdnZ6fm83l7+xGVIxgpC4PHkp69J6/Xb4/f3nYvisiIiEWCUmDBY0DcTk9R9gxCKlzz1QLnNlK4e55/zq2fDVlgM7lqBZzKhkWEMPs5vbJO85T7+GGM9KVnGDPiS97ZUFvxbG9vtyjBLzjJ9+NmtJv84hobDhawlZrxZPbfeD8Q99rge86Xy+Vkl7/5wN82oAk/GFZydMb3OFgZyaec0xfk2jCp5Qc4shfRZBQ6m80axs44HOXkGAxh2YnznAMNUjCwXC7rzZs3dXl52fRKzyDlmsIg2LCgd7xGcl1YThzF9uBMryFHs6lves7vOnox+Ajvztaa75iYHKRfelH1qIjSypvZKHrXgjupy/nh19fXkzPGHaGYqSginlPVLxn0d7SRY4Vot0c9z4Dch8dPVJVeez6PNrJNC4Yjgp4XzzXZLtfYK7QgJ7yQffXfaWBMiT372jTWaYRRFplzstHKPEwqTmQ3Q3UfbcA4tre36+DgoL120TDXbDab7IrOhZljS14l34GMkF+UWEJjCaOlAjQPerJpXhg6dN+rnsqRnb5185Tesb1Xe9GZOMcpMNk4WT4sPziGzoF4rabidp+c3MfRXC6XdX5+3iKq4+PjOj09nTgLhsEMPWEQ0iF2/y1bjhwMz+Z88RzDeuvGl/d9Cr2IUWCCE89kAnshnZM+UEIWaQnx0vzaOyt54CGECaOR2F96HKl007v3fY4sMrpxKNyDZTKEJAGOYstqjsxr2IuE5yweGxMLuZWEF5/HB6XB4JlWTj2Bc3Irk8LwrhcxOJpJWSAcTsw7/7dzkV5gzq/7lmG++bJarZr3yTNddkq5s1/knqG7FYSNkpWa5y2NthVE8tyKkOeYzzgJ5hPKcWtra/IsO2l4s/TLyW5fb35CGNf05C3D9uaJFFCc29vb7WyeHrae0FEaB5fCpgefOoi+Oqq0QWCfyWq1avlHzr1iDBSzOILHQbDsYRD43+uXMaWs9vIklisbDssP40z+waMvahSM53kybEHpmCk9CisveywIIDW3e3t7TVlR9jqfzyfVRe/fv28HVnknIwLoMB+CuR7HOs/cyqkXqjHxXjgsEBQ2UQKKm+sRJBsGiP4lFGCIwdCHr3HfcoH6/6ppuWgeYJhj9aLjs16CzDKQi5H/vWi84OAZkSJ9S/5ayTGOnOs0+rRFdOZ55u+tra06PDxsxyRbYTKnQJWWGS90/rZidRtWtDZayT/vqwDbNvQBrUvO95wXy0kq/pSdHM9yuWxKlDa4xhHKcrmcOHMZkRtpsDx5/fYcOyfmbVgYq3ntuXXxymz2AYbCkVytVu2IHsNZjAVnDnk0UuI5f//+/ZMiGVNG5M8ZDcbF2G1kqh6jY8Onnu91EUTSi0UKqUS9qHohq0PdrLThHv/wJiOUuhUJof9sNpsc/kQ9MbsP7ZmksFb1q3qYIEdD6dWuiy4y6rHnaYjHC4Oxum8Jx/Sw4d6zelGaF4jHmu3w7N7uXSu2nCvGngbDYzX1jJX5ahlx1Q8KgOMF6BM7PT0eQxK9KDHnMR2SjY2NVrTg9397vqwUkBHkjT6lAuCZ5v+6OYX3GEYiFd6o1Yuq/Uzadb7KY3Y04+cnpu8Er6/1XqCEblL+e5GMI8bUC/xtJ8yRAm1a/1DttA6CdR4Pfh4eHtbu7m5V1eRVwYaa5/N5y01yn3WQ+8f3HNzp4olU+lmpBi+yzz1HtefQwR/rr0+lFzEKPQXnQTO5uRi8EPjef7PYOFqZ6iK+xwt05t279zY2NtrEOvHs/RM9j9aCXvUIH+DZZ2ULiqQXovGZlaiF3zysevR2vag84bSJ0snF52fZg+wtjIxkqqbeRCbDrGQNxfh/ey7reEJ7ufmQxeIowmOyjDlaS3jC82pFuU7W4Af3ZKkkHqRzCAkZ2ZOk7z0Yjbmm3+6jvcQ05rSHR81mOcsxUYOdJffRHmwvB5jRQcqG12saBV7Di0z63esZOZIf6TlSNqg9uNLzn84Z/9sguPw984jM6+HhYR0fH9fBwUHNZrNWwcg5RozTvCTfYJlEmSciYHn1m/PMZ68dX+uoKn9Sfm0oc72bzx+jF000pyDTOQ/Yg/HC9YAsfBnikjuwMCPkhHxMCt7kw8NDnZycTBZzehr2fh122rjZWvM/9zJR6QHm2H1vhs8ICKcaWtG4XYSasecCNJ/NJyvsFCoLDH32y8WhhA08T247k7teOCmcGUVl3sCL5f7+w4tDcvGlsoJn7lcaDPcNJZ0JRJ9lZIWFcciohOekEbfzQJ99vX8y4soIBoVPdYyVLDzp5TjcTyvkXHvmI59nJJHXoICJFFIHwN8cM4THjoOXBoExZ4SeRs/GkDlCjp10xqgeHh7W6elpHR4eVlW1IhUfieNxO5IHsrYeQr4wRH62ozjkkookrzXO23LhRJJhoZwr/vbz1rXToxc9+6gn0Hj8Lp8zHuvwMgdkb8oeL4rTixnBxrrjVZFYm81m7WUYhoGs3IylQmamFzIJpXVesa05SsbetQ0CApyvgUxvluewMDAInC/F5z2oJiM0RyBesOCgeJ320NOjtWeZUEwaXdroRSbmk6MCyPPOiZRp1Bzmux2/9DwhmiQbagwC5xlRV5/K3jJhPmZUaEcDxen5stfIGDKaTAjGr4zM8aGYTJ5z5iuhy7zW87rOO3WbVY9edA+yoN94waxH95vNgvwPj3prjDb5zlE2ziL8Ziybm4/vVj45OWl6wTmE1DteU+gZyz/GzCgDDiynJ9A3ZDlf7uT15qOx10E/z0FC7hftfiq9mFGAETDdXhffVz3i6WkUqqbKDK8DoUulQwRwf38/OfLYxyJbCSEc1B9Trooi5Pn+XfW0fNGLxQsqowCHk/TTiiEX9/b29uR9FPTfz6d9eA1W2fN8E+LimQlNmP/002evZ3ib85DOgPvAM3uJrl4kwzXZFpAdC8g8tvNhPnghpCJ0H9blAnIPDM8wpJjjTe8bj9eeb/I8Zc3Rqo3lukW9zrnKZ2QbjIWkfbZpp6Qn9x6j++FInLlyApSSXldv8Tx7yvDYay/76OgbJWoe3t3dtXXgvSP0gcIBw03MU88Y5PPzYE87kEQJRPHmHwbLzzSaYKcA45l86EVMjlqz/d4aXUcvYhRsEFJhIiD8dijjahHjoOs8dYdpKE0E++HhoYWfmUyD6NP29nY7C321WjXvwOG6E149I5FRgA1KQklJaeEzSuH5aQzXhfY9Y5SeaGLc2Y+MAhJScJSTfU8e87nHwPPMF2PA7sM6on/ud0J56/rFmCDnLdwP4CISyhikqmlZreXAyog2WRP0EbjLfcuFyvgeHh7LQe0YcY/nBJ75+R4z8uTPPI89/vWiBOTC69u5NtajlTQ88NrOkt6Elewdp1HIH67PdcqzHV24EooIkDlGZzgqqZrueE7yGjRsZP5l1R4/KGxD44YGaT+dzd5aQ357TiCGNmXgY/SiRgFl7bpxh85V00iBwXuQnmQ+S+/W7xu9vb1tCp5KAPqTnrZD152dnYkR8yLICfGkvH//vrXr3IQVXipyh44WYP+NV+G3I8FTj59xmHJhIxiGYfCA+T7zFYwNHLUnROlxptFL4c1+c4+9TCdDnRDkWXYg/D5a96XX1/R2q6a7Yq2okAuOkTg4OGiKy0Yh22YMGAE2ICZPcHTcn+S/5QaFMptNj9jgup7XZzjI8phzZeOO3GVUz3Xuj5/hZxIJ2kAwXtYKEUQeIJgogJ1C+pTRMXKFDulFXdYjzC3nRs3n8zo+Pq6jo6OmAxLvN8S8bk3bWGJULO828JkfsVFgjt2mCyhMKec9o+A1nw7qF40UcuDpffG/B+K/LRQMHkXBBJNgRNj4m6Qsz2fTEX1CKObzeUsi4a1w4iEYtT1JGzRjiZAXi0M/L3R+p0BbaPmsqiahpHF998X327Cmp8fv9O7Ne4+FZyYO7fmwl2jj2YvK8n7/Ri7A6hn7usgKHpssa1aIjvbMG0eqruwAutvf32+wBglcHw1B+wnnmSdch6J0DmG1etw4Zq87x0M7yJMVkiMCjLiNhZ/vdZNJ4vT4M6JII2VZT8WH0wLcRrnwbDabROzG8XsGwT+WK56Tjoa9Yv5GyXoteoMhDuHJyUnt7u42mUeH0Nc8l4k5M2/cr56hthPAfGUVlOEvz7udJSMWniNgNh+Z7nnhbyJURyUfoxc7EI/OVE13OHuQ9oxhQlbnmHwNpXfG6LHOVpzclxGCQ7ebm5vmreAN+uU7tJXwivtvhct9eCZWEFYCaQySMirxAoY/rkjwQmUReeIT9oKX/v65sDIXXbbrZ6UiTmWZ11kBWWDtELiP68LonvftHIHlLfNKWV0EnJDRBHxwKI7DYf6bnxgAfhwxc11Gy45avcATMjEEYUWTitsRl9v2XFjJ2dtMxZf9cjQKz2ez2eS9Ek7YZsJ+naGxDGD4DIOkXHht+357/OY1x+Msl8tJ+bork2g/IR1koAcJ2TBkDsFybn75PqMHGDDk1HNiCJPqqlznlodMvH8KvdjmtVQuXlT5GX+nl+lQLhcZAs49JGUhFhteWtVUeTEBGAUMA6epcjyGw0JPVNXTpGp6J4YZMAY94fditPef3m3yy+FwVbUNeuuMj3mbEYzD0x6eau8oqaeo6FtCNmmk7MHM508rspxf8D32pDJqY768KdCKyuWJfkMa0SLlpq4Ld1hub5r5Br5kLF7YdgzgL84RTofx8jT+aSwMRVR9gB84foEo2WWS8NXzkLAR17j/VoqGj/jbcmr5qZruDyIqAD6qqgYb2dDyfToKJhvcnjymzFgePVbyGbyJcbFYTN4FniXdngcXYPhaOzT+ScNho+w1amNFH70fiijWDp9zTk7q57r1GFxR+Cn0oqekJsaVEIW9DZjhZDPKPr1iBNCeUkYXHnzPK8frgJl3d3eN4d6Qlh5s1eOiScXJRPaiH/Ml++NFT39ca8640oDas314eKjr6+tJWOoqD+c77PE8p3DS43Jymu/s5fUUM3zhOZ5vR1tpaD1Ot2u56UFINgCWO8sfHhcGAZgIg5CGk7FjSNzP9I6BIPjOBzTSx2wzlYWxZ/PN3roVFDCoSx1pL52QhGCS7xkZuAQy5QFyH6H7+/vJux5YV8gDCtnyk7ka879nHOkr40oj7GjIStL5jNls1vqY1T/w16Ws/sx7Dsyf/N9lrRl12Xmww+M1m/ARMkg/7OxkXo6oFDKq8sWNAoPxMRTPRQBeYDAuEzAebNVUUfcgHiiF3waEft7e3k7q0LHMuWjwaPJZnlD/be8hFaD/53t4loJs4cYgcFzzxsZGeycEgpreeY/XjMvjgP8W3lRMPQ/Nz7OC6X2ehJHN5JyhQSuNbCdDbviGrHhj18bGRjMKTiQbj4VnzKudmzSkLPR0NuzIIGPm03K5fFKRk3NtpeZo0oqdHNjV1VWLFAxjZnSYfEsZsJynsrbsOFrrtYHSvLq6avxfrVatgstJe6J+w3u04yIU8673TL7jM3jvPm9ubrZ5Zy+Qobc0zih4V00ZfkkoxuvD+sywDWuLZxnWSmjTa8G5L+bTYydHgr5FX+ScZ5n5x+jF4KOqadafxWO8jgVgS2bFS3jmKCKvReh9ZLFxRRsNrjWWN5/P23N4t+psNpsknVnkuUiYSJ7p8M1koYQ/qahpz2+Gy8VZVZNnscCsxO0BWpEAU/gnFzfzk1GC549rHML3oImkjLQsKzagyRM/xwveC4ZnemzMC7IBXAE8iGLgc+cdrERt/G2ke/LrPQv02ZCIIwPz0ZFTwnA9flph3dzc1OXlZYM/PHf2/M1r/k6y0fCaQ+Y9T+6L//YziGLm8w8JbhL4+/v7LSqHLOOWz5QRywb3JeySsmW0Ymtrq0WGKPierPGd1ymU0FFGcfxm/v1eDW9E9RrlepS5Zc/zbXnLqBP90ZMp2rBe/eJGASWMEfD/VU93k+YCTywuvTJbWofJ6Q1ByUDIYTjhFMIDLNMLmT1OvE97VFYcVlDpRdsDcWjosdOmlTiLHaNpAc6EohcqY173uZ9n6nmp6dHm9Tmn/rsH69ibdt/sPSUEAuV+FuaHPSiHh4etrBTIiPOvMBQZzWb/6FvKZ35muchkoqu2WKSuanNEwvPyN8/BaSGfYJnpKamqpwfF9ficBsoyxz3prKTBsTNomeqVHZsMF8JXz6t1iz835OKojc9xtthzguNltMB7LJgv+Gk9YHg2K7ncbyqZvDYZA9d5nux0GTngmRijLCVnXi13vQjKEULy9Tl6EaPAztrFYtFOMvWhYukNpdeXxOBTOE32hogUfJ3DMJhmy7pardoRCHiUVTURClt2w2OMzdUoVdNywPTCPFkZJiNQXsiQK0Iow53NZpOIinaTt46czAvmLOu+fd9z85JjyiiF79Pbc99S6XgBuRzZSsHwnOc4ozeMwNHRUUsmEx0YziA07yVhnQi3MUhDmp4z/aPP8CajQv5GBlNWekb55uamLi4uarFYtL06aRB6sAp9taz05NPOmNtJJWme+28nPTHG9s5Zp+k19+TV0Rt95Pd8Pu/Cve6LjT8VZVXTXBF9tuPqOeT6lEsrfRt8y0hPAfd47mfZQG9sbDRHwPPFd/ns+Xw+qdTyTxrUj9GLGYWrq6va39+v6+vrpmBns9mTXX2p4OlwWmgrzOcMA4yDiQimPQLX8nqx0yaKZH9/v02sz1ZiLPbY86RHiLYz9E1l5rbsXSaWnc8y9INxgW8pzOlx8VzDRgg7i/Ph4aEdIdKDN6xA7OXZ406oLL3hNDoJnziC6l2f8uC5tkHgdZkkOPkehWIPFN4lfETb8LyHtzNG+sp1hiFWq1UzSlSN2YvPSI3nMfa7u7uWS7A3apgtlTv94RmplFLJ9yIC2khlZ4NIP1DEGOHd3d1aLh/PI0v41f1LI9CDJC3DLnNPuXC0YNgKOec7dIefaUVsOe/B2M4XmC8UIDiqSITDbSF7hhf9P/rE/PG9jl4NjVtOvrhRqHo8f5zMvr1p49YMxgKK4iNxxkKzoqmaCgUMNq5q2Ibrqx6VDPfaCPnv3d3dOjo6miwCyB6J8Xx7GQkbWSl4YuzVGHfEA0Ip83kaAMJCe7iQlYIVTVYx0GYKfGKh0DrDYKOAkvWC6s0dC6cHC7gfPWLB2PjDd+bv+Pi4HXTmBCdRgvngA8lWq1WTW8ZshTKfz1uVTSqNhE9sQKxQ01HJPTxW5oasrq6uJsc5G75KT9O8yuilB2X42YwJRyvl2rJsJwVIFWNgpIAqH5Sx580wEPekXDtaNBzlQgFfizGgiKRqigAY45/P50+Ox/G1HqPXr5PV1ispy16Hz0UQnnOvL0fmniv46HUHfGVdjIH42OZQ04seiIeg2koaNzNEUjU9qsCD4LueR4iX4QWZitOC5mMpmPxUmlYKJCW9o9hegPvdywPYS8MLT0+N/tI3eGUhd8KKccFP14QnRJTGK6EdkpX2kDyHDjtRJBk1cK3n0kreCVj60usT7axbSPmdIzsbFxTE8fFxnZ2d1dnZWYsQ2DDFbxS3DYLHaj55sfMs+gDv7S26+gWZtyF0FOf27J2nMb2//7CT//z8vC4uLtrcWYGYN2kIDK0agvMatLI3pOiXCVmGE+ah2sg71Om/K7NswFjLhtfA972uMzLIv90O88TOanZPG1Jh7ThxTF8NJ1mXuZRztVpNvHGe6blzFJYKv0fIG9enk+C5NTEvGF5KgvO3j9b/FHrRo7OtsFBwOSEevBeLJ8LebsI3PMteBsJxe3tb19fXE6OwsbHxRAEa16yqFtI/PDxMvEk8dibcAmhj53Zt6Fy1ZAgiDRmC5T6ab4Y0LKwpZIY96A/94FkIM5+jNHx9ViSloGfUkKXDJo/b/eT/dYvFfPR8Z+TB3o2Dg4P67rvv6tWrV63aJUshbchTscILnsHzrWB5LrKNjLriCJ6Y972IN/fgeL4dBThfl0e6pGFIj3QdpGT+WpGl0saoofRTKSH7huOYa6MF6aiQPOUerktHwDrCa8DRleeNNig04KDM1D/87X0VKPrkKf2FL4ZoGH9G0FA6Us956vA/Yd+MyPw8y5oNGNGkf34NvahRsAWl9t5RAoz0ZFswk4E9GKbqMVHG9/ZSee1dhplYUysjlPbW1lazrCx4L9ieoKKs3Cf67YiAXIejm6wm6I3dBifDdxuG9PrcXxSnhSLLfuGlIxjIytvXp1fLtVWPisIeaM+YJ9/s9dCeZYPPrAyIAI6Ojurs7KxevXrVlAFRAglmFFVCY26zF5nSh/TcEp92NJRG1n9bgRteWmcUKEH1i18MX0KObiwzVsg9fvp+ywLzTMTgSMv9TYPKeDEim5ubT9ZGypD1QfIwDQN6oYckYLxOTk7q+Pi4qqqurq4mUI+PteAQSp99ZGO8XC6bPnMVj53X5KHl4FPhGt8P1OZIM9eMHWLWaOpYO5y/th8vCh9527jPJep5NfZcckFY4fd+qmqyuGiP9vGuXJECuQ0Ej+jC7352ItAKBMJTtBduAWdR9rxgK9DMtdB2ekNW+OnJew7cjhcW12bVkSsmLPDMixWclQV/e6EZXukJc5IXuHljnNjRj39Qxnt7e3VyclInJyftpetOdPLCFpSm4QL3Dx65T2kIMoLFy0XxwQ//bdm0/Hmcln3PAUoLWNVK6Tme9vjm8RrSSGfHMu7qHf6GD8y3FQ7j7c2fYSGuRYklRGdoCrISTOiJ+/b29uro6KhOT09rd3e3wTv27p1DssJ3shYDzjXOlab+eWlKw2Sd4EipV5Bi2bPh+mpGoaoaA2G6w31Tz/NP76VnBHIxe7EaZsjPl8tlq0IwI2m3qtoC39raqv39/RZhsOGjp3x7WKInMT0fj40FhDBCTpIZtuB+wz8ZKUDmrflopcN1xnwRRv9k5GMv1YaJRZ1liusUPP+bX54P993j514Sm7woBYOAMSBSwPDl/PSUoJ+TP3Zs7GhYKXmOvUAtc/DUxi0hJow38ManGoQch/nM7xy315WN4Xw+n/DTBt8K2Xyhb95dS3uWE5wl32c+OrJ1fyxTVpAYrIODgzo9Pa2Dg4PGa0cDmSvIfGBGdT5B1Y7flyL4AtLggpmEpHuRguHAX0MvahSozPBhcwhPVX9XpclK1tcySQ8Pj4eeWUHY87XwWQh8jrsXqZUiBgEl48jDr3U0WUCNwTJ5CBfjcxjsPlr4EfKc3I2NjebxJNZusncPwRsrFu5NA4VxsEHJnI+jiPTu06O30U/c2JAF5PZ5vhUZPPLbszi+It+WZs/QxjANhPnhfvF5eqg22D6OIJPRhnTSsUHmULw+guHu7q7BRnipv3aBI1eZe/NYLB9WvvDYJ3F6jizD/J8yhqPlnbQYK8OFrGvLD7+t/DKCr6pWAgtsdHJyUtvb2w1uu7y8rKurq8mrbu2I8VzDS4l42CHh756z+xIEBOZxV01zB3Yk0viRVLah+NV9eMkBVT0yFyts6+6F7QVoIama7o5Nb9iLjGszovDivbm5mSxGrkkv3l7BavVhQ1vVByFm0xiWm88REoQXci7E/bcX6mdzjUsAe8nbhNl4ln9bkdo49PINCFQueObCXpUx5B6MZ5jLXh/PTyjLz0sP2AvCc22jAEx0eHg4gYts+A21ZWS1zqB6fvx/8sh/p0wb9vNZXjbCNnZEhj6KgHyCq41+rZdqyCvhBvpnJ8t8gc+GMu3d+xleS8xnz6s2nxx5OlfgfmYJK7zle1c9sTeF1+zm7m+cs4xqIL7nmBsbj5zfz2UQqh7PM8oXlfVksmoa1aBzDY392iRz1WcwColteZFk1GChTcXh70woMgtuQkxWaI4iuBec1N6NKz3u7+9b8nB7e7s9j3FZoPC2MkzOBK3728NKDUF5wXpj2XNKoQctGBZyv7x4WZRpaBGujBDWwTuG4QwbOaKAD6mIU1H3IA23nwaBJKirYIzNpzFwvw1dOAK1UbY8psGtmpZyMm/pCbsdrifiQ8Hx4pesHrEB+zUKKRWH58byZT5zvR0TFDGUctZDAkANPL+JFPQMDIYgIWaMp+eGXAeycHx8XLu7u+0EWQ4NdHGBnSpHwaz9TObTL8vg5zIK8LwnhzaEOF/IXG8n86856yjpxY2CPUuEuefZc21i01WPXq8xv3wGihphTU+K56LUHVa9f/++vVAFr3K1WrVdo7e3tzWbfTgkjxplC00KhxdNLnYrnN4CY7z03+NAUTjETTw4IZ00OuZ7z0PKay1YWWmRPGbhWsmwWSiNEePhO/qZMsDig0e0jSyRRzg5OWmwUb7i0RECz+4p9B40ZX6ZPx4/P1a666KyjNBQQkQBbIRD6S2Xy7q+vn7CK3v5nxIxAN0kJp+ePXLq8ZoX8NLFDp5by53vQ3YMnfJM880RgvtBu46cLWtOfu/u7tbx8XEdHh42/l1cXLSThPNMIkNEzMP19fXayh3rsU9x0H4rYRDTMHi9sMb8TpVMhgPh/1bj9eJGASbCWFs7KzNfWzXFbS1068gKzgJrSMTJqappYpU2THg319fX9fDw0DbBsGcBgcrxuk+peOibQ3V70dyXChe+7e7uTjx2w0W9BKrhguS1Izg/Jz3YjNjWYah8R2lonjGTvLHy6MkDbWZ04OiJl+PkgXf5Vq9suxd9ZvSKMbLyzQjBsB1jeY73+SxHpd6V7uchK674MU6fsIZlB/4RORl/5ztHsVkQYflC3pFbG8aeDGXUmHrA/UhDVfXoNFQ9wsQeI3KF4nRRBkdjv3nzpl6/fl2Xl5cTg+D9HTbK3v/hqDFh63QKPgcxJkcDGa0h51Q9orOcM+HnN/fjBcdUVVNPE6iGyQObr5oyORcn3z9HKLn0pFB6eNU2GOkV0c7Dw8MEdlgsFnVxcTGpvPC7n5fLZSulcyhnI5XeJIs9+2mIA+LaXERgovac4QMKg4Xl9nqRQ9WjF5jhfXqN6THZw06F4zH2EqOp/LjXfciqJXhBCerBwUE7kplTMJkne+xpEPy35ybJ1ziP5HYSn2dsjhDMt/ze826P2zXzJKE3NjYmkVvCefxvg+Ify0NGLavVapL78Thd4JARqI1ERkw9OCnzTf6BN0RLPScEnqI4ffrt6elp7e3t1c3NTf3yyy/1+vXryaGBLjQg4ic68AZVow6WAa+xz0WM3bA2/LFj6RLohIv89+8xXJ8lUshkc3rJqSy5LxXPpzzL+YVe+OkEqT+3x3N/fz95r+z19XVdXl62xBWGrQeNVU03JuEF86yeQnFuwofdZdie0QaGyO3Z+7Wy5TMvOislRwUJg2V0hYLrRW8JSTgqnM1mDX7Lefa4snzZ33MvigBjQLUR0QK5l+e8uZ5yTsPG7zSk6bR4LOnMGDrMKIhrezAgC9rKyvmJnlHAGbAiy7XVMwTuk/trw0AfORzSZd08rwf1mi8uobRx8f3uN+0ZevL9QEc4BESM9/f39e9//7t++umndkaUITr0EZ/lcSHMiZ1U8+63QjGfSsBCPsDP0agNYvIoK6Z+S3J50pffPZogW1V+k01Pgah6Cp2kZ/oxIiqwx8N9KD4rThZaRgv8Xq0+nJF0fn5eJycnzVhsb2/X4eHhk4oJJqRqWglk+MT4Ls+xoOVY7cEjELmIWJjwzH/7N+1jtGzYXCGWmK+VF6FqT8GxYPFyiArdVhp6L8KEIbJ9RyRsUMJLdJIZz9Y8zcVs78oGM5W9x+aILXlpGMVee3qUPqLblJ7yw8PjMQVZ/ZJeth0R+pxGz33pRU5eF2mk3Cd45sMEabMHtVh+UOY+5toy7IiKQ/O4xnklHyBIcpn3JODI/fTTT/X27du2t8OJYx8W5z0LqQfMExve3+N5f4xweuAvPHa05/lHxzImJ8d/S+ly0osbharH3YoIEyHPOgip6mmG/9eQDYOVkEP1qsdKmPSmmXT6W1W1v7/fDlYzvre/v1+z2aydl3Rzc9MWgfFTh6I9j91kQ2hl5KoVfiMk5E2AFpxTsSLhcyAvxutF4edjbAzhOLS2ocPYGWZDSRt2MR/sDJgPQHD+PxUzVUdsVLOz0as2Yk6RSSeemc+ECehnD+7w+G1kPT68T4f9KWdutxctZJKf7zPqtJxlpG15T35mDoD70/Hwd+aZn2VDnNGi4RCvt6pHQ4kxcJEEStBRBnKWR54DuQEbUXlEKSolpjYIXicZKXi9OfL8nETuMF/clb/hC3JmHWsZ+939+d0tdMghFwxlAVvZWVGkx/RrJwIBzZrr3jNsLIxDV1Xb8PL69es6Ozur09PTpihZhCT/rq+vJ9CLFY+9SxRDKitPoA1CGg6UHmTFnQqsp4ht8PCW3ReuxbAZHkgYwInWLG106GvFkR41fcijUGjXCpXPMDh+H4JzFxmd2jBmFVtPKcOD5KOvQ2YMPabCd1sYAP7HUMIv4/WOCF1CaVgoKWU6jYL5mgbBbfYciYQtcjPVOvL9zBlrHoPpCjzLgx0RQ02GJIHYFotFu/b6+rrevXvXDMH19XUzDk4m9yrSPF981pONz0XoE6oh/cx0SlygYln0GF4C5vpsRiG9NlcLIAQ9K5xK5NcQitcTaiajQFIonN1fLj9sVnv37l398ssvdXZ21pQFE+PEM4s2rTfPYyHlYXw2Cg7hGYPHnzxKD9FeE/d6jFaWho2s7GwcrFg8jkyuOqkMf/D8bIQcmVU9YqHcb4WaSoj7gY582J1hGedHcjEndNKDDMzX9L4dbZjXdn78bOQo98j4uZlns9Gx8koHI6EfK/tcC/l3wjcZHbj9jKSSX8xnzzN1BAmU6Dlw5IU8ZF9tUOEFlVBVHw7cI/q9uLiot2/ftjJU3j3Bb1d59QyC19A6ffQ5yNHvzs7OhC82zF5rGVFa9lJv/Fb6LEYBxeBz/122yGf24sx8C/1veTYemT05/na1ENezgK2Mbm9v6927d/XmzZuJ9wuExESyaBE8FhOUCot27BkaOnPpnAUBvmQ+xN4UYbI331i5uC9V/U046dXTVx+DbEGlbNIGrbdBKO+1YUzP3j9V1V6+7k1Kh4eHLTLxjl8b/p7SW2cQUrlyH5Ucju6Yt6rpK07dhg1wPpd5M35MdAAensa9Bzf1lBnzsi6ySYOZkQPGyp858mDMeO2Z17Dnm1BPjiM9W/7OqMvVN0BStLFYLOrNmzf19u3bOj8/nxiDTCjzfPOP5zqqhdZFaC9FLp7gaAue6ci7FyUkfJdr+/fQZ4sUfDgTRiETzqm4XnIScpIzXE5CqfF3b4MR4T7MJwnN7mcrWxuiXJxegDyLdg2rGEf0hNs7t/GoqokismLxNni8sB7cxH32JOGfvUlDaRgFEqVZIWNoyArGLy/he3vcNgrOXZBktLdprzWjTSvqhHXS8yY3hTx4DI7uPH/8De9s6FIWbfhsIDPK6xkFyG2vU7hQDyayDD7nCbu/luOe0SPq6R2gl23lnFv20lAgE54vEIf7+/vmuL17964uLi6enBdlzJ1xpEHoGVb3+3OQE+bwy86Q4TMn2s131rOdwRfp24u00iEggtvb28mZNLu7u5NjaPkxVv2SIZsjBxaB8XG+d3kkUQxb5Y+Pj2u1WrWkMvikJxMvxlBS7tmwp5aL1dcj+BYMvIJcXIYREDQvMIyM4SvDCAlZ9YwobVkB+iAye415Lj28hC/2sntz5SgDY+eIxAqHRYKy6kEC7j+LabVaTXb75j327q0MLRt4+K6sgY/Gz91OGiAUVUYbSY5OHEE7Cu6NJcdFH9wXy6UjHTsetOvy7x505GQwPIeQTys85i9hOcs58uycEseBXF1d1f/8z/+0qiMMgp3RhGkdSXp8GXWZty9NGxsbbb8Na8g5G+9HsC5wdOUcmh3wl6DPZhS8CPnBy8P7NkRgj+lz9MUejb0DlAsLi/6QsLq4uKhXr15N3uMKpOA3SLlOvhcWJ5ZpYfQ1CZ/YiFQ9PXcmoSXIEI2jip6QW1FZQfTCae8i3d3dbV6joxyUmMdvb5PPrAjtMboEkgViI+liAnjSgyGTT/7OzgLPrZqeepuGJOcR7JzF6+fb009Dm5Gkk/XpTee85RjS03UU6OszejB27egs59ty2sP+aSN34+Y1NjYuIrCzk9AIc5vQ0Ww2q4uLi/rll1/q3//+d71586aurq6evKjefLY8Jw/T+fE4Xxo+ms/nT45393whB3lESdVjBR19J+merxX9vfTZjIK9Yw+EBe4KjI+FsS9BPQVZNfW0UcQI0ebmZtsIgzVnXFdXV+2MGjx0FkPV0+TeupDeQmhB9XVW9inQCZWgYPBoMyRNIfdnvUVZ9ZiAZUexvcHENB3x9SABV+Bw3cPDwwRfTw84FY4VS6/qxzKHsrFXbtjDHhjXuN8JcZrwXlOxJkxpWXOUxjUZLZiHvTlfpwBSFlL2LFdp/OyQYLDdJxslwzncwxowbGSZy/6mV5sGxEaBecehu7i4qPPz83r9+nU73yir+Txu88ZREu1nlOcc10vqpPl8PjnIkXdIO+rMDWq5bh3N2hF7qSih6jMahaqp1+cqpP39/ckZ8Vkq9jn744WTxgjDgKBsbW21xBUv3pnP55N3GlRNJ7PnLeElp0IGZuLZ9MvGJRU54W/i25DHZsHqeXCpiHOTTA+aSoOAl1fVryJhnI7M0hPOKOLh4UPtOX22B4zSsrI2zorMZWRm3mR/rTytUB2mm6euwXfOx8olDQRj9TwaVks4A775esadyV3zOZ/Tmw/us9JzFZTvAcbz/LhaD7nnXRYuhEjjY2jNEQ2nBaSXTxTlcZLne/36dV1cXLSD37i/54ylUUIOLZPwNGX1pYzCxsZGO7OLUxJ6Ly8y6tCTkeVyOXlzXL4r5CXosxqFxNQfHh5aFZINg6tsPheOB7l9mG4BAL8EH7++vq7z8/N2LK+Tw1hpFLkrrFgwPJMF4vxA1fSE1HWhakYW9g4yCkhlzP1ZxQT0YSVreCYxavDi2ezxnc+e24TDGFsaAPpC/9KzTbjFiX17SZQn2kAa6skfz5V5bZgnk3x8b4eG3IY9Pe6lr+ZxKnsv9t6cufrHXq35lBFERif+LGEt983Xm3LeoIxkkXdk3v02T2az2eTANo/DCdY0omkkMSiXl5fNWbNj2RtLjzceT0JvvuelDAIRgo9lcYEG5OpH94V+2qjmmU4vGdF8VqPQS7ZW1WQTEri8J+elwzZTzxNIYUTJUSKIAKJEgWeqpme0cD2LxTixFS5jc+Ku6nGx9Wr/l8tl29JuDz2hhowiqp4aFSsmwwUZ0fgan4JqI5/9MJ9R/o5YknyfjQOwQcIWHF/ANY4wDR1hSOxFpodt2M7wUS+qwoj6hFYMgqM9z7HbTQXNNTs7O3Vzc9OegVEgwZoVVQmz9JRoRnuGt9bBEfbIs/LF6wT5NPbtckrIUJ89XCr56LuPzkiFnW09PDy0XN9isZhAl/Q94ZUsoLCsZURnJ7EHo/4Wms1mDTIimvKJvuazDYINcEK0GSW8JHRU9QXgIzpt3M+VBJkc6gn/S/fJHnZV/0U9QCa3t7et7tmverRnY+VT9fhaSxaOE5FV04PKvOjpT4aN9lYT/vCCd+KpF3HZ43D4np5Gb/Fn7brH6X4Y6lk3h0Ql7l8vZE/PEgPMAXp53oudD3jgMfsIChs+ns//Cb8BcfB2LyJGe8TGgW044bufYd7f398/4a/lsqfQ4FF67mkMMkL1NfSH792HVM52PDCauQbSqWDXueXO843M+MhqR3zL5XJSYFD1+A543o3SU9yGV/L7jEx7kVOu5d9LvBXO+QM7HTbUvegN3ru6z/DRS0NHVZ/ZKKxW01JLFjRGgUokW3Qmw+89eGlC8DLBZ0+96tGAUIXkDVPARRgY2kS4fXytFZNx/KrpeTGZHEVY3fa60NYv2IB3VrSpGNdBERCCmzmSzCM46vGC83epeK2YepGJ+ZBQho06Bi3ho4wS6Fces+DIlH75eVb4HNPMS4ToA/ezVwXv2XAVsm3P1CXQjgwNp5iQOfrVczCQbctIKnjLoqMWz7HnxjAnv/PM/3QsrODstaPAeLYjVfpuh8r1+Y40cnOfHabcj8N4LA8ZLdPPl3ZI5/N5g4vy5TmWORdOZD88j9ahdoRemj6rUah6VCK3t7dPMHf+vrm5mYSZL2WlP0YWKid36fd8Pm+RwtXVVS0Wi0lyiH6671WPiVImjajDL0JP/HA2m7XXF2L5HSVYUTqSQZDev//wfll7SYnHIlQp9PY0raDspdljsVHIiMZGKCOLHlRng4ASgKckc8HxvZM1lVtGCulJpzfJbysOw5hW0t6TYfjPShE+YRCYSyIWL15HBOaHvfaesc6/1/EYhychK89XQmZ2jgxF2vgQDXEtMmyIA8W3XC4nr8Lke0d+7r8J3rBeHHkZQsVQuCzTiIT1if83DzNK7kVmv5UowfehgOlwpEHOyIb1jaP5OXMJ0Gc3CoQ8eKkMyIlZjr996TDoUym9Zitj+swhW5RkIlDrwlgLHF6kPUcUDrg0HpvzAfYQrGyt8O1B2IuiPQuVI470SIxtuhLF4zRUZQNQ1a/BT5wZMjyVHpPfw+sXqRCC+5yYXoS57nm9hZ9eIzynPzZQVtS06agvvV4f9mdecQ0yYAzbxt4Ogw3fusqjdcrV8pjwVHqiy+X0rXG9aML8Mz8NMSHvi8Viki9wJOh77D1bbm10bAAsyzYGNj6OHtIgmBfpiL6Ukt3c3GyRZUYHvsaRofuQ1VCs4Tw+6HM40J/dKKxWq0nlgRN+hOU7OzvNgzW08yWNRC+kROE6WuB4BcMxjMuLLiGPzAlkKLm9vT2BQFJh4GniqfIcFkVWd6SB8+JOj7Pq6bt5M1nta1I5VT093gEeOWqgDcaBAsyFaqOwv79fJycndXZ2Vq9evWqvXSSyurq6arzx4k7oyH9bCaaRhfibfvgdEfTfRgFDyvzZM4Tnmdi23DnBTN7KNf7pGdoIWh7SMUloLg2x22AeLd+GMZmvrM6CcHLgg50/97EXfdIPl7oia4wXpwf++c1qCR/2yltzbj32l4SNZrNZO4rFuSKTjR78sp5wPzF+eVz259KPn90oVFULe4gI7u7uGhxAXoEw257qS4Zyn0KJ5WGYqCrCKCD8DsNtsZ04cghY9ajUqVixEjC0BJRgz8heWNUjXuuXibgfqfhRYAkLGJfu5Qu4F/jAfLLBcbs9o8Mz0uiagPJQEBQkHBwc1OHhYR0eHjYIj70Ms9msvVc7vUJXSQHpOSpYpyz4n70ZmQdyhY7lhXuQC1coOSI1v6wgekoxq/fMUxtc/s4x0c9UhnxmRW2DZQNIVJ9evXNJvagG2bEBYg1kZOw8go+McYRqqJDo2GeT+dm0mwazFx2+pJ7Bkci8ELw0jJzOm6FP6xfkF6PgeXpp+iJGAXxxZ2en7Q6mFJWFzwFXlOKlYH1JQthZTLzaj1K4/f39CZ5sBclk2lMkKkpl4CQeCn9nZ+eJJ2tlx4JkMaXnkEYhIQ8vNAsd1zus5x5DUBhr5zjSGzPOnfkE/k7PtAc1JZQCbW5+2ACZ3ruPH7GXmMrCSq1q+mYvzwfP9thz3t1HQ4HAHc7R9MZnpcxzXaZp2CAVV08peA78zIxi7YX3IDcrTpRcvj2N+eNanD/LWVU13mUEktAfc+HKJZ5n44GR9TsSsvw059h98nefw/EksnRUlmW8vaSzo1g7VUYkXM35uRzmL2IUqh7LyTAMJA+dcMYrphLHk/ylycoFQQLO2Nvbm1RqZFKr6jFRbYWTHpXhoapqiwEhN4bqEJtn+ljgHl5rGMsePuPj2SwWe7z27Koeq1rs9abn2Yvu0nN1mygc+ueFg4eeh+45wvHmqcViMeGnoZocL8/r/Yas+IEnrBQN4+3s7NTR0VFtb2/X7e1trVartvcg+eGI0cagpzQMT/XWQCrzNIJAc5kcNp/skSaUQuTOfPSiGCJeFP7NzU09PDxW2SEzVpCO4DyfmfC2rPt6w5T2sNNRMV/ggz1zR5QvRdvb2xOIE94g635BVM9RoL/8fnh4mLxy0/mUz0VfzCgwOGNjd3d3zQPZ39+fJE/4+ZzY2ceIScEyLxaLtl8Bj8ZKs6cALNTGlxkbHmnVFJbISMGEYvaeBCtzL46qfqI1++rrrfAzP8L3ufh8jZ/rewxToCho3wvHh+5RiJAJcO7FKKxTnoYObBTSk/Q80P7m5mYL1eHr/f19W/D0ywcEbmxsNKjUtfzmF9BJfuc+O4Le2tqalDj7up7H6894Rnqjhio8f1ZI5gsGwUqb7+Epcvfw8NDWBnPLeHEuwNHhrfMRyDeRoNeg32Hdy1P2fmjDsphO3EvQfD5v75Hw/GY0abkw33qRoMeeR4F/LvpiRqHqMbdAtLC3t9egFRY3uK89m69lFKpqYpwwCkAXfG4ly98shAzR+dwLiUl3yaW9ISfmXH2QpyOyCPEQTfa6ejCTr/Pf9vL847FCVu5W+PDR1xhqs+LBIFDlZcXYW1g2HkSfVY/7XOhjeqrMi9/z4edYcXEtys6QUFW1vI7LUnd2diYlklmKad47MVo1fWevPcvMv/SitcwT2JA6yuO5kOG79KwTTmPchts8NkfPTrzDF5PhQ8ZsOWEugXDZSMorNp2Ad+SQTlHCaD0l/HvJLxcyXIdsgYzkuoBHPSOV1Ua5dj8HfVGj4GgBOAmsHUWARwSjNjc3u17SlyRvqCG30IOQ7u7u2oTbUHiRgJV68dq4sIAtKFWPGwFdbQGhwPw3Qm/PrGp6CFxCLYmVpzfNNV6AVkxefFbC3GcFZQ/Kys/KkM+IFjAIeV4/8rO/v99gE1ekeHzwEt4T7mPogUlYjBnhcA99AipiflCa5M0MC1kJZ9SS3q2rr3jPsCtTaMOKz165lU/i+Vb+CRe6DzbumVhPR4L2DY3aoyWycnSN0UVxcrZW1WNRxPv379vrNt++fdteoMO5RwkPOmLvwZheiy+pU+bzecslZPRvufWR2OZ1z1nzejeM/KcyClXV8gq8ltMeMl5flpSxQL8WGe7BmN3d3U0SgvaIqh4NBZ6+sVfDIQ7Ne8oVgfEuxsy39KAQ5xVoh7adPE3FZIGz52nD2Lsu4Qqe6TZsJBg7yoBNPvDUUYGVMlUYLCb6Zdnh+jxihaoge6c+3I7ne5HimKAUne+w17taPb5K1Qak6ukZ/Va6zAfKFqW9ubnZKvP29/cnSfSeMrNHb0VuODLnyxGFv/PcGfpg7m2cHHWZt8iXo1NyDax3G12MBSgBbVxdXdWbN2/q9evXdXl52eYzFXvCRR6nFa+vfUnyAXeOpJwjc26RfhgaMt/Re34965eC0r+4UXh4eKjFYtGSg16Yu7u7T7apI0ifM9v+a/qe9cLGwl0N4ZDaoThjMybNbxahE4KE/N74lovSfLHQ+Tr65IXS86j8t41OGg+E01UyCLmTalVTD51ziwzROKlsT9vKGt7x7l1CcRQIHn9VNUcDI75YLCZ9pt/2xg8ODtqzveck58SOAO1YibHIPR/OtxjLdumtnQIch4eHh9rd3a3Dw8PJXK1zkNwW/M45znwA/TbckUlQ+kO040KDhGIy6jBPOMjQJb7mg5PwVR8cyDdv3tSbN2/q8vJyohwti8kDZNb/W+ZfmjgXK9+gNps9ljSn3DhK96F2dg6cO/lSUULVVzAKVU8rkahGQhlklp0fjg74GsREkRdxaGxvjD4iAITIPezdymC5XLZyPhYcBsG7NBNXrlp/plBCAfzY43BEY6NBH3pwhQ2EvTX+ZlEwPgu8r6MPrmhBAe3v79fx8XGdnJzU/v5+VVV71eL29nb73O+wqKqWlGWMt7e3dXl52fqCQuVZPva5qiZHCDCvjmb8LgmUv2GWqppg3XjCyEfyK5P+KGWchr29vSZ37EdJ5WDDZRiHOfP3Ngqe0x7ubucEeWUuLT9ZWumIhWuB2Bwt+n8byvl8Xjc3N/X27dv6+eefG1SUkGzCVusMgdt/aZrP522jmuUQfvEd+s25R0f/3EMfvTHvc29WS/oqRgEhIQRnIcI8knTepGFv+WsQXvDt7W0tFovJuyB6XjSwQyaVaAMlwThdfcHn9iJSsdJeKhkr8oQC/Bl98bUZBaQXmBCQjQdtcp3x6x6MBMzihU1UiOd1enpaR0dHtbW1VYvFot69e1d3d3d1eHhYx8fHkygN5eTNfVXVolKUv7F57rX3TXRhuMxnL81msycKinlhPODgtJHlk44gcXh8rDRE/1A2jMNrwxCPK7tsgDw/mTvIHI/lKKEoGwsr2V7UmM6NIwvyPlU1MWSOpnnd5sXFxcSQW+48TtN8/niIpGX1c5A39WUU5tduAtlC1mlcz/eutPLvL6X7vopRqKqWPPOCI6Tf2dmZeL8PDw9tMSwWi6/V5QZ/LBaLur6+bpADC4j+27vvVRsgCCzu29vbJlQO0y0kNgp43w7/vTjWKfE0DGk8UtE5KUlEsS4pyed+ZsJc9J3qDBQZfHU+AMWPp8wxI/Sz6nGjk3lMm0BRt7e3dXh4WK9fv25jwGu1w+HqD/42Tm/lRhSRuLbnDVnleicMDeVl8jjnh4jh4OBggkEnZJNzisFJh8X5hZ5HbQNhmU74zXLl53utcH0aD8j7GCx/19fX9ebNm7q4uGiRUc+pycgrx28Z/RxElJCv4gWW5LWbCbEahvbYIXRCQkdfir6aUVitVnV1dTWpPgGT6+1qxvtOzPZL03K5bNUPnK2Phw/0ZaXI//bk7ImjGCAqNKqmL+qGHxjJqscQ1TkY2rWiRjnYU+S6qqnnlZQwhCMDj8HGwrxKJUW//MJyG0pyCLyQZDabNeiE6p5UQDl2jAVeNvMAjOQ5sBdro+joy+dJwSO/cQ0eu8ae+4k8XCRAlOT2srrHYwFGwigYW0/+ekw5pzYCOW9p+HJfAnzxOOg3z7eRymcTlTB2Owfu/83NTV1cXNS7d+/auVap4K3k7RT1nJA0Gi9Fs9msbaxEJuHn9vb25EVM9IffmSw34VAYMvpSsBH01YxC1YeE4NXVVTMK3h6O0Ozu7lbVtAqnx8yv0W/OQgLXBhbBs7GF94LJ8VghIDCEmw65rUDsYeRC8d+GZ7x47OV+Ki8Nazkq8Jh4Jv8bwrDRYNHCz9Vq1Qyid40bKrEi8RvY8ogKroGffO4qmsTzbchT2bsyhO+IZhPC6iUOmaecKyvl9IAZB8/0uUM4AZz3lDKSRjLJsFBGdyYcNNrGKPQMkWmdPBlW9LMdsRGFU2WVskX/naOxTDla7o3ppQjd5J3e9M3v3rDhr3pU+obo7HC4uvFr6bqvahSqqnndMNgbQFLR4R3hrX+usPBjtFp9OBb46uqqjo+Pn5QRojht8dm9nREDyioVGaWY6X1XPcX/rdwNu/l6J7Qdhf1acuWHvUwLuRe7PcpUQPxG6VJtlOca0ba9a05IXa1Wtb+//wQ7Z3ze4IcBYecxRzI4kjJkwwL2vhDnRJjzqnqyd8JKgue7HYyDI4ft7e26vr5uypAxc6031jFW8hBW1IaMbHCcF+jBgOugo4S5bHCQB9ruGQorcbfD8+E/vPDb2HxNOjvwuwcZfU5FCpznSIHxYxCIcnO9ZXWl+YBh9A9lu1+SvrpRWK1WzTCwYPFQqH6gNA+mGmv7WoRXg0VPZZgVA0w8uRF7EFbkKBHgiEwwZfKyRz2IIKMDL1R7ms8Z2p6RTmOAF8o1hqz434qROfRREWDYNkC58c3YLIrTexlubm5aTsGn8NKWIRiH86vVqil6PGOgK/eD+UIxOsL13hPOQLJcMOcYHYyi8Xuu972z2Ydzlk5OTiYRlA1DRj4Z0VnJ0nY6H0RkjsCg9Hz5Pw3BumjIypxx27tPGbHcONJChh31Jaz5OZzG+XzeHBeXoDI3vPsjZZh5Xlc9hixat7ky6UvSVzcKVR+8nevr69rZ2anr6+sWkiFQeGEHBwcTi7sOB/8StFwu25Z7v8TduC+TauULoeCASPAEIZ+wCVlwEiYwWRkbOlrnQVpp9No0HNR7Vnrzfo6f5QWN5wx+jXdFhHh9fd2+Q2ERTTnq8S5iCKNQ9UG2Li4u6uLiou2GzZeee8cofMbIsJAZO3Cf68bZF0Gk6P0OzBkym8aJqIfEInyz0TU/SaKfnZ1NFEeWFff4b6iGuUvjgWyi8LISLZWvec69tG0Hwc4BfXGuBn75nQmWlefkMeX3c9F8Pm9HuDuXOJvNWh7s+Pi4HeBoWMhRQBoExuK3yGE8vgZ9E0YBOIbyLh91wPfQ/v7+xCjkkQ9fkqiBPzw8nMAN6dUANWDQWCh4E/aOrOCsDPwbDzkXQA9LTkwfZedF/pxH5SjiY+SxemOZlYiNOjzgVEkU0XK5rMVi0RQwHjSeoReSx8APSgUvHqW7WCxau96EiELlHkekDvXtwc7n88krV4l0uJb5YW+B30WOE8AP13j/C7LkKjZoY2Ojdnd36/j4uGH8GSmkE8IcG5Yx/3gGPAYPxzh5U6TlJR2zrFAyBGS4BB7jDLlCywnWrPCinZSBXlT1kpHCbDar/f39iUFwyfne3l4rPGEdwBc7BjZyzoswdh8a+rUc3m/CKFR98MD8ukvOlslz1R3+ejE/x8DPFUo6WqAMrYcTJoSCF8WCc+LN13qxWilYyFLhopAh88bfsdB6C88L61O9r56idh8ML6EUbOxsFB4ePux6B8bAOXAlBz/Gow0jOC9hJWRvLN+74HyAYTrj3c6R8Pf9/X1zVoBCvSPdO90dJfG/lb/5abglCc+U8a5Wq7q8vGybJxMW6hmInLflctnmwfPuKMywVypqfidMRFvOCTlvwLOBY23Y6KPn3N+lfPfG+BK0t7fXksdZ2LC7u1tHR0e1v79f8/l8chQJEYIjUfOy6rFCLRPMX4u+GaNQ9SHpfHl5OTkgzeeJMBEkFq3IPlbL+7kMg996Zs8hE732NK0crCC5xwaj6hFrxktOj7BqWlppJexFtA7O6SX/vOg+hW95jZWtcwE+XRYc1u9NsNKg/2lQzVNeY7pYLJpiNc7r/qDI4E3uB7ER4H4v6qy6og9srrICZKw8I42LDdm6ChNkvpeg39zcbO9wcB6ODX4ZKfRk0UlsrkfOqmqynpxnsQH2eBOetFwyFu9yJ7fGs9i75GghDY+h0IRFLSMvtdZxMNgz43PLMAjsRyAy9Tp0Tir7Cn/u7u4atOn819eib8ooACNdXFxMdgoSqnmyDw4OmoL9WPJ13QJ5CXKFy/39/eR8E55tOCnxfOcbuCa/r5ouUI5ycHjaw5RTsfOTycOMCBJ6eo6eg5d8bxpLlCGGAQ/MnqiVr/MpVv7sDTH8ZogRpQ1cRYnl9vZ2M+goyJ4ScvKv6hFv95EGLGwiHvjiaIB7gWJQHDk/piwGSJ47muZokN3d3To/P29Gsmfcnfh1m0S7zgvxXUIy6cSkQbADYqcudz2jSIH2fApwrp1eRNuDwV5KoQILofQx8nYqiCCIcB0BJwzJPNB3rkno6GtGCVXfmFGo+pBgvbq6mnhA9piY8K2trXZQmN+QlmEtlDjkSxGGjMP9qqZK1grL3mfV9DAwe4L2ZqueemzeOZ14Ou0mDGVv0NfZkHwqf+wlf+x6rqXslsXE/1QcEUGgpPnBe8oXzvAiGz6Dp8BGwCir1aph/1U1gai2t7fr6upqMh5+Y4TA+quqlUzjrMBDQ3C0C3TFPJAkdwQIeXOYYSknYOGlS5oxQhhHDvb75Zdf6u3bt3V+fj4p3c6oIyNJV3i5j87jpAFIQ8GYvQ+CH+/lIV8E5HZ9ff3kjCPLrf9nXtOAv2SEgHMBZMSc2rjt7++3Y1gMLcI/J83pI98jB8iX8ylfm745o7BaPZaouuSLul+H0Ds7O22fAMSErPNyndx5qf6CB6IIfF5MVU28nsQ9WYyJ/fYiDMJtFKuTf4n9e4zmRXpSGSWkAaGtHHOSPc/kfUIURH+Hh4d1cnJSh4eH7chq7yuAXygRFib3U967tbXVlAwLlBJSDI0XqHMrTg478jQODL99YivjdESC7DGfjMnkklQrCXvnll971IbR+AxFjhOFIjs6Oqqffvqp3r17147b8BxlJJr7DJxPoB+ODAy7ZQSYcmGnLo0i/Mu8iw2Of9YZi3UQ3G8h9iG4Is5HXxMhHB4etk2MuU45nbcXudB3oCUi1q/93hjomzMKVR8EhRJVJoQFj4AxAbu7u3V2dlZVj0dnOHGX3kVVdb2h30Mua2RxuGLG0FBCBpBhHS+GjCL4Hj6wIOzlWjl7caWyTm/Rz0kcv+eFJSTXixzwGoniaJfqmaOjo8kLi4y5e0woavYfcDS2j1vHIDAP9thYfK56Mg8wMvCz6lFOUPDsrvcegXX8cOGBowmuS+Nv3qWSS0WeChGj5X6So3n9+nW9fft28lIa5MJK3sdZJNTJPEI9p8s5tBwjvAQC5noMgk9/zTVJf3M9fwx6+63EERWOELzvhJeBwV8bOaMDRi/gnw0rUahhs68NG0HfpFGoeqwvZyJY5ISyThoeHBxMwuLr6+uqeiyPM7NZEDYMv1egUDxZM+/Nd72Fbm/QODNjYbHaU+T+VP6uxPJ9fJ/4Mu1llGVj4P4g/PZuDYU9x0MrArDv09PTOjs7a8nSqsc3TdnIUaKKZ1VVrQ0bYBacyxmtPGl3Pp9PPHvaq6pmWLyYfeQKximhAnvK6bkzZ1luah464ZsRWxpeyzn3sCOaseBIHRwc1HfffddeUnN+fl6Xl5dt/DYKdpJ6UJEhrpSD7J/5kPkLw7zkEq6uriaVR5YbQ0m9iPelDIKTxuRmMAZ+CRgGAZkztOcKt3UlpcgmRTWM/Wue55b0zRqFqqfVSBay3Fizt7dXp6enk4WHoki4yBFD1dMt9L+WgLxubm4m/fOCQAEbx4dQ6onDuk/eFGRP1ruebWT8jPT218FCxjOtuLzRLhXHx/jmHAK13Kenp+1YbLzv3hHhHrOjh6qnb7rjuoRVMCx4dekM0DYJwsTb3bb3NPi5qRgxIpRWcw9HWNhoGbbhd+YScs+HZcRQGHOGIsMwHRwc1NnZWb19+7bevHnTcg1p2OBrT5Fbblhj8JbPbByRQx/Lwbj5cWVOluVmBNAzCvT/9xqGjY2NBrmR4yJX08t/sQ4ymjUMZurJERA5Edy3RN+0UaDUkMSzLXeeyUKJnhXy9fV1gxPSU656TNzh8a7LQ3wKceyFy+742/kCQ0RVT48AtiK0kuspeJPbYDxW6FY8PQirBy/xecJKGSVA6cE6fwAG6wjB58y7isxKCSXKd7nxjijLz2deiQB4tssq7fXagUjv1rBPjjUT9PP5fFJJhVImksw5xBAhI8hxTwZcG2+ZyDwDf1c9Qpg7Ozt1eHhYr169qqurq3r37l1dXFw0D9XRj6M6OyfmAf9nHqsHcTI/hqHwsF2bbyPtsXt95Fr5vRHCbDZrvCE68Pu3yWnCQyIGR5qOEEAL3Nc0XBTSXF5etqjtW6Nv2ihUPW5qo57dZ8xkBQgW3yEs3hnXOTw3nmws2wr715A9ICotUA60a4FOeMDfGXvMKCfD6sR+c3FZwX6KIeiNy57juvvScMBbIoSzs7P67rvvJhECyj4hGc8Tc1NVkzmnbNV5JnvgLhutenzfAfkJ88LGhDOTEhfPCC4jEuaasldw48z70F8XIKxT7pZZH77m77OwwTKMk1T1wTgeHx/Xjz/+2BTyYrFosFKWsdookw+wzPlZ7lPyzbJBG0BHfktdRrRca2NlfvxWms0ej6Wg3NTJZENwfm84Xr6jaErSGUeuTRuI+/v7urq6msB43yJ980ZhtVq1t2e5LIwFnBDQ5uZmHR4ePlG2tJVYpL1PQnZ7S78GWkLhkOikr16wzof0ooB1kQH3MlbXRLvqhvF6EfY83U81CMnDdWSvmfGCwZ6cnNTp6WmdnJzU8fHxpFwTA2Cl6fyL8yEoKZS629jb25vwxpHX/v7+5J6sBsMpQMG6QMDG0BU0GFtkEG/SJavL5ePOXZ9rRDt+Lj/0LZW869wd0cB7ywf9syElInbkMJvN2jHwKKrr6+tmyOA3GDmy5DVhZZ3Gir55jXIvnjX8WadIM4L/vdHBxsbjC5yoLjICYZjahwLSZ/gPf32OVk9mGa/zCBcXF9+sQaj6AxiFqg/KlqRzvtTCYTUTsrW11YWSCJWz5I97WLB5nMGnhqt4tOwhgKwsEzf29/buTPTLya0ejJQenqMDt8UzDL/9WnJ/E0oh9D48PGw5hKOjozo4OGiLzhBQVvLYAFkpMBc23vzvaI8doo44VqtVO93y9va2zs/PW/IZpeAcFLmAzDWkpwyfvbPVES3KAMx9d3e39T2PQ0hDbf7aaycqdoSQzoTlAVlmjL6X91ecnp62ahh219LG9fX1BGry+jG8ltGpn7NcPh4IRzWY3y6W0asV7O8l9ACRAbuTMQQ4MH43gqPCdEyq6knVlNckCXMbQWTyW44QoD+EUah6rEayUaj6IER+hWVVtSqgg4ODpkzfvn3bzobJHIIVJYJBmGjc8GPbz/Ee7O3YszREwfN6kYAhoYR+bKDSs0pFndGSr8tcw6eSFSRjsnftCg1HB/v7+5Pku5UK//u3++w54nNHP3ji/F4sFpM5I79wenraXu/59u3bevfuXVuk9myRIdozfxxRYKg4tfTk5KQZBGTMR3tXPb7T1xENY0ooC0LB9t6x4cgj54l7LUNWcBhTymcx5N41vlw+vmmQd5NjGPy7t+nKMpYVeD4xNGW7ahpt/FrKaJU9B5Q/kyzGWPjEU5P7RbvMKbkQxu6cjE+u5XPe/8FGyG+Z/jBGoaoa/mnvqOqx1JFNTChnBMIL5+rqapJ4TgXu9wdnvTxJpud2TRsGSEiFewxPeLEmntrDZl1PnjyoeloDz28rnFS6n0oZEfA/HhfeMhHCyclJW5B+i5ifmcbPsJl/Z9LTPGMBooBpd7n8UArKgWVAizs7O3V6elrn5+f1+vXrevfuXStK4D6URDoH9iJ3d3db4vy7775ryWx7u0QdnI90f38/MQoYN8NU5oN39Gd1mg1oYvYpewk1Ga7z/STLKaclcgb/91EUfrF8wrJul/Vop8fjIILhO8ad+yZyzVkOXdiB188ub+9MNg+dd/LxGwlhwVdkLCOE/PH8A1sCy/0R6A9lFFarVZ2fnzcPLb1HLxYsOp7A999/X1tbWy1iSCtvheVKJ59b4n0H9qaSLKyGuhAyGzV7eD1s2ULp9oBQjDWnATF0kp4Ynz9HqVCqpoe04Ynx+szDw8M6OztrkQFRnfcBODrgGQl1Oa+Q0JsNAv1g4TnpW/XB2wczdhUafaVc8/DwsG3wWiwWk/JgK1tHRGy+623A8zxTyoh8+l3T/FBa6wjIc50lqanI8UzNJ+bK82xnJCEe+u0IDCXKy2Pgc542S/TgSCCrlYgO7u7u6vz8fGIkLfeZ6HZbXg/uOzJmY+BKojSmGCJXffWMgT+3MXAOgf7DG8uny27/KAah6g9mFKoej6v2tvOqDwKDcGSCDoF59epV8wyotmAheTLtKdpbNARAVJJ1yZkfqKoJvmyYwgrX4zAckgsCgYYyj5AYvO9NqKgXXfC/F116ZIwfuIHjKpw3METkSh/myQorjaDHavqYEbOxNe7OuF02jLLY29trz0KJVD1upPOGOb+T195nVTXM3V4ofKT6jHZ7EVov+nWlXVJGWz1Y0N9nxJXK0QqYebN375MFvPM79xj4c8uuK/OAb/wuZl9j/jgyZCyQPX3mznrBBh2eILvIoCEeGzLPFxGSX8aUsJFzCI5gue+PRH84o1D1wbs4Pz+fnFoIIQhWiCilzc3NOj09bQoNw5BH9eJ12ZtwWSSLCQFzdYa9lx6u21MIhMos6oeHh7azFkGzh26Farw2PRyeDQ9Q1PTRiiKhBu+14DOX6PE+ZY4E4BRJnufEmyE4t2c+uM8oOK7z5jLfZwVMxEIeabVaTQ7bYy5Xq1WreLEB2dzcnOQ+kCUiQ0prff7NbDZrCcSqmnire3t7TW5cudNTHjwrYaJeXij/515Ho+aToUtvMPP8s14Yr/tjecPJ8lpzpY774GiJZ+M1o7yB7KxE00NPeJcxZ7Lc683yZEfKSWTWhD186w97+T2DAC9sULL/3PNHoz+kUaj6cJoqR2zbM/URxz67HyVFZRIL9+3bt916aecFUP5ZjjebzZrXhHCAyVJ2iRfjiMQ4MgLrxUrZYEJItF1VE4HswUjpWfma9EgdreTiyc07KFqULfxJ6CTzDuvIig0DwP0sXq5DEThv4LyGI8XZbNaSpy5nxttlwVdNd0dzhMbBwcEkPwUMafjFEIINITh8VU3gFpRgVgulEU+HIOezZxjseNjr5jPPuZ0PFJer71g78MN5LMt6QkV+Tso0vHCUSyVWRgZpFHpRQg8uZdyWIcsEhtBRuKNU6xAOtEMvYBBcepqRjfsLXPlHpD+sUVitPpTKoXSNpeIRVT0qOnubKDm+u7i4mODJKaRVj9GBha7qcSGQSPWO68wDzGazCX7sPhsPdt/TMyL0dahvwc7Fld7bcwaBsVjBemeu/+fe3nMZhxOIXOP8TdXTzXZ8tlw+vizHVTfmmfudcArjQBGYr/ArYQ/4Y2fAis0K3IrXHjEeJs9JhWLvPcdrr9YKyPP0MUqI0NGkeUe/bdDgJ0YJmfamORycjHx4Fu04+uW5Xjvp4RtCcv8sy+ZXwr1W0l4vjKeqJjmRjGIzmvG7vNflDdJJhNeZG/mj0R/WKFQ9wkgOHfHcmTQrMieGUHqUEe7v79fFxcWTl7gb9kDA7ckhWCxmKnA2Nzebp4CnRLIpFWLV0+qRquluVAs4Bs2L0ELuRUb7GESUJZQRAQrIL5LJcj0rV/fdxsZK2grYuK3b8CLzNfZc/Wz+tjLGO1sul+2EUqA98GRkxGTDmQYuPUAUfa9yCNm6vb2dGAgrLD7PF7QbHrGcGjLKKMGyk0Yx5SrhKMstTlTmFXy4m98i52vWKb6s3cdD91vI7HDRp4yMU45sPLwGDWvZIZjNZu15wIbc67wXsmODYKch589RU8rQt/CinN9Df2ijUPVB+N69ezfBGNndm14+xsNQCmWrJBKpxc6NOlXTUy2zHUcJJFvt5a9Wj4fmuV1fs86DN8ZsOADht0FwWxlOo1yBCgz9OMTuYdv2ftZ5cY6G4Ivhhl5UYHjInmLV9Ihm+mKDaeI57Mbd3NxslSK0VfUBwmDj0jqFZqzcCtlYcUYJ7q+VCWM0HAmPaMPRk+fRspYGIRUmPLDS9++MsPIe/2Ry3s6Gq+7cZ673c3pwSr6NznJgI+wxZhTg6+y08XwcGJfK9iAejMX9/f1HjYHH7GKBlMdv5UU5v4f+8Eah6oMH/ubNmyaM+/v7DddlUokWXIaGsKJcKVP02ft+wbsXoRWyPQ9DL7PZbHIWjndyJhbpReKFZZzYnr4Tnul1rasocYkeY6CdVBoZXveUei5OKK/1PcnHHvl7+u+IxkbTsNRisWj/Ew0hA/CdjXWuUnEUWPUI5cFnR19OTmblSb5K0m3BAz/Hc8Y9xvtTiachsPJOKITnOJqiP5DzGlmtk8Q6yjHa0KVBMZxLVGQnqzfnfnZCe+53rgtDpJ4bGxKeY6jIfctNe2kUPNc2SHaa/ugGoepPYhSqPhyz/csvv7TFAYSDkHgSCS0RbCpzwE7B0PEcMBAWDiexUBybm5vt5Rvg0U7UAlOl4CVMUDXd3ewF4YO7HP5aCTivUfW4uLxnIBVU9qWqJouqBxWsg1fcJ1/XIy9ue62ZZCdagAc9L5z5IUm/vb3dDPr19XU7WJEf5oq9DIbl8DqBTOCj8wOGGl2Pjnw4F2H4LRPlyQ97yGmAzbPkHfOU0aSf43noQUrM23I5faVm8rgXRbv/NhDe4GYZSpnI6MaGzPyzrCS+7590agw9uQDA5aUJDz1nEDKP+WcwCFV/IqNQ9SFiePv2bVuELHYIKAHvHeXiZBsLgcQq7wImeugtZHvvPmCrlxTltwU+4ZdeqJ+KypipFyffO/kNLmzIhQXjpOg6zz77UFWTZ/qeVGTPUVbMWKHxDCszeGOjZd4SHVJbjgdOlEQ5JHkZNrFhQAwDAQey8Qw5ccTA3gSUDF6058IRDn87KsgogrGuM658Dx8yx4IcORpJWcK7dwSU1+WcpjEw7OXrGLPzD4Ze6F9PNjI3lU5BOiGGeaz4zTvnsXIchhvdhp22/N9zy9x5g+ufgf5URqHqwyaiX375papqcmY/CgNB8BuUUJ5V07NtNjY+nLCJd85xBbmb2WG/IR577qnQbAD8v5V9Ghb62DMKjM0LO8NgC3UqcPeh56HlwrJiS281/0/KqMjPSo+YvvKDImL89IdyR3jhfuOt+jpqz62YSboSWbI3AZkxVOCz82nXCtNwBuXMqeDNOxS14bBeZGYeuh0nvdOpcASW0FVGaDl3nuvnDpS0QbPnnh40htF96EXIHrPl14nixPp7Easdvsz59JLHGRnwmQ2n+fRHTyr36E9nFKo+QEmvX79uAmDDYAG7v79vUJExeFeDkIwlCiDk9L4GyJ6LPfpeaWSG7V5U9p57i5zPHFJDFmCHyzwnvfgMy6v6lVBuKw2byQsncWp7kx6H/+8pxR4MkM+28mAu4AdjzEolxm+DbK8P+DEVjQ/QQyEDR9gzdRlrzoP57Ot7EcK6yLHqKQST/PX/lomEn2xUoEykM7aMbO3h23jbwJpXHleP0nFJ2CaVfEa99uw935k8zmvSIKTjZJ4x5382g1D1JzUKVR8iBit44CCEOD0Ib38n34AAOxELlr+xsTHxPhEeYARHClbsvdAZ4ewtXiuMnhLMqhzIbeXiy+t7oXli+lW1ViFDOb51UU5e7//zmb3n0D/mg771FKSVHaWptMkGJeeR+Hy5XLbIA4Wficiqx9r3TGz2vPV1Y3O/4YEVbs8AJpSUz8o5tvLqOSW+N/uUUIyvd07Kz/Imr56896IEjy0jTZ5vGWV9p7ef1V9ZNZd9W2coevOV9/8Z6U9rFKoecwxMOq9GxHvn89vb28lu3VS0CIw9dIyF4QGu927Zqg87N7neEUPVo9LOhbZusWTOwbBA4ss2fj3lYvgjPaP0VqHnFvE6TNr39qIIL3KuS2XTgz/4Aad3W8xbVU3gO8MjKC/yRVStGQ6iHffReLKNgmGvXpSUirmnLHP+et69+dozmklWcpYb88rJa/eTe+wsrJtjxogBNSzV6yvzkBHTurY9Z4Z6zHsbC3+WsJOhI3+W0UE6RX9mYwD9qY1C1QfFd35+Xvf39+3Y5DwUy9UVHNiFcah6WiZX9fSUxp5SJZytmp7imhCS+0Db6zxx+pNK0X111JEL0x6fa9DXRQdWxCYr6+RRz5j4HhRPL5LI5xGq53jMayC+HJ9xetrKfqFAOPSMTY5e/KnQc6zJK+QCMmzUiw74zsa7FwEkn3oRBG33og+uWRcNOPncayefk9Fl1fT4lYwqe47COj64zVTkmcDuwUWes4SgMiL2/7m2cpxpyP+M9Kc3ClVTw0CNul/QDaRhw0Bpo8/SyXDTSqC3iQzBBI4w1ptnw1h5W3nSTtVTo5DwiPvIT3pS9MkJQIfe6VFmGO/KqST3MxWnvXdj/OsSn0k9b5N+E/kxh/zuwS/28tP7pGIJQrn0sGgritnsw34UR2XpzbsPlp0c83POQBpLt5HzlUYh+5AKDuOLkc056UWB6UgYNvoUrL1nJNyWvX7Lsr9P2McVUZbnnkFIQ5Bj+ysZAtNfwihUfZjsq6urev/+fatN52/X9Fsg/L0hIyvf9CgT2qmaeipV0wRgQimOInydPWtDUSxK9yuNF31MpWDlkcbA/fd36zzmvNbX+Bluo4dzuz2uZ5xW5s8t1J4CNC+qplUwNpKU7tpA20O10gPGcN6oB0Osg/xMVu5W/usiMEcFhnwMfRpuSiOS8+72c756fbGXzTpIWMbj6UUn5hHXZn4gIaIe9p/3ZCSwTtH3DMFfBSJ6jv4yRgHyMdlsPvKGJpKL9jzu7u7avgYfbpdeSFU9USi5YFerx0SVjQLkaMKGKKGnhJ/sLefitUfrttZBTLRhr7HnefJ3T0mnIjIskde5ffelZyhsLCBDFemd06aVTPIcB4BIofceg57Scb9tYKxsbMw8tz3j63bM7ywa6EFgNpbwISOSbDejBvqdcKHnOKMkrxMbBMtDRg0Z5ZpXVTUxANl2KvXsg9tOo9AbQxqDT4lw/uz0lzMKVR8Wwc3NzcTj44eoAThgY2OjlaD6JR5OBLpdez6ZvEPZ+FoUZtbVz2aPJ6re399PFHl6nIawfDhgz5t233i2P+tBQOlR2TBB+cx1Sq/Xl+Sdx5gem/tqI/ix6IHFnzXzPQ+RyItKNPrhjU7O49izXqcYcQZslHuU4/W8Z+4pedKb9zTujtx8jZVhGjp+554A/85STijlaB0004syMofQ8/QzYu9FC+sMQrY96AP9JY1C1QfBZ+MJ9emOGu7v7yd7DLzxDaPhfIM9vFRSVr4kuav60Ep6uwlP9PDhqmolsvnCkWyz5/HnMyGPwbh2Kh977mkAkgdWagnv2CDY002yIbQX2zNefoY3983n8zbHfk+vj4imWg2jTpRphW7DkkYpMf91HnsSfc8DCtMJyet7z0lHwnOSvMtohms8P71IKaMEnpHRc0ZbhtnSuNC2DQOf9YxCzxBYtnvG668OE62jv6xRqJpWqqAkgBEwDrl3gfc+398/vuYzDQOKL70Yf+YzdtLjX2cYcuF7wdvTTQXHju2e8nYk0zNM/qwXGbktyAYS3vrzvL83L732HaWYj0BOvi/3dTiHYII/PixxNptN3q2M4uNcIxsGQ4U9J6BHjgzz+p6CtzNAn+3ZrzOcaRStSK2krTThKdRT0D2PO42F5xFjbGPAdT2Fn89y+76O+9NQ+Pk2GD6DadB6+ksbBciLI+Ek8gx5yBwGhWMTfLSFldg6PJWNdFYCTqhWTXFxe9gJJ3jnLH3yeyTwODOK+VhuoBeV9EJtj4Fr+LxXHeP2IUNX6W32Eq9cb+WbxsPHhRA92YAbdgMSJDrxhsSMmHIPQmLRvrYHo/WUeJ6HlV5u4vpJngM7EfQro9Ie9GK++nk2BJ5jOyJ+Dt+7b8b700F6rjIor3Ob64xawkO/piJq0DAKE0pPBgNBLiEXnRULHqdDfis0hJa9AVVPT8tEaO0Z5nlAeFxcT5/Tk6zq71kwpp6LLik9ayv4XPwJ30DuVyqWVI42kowpE695tEcP+rByJeJzGWyvX7n5DI95Npu103ITnjI9N678LOEnxt3btZ5jzTbgk5/hqKjnRafCRWHawUC+cl75e121kefD892LKJ4zDjYCGYVkBJAGynslnovYBvVpGIUOobyNlSJo9ryN97Kr2Z5pz8OtelTOhhFsBDLk9/0Yoh705O8Mc6SyeQ7WShzcZCNlL9YG6znI5GNwUUYuVmbrlHlGCf6bU05tFPzM1WrVlD0n6NIeMMPOzs7kFY7mQ89wo6QTTlo3xz0epwGxw1A1NYx2ADKyc58Sv+cee/lp2Bx9+F7Ll6MAP5P2bFjsrff2E6QRSOWfUQB94HfveO5Bv56GUXiGbBzAI/2KSiclDVmQwHRJaSZFl8tl2/BmiCjDfH/O3/x2FQuLxAaiarrvobeXIT26jC4SXrLHngnMzKWYjz1jkxGQKZWb+ZT3O7LqGUqMtu+BX7z4yMR9Ozs7TxRXzzBk/91Xz4EdgF4U1osm+G14KSMGy1Ya/Kyq6s2NifmjP8xpQkX5jGzzOW+/Z6i4L+/lf+9VWC6XzVBnpDLo99MwCh8he5R4I37RDe8Ofnh4aDkBlD0lpQi54Q28v4SbqqYKIZWxP8t+Vj3NAxhScPWNDULV00PKUtnaMKUCz+NAegldntF7tnliyqggr/P9VmDcZy8YRY9icd7IxoWX7TCnVmr2eHlmwhjr5iEjwvw7jXgaoF6E1JMBQzqpfHvXrjO4XONXT3r/gJV3Kns7B89BV9mX/B5D4I2FPkJjGILPQ8Mo/AryIiOZ66Qu0QNRgL0se9/8jRLKaGFdTsK/SYquS0qvg4HWGRNDH/x4f4T7ltUv9nLT4+09PyudaKsXTa1rgz7bIKXyc9EAbdsY+Ic5Q4E7amPcOWbm22dcrYt+PMYeb9YZi2zH/zNn7J/IqCDndp0sJZ8dTaKcaS8Txgnx9J6dc+K5MgyVxtoGYR30OOjlaRiF30A2DuQZWJDkE4CQUPxelFVPz/2ZzWbtOkMFuXD9eS+fgJJNRWLvcp2SruonSR0xYMQy9+Fr3U5PuaXiZ7zmhz38ntLqeYnpWa9WqwYNEZXhcfaOwsYwVNXkbCqgJ9pxCeW6fE1CXGn4MT7rYLF1RtDyYJild8ZVrx+er57xNc9p3/kU34Myd/s9Y+H7fIidq4N8SGPviO5BX46GUfgdtFw+boDDG3X5KtEDMJIT0ywWFAyf+buegvZCd9TQyyP42nXleIkz92AKKy0veCu5556dxsDKH0jH/eEH5eloygbFhnAdv5bLx93rlAHbo877PLZeniAjpZ6hy7aI6Bx9MCbz3P+v2xNgxe7vs9ImociecUAurNj9m/YyKWze9gxM9s1RTL7j2sZsGIFvg4ZReAHKJC+wEglpSlVdlcT/KNqkhIfyeb6OxZfww7pkcHp93MPvVES+t+pRGeSGMEcUbtPKN79fLpdPjr12dJAGwgrUHnePLz08PUt8uc/eL+9axoisOwKd5ziHZP7yfEd0aTTtJKTCTziI73rK17yCP/7N94nlZ4nyxxS/9yMkFGQeOiLwWWNODg9I6NukYRRekFggYKPeGEUFDIaBElYgJyekqx7hoXULh8WeHiGUZymhkBKKSe9wXZKYPqEsuccYuSMJe872lCF7+R4zXji/e958T8EmRONraRvlzvN6ysnvVpjNPuxz8POspDMv5Ln3/+aLS5XpWyZUrXh7EUIvGsn//VkPLnRbCU1a2efnhohyb4AhVcN0GfEM+rZpGIXPQCwoYCVO3/TxEzYOPoRva2urwQsuY8z21xGerD24dbh+zwC4Qmndc12R4nFxjT1jK7Me9s49+cN9rtrJqMHjzTHZWBrycp08nivXobxp+/r6uu1LwbCj9K0g7+/v6+rqqr3BzUcp2Htnvv1O8Cyt7DkBCZ15Hv0Mjzt57M/4ncrabTAu/s+jq20ckXMMgo3GoD8ezVafaLrXKYpBn06GC/gxxMTLf/gx9PScB1819fCtKJ8L0XvQj2GNquoqbsNkTsY6Set3MVuRWaETERjesMJx//LZhmlou3doXOLVPIOTb60YPT8YaeaBc7C4H2/45uamFotFXV5e1vX1dcPJ0whiFGiTqMNQy8fyIzaQSVb2ve+swHuQT++7zFl4l7Db9P8DEvq26VPU/YgUviBZ6dmbtnFIw5DGwcrvU5RDz/uuesxZ0I4963VJU3vvHgseNAn1qvXnNiWm3TMMiZ9Dz1Xk5HuYqx5hkKy1x6MH5kloYzabTXjv4gGU+e3tbYOZ/LcrcjxWw4dVNTEGXAeMCA9zvnLObfhzjvku9yykQfDcuo3ePf7MczDoz0UjUvhGCO83DQTGgNeH+nA3oBsbGCgrddJb7nmmvT0GfOffuZPX+L6hMfev11bvWWkQbEysGFO5OXdDRZMNgBOfi8Wibm5unuQ/rPR8yCFGguiEvIMVuyOEzNO4aolrnSBmbI4Ifa+jIxtPfmek5XYzUZ0wnT/zHOR+hxEB/DnoU9T9MArfIBmeAaJhp61zDT6ZNaOIdQq+N929HID/zjbTSPj5Vm54x72+GALKPETVU+83lV++jQt+4WWD1YPx+3reuOf2XSfvclN+nCA2Xg6fMBAeD7xmrOQjwOp7lWG0T27HvF2XB4Ls2cOn3mf8XmcU1snJoD8+DaPwJyCXXdr75n8rjPTaua/qqafdw6+dsLUCspdqOXDE4Pa4nr66bX8PZSTh7zEAThQD33jXa1VN8HoUMNBO78gE4+TG99ctiTSM/t+b2nJMjCPhsMyN0O91XrmjpF6kZUOUSn/QoKphFP6UhNdqI7EOPqp6eshe1tjnIW2GiHzdulxGzzBkW5kX6EUdXIfCyzwD/Ueh39zcTF6PuVwua3t7u/b391tCmAojcH8iBOcYRpnkoL8SDaPwJ6bE5q3Ee5CEvVG3keWc6e37GZlHyO+eU/a9vvcqpDAK6yKLjBJcWrm5uVkHBwftdFOMAOWiGINBg/6qNIzCoC6evy4/0DMIplTY+X+WkPYgjswhZCIzE56r1WqSQwGqcX2/90xk6ajzB4MG/dVpGIVBz9K6pPE6zN+K3HX4zjn0cGzDQOsSni6FhLINn17qs4F64xpGYNCgpzSMwqDfTb1IwB58wke9KpZ1FUUDzx806MvSMAqDvihlYrkHHQ0aNOjr0aeswbGjedCL0ah1HzToj0/PH6gzaNCgQYP+UjSMwqBBgwYNajSMwqBBgwYNajSMwqBBgwYNajSMwqBBgwYNajSMwqBBgwYNajSMwqBBgwYNajSMwqBBgwYNajSMwqBBgwYNajSMwqBBgwYNajSMwqBBgwYNajSMwqBBgwYNajSMwqBBgwYNajSMwqBBgwYNajSMwqBBgwYNajSMwqBBgwYNajSMwqBBgwYNajSMwqBBgwYNajSMwqBBgwYNajSMwqBBgwYNajSMwqBBgwYNajSMwqBBgwb9BWg+/zR1v/mZ+zFo0KBBg74iHR4e1tHRUR0cHHzS9cMoDBo0aNCfhObzeW1sbNT+/n59//33dXBwULu7u7VcLuvm5uaT2pitVqvVJ104m/2uzg4aNGjQoJenra2tOjg4qJ2dnTo7O6vDw8Pa3Nys+/v7ury8rPPz87q4uKjLy8taLpcfbW9ECoMGDRr0B6ONjY367rvv6vj4uA4PD2t3d7fm83nd3NzUmzdv6s2bN3Vzc1O3t7f18PDwq9oekcKgQYMGfcM0n89re3u7tra26vT0tF69elUHBwc1n8/r/v6+Li4u6t27d/XmzZtaLBa1Wq1qnVr/FHU/jMKgQYMGfWM0n8/r+Pi4Dg4O6vDwsM7Ozlpu4Pr6ut6+fVvn5+d1dXVV19fXn6Tsq4ZRGDRo0KA/BM3n85rP53V6elrfffddHR0d1dHRUVVVvX//vi4uLur169f15s2bev/+fb1///6T8gNJwygMGjRo0DdIGxsbtbu7W7u7u3V0dNQqhUgQX11d1du3b+vdu3f1+vXrX50XWEfDKAwaNGjQN0Lb29t1cnJSR0dHbe/A7u5uzWazury8rLdv39bbt29rsVjUYrGou7u7F+/DMAqDBg0a9BVoc3OzNjc3a3d3t169etWSw9vb27Varerm5qbOz8/r7du39fPPP9fd3V0tl8vfBAn9GvoUdT9KUgcNGjTodxIbxvb29mp/f79OT0/r5OSktre3q6pqsVjUmzdv2p6B8/Pzev/+/VfudZ8+2ShsbGy8GK41aNCgQX902tnZqVevXrWk8OHhYTMCJIf//e9/1/n5ed3d3dXd3V3d399/5V5/nD4ZPho0aNCgQX9+GqekDho0aNCgRsMoDBo0aNCgRsMoDBo0aNCgRsMoDBo0aNCgRsMoDBo0aNCgRsMoDBo0aNCgRsMoDBo0aNCgRsMoDBo0aNCgRsMoDBo0aNCgRv8/RrXetAm9aFsAAAAASUVORK5CYII=;" parent="1" vertex="1">
          <mxGeometry x="-570" y="100" width="200" height="200" as="geometry" />
        </mxCell>
        <mxCell id="qkkkB0GDpSP-I1iQ6_yL-3" value="" style="shape=image;verticalLabelPosition=bottom;labelBackgroundColor=default;verticalAlign=top;aspect=fixed;imageAspect=0;image=data:image/png,iVBORw0KGgoAAAANSUhEUgAAAYUAAAGFCAYAAAASI+9IAAAAOXRFWHRTb2Z0d2FyZQBNYXRwbG90bGliIHZlcnNpb24zLjcuMSwgaHR0cHM6Ly9tYXRwbG90bGliLm9yZy/bCgiHAAAACXBIWXMAAA9hAAAPYQGoP6dpAADsVklEQVR4nOy9148cd5YlfNJ7X96x6ClRoijXRi1Na3p22mGwM41d7MPuw2KBedp/ah53McDiGwwwprvR6lW3Wmq11JSjJHqyvEmfGRnpM76H2nPrRpIsZklFsqr4OwBBsipNRGTGteee63Ecx4GBgYGBgQEA79M+AAMDAwODwwPjFAwMDAwMBMYpGBgYGBgIjFMwMDAwMBAYp2BgYGBgIDBOwcDAwMBAYJyCgYGBgYHAOAUDAwMDA4F/1Ad6PJ7HeRwGBgYGBo8Zo8wqm0zBwMDAwEBgnIKBgYGBgcA4BQMDAwMDgXEKBgYGBgYC4xQMDAwMDATGKRgYGBgYCIxTMDAwMDAQGKdgYGBgYCAwTsHAwMDAQGCcgoGBgYGBwDgFAwMDAwOBcQoGBgYGBgLjFAwMDAwMBMYpGBgYGBgIjFMwMDAwMBAYp2BgYGBgIDBOwcDAwMBAYJyCgYGBgYHAOAUDAwMDA4FxCgYGBgYGAuMUDAwMDAwExikYGBgYGAiMUzAwMDAwEBinYGBgYGAgME7BwMDAwEBgnIKBgYGBgcA4BQMDAwMDgXEKBgYGBgYC4xQMDAwMDATGKRgYGBgYCIxTMDAwMDAQGKdgYGBgYCAwTsHAwMDAQGCcgoGBgYGBwDgFAwMDAwOBcQoGBgYGBgLjFAwMDAwMBMYpGBgYGBgIjFMwMDAwMBAYp2BgYGBgIDBOwcDAwMBAYJyCgYGBgYHAOAUDAwMDA4FxCgYGBgYGAuMUDAwMDAwExikYGBgYGAiMUzAwMDAwEBinYGBgYGAgME7BwMDAwEBgnIKBgYGBgcA4BQMDAwMDgXEKBgYGBgYC4xQMDAwMDATGKRgYGBgYCIxTMDAwMDAQGKdgYGBgYCAwTsHAwMDAQGCcgoGBgYGBwP+0D8DA4FmFx+ORfzuO8xSPxMBgF8YpGBh8Q3i9Xvh8PgwGAziOA7/fD8dxMBgM4Pf74fV64TgOQqEQAoEA6vU6ACAcDsPn8yEQCMBxHHmObdvwer3o9Xry+nztXq+HwWDwNE/X4BmBcQoGBiPC6/WKQXccB4FAAD6fD51OB4PBAOFwGIPBAK1WCz6fD36/Hx6PR55Dox8IBNDv99Hr9RAOh9Hr9eDxeBCPxxEIBNDtdhEMBhEIBNDpdAAAzWYT/X5fnEa73Ua3233KV8TgOMLjjJi36lTXwOA4w+PxwOv1wuPxIBqNIhaLIRQKYTAY3Be5B4NBcQSO40j20O/3xTEEAgE0m000m00x9l6vF36/H/1+XxxMMBhEp9MR4x+NRtFutxEMBuH1etFoNNDr9eDz+dDtduHxeOA4Dmzbhm3bACBZh4HBgzCKuTdOweBQgFF1r9d7KvX1aDSKUCgEj8eDYDAIv9/vMtrJZBLBYBC2bWMwGCAWi6HdbqPVagHYNcb9fh/9fh/BYBA+nw8+nw8ejwfdbheDwQCBQADAzv3U7/cxGAzQ6/UQiUQkM/B4PPD7/QiHw7AsC91uV37X6/XE8Xi9Xikx8X07nQ5arRY8Hg86nQ7a7fYTv5YGhxfGKRgcCtCAeTweRCIRiZI9Ho8YNEbKAMQY83mMzjudDvx+v5Rvms0marUa2u32vh2Jx+NBKBRCIpFANptFLpdDr9dDv99Hu92Wss1gMEAoFJLSDvsArVYLzWZTnALvD/YWmG3w+Gu1GgAgGAwiHA5L+ajdbsv501HwedpB8n07nQ46nQ6CwSBisZhkLJ1OB47jwOPxiGPr9/uwbRvdbhf1el16FQbPLka5T0xPweBAEQwGEYlEEIvFxFDSIfALGQqF4PV6pfRCY8VonWUYr3eXMc3SDcsvdCY0nrVaDa1WC91uF7VaDf1+X97TcRwEg0HkcjmJwhOJhDSDw+EwAMC2bfj9fsRiMXm/UCiEcDiMcDgsUf5gMEC5XEaz2US32xUnx95BNpuViD4QCKBSqaDf7wOARPC60czf0aHoa8nn8G/tQOhUer0egsGgPC4UCkm/IhwOo9VqIZFIIBwOo9lsYnNz0/QjDB4K4xQMvhVCoZAYUY/Hg2QyiVAoBAAuIw4A9XodkUhEImWfzwcAUuLgazASp6FjOYYGUzsXMn6i0ahE6Py93++XJnAsFkMkEkGr1cJgMHAZU9by4/E4gsEgGo2GGHptgAmWiuhgWM6JRqNIpVJStvF6vZLFRCIRdLtd9Ho9cTSNRkNKSuwV0LmwbDUYDCTbAHYcZ6/XQ6/Xk1KTLicxqxo+ZmYm0WgUk5OTUgZrtVqS7RgYAKZ8ZLBP0ADFYjEkk0lEo1EAkMiUTVgaJNbpgZ0SSCgUEoPMbIHRPI203+8XI0mDSeNLQ9ztdtHpdCQrocHV0T+bw2zw9vt9qe0DO06DxprRtNfrRblcliifRlcbbZaZLMtCs9lEJBJBPB6H4zhoNBqoVqvi9Ojw9HEzM+D1pOHn9SE7iY6n3+8jHo/La9i2jXa7Dcuy5DrzbzqVbrfr6id4vV5XRsIshI9rNBpoNBryWRgcT5jykcGBgMbK6/Uim81KXZ/RKBuhNHi6UcsvIY1/o9EAsGvEBoOBZAwsF9FQ0dHQ0PP3NOo0poyadaagy01k5+jXGx4cY1bAyJ3Oz+fzCWWUP3ccB+FwWDIksoEajQba7bb0HvhvOslWq+XqM/j9fgSDQUSjUXi9XsmOaNR5XR3HQS6Xc12jYDCIUCiERqPxwFIQz1FnS7r3wPd3HAfxeBy5XE7OoVqt3udUDJ4dGKdg8FCEw2EkEglEo1HJAggaUkbPLFvQ6NII0jANP4eOgKUlRvrsM9D4sanK6LnVarmiY6/Xi1gsBmCHyx8IBKRRzYga2C1l0VmxxEMn4vV6ZY4gEom4Mp1+v49QKIRQKCTDagDkvMj8YXbC92+1WojH42g2m6jX62Kom82mOEc6IzpTr9cLy7Jg27ar2Q7sUmXZ60ilUkgmk+h2u/KcTqcjdFWv1+sq5dHReTweoc3SYYXDYUQiEUQiESmBbW5uSpnJ4NmBKR8ZCFjCYEkmEAhI87Tf74sRZNTJCJ5USQDSB2DzVg9p+f1+V7Sssw0aeL6+4zhS6qHT0e9BR+Dz+RCJRDAYDJBMJsXAdrtdKUmxjETDzed2Oh1XM7vdbku9Xx+34zhot9tyvvpYALgYUYPBQBhWjUZDmrvdbhfxeBx+vx/VahWWZbl6Ef1+H/V6Xer8PO9erwfLsuRa0nEwwyD1dTAYSITfbDbFGUYiEckUgsGglL74egTNAK9Pu91GpVKB4ziwLAvlcllKWgZHF4aSajASWLKIxWLIZrNCFe10OmLMaZhJoaSBBHZLGhzgCgQCYgD58263K87F4/GI4aFDoaNhX4Dlpna7LYZfN7E1u4klHs1MYvOU0TYjd5/PJ1E/AGkCs3yTSCQQCoXkmHn+ZDSRsqpptTTMdHbso9RqNTlG3ZBmlsC6PjOTWq0m5TAa/k6nIxkMs4Ber4dmsymZFx14q9VCNBqFbdvY3t6Wa0PQkdEZDDt7OlI2s5vNpjyHsxalUknkOgyOHkxPweChYGmIRiwYDIoh73a7Yph17Z8Gm6UJln4YwZJXz1IEjQqjU9bkW60WLMuSaByAaw6BRioWiyGVSkn0nkwmkc1m0Wg0ZPKX5R++Nksjup/B1ycdlNRTlrZ09Fuv19FsNuUY2u22OEI6NhrrXq8n14AlKJaO9LGxycuf8TXoRFgyo3MmfD6f0Er5OfV6PVSrVXEU/LzoqLRTZgkPgPw7Fou5muVsTLPUx/MB4Po/m/fMHkulkmR0BscLxik8I9ARbSaTkeiYjUxgJ5rlkFaz2YRlWS5mkNfrlXr1YDBAIpFAJpOR57N8QWgWko6AgZ3sQbNhACCXy4mxjkQiGB8fRzQalSichpTlEhpV8v4ZFWtKJg0nj4E9ilarJQNzur7f6XQkC2EkTmcQDoeFBsoJY2Y4bDjTeQC7A2eMwOmE2exlFsMyWTgclnNkpsbXIROLr5lIJMT5aUYTnRgdT71eh2VZQo2l4+Yx0CnydXm9+EeXB3kdUqkUMpkMBoMBCoUCqtWqcQ7HCMYpHHPQmMViMcTjcdHUoVElQ4blGjYaGeWzXKEHxcjt10NVjE7L5bKUfQCIVAMAqZMzC9GMIq/Xi/HxcaRSKTHqjEzpCFgi4cAYX5PP57/pIPg6dCj9fh+RSESUS2m8GTnTcfI1aHABCD2V50Cnqgft/H6/NKPZENfnyGNi5qCPnQ1nOjBmZdp50HAzcwAgfRI6pFgsBtu25TOORqPIZDJSDmLGx4yIn5PO5LST4Tkxo2DGQVrr3NwcotEoisWiYSsdExincAzBGnwmk0EsFnOVVbQR1oYHgDQ70+k0otEopqen4fV6Ua1WxUgmEgk0m00xbOVyWTKQZrMJ27bFYPI9yL3ne3HOgfV7Rvh8HQBCx9RaQTwPnosuY/FxelqYUXin0xGDx8avlqum4RtmDunpamYCLO9oJ0Lno50SQSfCmjzPn9kOG+B0rHREmoHF8wXcg3N0GDx3Og1eG83sYuZEiiyH1tgEZwDQaDTkvPgcOhM6BqrBsvk+Pj6OeDyORqOB7e3tp6ZfZXAwME7hmIBaPsFgUG5SRvI0/iyPaJooSyA08qVSCT6fD8lkEslkEpOTkzIARiNB48eGKkXYOC8QDocRjUZFWkEPndGQ+/1+KQ1pvSAaMBp2guUUnicAMaxkEcXjcZGUJguJDknPLmjShI66tQPgezIbAHYbtPw5ryGdkmVZaDQaItfB59BxMeKn0xym2OrSG+v1+n1YAuLx6KyFPQEtr8HshsfInkSj0UA8HhcWVr/fF2nuXq8H27bRaDRgWZaU8uiE6OT5+dGZADvT1uPj49jY2ECxWDRaS0cUxikcA8TjcYnuAUgzl3RHPTfAEhEAiTS1UXAcB5VKRZqt6XQaALCxsSEOgQ4mEomII/F6vUgkEkilUgiHw9Kb4NCbdhaMTGmQGc3rqWV9fDTUOlon44gOQQvr8d90MCwdaYPPkpKef2AtHtgtQfGx+m86GP04ZiHALkVVl1Po6GjQddag+zr8OZ0CnQtLOjx/ng+zGR6X7n/w/4zwWX7TWc5wsxvYdcAAJJuoVqtoNBqSYfA1eQ30bMfs7CxisRiq1apL98ngaMA4hSMKGoSZmRmpk3s8HrnpWfenEedzWOaggaXRBiAlFhrxer2OeDyOaDSKSCSCdrstr0fapsfjwfT0tDCEOBPA92I2wWNg7VuXhRj9kgKqqat0EDwXZgsApEmqnQKwk8HQCTWbTblmLKnQGGsxOm0gaej162mHyAyF7B1KYGhJD5ZQdHlOU1YZ9bNcxQyKTprHS0et/x5mbDFS53eAx8/BM8pyc0qanw2Ph9dFnydnIMj0YjZCJ0G5DZbfeI583YmJCWSzWbRaLZRKJVSrVZlSNzjcMHMKRwzkpQ8rkRI0TlrMjZEga8Y0gGy2ssnb6XRQrVYlOk0kEojH4/D5fCgWi9Jc5Ptro0cno2vrNLA8Lta0+TgaP70wJhwOu/SG9CQuo2WWMTS/XrN/SBnl46mIqsXfeN34epoSq2cO6NB05K9pmj6fTxhNukmtl+XokpXOsHjc/L12RHxvXbrSzpzXlSUjOlDdXNelIzoxDg/y8Wwee707k9wU6RueqdDaSrz2pVIJxWIRAGBZFur1unz39JwFr3u325WMQztrgycHM6dwjODz+aQ8o3+mue3DDByyhhjxkalCw6Prz1pvnzc1l7aQwcIpWkbEWvdHR6BamI4GV0fhNLSMenke/MLqaFLTOnleZDfx9ejw+Hsaej6fDkhTVGkU9cY0Lc4H7A6X8bWHy08sow1PN/P1dWmL5Rgyk/g+fC89/6Ab15w7YL+Fx6idsL6++nPhsbEfRCfBY9dzBnqSWmcmdJB0RHo73NjYmPQV2u02bNsWRhNLhLwmuVwO7XZbZD+azSZKpRJs2zZN6UMG4xQOOXw+H9LpNDKZDAC3MSKvnTc4ewNk4ND4MDoks0UzU9gwZIlBa/gAu2UbGgf2I2jwGO3SUbAURdopWSqsuev6NwAxVlrXh5GzLtXwWtDRMFPha+i6vL52zAD0Eh9mSjwHXic9dcxj0A38brcrRkzX8nUDXWsK8fPSzjkajYpTIxOI145ROyP/Ycou/9BJspxFpzF8/nwtZhV6epmvqXsZBJ2Sfuxw9tbpdCQDI82VeySYcebzebnePD+CAc7GxobQn+k4DZ4ujFM4pPB4PEilUojFYjKFSoYNWUS6GcjIHoDLMDOKpKFnmYNN30AgIH/z9WgQaOx0RjHMfmEph8/T5QMaeD5WlzFYX+aELHD/ngI6geHaPY0Wz1XLTOuhM74vGTSaiso6fiqVkvo4rx/1gniupMoyG6KRYwaiKb86cuf78/rpxroup7EHwoE+Og5mG3TKnBrX5TdNGtDSHsDuvgk+lteMz2eDX1Ne9fePj+U58n14DFr/iuKCZD2Rcsx5CJ5bPB6X12HAk0qlhA5dr9fNAqCnDOMUDhk4MTo2Nga/3y8qmGzyUglzWAKaxo8Gko1fRuzJZBLxeFx45nwOHYfmpuuasm6c0kjrKFjXrgEId10bVEo80xjrGjqNt26u0iEAu2wcvhfLGrocoumujGR1M5hZj25qk0rJaxCNRtFsNqV3MFyfZy9Hl6f494PotLr8QydOh8CMa2JiAouLi8IMSyaT4nxrtRry+bzL+ZVKJWEA8doy22CJiOfD667nOQDI58Dv2jAzSDtpPZ3NY9BDiWRD8Xf8mwFFIpFAo9GAbdtSmuIKVQDIZDKIRqOwLAutVgupVAq2baNSqchOCi1BYvBkYJzCIQJ17TOZjBgSRprAjlFj2YEDRLpkMBgMRE6ZDoW1e6qfArtlGEasukbNiJzGJhaLwXEc0dqhIeTNT6PH4wXcTdLhmjcfT8MLQCJclsR43gQNDo2+rrEPzz/o66Fr86xzDzfEyRLitSAtNZ1OuxhK2nkNnxcNMd9neNpbH5/H48H8/DxefPFFjI2N4dSpU3Lter2eKL6yRs/X397eRqFQQKvVwtraGhKJBGZmZoRt1mg0cPPmTdRqNXFAjNx5XblMiNdOO3UebywWw8TEhMic8Prr3pB25vze6WVILJfxccx2OeAYjUaFAkwmG2cmGLSk02nU63XX8h+DJwPjFJ4yWNqYmJgQtUtgV8CMnHDecKRs8o++mclIopwFH8Pa8nC9nL8bZqvo6I9GkFx/rTPE1xmue+ufD7NpaDD1DIJ2BrosA+zW67UxpwGmUwB2Mw2WL5jZMNPgazuOI5RKPo5RKY+dZRqvd0cSRDdOaWh1FDu8N5qzAcy4dHM7Go1ibm4O58+fF+cP4D4hPMqGEKlUCvPz86jX65icnMTY2BjGx8flOCuVCnK5HOr1OsrlMoCdvk+lUhFHwMlkXtfBYODaf8H3Zg+IhpzOk8ae31sdFOjyEoMMOmEyznTpLxaLSe+BQQFLbCyppdNpGQhstVooFosmc3gCME7hKYE3wNzcHNLptDQne72eCNHRcNNQsRfApjAbzbqOy2aq5u7rBjFvquFmJh+vnYhuYHPZzLCAHrnten8BAJezGG4W6/r/cKRqWZbL2WluPo0l+x+s79P50OjozEQPtfH1huUkuHCHS2b4+vxbZxY6W+H11A3x4fcnWPMPhULIZDLIZrP31fH3AvtB4XAYuVxOPk+CsiQ0tNFoFJ1OBysrK7h79y7K5bLQjavVqnxGupfE7LFWq4nzJq1XO286CX6mdIi6UczSlWZT8bPWxh+A0JBLpZIcBx0Ve1/9fh/JZBL1eh22bbvoyWY47mBhnMJTwMzMjJR2GCEzI9CMGhobNpeZWqdSKaRSKVe5RJdDhpkqNGYcYGItmTf7cG1Zl3906YTNQb4XG6f6xtQlLf6MBls3hfk+/Ddvcv1YXhs2Sdkr0Y10nf3ohqg+FxpuNuTpTPkcOlZKYtDgMjsg00iXMOhQmBlo50Z6p86UyLzyeDxSmtov2Mh/1O8nJibkZ5FIBCdOnMBgMEClUkE+n8enn36K1dVVyfw084vlND0UqJ2GbqDzZyQOaALAcGbn8XgkI9DfBa2lxMfQebE5zbmOQCAg4n56PzUzPc5hGCfx7WCcwhNELBbD7OwsTp8+jX6/j83NTdTrdYk+gV0qJ8tKbBhTvTQSiYiQnB7k0jcyKY6ajgjs3siabTLcKNTMHV0K4WN0aUgzizilq0tOfC82T8mm0efKx9LAssxA46eF7VgT12qipJYyU9GT3J1OR5rHfDwpvF6vF7lcTpyuXmGZTCZltoPDW9zHTANp27aUQbST1f0GnTXwXE6dOoXFxcWD+1I9Asx+gJ3G7tzcHKampvD111/jypUrsCxLjPJwT4gOXpcLgd0MQ/cS6BD5PE1FBuBicxGaKMH35TIl9h+KxaLLcQG72+HYTyF7Sb9OrVZDuVxGvV6/730N9oZxCk8ArI/Ozs7C7/fLzt5Go+FqygG7LJ9EIoHx8XHhtrPfoHn+uuSjby7NkKFB1CUfPoYGjEZaR8y2bbvmAuhItJQ1HRKdEt9DNyZpILW2EY0Go3BgVzhOv4feC8AMiE5FOzG+Hh0SSxvDGQk3t/X7fZw/fx6vvvoqLMvC+vo6SqUSarUabNsGAKEBezwexONxl9Q29xSQBcbeDzMnMnS0MbUsC6dOncKLL74oTdUnDfZ0Tpw4gVQqhXg8jkqlgmQyCcuyZGaADCHdQ2HZTdOQ9awLS43A7ufPoII6XPozYwbKz53vxYyK311gh9HGLIPgVjt+X5hl8PNNpVLCuiNrj5+TcRB7wziFx4yxsTGMjY0hnU6j2WyiUqmIAWNDleUM3oDkbieTSRdjCIArA9COQA+Y0ThqfrouZWgnxOhal5f0TaNZJbwBNa9+uLarb1Qt40BjyVozHZVmwejyBEs3OuLWTVJ9Xnx9XgePx4NEIiHDfHSEzLwA4Pz58zh37hx8vh0pBx4rl9JQN0lP6DJDsW0bW1tb2N7eRqlUEuMYjUalMd1oNKQuzsfMzc1hbm7O9bk9LaTTaTz33HMSaZPY0O12sba2hhs3buDWrVsAcN9QGctx1LnSzoBNeDLl+HM9J0FtLsAt30HHw88CgGRy4XAYlUpFAgId5DC75rHy+637FplMBp1OB5ZlidSGwYNhnMJjAMsK2WxWUuFKpSIccRpFRqJUFWWtmdmBZrDoDIFMIM1LZ+bA+isNKh0DDTtvWq1DpDMKlmIYrWvDrEs8jN71fISuJ/O4NKtFSx8waqUGjm5K83VYy+c1IENHrwklH55RPA0/o1vSHunc+B7MWpgJELlczvVZPqz0wDp6oVAQXj0dHKNsACiVSsK0SaVSomR7GJBOp13lQl6HyclJnD17Fp9++ilu3bqFra0tmZUh6YDSFpws5+fNuZpqteoSGWSGpwcQgd2MVQ8b6t6SHvjTcw/DmSs/f01a0LpOwO4ucmYP+XzeJe9isAPjFA4YrIlOTU0BgNQ9OcrPm4RUQDaQSSXVrBbd6GSDmOwgPXSm/02jyscBcN0YmkLo9Xpdqb1+nKa06ho5h+jILBmmCOp1krp8xNdmmUCXIPg6nLrm73RWxGsF7N747D3QSFGnSWcSLHnQAfB1tre3Ydu2yyE8CNrIaDAqftDzSXtttVqwbRuFQgE3btxwNckPAx7W7PZ6vUilUnjzzTfxwgsv4OrVq/joo49kQA7YFcZjiS8Wi8kENSVBfL4dSW0yvfRnD+wysprNpmhz8bvFwIPNY/Yv/H4/UqmUlIRIs+XvdEDl8/mk7MTd3MzMObBYKpWwublpJDYUjFM4IDA7mJqakqYroyvefKQVknLHL7DWGqIRY4OXUZBmgwzTSBmJsZFLIzpssNlr4O/JVuGNx6hLG13ewHQew85AM05YJqBMA5vopDbSOADutJ/1ZSqy0hHSIYRCIVnIQ8Oi69EAxPhow6tLDLpJDuzUpCkN/ji+CywlZbNZjI+PuyLjowKfz4dcLodXXnkFHo8Hn3/+OTY3N10sMn52lEphSW9iYgITExPI5XIIBoMubS1mDTTslmWhUChga2tL9knbti39NgYTuscBQDLCXq+HZDIpx8KBS34XgR2qs6YUk9KcTqfh9XphWRZKpZKZg4BxCt8aLP9ks1nZqKWjHpYugN30lVo6/Ftz94FdVgY3XjEi03x7bcD5N1k3Woqa0RpvJr34xev1StOTDoyvC0Dq7TTgfF3eUIQeXiJPXk9J8zF0CHqgyXEcWRDEshBpinpeQtfz9YSwzmY0DVc7Ab4PFT3pBMvlMiYnJx979E6nTsd21JBIJPD9738fY2Nj+PWvf416vS4BTTwel7WvwI5zjsfjmJiYwMzMjPSQeI2HacdkJdE5VKtVbGxs4M6dO1heXkalUnF958gUY+bKOYZ4PC7fDc79sMzU6XQQCoXk/uQ9wOCGPbxsNoutrS2Z43hWYZzCtwDLB2RyUKSOUXooFEIikRCDxkhdRziMiplFMBLnjUPjSWegox86Ha/XK5Epm2mawTGcGTBqowEGICk6DWyr1bpPcE/XXnVTWVNjKWHBY9OUU5augsEgEomEODPe1JoKSQeol/HwmrOcxmvKfoXOcti0BHYH5nQD80GZ1ONCMBjE4uLikXQIRCAQwPz8PE6cOIFms4nJyUmMj48LXZrfXX6+et+2Bj8vghkyA6ter4eFhQWcO3cOd+/exZdffomVlRVXOdLv311ByqY1503IGnMcR7bB0QFpdpNlWbIylPdKNBrF7OwsvF6vTIU/izBLdr4BPB4PkskkpqenxajryIQ6M9FoFLlcToawdKmF0SsbozpraDQaUrOmEdT8bxp4Pp+y0GQqMRrmDQTANbgWiUTEmDOFJxtDD7Ixdecxa949jSxLAnq2AdjNDLRRp5PUDUI9c0CRNZYJ+Dqap66dq26m08gP90WYgVQqFZfKabfbxaVLl/Diiy+a7/aIaDabKBQKaLfbyGazIuf+uK5fr9fD5uYmVldX8cUXX+Crr75Cv9+X3lulUpHvBLBLIGBWoQkaum/R7/dRqVRQLBZRr9flXqEDabfb2NracokHHheMYu5NprBPBAIBpFIpMfa2bYsMNA1fOp2WKJoj/IyStW4OjaIu1/ALrUXvdJNWU0nZvKMMgE6nU6mUlEj0kBlLSHzdXq+Her3uGnzTXxw9FETnw+lV3ng871AoBMuyJHKMxWL30RFJE2Qpis1JSmUwU6GhZxbA4+c1YKmMWQWwW8Yi88jn82F6ehrdbldqynoqe1gqwmBvRCIRzM/PP7H38/v9mJubw+zsLObm5hCJRLC9vY2JiQn5rMfGxiSbLhQKKBQK8n0GIBkvA6xarSbN50QiIc6g1+uhVqsJg8rn8wlJ4FnbEmecwj7A+imHoOgUGK2wNBOJRKQsw2iWDoGP5RdRN4b5HI/Hg8nJSYRCIeTzeYl+aMxYE6UhHhsbQywWE+fUarXkJuIaTWrns0xE5hGwSwfl8erG8XDZSE+uMmLnsXPpSjQaRTqdRi6XEyZOo9EQBVGm/npeghE8sKvZ/yA5DOB+iQU96crnszHO/+vXbbVaxiEcIXg8HszMzODy5cv4+uuvRTPs9OnT0i8DgI2NDXz99dcyX8Lv+/b2trwW52q4R4SqtJyc7vV6kvFzy2E+n79veO44wziFERAIBJDL5USDiMa50WgIe8jn8wnrhqUkXdMmM4OZArBr7OgoJicnkUwmkUqlcPr0aXQ6HXz00UcolUpiRPn4WCyGEydOiMHWQ2uJRAIAhPnUbDZdw2s6ymd0rksuNPTMcFgeI6sKgOj18+eaQRUOhzE2NiblBcdxsLW1hXq9DgDSy2DzXDeqeWz6OvFnjPJZBuLNzfISewYsKbXbbayursoKST3pTFqwKR0dDXi9Xly4cAF+vx+3bt2S+473GACXoWfmWSwWhTFF0UiWcwHIkGI8HpdsgVksKdMzMzPY3NyUaffjDuMUHoFYLIZcLidNXEYMrO1zdzENFpkt0WgUiURC9F8ojaAjFZ1ZzMzM4Pnnn8fs7CzGx8dF1GxiYgI3b97EtWvXsLGxIWUlTQtkiszBM/KvyQLSA226lMM6vT4f9i5070AbU5aqzp49i9OnT8tNR4fH82IzeXx8HO122yUhoR0Usybd+KVj1TMbjPp1z4MNbDKvWBrjMN1gMJD5EC37wXPWBsXg8IP0ZKq/+nw+ZDIZGfpkQMXs3LZt1Go1CdoAiMYTS5js33EDHwdNAXfGmsvlRH/ruMM4hYeA0TgzBE0vZfTMhhdZNvwy0tiTpkftFi0lQfbN9PQ0pqensbCwgBMnToi0BY3a9PQ0Tpw4ge985zsol8tSayefm30ITtWura2hWq26egl6vSSwOzWqB9/4c5bBmCUwA4hEIkin05icnMSJEyewsLCASCSCra0tvPfee65FOel0GhMTE5iamkI2m5WIrVKpiB4O35/sI74fG/V6spW8czoA7VTIOmHpSfcr9FwFM6Nh9ovB0UG/34dlWTKFPDU1hWq1ilKphOnpacRiMYyNjWFtbU2ewwxBCzGyJKpXnQKQaWeWH3nPMpPNZrOoVqvSUzuuME5hCGxAZrNZMeosBdGocN6AJQ42WxlF8OeMQvRaRMdxZGDK691R5Mxms8hms9LY0qs22TMIh8NYWFjYU3a53+/j3r17+OCDD3Dt2jVpUHPLFd9TawXpJjdT9Pn5eYTDYdRqNQQCATz//POYmJh4IJ8/GAxiZmZGmBrRaBSTk5M4efKkayDv0qVL8Pl8uHXrFizLkqwinU4jFouJOCAb5CyZ6XkORvt6GI2ZE2UnmA3o5jpfg46RdFZTOjpaYFbMsiODjEajIcFbJpPB8vKyCPHxnuRnzuBNy6RomRc9V0PnQYYes/pyuYxarXZsHYNxCgqccMxms66VilqjSDOGGJHmcjkkEgnRNyL75kGTtTqC7Xa72NzcBAApc1iWJbV71ubHxsZEOvvs2bPSABsGo25G+lr+IhqNiqFkuYbHRENJJ/Taa68hkUjcN4A2DE4tc8BtcnISCwsL0m8YPraLFy9ibGwMKysr6Ha7mJiYwOTkJPx+P1ZWVrC5uYlwOCyLdubm5qS8pMtDpCNyApXKl8NifvxMWY7SonomWzh62NjYwL1799BoNEQgj4EBS4G8L7UiKku/WipG9xY4W6QDDr4WZ4ZYigR29LECgcCxnYA2TuH/IRAIYGJiQkpCNDCcA2CdHIBE2vw/5QySyaR8cfTOX0YbbMrqoTPbtrG0tITbt2+LRAOZMf1+H6VSCdvb2zLg1e/3MT8/j1wu5xryarfb2NjYwPLyMorFInK5HBYXFxGLxWQiularyRee5R5G6uTxZzIZ12zBXsaTN5/f78fCwoI0yh8Gj8eDqakp6ZdoXaFUKoW1tTV0Oh0poc3MzCAej4vmDmUufD4fTp48KWUyls9Ip6VT5oAe9XVYluPnYDKFw4/BYEd2fHV1FZ9//jlWV1ddCq3Arhw8sFOqbbfbsl9aD35SQoZzOiSLcNhTz8HQuVSrVVn6QyfR7XYxNjaGXq8n/YfjBOMUANfuAn7BuL9AT+UCuxOZ0WgU4+Pj8kXSHHg6Faas/ALrBqluzNJ5MLpnyus4Dra3t5HP55FKpZBOp9Hr7ewUnpyclJoo5RNo2GOxGKanp/EXf/EXSKfTaLVa2NjYwPr6upSU+v0+0uk0FhYWkEqlZN6CxnQUBINBPPfcczh16tSeG8GG8aAyFGv+uVxOlqawLMdrSGPu9XplUjyVSgkBgL0DTrVyMlVnS5TTZgNdDxQaHC5weO3GjRtYW1tDuVxGIBBANptFKpVyKajati3fiXg8DsuyhDTBAIhBiJ64JlOQbCQ6BD1U6fV6RfZe99ympqbQ6/XQaDSOVSnp2DoFfaPzAxv+mcfjwcTEBDKZjCtlJHMmGo2KgdaRpc+3o/HOeQRy+yn2xZmAwWDgGv/XNU2WZXTPgRIB/CKzicrMhJnC8vIySqWSbGHTy+m5CYyZBXskbGLfu3dPSlTsZXBC+5tiPw7hYfD5fJiampLaPx00o0FmQ+zrMOuhDDIFCMksYcSXSqWkOZ1MJtFqtSQb1NIeBocLdAi3bt3CzZs3hYYcDocxMzMjczkUztve3sb4+Ljsvxhm6JHYQP0jPXSpV6Xy+8VsnfaAcw+1Wk3uy3A4jNnZWWxsbKBWqz3lK3ZwOFJOQYuoAXBF74woST9kuYd1b0bwlDhgw5erF/mF45Qjp5Fp/NkkpqaOFvqiQ6Dh52IXLfvLLxfr7ax1s2ZJYwhAVEFZngJ2NO6fe+45TE1NiQGcmprC/Py8lFVu374Ny7IkO9AyEzwfyjnT6R2GKJlzBmNjY/J/YHfwj58pWWCsAwOQ7CYajco15U3PMh0/Jy2JQQnldrt9qHYcGOygUqng1q1buH37tpRgAUhvLZVKoVgsirEuFotYX19HoVCQeRXaBW5gY+TPoIyMJG7W42sBu4KTAFzZQSKRQLVadd2rExMT0vA+DjjUToHemkaXRoylBd7k3W5Xyh46StdlGJZzaARYLgJ2WUCsr/M5bC5zUpaGRk/xah0gXQLSekGMeinkpfV9dD1UzwnQQTGVPXv2LF5++WWJ7IfB8fxGoyFrCQFIFNVoNLC1tYVisYhMJoPnnnvu0BhDOkt+TmwScnjIcRzUajWRHyAY1bH2y3Kcnr9gCY+iaTqr4996strg6aPX68meg0ajIaVWOvhWq4VkMunSQPJ4PCiVSrAsS1hmqVRKbAODOjoCfv409lpSRrPXgN1yJyf2g8Gg7H8Gdr6/4+PjEgQedTx1p8A6HxuENJr8IOjVGTGyWaSFz9hIZR2ZGYSWXaZxoKIpJyKpv06VUUYFwG5jSiuTciiGqyWBXcXQ4RSU/QE6LHL0eS6M3qmoylITsxEauFwuhxdeeOG+rWAEWTWxWAwnT55Eo9GQ12bP4+7duygUCvB4PDJwd9igh9CYFbCMpjOuQCAA27YRCoVc/RA2EfWwmh6O4+dBpxsMBtFqtaT+TFaJwdNFq9WSTXYMFoDdwcWVlRVhu6XTaZHK1rMrnDkoFosSaOidDJpEwaCA2TozbH4fed8CEJlwEhhY1kqn0wiHw1hfX0e9Xj/SPYan4hT4gegaH707yyl8HG9iRtBaS4g/42P5PM0eoKHmsBlr5zSiyWRSDL6OMhnF6yyAJahIJCKLwGlYtFyFdha6xMTyE6MNLW2tDbjOLLSTexjoLHlumUzG1UCdmJjAiRMnJIt4UKP3MIE3LfsolCLgEBJLfWy60wl7PB5hKvGz1KUo3c9hdlKpVGRIyePxCFVRZ3AGTxYUUvT7dxYvkT3GYLHZbMoSJmYQ+h5h+dW2bRl04/2gs2zNXmKwoUvFfCwDOFYuHMfBxMQEAoEA6vW6bIAjC29zc9O1k4HORw/LMdA9jHii33waP34IWo4A2F1Kzw+RP6MhZURMqiGwy7Pn9C0jbToSGpfp6WkZcgqFQkgmkyJfwccMr5JkVMHX1PV/bfj5fmwa6//r6VsaLmq08PdUCmXGwdfn48mY0eCiE+5mGMZwienkyZOIRCK4c+eORDmPY+vY4wCNg55DyGQysvKSswv8jLSjBdw7ncliorPm94dOut1uo9PpIJvNPrXzfdZB9d9EIoGJiQmZsalUKtje3kapVEI+nxfZFN5vkUjEldEzewR2S7+8zxhI8LG87yilQRvAYASA3P/sLVDmplKpYGtrS+ZpwuEwNjc3RdqbtoQ2T+83B9xKxIcBj9UpaHaNrnEzeuPEIC8cI8FhqWcuVaER1QNX+oNnqYcOga85NTWFWCyGwWAg6SbF7WiktRAbI05GlHr4iZOz+hj4HH3OjD6ZltIR0vmwPs6MYHjAil9KHtvHH38Mx3GQyWRg2zaCwSAmJydH/iyCwSAWFhYkS6hUKkcqItZlOTpcLX3M8iCH7mgUmG0y0GADkX0hRqXMAnnT6ya9wZMF52wuX77sGiLl51ooFPDVV19heXlZjD1nDljnZ5DIvcz8XHkPEpzz0bRy3vOUpWcQRTul9bNIdfb7/TLzMBgMROWYczQAXIGIVgdmFYIBMb/fT2sw7rFYBLKE9E5i3qTs0NNjUltH657TuLOGSEOgN4UxIueQGI0pvwBs6s7MzCASiYhBZUOZvQs9baxfB4Dr/+xNAJAPj8dF49Lv96W0pBkvPEfNntKvB0BqlnRSwK46KB3cJ598gkQigRdffFFmJPYLSmaw4dZsNsUwHgVoRggAV7Oc6b1t2y7mEVN5TQNm7ZglSK3F5PP5UCqVkM1mjWN4wiBb8MyZM/d9J/n5TExMIJVKIZFIYGlpSeYEdOCmAzttP4bvKZaZqccFQH7PoJCBK4NYAOKI+H1ikMlzaLfbSCQSMnlNVpTeSMf3pR3jewNwOR5tp54EDswpaC44ANfSFN50vKA6gia3n0aVF4kXjzV9Xa9neqfLMbo+OBgMRAeFUXw6nRa5CL63ZjIBbt19gsZF6+3oYTMtH0EhuNXVVelJMPsYzpZ0yYx/O46DRCKBTCYjWRAfGwqFkMvlsLCwgJmZmW/MltElleGx/sMOHWHxuuleCiN8fr7MNPnd0kEDsBtYsDbNDILXpVKpIJvNGmbSE0S9XkehUMDMzIyUWB+EUCiEl156CfPz87hy5Qo2NjbEIfD3vMd0KZhBni5P63tRB5sM3DTTkd+xer3uYiOSqBKPx1EqlVAsFmHbtqwr9fv92NjYkJ4Vm9FaXI8Zq3YCjrO7W5xOBcBjZTl9a6dAtohu/DJdAnYpgX6/XwwpDTJTMjaRmBWwZKL/sF9AyikfpzMIOhkqelLdM5VKiXQCLzyNov4ggN0IgOfEi68jBjotfkl4vFxRmEqlsLW1hW6365LHoHHRr8VZCMpWxGIxV6OLktPT09M4deqUDKQdBIYpsUcBDzp3/TOtg0OwjMCbXlNQOa+iJ9d5A3IrHafbDR4vyOwrFAp47733XIt0HgS/34+JiQlcvHhR1oTqkutwFK7the450m7xnufz9NyLnndhkEaRSQDCItTlLrLcOGQaCATQaDRkzkYfh+6D0qYy0+HQps5M9HkddJnpG1sEGjMeJG8oGnjtWXWTRfcR+HsuO9GvA+xG7LoBzNRQq34Cu/0ErufjZC83gPFCD7OAtOAV6/2kMfLDZ5rH99LNZB6Pz+eTWv93v/tdWdhRLpdlEK3RaAgdFtg1YJyqpLHSToGc/Xg8fmQaw4cNbOyTIaI1kTj9CuwEMM1mU1aa1mo1kSjnsJ/B4wWNMJcyBQIBnD9/fs/nRKNRLC4uolgsolAouKoSNPasOvB+Z4asew26/6R7D7pZzd/RlrD3pKsLzF5JhWfAmU6n0el0ZPiNASmPTbMyyZZj35GZDs+L56AJLQ8ShPwm2JdT4MXgQJceCAIgkra8YEzTaHR1nUzX+gC4IjftNWk0eYH4b8dxZDKYFzORSEg2kEgkEIvFXNvSeA7A7tpJzTYixZQTspSOZjStmVJ8HofMQqEQTp8+jTfeeANjY2OuaAGAy9DvJ9KnwTL4dtAZBHsJeoZF37z8LvA7x21eB4VCoSBUW4MdsJfAsgtLK8vLy8jlcjLt/iD4fD7Zp0ANsEaj4SoBsQzNPqZmqmk2pCaY0AhTI6xWq2FtbU36orqErY0xqxpUTyBlHdjdOri+vu56fzabde+Dto/EE/Yjh0vOrDjowdhvs/NhZKdAZgebtnQA9GikaNF70gvSsw43Zhila0/H6F2XczQzh1lFLBZDKBSSdY/NZtMlZheJRJDJZBCPx13TjHx/fgh0DMBuPY/nRifC4x+O4DmwMj8/j7m5OSwuLmJycvK+aF7XRA+q7GPw7UAjwRuNToJzCpyZIa2Vn/1BodPpwLIsl7z6QYHf38fx2o8LlIxfXV3F2tqa2ATHcZDP53Hnzh0JvB4EMhxZvbAsS0rWNOxkKWp5GrIdk8kkpqamRKn3zp07EvCFw2G88soreP7553H79m1UKhVYliUOB8B9gSLfA3AHdfF4XGzJxMQEtre3xRlpFQQGqToz0aQWXh8GzcMVENo43XzfD0Z2CpRc4DAZ31RTTNkI5gf6oO69dhp8TV4IOgntOfnhspnI4S7SB6PRqCsKZHbA9XpMvQCI0+Gx05vyonEgCtjthWiaK/sY/BKeOHECb7zxBubm5ly1RIPDD0Zg/M7pWRKfz+ead2Af66CmwElhfBxGm+XGTqcj73OY0Ww2sbGxgXw+j62tLSF+0Eh2Oh1sbm4+VImXvUj2+SYmJsRG0Q51Oh3pZ5JcEg6HRV01lUrh1KlTmJ2dxblz5xCNRvH111+j2+0iHA4jnU4jEAjg1KlT6PV6eP/997G9vQ1gd7AN2JWp0WXwwWAgO9NpvBlQA8D29rYr49BKyPzu6eqJLq3rHeONRsNVxuLrMdDVPYhHYeRvDKN3XmxdztEpjh41115Qp+rkx/Om05kAfxaNRiUj0IqFmpLIJi4HTCh7oNP94TIVV2PydbnchufFC07Dz+1fPDfWp+fn53HixAmcOHHi0N94Bg8G0+5QKOTiuDPqYjbJyO8gnAIZdgf9ndHy4bw3jsL3ktpD5XIZwM79yfuZEXKtVsP6+jpyuZwYQdu2RcICgKsEOBgMhLGjaeJ0NhyEY/+zUCigVqthYWEB8Xgcb775JhKJBG7cuIF6vY5yuYz5+XkEg0FcvHgR9Xodf/rTn1Cv14VqrisirCZwDS6wuxK31WpJCZ6lKT2Vzxkngr0DLbuh+5kPKk/rni3t64MIGA/DyN8abtfiGDgzBGYGtVrNdRCa4cGoSI936xKTnisgh5zNWTqPSCQio+16voHpIiOF4TWZwP36/YwehnXVeRPxPPgl0+kYsOvxD5IJZPD0wM+SNxJJDKwFB4PBA2vyW5Yl3/uDwmAwkJ0ANBwHIWf+JMCS8PT0NNbX10VPSAeJ/X4fm5ubOHfuHMLhMIrFIj777DMUi0WxDQxGqXHE52kpjGHZGBrLTqeDP//5z4jFYpifn0coFMKrr76KhYUFXLt27T4K6+nTp3H79m1XwAhA1Itpt0hSoeOgCgFX7+pSOinonLmIRCIYDAayMIp9Bi0BBOzY1nA47JKwoQ0dbkAfuFNgo0b/mw6A3H9NsWKJhyJT9Gysk+lmMutuzBK4JEVz0bm7gNE6DXIgsLPnl/VgNrj53OGLCEA47FrVVGcULCvwPDR9lM4hnU7j7NmzhsN+jEB2kW7UUUzvoMAZmoMqRbFBq4f5DqPY4cPg8ewMo42NjSEUCmFzc1OMGUsgg8EA6+vr+O1vf4tEIoF8Po9arSZrOUnvpDPQA2KdTkcMMI2iljmhXcrn87hy5YosefL5dvZ7jI2NYXV1VTb3sQTFOSjbtsUWApD3oDGm3WE5kg6BDoXBCDOIZrPpClKZhbBXMNzUZjlMz2doNqR+/1F7CyN/2yORiIuhwWiZ/G4eIC8IAPFsWv2TToARGMs4bOqxNMUvNut/sVhMykkez+7QWDAYFO0b/tG83eEJRD21SOi5A76/jlQ4mML3jsViOHfunNQKDY4XqLOkM9iDAskRBwGWQVqtFnK5nARFRw0MBnO5HNLpNMrlsvxMl3yKxSLW1tbkOaSQM5BjNkBWpJ5Sp1EFdkt4up/IMtX29jaSyaQrEp+cnMTq6qrsZWGGcuHCBeTzeWxsbAgN3nEclEolVCoVCZIZTOth22g06ir3URKfO88ZlFAuB9h1AAxW9cwFz09LCNHu0mnq+bG9MLJTYGRP78qf0RsxK2DGoD9URuGsc7KepreZ6UYfH8cTzeVyUkbSqSAZAtqD0vjziwK45Q306LhufvNLxS8hjycSiYi6KptH586dw+Li4qiXzuCIgYELS6aHkcXDwTrbtl0su6OMVCqF6elp0RZjeZcRd6vVcpWmafiY1WtmoMezO6jIyJzlHZaY9Jpcv98P27bxySefIJ1OY3x8XI4rEolgbm4Ot2/fxhdffIFqtYqJiQmk02kEg0HEYjH5d6VSQb/fR71eF8aTJuUAkIqHVu5ldkBJ/16vJ30QnoOuauhSEgDX/xkcM3sCsK+S5b7KR8DuDUOdIr20hEY6Go26om/y/pkVcJhkmAbKoTB+uNQO0bV7fuAE319zkXUvgRebtT02fFg3ZlZCb0rHk06n4ffv7F+gPEalUkE6ncarr756pFJ0g/2D3ztKcR8mOM7O0qFOp4OJiYlj811kf4DyFjRqnCtg6ZiGVPcndZO22+2KogGJJHw8SzHsT/Z6PcRiManpb2xs4Je//CXeeOMNnDhxQgxpJBLBxYsXEQwG8f777yObzWJ2dtZFxe/1elhfX0ej0cDq6qoEkTpYpYMIh8PIZrMIhUKoVCqoVCoA3IOxOuvh2l1G+yxH6el7fg9oB1npALCvoGFfcwq88HqegGkTD3ZiYkLWPpIFwAsXi8WkYUz6FOcVvF6vTB7zQjabTXkMa3Q8huGLwFFwHdXpCWHNR9cj7nQmLIdxOccrr7yCXC4ni38CgYDsBTaTrccfeqbmsMHj2VmUdJA02cMAXnMaTwAuW6Ep6z6fT6TTdbmY93y/34dlWWIntJFkkKhtCINLj8eDQqGA3/3ud/gP/+E/YG5uznV8Z86cgWVZiEQi921BDAQCmJycdDGQdA9Az2txjkTPG7BkSUotDTnL6s1mE5ZlST+CLCWqufLcNMmG7CtgdDmMfTuFQCAgaZyuwzMb4GQdqaEcKiGDhxeKfYJgMIizZ8/ixIkTOHXqFLxeL0qlkisa6Pf7QiXll+HGjRsoFov3lYyGv1zaiQG7aqR8HM8NAC5duoQzZ85IVsEBOGY28XjcdcENjjcajQZqtRoymcyhY/OwPHKcwHudO050ZM17eFghQVMzWRlgYEl7wYCUhJVOp4ONjQ2XvdBlGb/fj1qths8//xyTk5Mu1o7X68XFixdRrVZdjEWiUChgZWVF7EWtVhOboVmM2jkwI202m6jVaqKkwGAV2BWwpDMLhUKIxWLSROc1YGbBcpsOsh9L+UgbWxpcXduLRCJIJpPIZDIiAsULycfQg87NzeH555/HxYsX79sLoOt5D8PFixfxy1/+Euvr62Lctfwsswn2NrTX5t86Uzlx4gR++MMfIpVKAYA4It33GM5EDI4vLMtCsVhEu93GvXv3MD09LfsbDB4faE9oa9iIZRAKQDTGWC7SmX+/35eglSUWACKBwdJxKpUSViGwG8WTutnv93Hz5k1EIhG89tprLlJJKBTCxMSElKOYwZRKJXz44YcyB0X1Z8105DGy7u/z+Vx2xnF2lJL1ilk9fDc7Oyu2i3M0fFylUkG1WhWHydIS35f9hUdhX1w7el+mc8FgUKQvUqmU9BOSyaTQN4cbQMFgEK+88gq+//3vj2T8H4aZmRl85zvfwQcffIBisehKjXS6xhR7WG6bUQS9/ZkzZ1wfPFlHBs8ems0mKpUK2u22LGmZmpoyDuExg81YrVmkZ5+0EjPLSDTgeuKXUTP/reeoNGuRc02s1ZMaz6wjGAziyy+/RL1ex3e/+937gldWISqVCj7++GMUi0XZtkbCip7JAiCEHJbDtb4WH+Pz+ZBKpaSsDuyUiOLxOLLZrDDi6OQKhQLu3bsnG+A4JEcdp+E+7KMwslOgLIVW9uQfrszTjoDpGD+0sbExTExM4K233sLi4uI35n5rqujzzz+PYDCIjY0NXL9+XbYcsatPlhKwO47OBjOd1GAwQCqVwokTJ0wW8AyAzBMALkofg4ZGoyHTrgwoTp06JTIrBo8HZDJqQU2WPHSTGYCUjRjpsznLyJklFL0yt9fbWe+ZTCZh27ZMqfM5BL8DtCGdTgfXrl1DIBDAX//1X99ntzjPEAwGXeqnfC0Gq2RVahYSmUW6DDg3N4doNIpcLofp6WlMT0/D79/Z7eE4jpSzON8AAKVSCVevXsUXX3yBO3fuiHMKh8Oo1WqSTRx4o1nTvHhxs9msDKmxDsi0RbORLl++jB/+8IeYnp7+VtFWv99HpVKRSWa/348LFy5IL+LDDz8UD8+dxnqykReGKSIv6pkzZ/a12tLg6ILGh2B5gjRkr9cr343p6WmMjY0deDOXRu4oyFA8KTCyp30hh187B716V7MFKYfNiFwrD9AAM1jl3BPLPlrLTTOEhlVzV1ZWsLKygpMnT9537F6vF+Pj4/jyyy/v60/ochjZULpPQBZUKpXC+fPnce7cOQnAc7mcvMf8/Ly81zCmpqYwNTWFH/zgB9jc3MTnn3+O9957Dz7fjmIsd1RoCute2NfwGhdp0ylQRZAXXYtDdbtdxGIxvPXWW6Il8m3BG1bTVoGdi0tdFD3dR8YR/80/1NIfDAZIJpM4ceLEsWvaPavQRuBB4Basra0tScMZvTFC9Hq9mJqaku+E/q4dBOr1utAmzUT8DtggDofDssMC2FUfYGagiSJer1cUSzX9UlcHdHNZN6A1q1GXlwOBgBBdWOLhd+rLL79EJpNBOp12HbvjOCgWiy6DTUYRAwCygyzLkmPlwG6z2cTFixfxve99D/F4/IHfN/YF9kIkEsHJkycxOzuLV199Ff/2b/+Gmzdv4u7du4hEIsjn8yN9FiM7hYWFBdfCGr3OkoZWa25kMhn8x//4H3H58uUDu6E4TaxlLIAdB1QoFIST/CCNE37I/OCZ3czMzLhoZwZPBgdtaAmWBfdCIBDA+Pg4arWafB8sywIAkTPgUh4ajYMEaYKHsVw5GAxEQ4fnPYpBOgjU63Wsr6+7SsQsBXHHAqHnE1iVYEmIzoGSOTT4HFzTDd9oNCo1eCoz05aNj4+7lFQrlQp+//vf46233hLH0O/3ce/ePRSLRclMWBJik5hZDm2lntHinNTU1JToa+lrzQCYqz1HyS6DwSDm5ubw93//97hx4wb+z//5P0gkEshmsyN9DiM7BQ5qMDOgJ9RMHt3A+dnPfnagDoHQHzqxubmJO3fuyO/5N9M3PVlNr89BNlMvPl4YNfJm1kmWGUkIyWQSqVRKaNOPo8RzkFIXBw3e1yy5kr9/kFIfDwJLw8NzRpVKRWyIHjzjZ6YrA2TztFotl24QS4PUKSITiQ1m9gJoy6i+TKeoWZSVSgXvv/8+zp8/j1AohEKhgFu3bkmAwYCU2Q03JvL9arWa9LVYCuO2yAcFSjzHbxJEeDwenD9/Hn//93+PDz/8EP/8z/880vNG/sZTU5x8X6ZxmlnELOGVV155LA7hQeh0Onj33XexuroKYLcJxS8Kb2o2enQDenJyEhcuXHjsx2hwP542k4d1X0ZybALqvthxGgwbFXQKfr9fuPNPorS6vb0tVFMaTdb8dcMYgBhfDpWWSiUp9ZBxA+wEfrZtuzal6QVLAGRiPZVKiaQ1dynTubDkBOw4no2NDayvr8v3B9gZ2mXFgU4iFovhxIkT0hQmhbbZbMK2bWxtbclCoHw+j9nZ2fvUeLU20zfFxMQEfvrTn4686W9kp6DpWnqAS9f7/H4/nn/+ebz99ttP7IZaXl7G9va2pJwAXLXCZDIpYmF+v1+WkPR6PTz//PMmS3hGwUyAjUadVbIR/Sw6BYKDVbVa7bH3PUirZBNWl1lYjmG2wpkAXb7ma+iKBamYNOrUUyOllZE6CTKMxln3p1qprjgwu+x2u7IEB9hp9P7VX/0VMpmMSFhcv34d58+fx9zcnMwZUAabkhocdCuXy9je3pZd7BocePu2IHtqFOxryQ4A16g5HQQv2OnTp/Hzn//8vkbM4wTXGuqtR7lcDtlsFplMBnNzc8hkMsJSqFarIjVsegnPFmgogJ0+VCQSEQ0hSqMHAgG0222zPxmQSeDHfS1qtZo0jKkOyj0Hw0qmWqai0WhINsHSEckudAasbvj9O9sc2cBmtYDvORgMJCuiHdEMykQi4SozMmDw+/3IZDJSYvJ4PDh37hxmZ2dlpqBYLCIUCkm1hVRXv9+PdDqNzc1NtFotxGKx+67N08ioR3YKlLcAdvcW66GI2dlZ/OQnPxm5mXFQ0NoikUgEL7zwAk6dOiUfeiaTES0mCkuR7vW466QGhwu6JktaIFlzmqJMo6KHpJ5VJBKJkTVzvgm63S5WVlZElpoEEZZu+P466KvVapLhkXSiaZ7JZBLJZFIyQGA3k+AKADLOOP/A7IE2juVEOiLaCs4LxONxmauoVCqua8Q+AjEYDFCtVtFut0XAMBKJYHx8HLZtI5FIuDSKnjb2pX2kbyBN13McB2+//fZTibzpXePxOF544QVcunRJmCOdTkc8Mm90ynAbHB98U+M9PBnLaI1RoMkYdsDI/CDludm/yefzsj+BRnx4GrjT6SASiQgllX9Y2qF4phaPGwwGIj3Nx9Hps2+hBTYpTa2zDQDifIBdiitVlbWe2sPECdl3qFaryOfzqNfrmJqaQjKZlJIWz++wYOS7iKwdRlTs1odCIZw/f/4bN2xZfvqmmJ+fx+zsLFKpFM6dO4dIJCJDakwF+SEfhUXmBvuHbhjTaPFG3ouxwe8xmR28SR/XfMJRhd/vR6PROLD6NrCT4Xe7XWxubkpfgHRRlo5IZmm329LQZcmFKqikDdOJeDweNBoNKRWSZqoJMXT8/LyLxaJrLgGA2Dd+j3hs7EFw5wOvx9dff43XX3/9vvPk86nJxF0M7FnoHfSHBftyCvzAeIF8Ph/Gx8fx9ttvf+Mvy7dtYgWDQczMzGBhYUGaxlRl5SrNRqMhMhwGxw+s0QK7apKjLhVhoEAeOweK+DuDXUXWg5yr6Pf72NraQj6fl0Eyzhnws9RKojTQHJjt9XpCYaXRZ3Cgm8zJZFIIJsAubZWP5+AbMwz2LHhMutFNw05mFL9fvV4Pm5ubqNfr9w3p6r0PAGSDJIf0tObSYcHIlpy1e35gHPw4e/asaxz7ScPj8eC5556TZpJuJvZ6PRlGMhPLxxeUWgH2P2jF9J2yCYctajssGHXp+yhwHEdE3BhJsylMFiPr+SSRsNfAGQX2B1kGouGmUGe9XpdBV+5d0BvQKGnN3iLLRCQdaI0iLeHNCWc9Z+D1elGtVvHZZ5/hu9/97n1S22x2c6iXToADbocNIzsF3ZDh2k1Ohh7kF+abgHLXwG65oF6vI5/PI5FIPFE2lMGTx7eZuA0Gg7AsS6JSPTX7KLAhyrWdz8L3TJNMvgkGgwEKhQKuX7+OarUqpTs6Z1YkqGJMO8PnUueIFQBOBNOIa9E8x3GwtbWFQCCAVCol5UIu7gF2PkPLsmDbthwLnYwmHujBV5YadblpMBjgzp07SCQSeOmll+R8g8EgJicn4fPt7nYmnrbdfBj2xT4iHUtPFR+2Uf12u41ms4nt7W10Oh1DOzXYE5w0pTHaT+RG42VZlmSiFGo8rtB9m2+CarWKu3fvipQ1hwQ1GwhwG14tYKiVCfz+nX3vlMLg5DK1jVi2oaMnsYDVhHA4LHubWRpnlsFNjtynTCE9NqLZW+V2N5aavvjiCySTSZdwHs+Fx0YK7WHFvthHpHLxIrGWf1jAD8iyLOl3PMsDSAaPRq1WE+YKU/z9IJFIiDaNZVmPTRrjsODbOIRWq4W1tTUZiKNMjh6AJdhfIJWc9zGNPYNSBoEMWil0yWxG9ymon8RFNPqzYq+UToI9BWaQoVBIekx6Lkovz6Gj+Pjjj+HxeLC4uOi6bn6/H5ZloVqtYmxs7Btfx8eNkb+9TJHpjR3Hwfz8/KFKmTmRyA/TTCsbPApscJINs5/yEZ+fSCTEmbTbbWlmGuyi3W5ja2sL5XIZwG6PkgNiAIQaHIvFZB8xH0sGIQkunU5HVG3pGDT1VLMQKS+h2Ux8HFlGAO5zJlTUjUajiMViSKVSQn/l37o/wSzG4/HgvffeQzgcxtTUFAAgmUzC693Zs3yYHQKwz0wB2JWy5Zf/MIE3ImljBgaPAtcmJhIJ4azvF4FAAIlEQuQPBoMB0um0+Q7+PziOg+3tbSwtLbkkq/UCGmYLZAxqgToAUuLhpDHLRTTkVD4GIPYJgET+pJ9qCnwkEkGz2XSxiwAgm81idnYWExMTiEQiovemwZ5GpVLBjRs3UK/XpRzVbDbRbrdx69YtcQrA/UNthxX7WrJDWQs21bj44bDhsPU5DA4vyDRhxDrqHtth6D4bo1JTuoSUa5aWliSaZ7SvmUf8DOr1uhh6Omkaaxp0NoQp3AfsajUxq6CMSa/XQ71eFzlrzivo3gPfh1I9L730klBUHwa/349UKoVUKoVMJoOvvvpKRPQo453P51EqlZDJZI5UgDCyUwiFQpKuOY6DxcVFnDp16nEem4HBE8FgMEA+n5fBpwdFhqNCL5561uE4DsrlMr788ktUq1XXkhu/3y8NYgDiBLSCKdf9NptN12Qxh9K8Xi+i0ahLPptMJu5B1lpFpJSyRwBAmsR+vx8TExO4ePHivudTkskkvve976HX6+HevXtYWlpCu91GOp1GpVKRNcZHBSM7BXbM6Y2PkuczMNgLNEhcymIyzW+PdruN7e1tFAoFoZeySQxAGs1k83BwkHaFnwl/x5q91+t1sZS4EIiGnmUizijRodBukU7PeSs2qKPRKF566aVv1Yf0+/04c+YMZmZmRPH0KGaLIzsFrfXR6/VQrVb33ZQzMDiMYBOTvYH9NIkHgwEqlYo891lHr9dDsVjEzZs3XXIT3HTILIGOlzMHOgvQzCJgd6cAewgAXMwl/X9SW23bhm3b6PV6iMViSCQSwjLTjWZgJyO5fPkyxsfHD+QaRKPRIz0NP3JIxPFvyscepDiWgcHTAtkljET1kpZRQC2db9qLOC5gWahSqWB1dVWUQymeScloYLc/SSE5Xm+tesroXz8HgFBBGaDq/gPZYxyC0xR6iuixhNRqtWDbNtrtNoLB4BNXdz7M2FdPgRc4HA7j5MmThnZncORB47OxsYF4PI52u41sNruvtJ9c+GcZtVoNa2trKJVKKBQKQuvk0BZnCfSGRuoRsRytdxfTOfD3XJpFGXzaIn5O/D0X8TSbTQC7TCQ2lNkE5ma5fr+PTCZzJMs8jwv72rzGEfdUKoXnn3/e1F4NjgXYRygUCsjn8xgfH8fk5OS+XuM4D6w9CIzQKWy3srIC27alVk9Wl2VZ4ng9Ho8onHJqWDN/WEZiSYk9CPYCON2sZbOZZdDR1Ot1WXdJR0FNq3A4LK/n8XhE7vrSpUvGKSiM/E1mPY7DPkepm25gsBfS6TSi0Sgsy4LjOFheXt63U3hWwD0FlUoFfr8f5XJZhrdYXtZS1XrYtdvtolAouBRp+XMOrlFsjr0BrUlFI86Vlvy/4zgyqEYVU2C3TMV9KiyB85gSiQRee+01ZDKZp3xVDxf2NafQ7/dh2zbGxsZMU83g2CAYDGJxcRHb29umTzYCWq0WlpeXUSgUAOwMZemSDx2CXlbDZrHepc4+jl5WQw0qlpPYTG42mxLN93o9F8uI/QK9PY9SFOxlcH0nfzc3N4cXXnjBqB48APva0Uw+79zc3JHurhsYDGN6elqmbR8ln63l2Z810GBzdWUoFJIMi7+nkBybwqzvc0hNXz8afu4nCAQC8hj+4eDZ+Pg4PB6PzDwwA6FAHV9L71kmrbXdbov43vz8PF566SVjwx6CfUlncxmF8a4GxxUUStsLz3I2wb7A5cuXYds2yuUytra2hP6pG8YcMmMvks1hYHe9r5a7AOBqMLM5zMyDWkgsL5GiykE2TUulc+GkOvWQFhYW8PLLL5sBwz2wL6cwGAxw6tQpnDlz5nEek4HBgYHSFbpM8SBQ5bLZbD6wNKpncoadwrO2ttPn8yGZTCKZTGJqagpnzpzB1tYWSqWSlHLoFMLhsDSgh6m+zBZotJkh6LkFOhEK0Om9yiw/RaNR6RcwS2AWwQVKwI4jmpmZMQ7hEdgXJbXb7eLkyZOmU29wZKAnaB8FylvEYrH7freX0R+Wc37WEAgEMDc3J7tLaNhpqG3blgYwdxywvEPZcUpDMPqno6C8BYNSzkgBkKYxMwQ6Ib6+bduSMQBALpczBIIRsK9MIZvN4vnnn3+cx2NgcKDYD1W00+l8I876s9pfeBhIBQUgukN7YTAYYGFhAY1GA7du3YJt28JkorigLivROUSjUXQ6HdTrdWk8s8Q03JMIh8N45ZVXTJYwAvYlnc19pgYGxxFmD8LTAev9kUhEdg1YloXV1VVYloVWq4VSqSSRP+mlLBP5fD7UajUZmCMrif0Fn8+HmZkZM7U8IvY1vDY+Pv7MDekYPDtwHAfZbNbM4BwCxONxXLhwAcDu7gJqIVFOo1qtylS0pqeyfMTp5WAwiLNnzz61czlq2FdP4fz586afYHCkYNs26vX6I419Pp9Ho9GQ6du98Kw1lp82uLtAY35+XvoTAGQIzrIs1Ot1NBoNkbDIZrOGMbkPjOwUxsbGTPplcGRAYxEMBpFKpR6Z4d68eRPBYHCkzViNRkMmaw2eDkh91aAS68TExFM6quOBkZ1COp02TRqDIwNG8uTD7wVSKHO53CMlD6jLY8qoBscVI3+zp6amZFuRgcFRA6dpH8QUIhXyUSQKcuYTicS+5LUNDI4SRubSTU9PP87jMDB4LKAMwl6wbRvAbhagoY0/pZYJ/W8Dg+OCfa3jNDA4SiAzhWXPBzWHqfo5GAzQ6XRg27arTKozi1gsJq9hqKsGxxUjZwrFYvFxHoeBwYEjHA4/sg/W7Xaxvb0tGvx7lYUM48jgWcDIToEcYQODo4iHZboUTeNkLEtJj3qegcFxxchOwexPMDiKcBwH1WrVJWg3/HvbtkXeWfcJOp3OQ4OhUXoVBgZHESP3FMyMgsFRhMfjQSQSQavVEuE0De4TjkQiSCQSrgE3n8/30LkFSijQMRiKqsFxwciZghkIMTiK6Pf7sCzrgQ6h1+uhXC67lrkP01KpgEr5BJ1xUIeH6yANDI4D9rWO08DgKMFxHJRKJdTr9fumj7vdLm7evClLY5rNpmzwIiijwCyg1WrJMhcKrXEPg4HBcYHJeQ2OLbg6MhAIuJwCnUW73YbjOAiFQgiFQmg0Gq7Gsjb2LDHx+QYGxxXGKRgce6TTaXEKjuMgn8+jWCzC7/cjn8+LkQ+FQrBtG+l0es85BG5yO4xwHAeNRgO2bSMajcLv98s2MgODUeBxTNhj8Iyg3+9je3sb6+vrqFQqMsFMA8/NXdlsFgsLCw9V1hwMBqhUKojH44dGFK/ZbGJ7exu9Xg/1el1UQ71erwgCUuYjk8kgmUwaR2HwQBinYHDs0Gq17htaGwwGuHXrFkqlkixuYb9A7xOmLHYwGEQ2m8X09DQikch9ktrc/aunnJ8GWAq7c+cOWq0WPB4PkskkwuGwzF10Oh0ppQE7ZTHuGYjFYpIVZbNZOR8zsf3swjgFg2MNx3FQr9exvLwMy7LQ6/VEzgLYMZA0+H6/Hz6fD4FAQPoNkUgEgUBAHMSwKGSn03mq2cLW1hbu3LkD27bhOA7C4TBisZiUwjqdDizLErXYwWCAcDiMbrcLv9+PWCwm6y6bzaY4x6mpKbNp8RmF6SkYHGsUi0VxCGwcDwYDWSrPfcKBQACdTkeWznPNY7vdRrPZRLFYRLFYxJkzZ1wLX4LB4FNdumPbNizLkmyHNNl+v49AICDGv9PpyLn6/X7ZTGbbtpxvr9dDLBZDv9/H3bt3sbGxgZMnT8qKTINnA8YpGBxLOI6DSqWC9fV19Ho9GULr9/sSGXN62ev1yqJ4AJIdOI6DTqcDYIfJVKlU8NFHH2F8fBznz5+XBu7TLB/1+32Zxo5GowAgzo2OIhgMupbe87jr9TqazSY8Hg/C4TCi0ahrOdHW1hY2Nzfx3HPPYXFx0QzoPSMwn7LBsYLjOGg2m2g0GiiXy0JJpZFn8zUSichUcr/fFyfBYbR+vy8OJBwOIxKJoNfrod1uo1AooN1uY35+Hrlc7qmVj/r9PlqtFvx+v2Q77Cs0m00Eg0FEIhEEg0EpD3k8HliWhW63i263i2QyKQylbreLRqMhmVQ4HEav18PKygo6nQ5Onz5tdqo8AzBOweDYoNPpYGNjA91uF51OR5hFnEgOBALSNwAgZRYufPd6vfI7j8eDfr8vzWifz4fBYCBNZ5/Ph3w+j3K5jJmZGaTT6Sd+vs1mE6VSCaFQCIlEAn6/H7Zty7myTxKLxRAMBuH1ehEKhVCv19HpdBCPxxEKheD1etFut9Fut0VC3OfzIRgMIhqNwuPxYHNzE51OBy+++KJpQh9zGKdgcOTRarVQKBSwvb0Nv98vjdR+v+8qnbCUAkDq6B6PB71eDz6fTxg5vV4PvV4PjuOIUWw0Gq6sgwaY7J/JyUmMj48jHo8/sTJLMBjEzMwMLMvC6uqqODD2DHhtyKpiE5qT2j6fD41GQ86Ra0Z1hsQ+TK/Xw9LSElqtFi5fvmxW8x5jGPaRwZEGqaaVSkWMYiQSgW3bQi1tt9sS3XNfQjweR61Ww2AwQKPREIfR6/UwGAxcNXg6DxpbMpTI6mFG0ev1MD4+jsXFRVcz+klgc3MTd+/exfb2tpR/xsfH0e/34ff7EY1G4fV60el0XBvmWCaq1Wro9/tIJpNotVrodDpSKorH4ygWi2g0GiIc+NJLLxl5j2MK4xQMjjQsy8L29jaKxaLsWo5Go9InAHYMO4036afsG9BR1Ot1KTXxsfwdG9LdbtdFXeUwmMfjQTQaRbPZRL1el+U+dBBPKnNoNpvY2NjAysoK6vW6qL7y+OjI6PRYIgoGg2i1WtKc5nn2ej00m00ZfON1cBwH2WwWly5dOrST3QbfHMYpGBxprK6uYm1tTTSLmCkMBgMx6Izwu90ugsGgGHvW3h3HgWVZ0ohllkDaZjgcFofi8/mE3sm+A1k+nAvQJaupqSlMTk4iHo8LO+hxo9PpYHt7Gzdu3IDP55PSGA0+2Vd0bLosxuvC0hv/D+xKaLAJf+nSJZw8efKJnJPBk4PpKRgcSQwGAxQKBZRKJTiOI0NojGrZM6DB9ng8kgkAO6s6fT6fTDYzataGUqum8jGMjBlp03G0Wi3JLjgL4Pf7YVmW6BBlMhlMTk4+9rJLMBjE3NwcUqkU7t27h0KhIM6NTi8UCqHdbktpjOfnOA5arZY4E7/fL05kMBig3W7LNSsWi8YpHEOYTMHgSMKyLNy+fRsAJHLvdrtiqBnF0xmQjgrsCN9Fo1G0220p97Bk5PF40G635TUGg4FMQsdiMam5sxnd6XRkSIwRdDKZRCQSuc/QAkAsFkM0GsXs7OwTkcgYDAZYWlrCysqKlLGYKbF5TmfI+YZut4tYLAYAsqqU16LX6yEUCkl57gc/+IHZynjMYDIFgyOJzc1NtNttcQKkl9Kw8+eaYaRLScMLc6iBxNegoWfJidkGHQsnmekY6GiazSZarRa63S5CoZBw/Skx0W630Wg0UKvVMDs7i/Hx8ceaOXi9XiwuLiIUCmF5eVmOhU15UlBDoZDMbgAQ58AeCp3aYDBAtVqVSehisWicwjGDcQoGRwqO42BlZQXVatU1b8C/mRnwsXQAbLYCcNXJafDZRKVYHLMLLYTX7/dRr9cBQMpSpKbqgS8af/6eDoYlLv7Z3t5GoVAQRdaDbtryPH0+H6anp5FMJnHjxg0MBgNpPHOuwXEcxGIx9Ho9WJaFRqMhx04KK7OoZrOJZrPpauYbHB8Y6oDBkcFgMMCdO3ewtrbmGjRjf4CSFJxF0HuUNWOIpR9O8gJwSV7wdbmPoNfrwePxoNVqyfY1Zg1sLLNh7ff7kU6nMTk5Kc+JxWKYmJhwKbJy6rhWq+Hq1au4fv26ROMHBb6PZVlYW1sDALz44otIp9PodDquBny/30elUkG73Rb110gkIhRWltdYqmNj2gyyHT+YTMHgSKDb7WJpaQnr6+vSP6CBpSFjDR+Aq5/AEggjdz5POwL+Yb3dsizXVLNuxg4GAwQCARlUYw+CtE0qsPL9AIjkRLVadZVvmFnYto179+5hcXHxQAfD2C/Y3t6G1+vFxMQETpw4gXQ6jVKphHK5LA1lRv3ayfH46BjZVCd11ziF4wfjFAwOPTixWyqV5Gcs6TDq12UeTiiTlUSjRiPm8/lEx4g6SDTULKVo+iqjYw6AATtZRDAYhGVZCAaD0ofQpRZufOv1elhbW3NRVR3HcZWcisWilGXS6TQWFhYOzOB6vV7kcjl0u13JXMbGxmSJ0ObmprCnAoEAEokEOp2O6CBFo1Gh5dIJer1eTE9PI5vNHsgxGhweGKdgcKhh2zZWV1dRrVZluIq1bi1mR7ooyyKBQEAyAU0zBXayDho29hQY7TNLYP3fcRzZXMbmKpvLdC5kIPFYBoMBgsGg1N05AQ1AMozBYIBarYZAICByEp1OB61WC2tra+j3+8jlcshkMt/6Gno8HmSzWVQqFRSLRQwGAyQSCQSDQZw7dw6ZTAbXrl1Du91Gt9tFvV4XNVUtuEc9KUplZDIZI3dxDGGcgsGhRL/fx9bWFhqNhlAlOYnLsg6wS68cbtLysZpxpEsedCJ6apnDWTT4dCR8HRp9snLoOEg/1ZRYOi2WZLxeL+r1Onw+n1BRWQZrtVrS2yD9s1AooFqtYm5uDpOTk9/qWvL6RKNR1Ot15PN59Pt9hEIhBAIB5HI5XL58Gaurq6hUKqhUKnJ9vF6vq6dCx9Fut0Uqw+B4wTgFg0OHXq+H9fV15PN5qXXrQTQtuQDslpJo9NkvoEF2HEdKN/w9X5OlIToHNp/7/b5oInHOgD+njIbWRCJ/v9vtSqlKZw8ejweRSETeh3+zkUuKLBu/Xq8X1WpVlEsnJia+cTmJuyCYwQAQKfB79+4hEolgdnYWFy5cwK1bt0R+m4wp7pfgzglKdLNBbaQujheMUzA4VGg2m9jc3ESz2US325WmrTbmjFDZR2B0zqYom7406FoBlIvrmRWUy2WXJAb7CPV6XcomfF1OBPd6PQSDQVFJJWtI9zV4/CwP0ejTyfHnrVZLdh4UCgU0m015LLem3bt3D9VqFQsLC99YKoPOifpHa2tryOVycBxHhgCnp6dx8uRJOI4jwnoAXD0Z7nRmH4V9CIPjA+MUDJ4aaLBplDc3N7G8vCzGiPV43RzW0f9gMJAl9VNTUyLdUCwWhVZJR8KdA7q+PxgMMD4+LvX9er2OUCiEiYkJeR6jczKPNFd/eXkZjUbDtb5TZwcAXMt9AEhvghkJS2PlchmO4yCZTEqz2+fzSdbActKpU6eQy+X2FZ1T1I7ZTCwWw9LSEiKRCMbHx9FoNLC8vAwAmJmZwenTp0USnCUmLUPOUhL3MRgcLxiZC4PHDpZUALhkJ4rFIjweD8rlMur1utBAtUHVJRNSJAOBAJLJJDKZDFKp1H0GkhH6kzq31dVVbGxsiLQ0sFvHJ5OHW85o6Hktms2mODs+R09Kc+guHo/LdZyamsL8/PzI6qvMgjiBDACVSkWyoG63i2azifn5efh8PslGbt++LZLa2pF5vV40Gg1MT0/j7Nmzj+GqGjxNmEzB4LGh3++jUCjAtm1pUJIJE4lEsL29LdOz4XAYyWQSvV4Ptm2j2Wyi0+nIAFk4HMbMzIxE//z7QXiS5YxAIICTJ08ik8ng+vXrIjYHQPoINMrsIdAp8DgZgTND0D2GcDgsuxnIZtre3kaz2cT58+dH6jPoGYxsNotSqYRwOIxQKATbtiV74EIe27YRj8cxPT2NarUqDCQ2/7mBjnuvDY4XTKZg8FjAujX3CGv5ZcopbG9vi2ZRLBZDNpuVKV/W07PZLBYWFpBKpQ79oJRlWSiXyyiVShLlU1KbE8C2bSMcDiOdTqPVasG2bWQyGUQiEclwWCrSvZNYLCYaQ+VyGd1uF5lMBidOnEAikdh3OYmZQq1Wg+M4yGQyaDQaiMfj8noejwf5fB7r6+vSeGePZ2JiAhcvXnxq+6kNHh9MpmBwoGAke/PmTQQCAYnoWYJgeYSNVrJwSPUcDAaYmppCIpFAKpVCPB5/7EqiB4V4PI54PA6fz4elpSUEAoH75iFCoRAGgwE2NjakeZ3L5VxDYLlcDvl8Hp1OB5VKBePj48hms+IUOp0OyuUyOp2OsJf24xRIoW2328jlcjJlPTU15WJGeTwejI+PS/+EWd6wDLnB8YLJFAwODP1+H19//TXy+TxqtZrUp0nPJL2Su4+pvql3AScSCSwuLh76rGAvMAva2tpCq9WSnc56gxlLMolEAhMTEw/sjXBXcjAYFMXWgyzZcGUpy0vDZTfqOg0GA6ytrWF7e1vOz3EcvPzyy6bRfAxhMgWDA0Gz2cTVq1extLQkg18AZAqWdXI2U9vttmwqY8aQyWQwNjZ2pB0CsMMwmpmZQS6XQ7FYlB4Ap5b9fj+SyST6/T7K5TIajQYSiQQmJycxGAyQSqXEWGsHY9s2zp07h+npaQCQ5T3fFA96rp78ZmnI6/Vibm5Opq1t20YsFnPNihgcHxinYPCt4TgO1tfXsbW15ZroJaslFAoJlTEWi8lmMs4COI4jVNAntc/4SYDnFIvFsLm5KaJ9ZFWxVOP3+9FsNnH79m20222Mj4/Lz8rlsjCGAODWrVtIJBKwbRs3btwQgTtG7FtbW99qAvphpTqPx4PJyUlsbW3B4/GgXq9jfX0dZ86c+cbvZXA4cXzuQIOnBm7xYkOUw05agoITtDSIHPhKJBJIp9MYGxuTJfPHCX6/X3ojpOGur6+jXq/j/PnzAICVlRXYtg3LsgBA+g1atpqvNRgM8Omnn8quZBrndDotqzLL5TLOnj174BlXIpFAMpkUZthBS30bHA4Yp2DwrcE+ARVFWZtmQ5PrLFk+4UAUsFOi4ODZcXMIGjTQ2WwWW1tbruvU6XRQq9UAQJryWt6bz9XzDMBOY7vf76PZbMo1ZgbmOA4uXLhwoNfU4/HgxIkTyOfzMo39bUtYBocPxikYfGvU63XU63V0u10kEgmZgKWoGpVFCZ/PJ+sfZ2dnnymjQpVUy7IkI3AcB2NjY0Jf5SzD8DpQrh+lqJ+e7h7WW7p9+za63S5efPHFA3UM8Xgck5OTKJVKsG3bOIVjCOMUDL4V6vU6rl+/LhOv9XpdVj12u12Ew2EEg0GEQiFks1k4joNKpYJkMomzZ88+k7o5lKFeXl4WDSGW15rNphh7iu0Bu2qw1HSKRqMYDAZoNptCeWVjmBpLpJFeuHDhwK6zz+dDLpeDZVnodDrY3t5GLpc71lneswYjb3hM0Ov1REjuSYLvSaMUi8XQbrdlUpm1bw5ocVDq5MmTz6RDAOCa0eA10FkAmUeJRAKxWAyhUMi1L5lqpVQpZW1fzw3QEa+treGrr7460JmC8fFxRKNRlMtlLC0tmXmFYwbjFI4JOp0O1tbWcOvWrSdGFex2u7AsC+FwWJREST3VEtY+nw+WZaFQKCAQCOC5556TQaxnEblcDrOzsyJBTfXR8fFxpNNpKbe1Wi3pPZChFQ6HpeHcbrfl+jJr4OyBZVmoVCpoNBq4ceMGrly5cmDG2+/349y5c0gmk9jc3DR7FY4ZjFM4JmAdutFoYGNj44m8Z7VaRaPRALAT6ZJuqddWUtCt0WggnU7j0qVLz/y2Lr/fj/n5ebz22mvI5XIy2FcqlWBZlos15PP5JCtgY5f/93q9olTKgTI+jqwlEgA2NjZw+/ZtHNSsajgcxmuvvYbx8XFsbm4eyGsaHA4Yp3BMsLy8LGWE8fHxx/5+XDTfbrcBQCQc2PSkKme9XhcJ5vn5+cd+XEcJPp8PZ86cQSAQEJXYXq+HaDSKaDTq2v7G8hFLSBS4azQaUjJkhsYhQToE/p9S3weFRCKBV155xTiFYwbjFI4ByGn3+/24cOHCY5ceKJfL+Oqrr2QbmW3bsqqx3W7LbgIAUjc/e/asqH0a7CIQCGBmZkYouVwFmkwmRUacS224uY2LfZid6VWhXq9XFFC5z5rlpmaziU8++UQ+m4PA9PQ0ZmZmRPDQ4OjDaB8dAxSLRanXLywsPNap4E6ng6+//hqVSkWyAc4g6FkEymR7vV4sLCzg0qVLj+2YjgPu3LkDy7LQarVkEFBnBOwHcKMbF/1wGJDZAD97Xnu9hY4zDlNTU3j55Zdl98O3Bb8HRgfpeMBkCscAZP/sZ/HKN0WhUBBFU63SqRkwelkMdXMM9sbs7CxCoZAYeMdxhK3F7Wy85ozKKSSoJ8GZOXDegc6EtFWfz4dCoYCrV68eWH+BcycGxwNmTuGIg9H5zMzMY12gPhgMUCgUsLa2BmA3OqQzYJmC5Q+v14tkMinibwZ7IxQKCZuH8wZkcHEVKVk+2phThZWZGhvMLBkBEPkL6k8lEgmUSiWsra0Zh21wH4xTOOLodrtIp9OP1SH0+33cvHkT+Xze1fgk5RSA7O0FdldRttttWfFo8GjEYjEAuzuVmR2wP0CjzjWa1CDS+6HpROgk2JPw+XzyuqQNf/3114hEIsjlck/5zA0OE4xTOOI4qLowYVkWisUiJicnUSgUUCqVUCgUZKk9G5aRSEQyAS3eRmdAPn06nTbTriMikUggEomImiodMPsFLAcxY8hkMojH46jVanKNB4OBDMdRtI5rPpPJpJSf2ITO5/PIZDKPNagwOFowTsFAYNs2Pv/8czQaDWxtbaFer0tjk5o9nEXgxGyv15OMgewZqqIuLCyYPb77gMfjQSqVQr1el0Yx5xRYJtRTzBx8i8fjct2ZSbRaLZlbACAaVB6PR8p7nU4HS0tLiMfjpoxkIDBOwUBQKBQA7BiQYrHoMiIsYZAayQE027ZRr9dljwINzvz8PGZnZ5/m6RxJzMzMYGtry9VDYHnI4/EI3bRer6NYLIo0NzMKTj6HQiFYloV4PA7btsV569fg0NyNGzeQzWaNsJ0BAOMUDP4f1tfXsbq6im63i0gkgkwmA9u2hc1Czjyw0+ik/j+H14AdNozjOIjH4zhx4oTpJXwDRCIRTE9PY2trS2i9HG5jjwCAqKIyW+v1etKgLpfL8Pl8ss6Tf7P0FAqFkMvl4DgO6vU68vk8rl27hsuXL5sykoGhpBrs9BFu374tOjvdbhfVahXNZhOxWAzZbFbE2gKBAGKxmDQsOSzFxnM0GsXZs2cNRfEbwu/3Y3JyEtFoFP1+X3oA1JVik1hvuAuHwzIBTQYSpS44+EZjH41G0W63UalUEA6HMTExgWg0ivX1dZTL5ad89gaHASZTeMbR7/dx7949ADuRvtfrRbPZRKPRgN/vl+Uv1PDnikhGqiwxeTwe9Ho9zM3NYWJiwjSXvyEcx3Gpy2oZEWBH/ZT9Bjph3WTudDrweDzIZDLw+/1otVqo1+tIp9MYDAaIRqNIp9OIRqPw+/2wbRuZTAb1eh13795FOp02Gd4zDuMUnmEMBgOsrKyg0+kgFouh0WiIdAIHnbgiEtgpbQwGA9i2LYaDjsFxHIyPj2NxcdE4hG8B7WA7nY70AjiboOUs4vG4aBxRcpsUYTaWKaLn8XhEgrvT6ch2NjKcIpEIyuUy1tbWsLCw8DQvgcFThnEKzzBoHGiA+v2+bO4aDAYuOiMNE3nvjFwZnSYSCZw4ccLUpA8AY2NjGBsbQ6PRkAaynk6m7AWzCO0MGo2G0Fq73S58Ph8SiYS8BhvR/Fy53Y2f+82bNzE2Nmaazs8wjFN4RtHtdnHz5k3ZoDUYDODxeNBut8WwM2OIRqOifkp9HUa0nU4H8XgcFy5cwNTU1FM+q+MBv9+PmZkZbG9vIxQKyTY29ggY3ddqNSQSCYTDYXS7XWErUVqbzpozC5whGQwGCAaDopukBxE7nQ62trZw8uTJp3wVDJ4WjFN4RrG1tQUAUiZiNkD5isFggPHxcXS7Xfj9fjQaDeG8kzvPrWDBYBBTU1OmbHRAYDkumUwin88LjbTT6SAYDMLv98umNhpyANJnYHkpnU4jFovB6/WKPhK1qVj+I9WYG+Acx0GpVML09PQzv/fiWYVxCs8oOBg1TDnlcJqWbG42m6hWq6KzQ81/SjhzsMrgYODz+ST6bzQaQjn1+XwubSkaeOod8bmBQACpVAqJRAKtVksW9/j9fteuhnK5LNIYAORztywLS0tLOH/+/NO8DAZPCYfKKejpWJYoDA4enU4HpVJJGpDhcBitVguVSkWmZMlMCQaD8nP2HBzHkYXxkUjksSuzPosgA6zdbkt5j9G9bdsygMayXjweR7PZhMfjQSwWQ7fbxcrKimsng8fjweTkJILBoAwcMqvQYnqUP2dmYvBs4anczbVaDcvLy4hGoy79/16vh2azCcdxkEqlDDXuMaFer6Pdbgu9kZEnBe10QxnYiSAjkYg0LnXzmdIMBgcHfiaUq2BZqNlsSiZAaW2WkNjroVCebdvCUOp2u7JDm2wkDrvxs2cZie9j2za2t7eN/MUziCfiFEiNW11dxY0bN2DbNgqFAn70ox+5okzHcbCxsYHx8XFXlqBXCxp8O/R6PWlgcviM+vuRSATxeBz9fl+WvnO5PLDLkQcgbCW+BpufBgeDRCIh11OL4rFUp524ZVnw+/2IRCJCOw0EAmg2my7JbDoa9ozIWorH40gmk7BtW96fZUWD/YPXTlOFiaWlJRSLRXHMnDBPJBIYGxtDKpWSvhGDrieNx+4USqUSPvvsM1y7dg21Wk2Ga8bHx+/bJazXDuqLce3aNbRaLVy6dMmUKr4lKFFBg84pWFIZAYi2EcXwSGlMJBLodDrI5/MAINGp1+uFZVlIJBJP89SOFQKBADKZjLCPAoGAOHLOF1DCgjMMdNSLi4uyTIeUUy2hzbIRm8+2bYtyaiwWw8zMDBzHweTk5FO+CkcD3W4XW1tbUnYrFAoyMX7+/Hlks1l53BdffIGbN2+6lIVJNeaGQsrhj42NIRQKIRqNPlGq98gW9osvvsDJkydF8/1BHoxfPi1xcPXqVfz+97+XiJJRy8TEBNLptOv5wWBQ5IAJx3Fw5coV1Go1ZLNZLC4u7vMUDYZB+iKVMgFID4F9AkpZ1Ot1RKNReQ77Chxq83q9YngMDhbhcFhowlrxlM6aZAE2nUOhENrtNu7cuYNIJCKfI7AbcGmmGf/ma83PzyMejxtl232g1Wrhiy++wPLyslz/7e1t9Pt9nD9/3mXMyRgrl8vSx2H1o9/vw7IsOI7jKgHati2lvSeFkZ3CP/3TP2FychKpVAozMzOIxWJIJpM4c+aMPOZBDJTx8XFRdeSXenJyEmfPnn3g44cbW2tra6Ia+c477+Dv/u7vxPMa7B/r6+siotZqtTAYDBAOh4XaGA6HYdu2/A5wM5XYi2DWwGloM+x0sOC17nQ6931eOtqv1WqIx+OieOr3+6X3wxkTNqqj0SgCgQAajYYo3/r9fpw/fx7JZNIMHu4TzWYTH3/8MdbX19HpdIS2Xa/XkUgkMDc35wp8WZZlCY+lW2Zt1BXjcGGlUhFKMbG5ufnYHffITqFcLqNWq8Hv9+PLL79EMBjE+fPnXU7hQZifn0ckEkG9XpdGVjqdxvT0tOtxTIGHhdSuX7+OdruNfr+PQqGAP/7xj/jRj35kONTfAIPBAPl8XoyLXtkYjUYRDoelnERnAcBVXqhWqxKdallt83kcLLgXIRqNYjAYoFqtwu/3IxgMIpvNSp8hGAxKv4GfJUUNtXghPzO/34/Z2VlEo1H5ncH+YVkWPvnkE9y4ccNVbiUDjLM7Go1GA+vr6+K0yQzTQRdVigHcVx4EdnoSS0tL+Ou//mtkMpnHcm4jfyNoQDgu3+12USwWxSsS/D2bkvF4HMFgEMFgUJpbVHfUIP2OEVA4HMbGxgZu3bolhqrT6eCLL77AzMwMXnrpJdPY3CdKpZKwuzjNys+U/QVqGbERRhG8VqslESo/W4/HA8uycO7cuad9ascSnGSmFAmddjweR6/XQ6lUkgU8AKRB6fF4kEwm4fP5UKvVEA6Hcfr0aRHP04QBg/3DsixcuXIFS0tLEhBx4LDdbkuwpIkxupenG9GhUEicQz6fR71ex/T0tGzJ43eA2N7exu3bt/HGG2/syymwqT1K8DayU+BEJVlAjuOgWq2iWCze5xSGmSjU0KHM8smTJ+9bI9nv91EulzE7OyuR6u3bt6WmzYjG6/Xigw8+QDKZxKlTp0Y9/GcejDbJiAAgg2eMGCmHzW1ewM7e4LGxMdy7d08iU81n58pNg4PH2bNnhRlGOqllWWg2m4jH48hms9KIpBMPhUJIJpOIxWKIxWIYHx83BIADwmAwwPb2Nq5fv46lpSXJvJiVMRtrNBpSBiIoCUOiDTM97jsnRZhZR7lcxtbWFnK5nNjSVquFcrmM55577pEkANpn9iq++uor3L17F//zf/7PR57nvnNHTbPiQermLznPGqdOnUKpVBI1xtnZ2fsyBTYvud2r2+1ibW1NUmE9SNNoNPCHP/wBY2NjSCaT+z2FZxKUUGYJj19GZm+cVOZuBOrnNBoNmRvhfmYSCriW09SiHw+i0SheeeUV+T8VajknwtIdM76HZeEG3x79fh83btzAtWvXXAKC1JRqtVpoNBoy9U97RoYXqeBs8DNIJu233+8LycZxHJTLZfkdy0eFQgHVahXnz59/5Ge8sbGBP/3pT6jVaqjVaiiVSiNTjEd2CmSm8CA5Xl8qlaQuRgynpm+99Rb++Mc/CvuBjAiNaDSKM2fOiENpt9uyJ1h7ZDqMra0tfPrpp3j99dcPfHn9cYRlWa6hJX5mXNAC7LKShhezNBoN6SUwYuXnv7CwYIzQEwKH0QyeLHq9Hu7cuYOrV6/KJD/7ALZti22q1WoyYNjpdIRaTwaZZVmyBQ/YsZPdblfK5n6/X0pL1KMiAw2AEEFee+21PY93MBjgq6++whdffCHswv2wA/fVU2Atmn0Dv9+PjY0N2La955c1EAhgbGwMtm1jbGzsPiOuF8PrE2NESgPGi8TyRz6fx61bt/DCCy+YGuke6Pf7uHv3Lvr9vjgA9gqazaaUHbSOESdgWc/u9XqoVqvioDmfsLi4aJyCwbFFrVbDrVu3sLKyImVtlsiBXa2pRqMhC6ni8TgSiYRrDwZ7CmSB8TXoBEgqYCmWS5YYnLH8OzEx8cgh3nw+jzt37qDT6UjmQic2CkbO+zVVlPUzx3GEzbIXYrEYvve97wEApqen73Mg3W4X+XxeePA8MerF0wk1m03UajWhfpG2tbKy4urQG7jRbreF686mPbV1OCWrF+wMBgOUy2UUCgWUy2W0Wi1ZBq9ZLnysgcFxQ7vdxrVr1/C73/0O165dE0o9G8q0N9xuZ1kWIpGIGPG5uTkpfXO2h01eZgsMZGnzBoMBIpEIKpUKSqUSQqGQrMKt1Wq4evUqvvvd7+553OzFbm9vy/3OUu+oTLORMwV208leoMRypVLB+vo6xsbGHvpcsiE4MTlcgw4Gg1hfXxeZBZ4c+xP8MHq9HtrtttTsOOG5trYGv9+P6elpkzE8AB6PB81mE8FgENVqVaIQNsOYrnKgBti5/rFYTJwIhfP4BU8kEq5lOwYGxwX5fB4ffvih1OFZpWA/VUf/bOSSndfv95FMJjE/Py9lo3g8Dr/fj0wmg2QyKU6ApSNm3pzdqlQq6Ha7iMViYg9XV1fRbrcfqTNWq9Xw5ZdfSiVHa5jx3n4URr6js9ksstmseD8ag263i+vXrz/y+YuLi5ibm3uo0Q6Hw65shL0FriQE4KJDsrHT7XaRyWQk4jVww3EcyaS485dUODIdWCrqdrtotVqSdlYqFbn+bEzzixoIBJDNZvcMBgwMjhL6/T5WV1fx9ddfo16vA4CQKSgvz+CJagCsXFB2nAuSaMz5HP6bPT3aOmbaqVQKs7OzAHZIIToTYeD70ksvPbJ/urq6is3NTRGxJA15eN5hL4ycKXAKktN4bFb2ej2srq7Csqw9+wrxeBypVOqBTsHr9SKVSrlq07ZtiyywroXpprZlWbhw4QIWFxdl2TlrcwY7WFtbE9YDFU71Xt92uy19Bd3Qt21bHAj7OGxM83UmJyfNtTY48nAcB7VaDXfu3EG5XBYp8nq97uptDu/K7nQ60icAdpccMaMmGWPYIJOayiZwIBDA5cuXkcvlYFmWKA/ncjkAO6rGjUYDL7300p7n0e12ceXKFTSbTQAQRpoWQBwFIzsFRpAAxEhTO6Ver+P27duPPOhXX331gfrsbGDrZSH0lqS/0mGwRscGTzwel6XkpF9lMhnDzcaOY11eXnalqNyLwOyAolx6ylKnyfV63fXFZpQTCoXum0o3MDhqYEZcKBQkANLlHToGGlf+jnRSXXZloMzlU9w7wjJsNpuF1+sVR8Ly6/j4OC5evCj9iGw2i263i/n5eQDArVu3EA6H91x36zgOrl69itu3b0uAR7Ym5yFGVR0Y2SnQIQCQi0Mj0u/3sbS0hIsXL+7ZzJibm0OxWLzv581m8z5lVHbceUKaUkXVwEQi4VpCzibo7du38cILLzzzI/ztdlukkzkExWyAP+Mf7u3l4wmWC1lCYhp97tw5078xOLLo9/siYV2v10WlIRgMIhwOI5lMylDgMN2emQOzBd0oBiC2jHssCFZWdEnJ6/XizTfflF5BOp2WkhHnH1ZXV/GDH/xgz/PJ5/P45JNPZH0unRWXZumVq4/CyFaTb6IvjtbKuXfvHjY3Nx+5lONBYna8cPr1K5UKAEhUy0lBALJcnvotRCqVQqfTET7xd77znWd6B0Mmk8EPf/hDlEolrK+vy26ESqUCy7JkupIEAK565BfX5/PJIhdqVqXTaVy4cMFkYgZHFpZloVAooF6vSwYAwEV3r9frKJVKrnuEGlJ8Dh0CM2iuOV1cXJRaPuCe2+JOc2okvfrqq/fJxNCpOI6Da9euodPp3LdmQKPb7eJPf/oT7t275yoT64DvQUPFD8PIToEvTuE00lB5wpVKBXfv3sX09PSehng4uiRtiuULQlOpWNumt2OjO5FIIBqNot/vo1arifZLIpHA1atXMTMzgxMnTox6iscSPp9PdlfYto1KpYJUKiUzCgCkadZoNGT4hilvKpUS/aqpqSmzntHgyIJDr3ofCOCW5qExpYR8IpEQSjdLSewzkJ7KnzUaDUxNTSGVSrlUH8LhsEwx06n4fD4kEokHltT12tXr16/jhz/84Z7nValUcO/ePTknknE47EaSyaj08ZGdgu6WU4qXQ2fATpf8+vXrePnll/c1dcnlLg+6MKFQCJ1OR5ZX8ERZ+8vlcohGo+j1epIChsNhxONx2LaNK1euCA3MALK0HXBvhwJ2S4K8Ifjl3Q+/2cDgsKLX6+H27duo1WoyZ8XvtTbgLEVTfYGMPZaLaP+47Y52iyWk6elpV/WC9xJngeh84vE4fv7zn0sz+UHY3NzE+Pj4no9xHAdffvml7FPn/RyPx+X9WPrXLYC9MPLdrucTGLlrDfd+v4+VlRV8+eWXjxywcB3A/1vuMlyOoLf1er2i4e/3+6Vrb9u2nCTZS1xSwVmI69evw+fz4cc//rGRdh4CKaaEmUo2OI5wHAeWZWFtbU22CNIJ9Ho9yQyi0SiCwSDq9borg2aAyUFPPp4EF5I3OFcwMTHhajRraiqw0z89ffo0/vIv/3JPY99ut3HlyhWcOXNmz3tzbW0NV69elSxAD9cx89FDq6NgX5NHuvNOT8suPA+CO5hHBfsSw1PRbCZTOZB6IlxkDuzUBqk50mq15ANn06bX6+Grr77CtWvX9nOaBgYGxwRra2tYWloSIcdOpyP7WTS45UxLS/DfqVRKSkj8GbDLQKI0zNTUFKampmRrWiQSERafZVnY2trCyZMn8dd//dd7OgQAohB9/vz5hz6m2+3iq6++gmVZ4uCYBXHYl6VgqhGMgn1pH7Empocx2HzhQayuruLOnTt44YUXRn1pRCIR4dLytdPptEhmk4lULBZFJ77dbqNarQqvmHMNiUQC6XQamUxGfvfee+8hlUphcXHRMGYMDJ4BOI6D5eVlFItFMcxUBwZ2Vwd7vV4kk0lEIhE0Gg3U63WR1wEgvTf2DmgHuTebgnfsEWSzWUSjUVmhSXtWrVaRyWTw6quvPnIquV6v48qVK0gkEnsOq+Xzedy4cQPAjpRQo9EQkghtNemp+1moNHKmwGUSTE30hi7Sudgxv3fvnqRgo4CeVrOPdM2PdbJ0Oi3iUywrEZ1OB1tbW+j3+wiFQpicnITf70c0GoVlWfjwww9FsMrAwOB4o16vo1qtutRJGbhyCM3v9wv1VItBUtICgETaemUtN9qxrMOsI5vNSpmasw2DwUDK7aM4BGBHIjufz+PNN9986GMcx8H169eFqk9tJi1twZmidruNSqXySI06YmSnwKlXGn4OszWbTdEUp9bHvXv3hFI6CriLViMQCGB6ehqWZUmdz+PxiBdmFhGJRJDNZpFIJGQC2uv1IpfLSaOI0reffPKJEXAzMDjmYFWBgamWeWDDmAa93W6jXC6L0SSzUZd+GPDS4NMQUy4mFoshl8vh5MmTUtngRjWPx4NGo4FUKjWSQwAg9m2vXfS1Wg337t1DLpcTCitJIRzmBSAOcD97NkZ2CvR6bFYwDWM0r9OxcrmMTz/9dGQD3Gw276vx+f1+jI2NSarGhgnVOvUwG7MVr9crqV48HhdmErCTSXzyySf46KOPRu7CGxgYHD1Uq1VRCaW2F9lEtFukkbLaEA6HZWER1ZipxKwp8XpuB4D0Gebn5zEzMwMALlYf7eZ+gtF4PI6XX375odT+wWCATz75BJVKRao2NPhscJNNqEcHRj2GfTkFelo6AA51aMkJSsSur6+jVCqN9NpM2Ybfj5rkzEKq1SpqtZpsBeNqQu2s6M2npqYwPT3tWlreaDTw4Ycf4uOPPzYZg4HBMYTjOFhaWnIZZr0lMBQKSaWD5RYSXUqlkkz0a+o9o3ZNS9WSF5SgYIDMsjpRrVZHtoUARDH1YU6hVCrhxo0bsCwLGxsb0jsFdjMDKg/QtnI51igY2SlwaxfgzhK4V4HDZnzz9fV1fPXVVyMZ30Qi8UC6FGmoXPCiu/+RSEQWyuvsgRcjFAohHo/LvAMbNrVaDe+++y7ef/99o6pqYHCM4DgO1tbWZKZpOKLXxprRtG3bKJfLMrQZiUSQTCaRTqcxPj6OeDwugS/L3Fq3KBAIIJPJuHTAdH+UgpPMIkYB1wM8CFwLWiwWRRKfdoxBu56kZjPc7/cfvPYR6/NswlCXSKul8mfATjnp008/xcLCgmuH88NeG3AroAJALpdDKpWSgROK73GknNuMqO9fr9fFG/ID1hojPp9P5Lb/9Kc/odfr4eLFi3uOkBsYGBwN1Ot1lMtlhEIhV0MZ2CWu0E6x9s+d1zTwJLGQ709nwvI1d5kzo6BT0P0CbcOazSYmJydHHugtl8u4e/fuQ23m1tYWPvvsM/T7fZG+73Q6sheFNFQeA0vzbECPgpEzBc3f1VOunIBlVK8nYavVKq5evepiCT0MHo/nvvkG3ZxhBkDlzkqlgnK5jNXVVVEojMVirsUVbDbzQ+XEcyAQgG3b+PDDD/HLX/4S29vbo14GAwODQwjHcbC+vi7GPBgMyiIuOod2uy02hI9jL0HvJCeBhtsIAUjgqe0eJa7n5+cfqCtESe5R9dcsy8JHH32Ee/fuPZA6PxgMcOXKFWFZ0jmRFcUMRjfWdU/lwCmplF5mMyYSiciFYAmJB8Y373Q6uHbtGra2tkZ6D9b7CI/Hg/Pnz8uQCHsZeoE810XypHWTKZvNIhaLCTWLz+WGN5/Ph83NTfzqV7/CvXv3zEpPg2OFZ2Vdar/fx507d1AoFFzVCv1vUul1n4DGU4vZsRROSifr8dyuptcHhMNhvPjii2KjhjEYDO5TWd0LtH8s1bOHwXP8/PPP8cUXX8gQb7ValUyHWyk5V8FSl973cODlI51SMd3iUBm9GoXV/H6/XEwOYszNze15cYZVWInTp0+LnAYvEOt7Pp8PxWIRvV5PaFmsn3EFaDgclhSQDXE2lhhB1Ot1fPDBB6jVajh37pyRxDA4FuD9cJwxGAywsbEB27YlImeGwOoAQe00UkZZUqYdoP3hDnMyHGu1GjY2NqRkxGs6NTWF06dPP3TR1GAwQCaTGbl0RAkhzZRiZnPnzh388Y9/lN6Hdvh6SI3acCz3cx6DvYVRMHKmQG1+ejFeYHooelcArq1dXq8XS0tLuHv37sgXRiMYDCKdTos3pBOi8B2XzHNqj3U2ALIXlRkGa4r8stDJdTodFAoFfPzxx7h69aqL7mpgcJRgWRaKxeIzkSE4joNCoSA7jTlXQGYRbQnL2XqdL50I+6HaHgCQSgiDVS1Fzb5lOp1GPB5/aIWh1+thYmJipLINJ7CXl5cxOTnp2i+zvLyM3/3ud1hbW3PtsuHxMStg2Vwv+9EB+4GXj3QUztILLyYzAmpvUCCP1NF6vY7PP/8clmU98n0eVH975ZVXAOw6DKZV/CLk83lxClx83W63EQ6Hcfr0aXi9Xkm1OOmoJ7H5JapWq/jkk09w8+ZNw0wyODJgYGNZFtrttgxOHXcUCgVsbW25JngZrFLAbngNJUvJzWZTlJUZ1NKuMJOg0e10OlJiCgQCiEajmJ+fx/PPP+/amzCM4cVhe+Hu3bv41a9+Bdu2RbKiVqvh5s2beOedd7C+vu4KmHXVhH1SYJcOyyCd9NRGo/HABWcPwr56CrxIpILygpPupAfcmJoBO72F5eXlker2rP1pzM/Py5Y1fkgsCVWrVdy9exeWZUlThcYeAJLJpEw7a/6xjgqo/trtdlEoFPD+++/j888/NxmDwZFDLBbb01AdF5CjT0POmSnOIwxTT/XmQL0/mQNqVF1mk5myF41GA5VKRV6P+1peffXVA9vVUq/X8fvf/x75fF5sVaVSwdLSEj788EMsLy8L81OXgjjMyzI+z5dMKToEZjejEH6AfTgFqpkyA+j3+4jFYshkMshms3LBdTOYHxDZPn/+859le9p+kE6n8eKLL4o6IR0U+xYbGxtYX18HAGku0+CPjY2JJgkjB5aXtGPgwm2/349ms4nPP/9cqF8GBocRNASabTKsIXZcQUPPcrBuzLJ0wmiZxlRnArFYDIlEQu55zjXQNti2DcuysL29LZUHisxNT09jYWHhoayi/TT4+/0+PvroI9y9e1ec0+bmJm7cuIH3339fdi5z9oplc5J89BAe//Dz5zXgXNeom9f2rX0E7DgIsnr8fr8oC7IRo7+UTOm4x/lR+kP0gBrBYBBzc3PyJWBkQCoWZTWazaYslGcH3ufz4dy5c0in0/JapJ8x62HarTXTLcvC1atXR+6FGBg8SZCSCOwKRlJ7jN9hYLdpetzKoVQyYO+S597tdsV4sgeqewx6ILZWq8k2NTIcuWLT4/HAsizk83kx8iwrnT59ek8do1arNVLw6zgObt68ic8//1wMeqVSwVdffYWPP/4Yq6ur8tnqY9OSQswStFPUon5ap25UjOwU2FDWnN9Op4NarQbLsmROgE6BqQsb07ywn332GVZWVvZ8Lxp8jQsXLsgoOUWogN2hlNXVVWxsbMjPAIiI3sLCAi5evIhEIiHlIy7o5ta3UCgkHwywEynUajV88MEHWF5eHvmCGhg8CTACBHb7fQyEuBeAvQbq4RwX9Ho9bG9vS7mINof3cTKZlCVdNJCsr9u2LU6SASZLR9pusffItbQ0wNlsFqdOndqzPOfxeFzb1x4Gy7Lwxz/+UXqtPB6K8/EzZL+DpSE6OV3p0KUlnamwjK+DiEdhXz0FXhgeCBvN7GwHAgGkUikXB5gDFvwgyuUy/vSnP+25iIepnEY4HMZbb70lNUJGQjxpspCIdDotnjISicjkMutrepKRHyB5viyPVSoVrK2t4Xe/+92xdAzsrRgcLejvP+9FrqcFdoyNbdsoFArY3NzExsYGlpaWRiJ6HGZwXuDWrVvi6LQ9YBmIysrATmWANoi2i1mDpn1qQwvsKjcz8vb5fMhkMrh8+bJUHR6EZrOJ9fX1kUp4f/rTn3D9+nUXXZ5BLx2+FgLV1FmOCDAD0I+hc9EOg6WyUTCyU9DTgZSt5orOeDwu9Tb+nAdEZ0Ej3263cffuXdy5c2fUtxacPn0aCwsLomPE/gY/9C+++EK+DKyt8kPOZDJ4/vnnXU0aPp9Nc/2aTCF7vR5KpRL+9Kc/oVqt7vuYDzP2mnI0SrKHF1oGmayjWq2Gfr8vkgvM0Lk28jiUkGq1Gm7fvi1bzbTIHQApFdGg0xYxOKUwnubsR6NRWcwVDAZh2zaWlpawtrYm29joUE6fPo2zZ8/umSUsLS1hYmLikeeysbGBjz/+WNhS9XpdgmESYnTmomcSSEdlP4TgZ643ZOoFZKP2R/dVPhoMBuJ56RCoYMoPh2UZSl4Eg0EkEgkkk0kxQs1mE7/73e/2LS8RCATwxhtvyHCHXsAdCARQKBRw7do1YUUN730+d+4cFhcXXU6K/2aKpbv4/NNoNLC8vIxf/epXWF9fP1ap+MPAAb9n4VyPGrhZq16vI5/Po1QqwbZtVCoV5PN5KY/ysyOVkvX3owhudQR2vpvs+1mWhUAgIMtyGEXTBrFEHI1G5f5mL4JsI9I/y+UyisWiBH9sSjvOzt73Rw22bm9vw+fzPXJYrdVq4b333kOr1RKjzn5Aq9US5hOdGHsgWqWalHvulgYgStXxeBzhcNhVpSmVShIwPwojTzRzKxGbHJoGRskJTtPRI/HLyFFreljHcbC1tYXf/OY3+PnPfz7y8gkAOHv2LO7du4crV664KLG8aB999BFyuRxOnTp135R0PB7H9773PZTLZdTrdRGRYtrIoTg6Og6pMOW8c+cOLMvCm2++ibNnz458zIcVHMMn60JHQJxD0QMwBocD/F6TM89smcaB9yplDiKRCFKp1JGcXxgMBtja2nLRQnUk3O120Wg0ZONiIBCQ0hDvfe53Z8mNtovlIfZLa7UaisWi2DJmZJx3mp2dfehxdrtdrK6u4uTJk488n6tXr+L27dsSjFKhgSUfknNol1iiZ9+Enzenm3U2xPdg9cPv97t0kUbByJkCPSwNMWt5vCD0vmQFDC/f0bU8fni3b9/GH/7wh32t7vT5fHjllVdEwoJTzXyPer2OTz755KEzBvPz83jppZcQDAbFiVHPiRkH5yBYb9SCU8ViEX/+85+PDVWVXOyHRZDPAr3xKMPn8yEajcr9wAiZ5T+WInSZ5Sih3++L0B0zHd6rPG/N02dDWTNuaGT1djJWMLhms1gsYnNzU/a16PeZmprCpUuX9txctr6+jsFggGQyuef5bG5u4r333pPVwGRycimYFtwD4Oox0MbS6Q8zNekMaLu0QCmAkbPEkTMF1teZwmhOML0pvStHr/ll5HN5kjy5fr+PK1euwOPx4K233hpZI2RiYgJzc3P45JNPJEsAIAyipaUl3LlzB+fPn7/vuaFQCG+88QYqlQo+/fRTyQ64kLvX68lENilsWtp7MBhge3sb5XIZY2Njo16+QwlGH/V6XaR4WasFRv8SGTx5lEol1Go1UQKmoQN2Z4ooN8NZoaPo4Bns0c4w22k0Gi55fGZOPF8aTO5U5pwSMwRG2a1WCysrK66dCuw7BAIBZLNZvP7663tmCe12GxsbG3j99df3jMabzSbeffddFItFV9CsMx/KfjPjoZ2lWJ5mSDLQ1mxNlsF1lUMP7o6CkZ0Cow9Ng+IFYO0tHA7LB8gD54fFE2SZgh6s0+kIT/fy5csj7zZ4++23cfPmTbRaLSl1NBoNuWg3b97EzMzMfX0Fnsv3v/995PN5qQNqnRStbkgnweyGaWmlUjnyTgHYqW8WCgV4PB7Mzs5KSY0O3eBwIpvNwufzIZ/Po9vtIhwOI5lMyn5fMgFpVEbVvTlsKJfLIksBQIJO2hvW3klT16VgMncY+WvFUdu2Ua1WpY8AQMrGfP1QKITnnnsOp06d2tPYX79+fc9NacCO8f/ggw+wtLTkcmKsaOgSD4NPHhNLTOxvaF0jZgGhUEiyI7JBeS30MNsoGDl0IH2TzWOOe5OCyg1FwO7sACNuAK4domQqsWnTaDTw0Ucf4d1338XGxsZIB59MJvGd73xHTlaXtQDg2rVr+Oijjx462j02Noa/+qu/QjweR71eF243S0U8Tx6nlgMHsCel9ijB7/fLkvLt7W2sr6+jWq3KIJ/B4UUqlcKJEydkUKtWq6HZbGJ7ext3797F6uqqsJKYDR41aKlqDphpATiWSzSDkL0UBrFaMl9L3Wxvb6NarboatKlUCl6vF6lUCi+//DJefvnlPctu1WoV4+PjyGaze57H+vo6Pv/8c5eRJpFDN4oZMOsdDzT8DKTZiGajnBkDh/foLJj18/kHninQc/LFOUGoh9mGvRhPttlsiqCUViWkN+Pzbt26hcFggO9+97uYn59/pNT2G2+8gUKhgM8++0wcDJ2Cbdv49NNPMT09jeeee+6+53s8HiwuLuInP/kJ/v3f/x3ValW8NM+JMw7BYFBoaSyF6anCo4x0Ou1Sj+XnyFKcweGGz+fDwsICSqWSDC5xQUwikRBtH2bpozYbDwtY9uLsk66pA7u2qNVqYWNjQ8rWOqpmI5fXp9FoYG1tTRbg8LUYzEYiEbz66qu4dOnSng6h2WyiWCxidnZ2zwZ+oVDAv/zLv7ia5VqbiAE3y12sXLAcD8DVI6CDJAuLzoAzDDq4ZQOa7zMKRr7racwByEAHv2y9Xk+2+2gutPZMOlPggTJj0N7766+/Rrvdxve//33MzMw8VKucr/nmm2/izp07YszobPr9PkqlEn73u99hYmJCBnuGcebMGbz55pv4wx/+gEql4iqPDQYDGWbTS779fj9WVlZw+vTpPQdZjgK8Xq+rOUbmhsHRgcfjke93s9nE2NgYUqkUSqUSNjY2JCizbVv2Dh8FcMOilnpgaYQBJcslwO4KXhJeWEZiSajRaKDZbGJjYwPValWEMFutFmKxmARHp0+fxsWLF/d0CL1eD19++SXOnj275+Pq9TreeecdqYBoBVOWjFj+472neyjaifAa8GcMwHnuWp0a2N0gR/s1qiDeyE6BjRrtpdgrYH2PXmq4nDMYDFCtVl3DZBTv4sXgBxyNRnHv3j3U63WcP38er7766p6Gd3JyEr/4xS/wv//3/0a32xVWEdMopm1vvvnmA9kDXq8Xly9fRiAQwLvvvovNzU3pieiLznPnsVIv6bjBOISjDQ52sqRAkTUyzJLJ5KF1Cr1eD8ViUQbyaAA5hEbjHwgEpJGqSRHdbld4+1oNlefO/lmr1UIkEhEb1O12UalUkEql8Pzzz+Ptt9/eMxgdDAa4e/cuTp06tSedntWP9fV1xGIxoeYzQ2AmHgqFXEG31l/i65BhRXE7luE1dIOZ8xeUxajVaiMPpI7sFJjWDDc56M1YY+fPaZx5sHQSrJnpxgkzDjZye70eNjY2sL29jXa7jZ/85Cd7GqszZ87gJz/5Cd555x3XngUa9j//+c8IBAL43ve+98CSiNfrxcWLF+X9aPA1N3h4Y9NxdAgGxwPMcGkkU6kU4vE4stnsoSYPWJaFe/fuAdhVQuA9x0BP9xtJG+U9r0tLpHCS3VMsFkX8jk6Dr092z9mzZ/GDH/zgkU5zfX0d6XT6kX2E5eVl/OEPf0CpVJJSkN6SxvcmjV83l+kEyNLUZBiWsUki0GUj9pAoFGpZlmt0YBSM7BToeR/ELtKNZXo5Og/Ws7T0Nmt7um7G/9OrM6v485//jKmpKVm08zBcunQJ6+vruHLlikQBRKlUwh/+8Aek02m88MILD3y+1+vF66+/jlqthitXrgDYbeyQCqanuuv1Om7fvo2xsTETXRscKlC4jdm7z+dDo9GAZVlIp9OHtg+2srIihg6ABJ+M5vUAmr4fgd0oudVqSf+h1+vBsizZW8yqBkklWm/o3Llz+Iu/+AtkMpk9jzGfz0tDei+srq7it7/9LTY3NwHAFRTz+mv9Ki1ix2Ba683xHOv1OhqNBgKBgDAuWYYHgEqlgmq1ilarJUuEODl94DuameLwBGl0acx5UFosD9hJ72ik9UQh+wrMKvx+v2sPM71hvV7Hv/7rvyIej++pOxIKhfDjH/8Y5XIZt27dkoghEolIOvrb3/4WiUQCCwsLD3ydZDKJv/qrv0K73cbNmzflPPSEJD204zi4du0aLl++vGeq+bSw1yQyP6OjNt1qsD/o76Xf75cyEsu2hwkbGxsol8sySMpyCofWWCtn8EnFU0bfg8EA0WgUtm2jVCq5hs8uXLiAZrOJa9euye84D+DxePDCCy88smTkOA5qtdpIwnJ3797Fb37zG6ytrQlJRUfzNPL8m46CQTIdObMFqj3rtaEMsG3bxtbWlrCv+Hs6TQp+8v1Hwb5kLniwAITNMNyA1ifJx5OdxIPSdUIA96WJWjLW6/Wi1Wrh97//PSYnJ/f00JFIBH/zN3+D//W//heWlpZcHG2/349CoYBf/epX+MUvfvHQGYNkMomf/exncBxHRtGZ+ZDDz1Jar9fDysrKA4fkniYeRek1zuDZAymXDMgOE/r9PsrlsoshEwqFpB6uJSt09UEHp1r8rVAoIJPJYGpqCi+88AIymYys3ywUCgAg+lCXLl3CD37wg0cGdq1WS0To9sLGxgb+7//9v6KqzAyAzWgadJafdRmJelV6II3EF1JP2+22UHIpdUGpbToFluKZBXGeY1SnMHIeGQwGkUwmXfTFer3uYhOxOcID0TrmvDh6Y5LuqNMZ8EIBbvbS0tISfvOb3zyyLjY2Nob//t//OyYnJ6X+z3ojdVTefffdPXsCqVQKP/vZz3DhwgVxUIy89d9+vx9fffXVoZv85fEaGAxD72E4LCiXy8jn88LuY3NYC/hpHS6PxyM9TO494CCa1+vFyy+/jDfffBOvvvqqlIO0LlKv10M0GsXrr7+Ot99++4EDrhqtVkuEPh8Gx3Gwvr6O3/72t9je3hYmJp0Xo3cGwDT6NPS0iTw/vXKY9pY/azQaKJfLsnGS14IVF74+7YAus42CkTMFfkg8aKZwgHs9ZrPZlOERDZ0yaXkMco/JuQV2vgAsV7EWBwCffPIJkskk/uIv/mLPL3YymcR/+2//Df/4j/+IarXq6m84joPPPvsMqVQKb7311kPpZOl0Gv/5P/9nJBIJvP/++xLFkLHABvvm5ia2trYwNTU16qV87BjWRDEweBR0zftJwnEcFItFVwmaxBNdUx+eh6JBbTQaUiqemprC2NgYFhcXhbHIZm29XkepVEIoFMLMzAxee+01nD17dk89Ix4fh8j2wsrKCn7zm99gZWVFbBrfn+fFAJrnpQNsnj8fw+yIpTNmTVQ9Hd7/wI2Sfr9fZq5SqZQ4p/3Ipo/sFPiBsHPP8g4HL/TGJzaT6fm0XIS+wLpHwedpyW29gJqv8/HHH2NiYgIvvvjinl/gqakp/PSnP8W//uu/yvs7jiMU2CtXriCbzeKll17as1H8ox/9CIFAAO+//740dGhwyfDY2Ng4VE6B53rYIkKDbw7LskQa+nHgaZUUa7UaVldXhXDC0ggDRtbNGeiQc0/G0OTkJMbGxpBOp6WSkUgk5Dq1221cvXoVX331FSqVCi5fvozXX3/9oXNLwxjFUa6uruLdd9/FvXv3xJax7MX7UBNw9C4MVkcYzdNWcZ0n9zlUq1WXFIYOstmHSKVSqNfrmJycFAYVS92ceh8FIzsF7e20RofeBQrsDj8N7yhgo0Q3WnjR+VyKXZEVwIyBUTnZSb/+9a8Ri8Vw+vTphx6v1+vF+fPn4fP58P/9f/+fiF3RUdVqNfz617+Gx+PB5cuXH/rBBwIBvP3223jllVfwT//0T1hZWZEPh86xVCodqulmRlUPAjMmHSFpKpzB4YJlWTJ0NRgMkE6nkUgkHhnh7hf6+8+695NwFNeuXZMG+NbWlgSGWqrBcRwUCgUxcH6/H9lsFgsLCzh58qTIgj8Itm2Lsf7bv/1bzM/PHxhbkISUP/zhD1haWnKJ0rGOD0B6BFrmmufHYJdT2bZtw7IsaU5z+Iw0eQbXdDh8z1arha2tLfh8PkxOTiIajbpWJevlO4/CyE6BaZumoOqpPOoEMTqloaH+t075NA+XCo7Dcwt6bwNPhgszOp0O/u3f/g1/93d/h7m5uYces8fjwZkzZ/C3f/u3+NWvfoWNjQ2XfhOnDXO5HBYWFh76Ol6vF+l0Gv/lv/wXXLlyBe+9955ENr3ezr5Y27YPzVDQXsa9XC7DcRxXpFStVtHtdjE+Pv5QQ0CdlcNyjs8C+v0+8vk8fD4fcrkcIpEIqtUq6vU6MpnMYzPaT0repNlsolaroVAooFQqid6WLk1TKQEATp48iVOnTonEdCgUQjwef6iRr1Qq+OijjzA7O4uLFy/ua2/Lo1Cr1fDpp5/iz3/+MzY2NkQGRx+7LrPrQTQ9v0WHwb5noVBAvV4X4693Mes/w5PcBJ0LG9O6BHfgToEnokev9ewC2UX6i0pHoA8+Go2KB+TraFlXlqJ0tkHoEe5isYh33nkHP/vZz/ZUVvV4PDh//jzGx8fxD//wD8jn85LdsGH161//Gj/+8Y8xNze3540WjUbxgx/8ACdOnMA//uM/yvq7fD4Py7IOjcF82DmwPjnMxSYzq9PpIJ1OP/A82MhLJBLIZrMPjMz0UI7Bt4fP58PY2JiLQprNZg8de+ibYmNjA2trazJlDED2PmSzWcRiMde+gYsXLyIWi43kDG3bxt27d/HSSy8hl8sdmKNzHAflchm//e1vcePGDelZkjk5GAwQj8ddy3Eo2seerFYvZWZAMUNmEcFgELVazSWvo8cAmM3RlrHKkkwmhbjDcr3uXYwCjzNiR/J//I//ISkQL7DupD+oVMRMgE1jpobUStIDKMwS6GRIp6K3ZeqkBzkoavef/tN/Gklyu16v4x/+4R+wsbHhSuUCgQDm5ubwox/9CCdOnBjpC+Q4Dv74xz/i//7f/4tut4u/+Zu/eeSA3dOE4zioVqsIhUIihUC0221sbW2h3W5LfXb4xqtWq1heXsZgMMCpU6ceydgwMNgLg8EAy8vLyOfzaLVa8Hg80h+Ix+NyD36TbIiR9HDgstfszijodDq4d+8e3n33XaG8M4onqwmAUE5piPUAHvuu1GdiX7JWq4lcEHsj+Xwe1WpVjrvZbCIWi4kzIYHG6/Uik8m4lvQwUKcIqWVZ2NraGmkF8r6cAr2hbqAwtdPRoXYO9HL0ePRsPHB6L+5iYBTERRl0JHpknReD7/3888/j5z//+UiOYXt7G//+7/+OO3fuANjVFQmHw1hcXMTly5dx5syZkSOLq1ev4qOPPkIqlcIvfvGLQzsDwLpsPB6/zyl0Oh3JFIAdPanhx3Cast/vI51OmylugyMDshi/TZ+kUqng448/xpdffomNjQ0XmUYPuJLtxKEz27Yl0+OUMR0CJfvpPAKBAGKxGCKRiEuviqtWGQizTMVZBa4w0PvmWYKKxWKo1+uyz3pra+uR5zqyU/j5z38uGt+xWMzVWKXMMuv1PHg6APYUyPVlh50zBLrZovnIwG5dTktsA7hPQnZxcRF/8zd/g8nJyUeeS6vVwscff4wPPvhAGudsmlMU64033rjPMD4MzWYTn332Gb773e8eWqcwGAxkInPYoHNaU/d/ksmkMfyHFNTL4X3S7/dRqVQQjUaFtjg+Po5UKnVov49PAo7jCAvomzLxut0u7t69iw8//BA3b96EbdvSuGXfkzMEDCTJxGRWQLBn0uv1pKnM7Xh6eyTtKu0lB+cCgQDq9bpUUlg+ov1kVUYLCVIEkIH13bt3H3nOIzuFF198UaLMaDQqf7OcRLocdTYAuBwHZV31tDPra5qqysxBd9fpFektOU2tvWav18PU1BR+8YtfjOQYAODGjRv47W9/i/X1dWnK8HJcunQJf/mXf3nkpbENjhf0EBLZJdS/4XAWa9IPKoXSqNCIHFfasp5x+qbBTaVSwdWrV/Hpp59ic3NTjLyeoma0zhIY5TNqtRq2trZcdoWfXa1Ww2Cws0+5XC4D2C050YlHIhEkk0lEIhHZwzC8moCKsJr4ox0MsNN7Zebi9/tFi2kvjNx9odpepVJBOBxGPB7H5OTkfVOCelGNLgXRKfDiaB0kXTbiBWKqx9KTzhy4clCXk/r9Pra2tvAv//Iv+PnPfz7S3MC5c+eQy+Xw6aef4oMPPhBGVK/Xw9WrVwEAP/3pT0fOGAwMHhd432j9Ld6PlUoFwE6PL5lMIp1OS2lWOwXHcbC5uSml2VAodGwFHVlh+Cbo9/tYW1vDp59+itu3b0vDV08I85rRPrGMxAyAQ3W0baygkBkUj8clC2CTPRKJiC3TYnd0+AQDaAbGwzR+VmfINIxEIvuaah45Uzhx4oREGGww+/1+xONxJJNJxGIxEbNiGsP0Vpd86O30Pgb9ON2r0GqsWudEL+amJ6bTaLfbmJ6exk9/+lMsLi6OxOd2HAdbW1v45S9/KUqNvNDnzp3Dj3/8Y9ciGgODJwXeH/V6XZbIcEF9tVpFoVBArVYDAExPTyOXy8lkrOM4Iu/carVQKpVQqVQkCw8EApiYmDCkAQXLsnDlyhV8+eWXQjWnQ6DRp81hGa/VaqHRaEi2AMDlKGjDuIclkUhgfHwcPp8Py8vLKBaLaDab8Hq90hjWtH09r0Hby/K7bsrz/TjboB0BX/vLL7985DXYNyWVxpsUKPJzm80mIpGI7Pul9hFLPoz8NZ11WEKW3peceJ/PJ0NnAMTpsPfAn/H/dBTb29v453/+Z3z/+9/Hq6++uudmJJ7T1NQU/ut//a+4fv06VlZW8NFHH6HX6+HWrVvodDp49dVXce7cuWe6RnsQ4EyE4ziuQMLgfjDqjMVi99GIed0ajQbq9ToikYhk5xRIo0MYDHaWXHFosdFoIBQKodFoYHt7WxgtzzIcx8Hq6io+/fRTfP311zIwqGUoCM4UUD6DVFLK3zAj0FR8NqMdxxHHnMlkJIAG3CV2VkL0ABwZmyyN0TnwPchKsm1b5jiYdejA+VEYOVOYmJiQf7OpzKalFnpip5wHlc1mXV9YALI9iBdQD6oxE9FNar6WZiPRk/Li8QKyfOXxeITb/NOf/lRSrVHQ6/WwtraG3/3ud7h7964YsJdeegkvv/wystnsM38TPQqcPi8UCtjc3ES328XExARSqZR85oFAALlc7lBKjx8G3L17Fz6fT4y7ZVmu7129XketVhM6I6nEZJ1MTk4imUzCsix5Tq1WQ7FYlOjzWc8UqJ/0+eef48qVK1hfX0er1ZK5EM5NUX6DrCIyhxjhA7s6R7zeLOd4vV6USiWXTlEgEEA8HpfXISjxwcCaM1sMsJkdaCE9Zgr5fN5FQODjaScjkQj++Mc/PvKajOwUNN2TdSx6OZZoWPKxLAuhUAiJRAKJREK2PlEwLxaLIZVKuVIyGnJ6XBoK/p9NHToWNnSA3f2kvIDArtf1er04c+YM3nrrLZw9e3bfxvzzzz/HjRs38OWXX6LdbmNmZgbf//73cf78+UMzrHZYwBsM2DFotm3jxIkTqNVq2N7eRjKZRCqVQi6XkzQ3l8sd22bnt8XVq1eRTCYRjUZlexfrw8yy8vm8ZBM0IuFwGKFQCFNTUxKZMlBrNptoNBpoNBqYn58/Vg653W6LrRgFlmXh1q1b+Oyzz7C1tYVyuSwDngxO2RNgmQjYGYzL5/OuWj+pqCyrAxApb5IBAMigGctH7D3ondIc2AN2bG06nZZshQE4sCsXTqXYRqOBZDIpBB4G17FYTD7nd95555HXZV9LdmjEaZgHg501nPQrqVQKiURC0itGLSwHDUvHsnPPLEA3cgCIx6QIlk6D+DN6dL2IgjMPvKgrKyv493//dzQajX0PmF26dAkLCwtIp9N45513sLm5iV//+tdYX1/H66+/jsnJSVNSUmi1WrAsS1Qdt7a2EAqFZNKyWCzCcRyXaJfBg8HUn6UIXi82PnkvptNpkcGgpD2NSKvVQjweF+piKBRCLBZDs9k8Ng6hXq/j5s2bSKfTWFhYeKRT6PV6uHfvHr766itcv34d5XLZNYimo3ASWaj+3Ov15PtNB82mPnumJNJoLSPn/wmIMvjl7zVTiIE2m9JaE4lOXevEdbtdNBoN2LYtpaVIJOIqRwWDQckE6ZgehZEzhdnZWXEGWtGUzRBuOUskEi5JW3bZ2SSJx+MyvcyD1s0Snhy9IMtRurmiu+zDCqzEsPQuu/DPP/88vvOd72B+fn5fxnwwGGBlZQW/+tWvUCwW0Wq1kEql8PLLL+Pll192KTM+y+BNReZEqVSSaJZ6LPF4HJcvX0YikTAOdQ+8//77aDab8Pv9iMViGBsbQ7PZRLFYlNmdsbExZLNZJP//9s70q61zO+OPBAIk0ITEaLABT9dDfFu7Wbmrq7353j+o/1C/9E+4Xbf3Q+9NM7RJnNFxbAcczIxmCQESgn6gv619ZCfGDnGMffZaWbExko7Oed89PM+z95tKmZPAOfmR9r+F0TBZqVTsfBNEIi9jZOOtVkuVSkUbGxt68uSJdnd3NTU1pdu3b//sucmtVktbW1u6e/euHj16ZJNHJQU4SQKAl83DMXQ6HYOH/ORRLydFAlqr1WwMhm/aTSaTdkqcb+rF6eMryfbT6bQFCpAQ5kaRJOMTUZ75IOSD2yeffPLc+3zioDA9PW03zl78/zASGBaRrvehe+UOpwtRJqFegiiBp+D3yGj6+/sNUx0aGrJOQa9a4poIFrzOH3QRjUY1NTWlP/7xjy8NAX3zzTdaXFzU/fv3dXBwoImJCV25ckXXr18/8Ujet8mq1apqtZptgv39faXTaasW3qbAQCXsO/L9Zvf2l7/8RdVqVWNjY5qfn1cikdDa2pr1GjA6Op1Oa3d3V4VCQcPDw5qZmflJ8p698muT+0dHR1pdXdWf//xnlctlZbNZjY2NaXJyUqOjoxofH3/u3mu326pWq6amKZfLWl1d1dbWlmq1mjXp3bhxQ3Nzczp37twz11K73dbm5qYePnyopaUlra2tWdYM5APBS9YPf3B4eGgdwUBzUneYHXg/HcSS7MwDuAjeRzqGfGhQ293dVSwWs9EzrAdUQwR0ggaBBRUTPWH+iFKOBmCdQZQ3Gg1Tqz3PXohoplkM5psF5juCfbbMjaANm5ZuhlpRBaRSKeMIhoeHLUgQYPwYbuR0vWO7Kae5tkQioaGhIfs5pTKvz2Qyun79uv74xz8aDvcidnBwoGKxqGKxqD/96U9qt9vK5XK6ffv2c89oOCvme0jIhMj0qb5e9L4BifD8XtVEztfB6C5tt9tKpVIaHR0N4L9S9yjVvb09/fWvf1WlUtG5c+c0PT1tTZqoXhKJhCYnJ81xZTIZpdPpZ95TYIveDt9fa0x2tVrVn//8Z3333Xc2UdgjAwy8w6fk83mDGBuNhur1uiqVih0+z8/plyKo3rp1S9euXdPU1JQ1mh79/+yj/f19FYtFPXr0SI8fP1ahULDzCUhCUTni5HHsrVbLxlRQJXBmQSQS0c7OTuB7sU9oSOOZ+okMBAn8WTweN/6ARJZnLCmAnsRiMetx8H0PNCEy3BMjGS4UCioWixa0TuLuTxwU5ufn7c8Qw15SClzT6XRMmiopMCKbHgX4Cd/MxsJMJBJWXg0PDwc4CJrj4A+4sX4ioe+S9hWJ5yOoLgYGBpTL5fSP//iPunbt2kv3IqAj/+CDD9Tf369//ud/PrMNbyyenZ0dPX78WLu7uxobG9Pc3JwtUt+Iw6wWb36u/MsaIwr8qPazbtVqVV9++aVKpZImJyc1MzOjsbExcwStVsscSjQa1aNHj6xSjsViymazSqVSdn4HfTgkOc8yDqmpVquWcaZSKYMn/HSB0zAqhA8++EBPnjwxR8WeA+rwMnJwdKBgEgcSPn5Otc/46aOjI42NjWl2dlbZbNZ+zuA5YJ+dnR0LJlyjf28mP3NiJP+n9wCICb/FfyTD+J5Wq6VSqRSoxDjX2fdjMX4ilUoFvjuJQV9fn1KplCWecA8kuz6Z8gQ4Kkx8XLlc1traWmA66qkGhatXrwZ0sJRBXAxRixvGzUgkEvYAuUncQDIH/6U6nY7xChw2nk6nLfOXZBUGN7B3vDZlHf/OovKjM3y2NDw8rIWFBf3hD3/Q5cuXT3I7ftLYaGehUoD45Z7t7e2pUqnYWPPd3V1lMhnl83mNj49bWz2cAdkTGS/WaDSsb+Wko46fZYwC6HQ6b4SWnk75hw8fKp/Pm04daIAxL6VSyeASSQazptNpqxIuXLhg0zSfBcGhOtrd3ZUk22+JRMLG13uY9rSCQrVa1V/+8hd98803AccvdcfedDqdp0Y2SLLvD8KAZN3Dw2TdJB4+qNTrdUmy5JE1TQDk9fASVBueC6jVatZ74MdD+DE8Hq/3jW0chkMC6n0AUBBQ0c7OToA79Q25JLx8x3a7bX0pBNRYLKZKpaKdnR0LOASlRqOhVqv1zJPWTuLuT5x+MTCNTJ8KIB6PB+Z2cIOIruh8aZxhg1NVEAF9dgl3UKlUNDw8rGazadI8Ag8P3meRLAQMOaukAKvPzSEbYcbJ6uqqbt68qXffffel2/9/K1LvZYxeAiSjKCoYisciZvHy3SKRiJW8ZIMTExMWZKnMkNmhgKGJh6D/PEdEZnSaTuu3tP7+fs3MzKhYLFpn6+DgoN3vwcFBZTIZ9ff3WwczazidTptTunbtmunYn9V/Q6bM2GUq96GhocABL1R4v+TeesSg0+no7t27+vbbby0JYz/2HirvG7BwVCSWBAFwff8afod5aHxfkgd8CiMjCCB8RzqSeS8+G9y9VquZBBVoCREJVQrqRzJ2OpoTiYRyuZwpI5lyyh7y40m4F6wL/CD3jEDA7/B/FFAES6qc9fV1FYvFQAL+snbiSoEhc37oE18C+IebTnDw0byvr88cSafTCZw3ywPuhaX8+1L2JhIJpVIp07eTjaBm8nAV5SHRniqGm9zLhTCVcGJiQu+++66uXLnyRssmK5WKVlZWLLtB4osjJwtLJBIaGRlRLpfT6OioPZN2u62NjQ3t7+/bs6EywDExLz4SiRg5mE6nlclkAtkissm3wb777js9ePDAzhU+OjpSs9lUPB7X/Py8YrGY1tbWVCqVbI9xf8bGxsyR+qYzHGOj0bBkiuSrVquZ3n1oaOiZHIIXaryIIYekQevf//3ftb6+bnuefUlCALEL7Mu142ylbnDodXy8D8pGfAWJYe9h9qAZvK/vcwKelGQzpBgNT1DwMDjVQV9fn3GjjBOBtKYaIAD6GW9SVyIKeuH9I6QwSk18mD9hjcCHCgsCvFKpWIB8np1qpYCDwKl7x82NpLzhw7khwEx8cUk29ZTIKcmcxOHhoeH7lUrFqpBWq6VUKmU3J5FIWFkFNtqLTVJqoWSCm/BQFxkByqFisai//e1vWl5e1jvvvKOFhYU3IlPtNTYF8IWH5HDiHgL88ccftb+/r0wmYw4nm81aUxUjSRh1ws8qlYo5BILs4uKiNQpJMijkxo0bZx4m8uaxa2xoaEjJZFLT09OGhUNq4sAhJBFIkLCQcfo9VSqVjESluujvPz7HmMSKc51/ipt52fXN9TUaDX3//feSZIkijtRj3Tg1RjF4otZDRJDiGL7DS9NxvJICo/U9fOvRC66JagKYFCWPr0Q47pSgJh37LAISRgVGYOOUOKA5yHGeAyOvfbMuwYKgR0D1klm+J0R2tVp9qs/htOyFiGbwT24AztkvKIgXIjyLhrGzlEQw6kBQOAcfICirYPtZJNzEeDyu0dFR5fN54xwgWTCcFJkBnAXXygOIxWLKZDJ27fAS6XRaCwsLunXrliYnJ89sw8+znNPBwYHW19e1vr6uRqNhEMXOzk4g6KfTacXjcasoUqmUZmdnA+Utn0E3O1niwcGBNjY2VC6XNT09rUQioWq1qq2tLSvBPcx06dKlX8zrvM52eHioUqmkZDL5lHzbOy+4BarZSCRiih3fMbu7u6utrS2TN+Iostms6dtxoplMxjLUX0oucyA82exXX32ljz76SNvb24F1RnJIUsl3Y4346aPPmuKJk+dMAT9HKJlMWjPZ0VG34cw3kfkpylwPCiR4A69cTCQSSqfTpj4CpuP3fQVEhYIvbLfbxn3xXbxayCes9JD47+yrHC9z7e/vV6VSUbPZVKlUeiZXcFI71UoBrMxP/GPgEkZA8IOdIF49WeQxQbJFbibwBbwEC4ooyufxOjJ9Dv9hDjlZLwvfZyqQTz7IHRwcqFwu23XzPcvlsr744gs9evRIV69e1bVr13ThwoUzB3X0VnjSccAcHx/X0NBQ4DSp4eFhu/dSFyKAJKOKg6DGuUUiEZv/Ho1GLfvPZDLm0MjM0GnzmfV6Xf39/W90nwfOK5fLPeWQyVZJUNDF0wCay+UMpsFoahsfH7fBeMViMcA/8Dte4AFZ+TKGA2eemSStrq7q7t272traMu7QVweSAnAuyR7O3YtUCALAPkxDAE5BDYQE81nZsq8GMNZyq9VSvV43oQTXyPrGd/E+PBuuwSeqdBU3Gg2rjHsDm+9r8CojBoWCcEgKdDrz7A4Ojs+ALxQKgXPtf007cVDwZFWj0TBlhC9HvbKHEpAbiCyLAAEJg1PHueRyOVvQlMssgpGREXNEZEwccScdt3HDW4C38n8eBsGEDkDUDEBILGL+7MdqfP7551paWtLExITeeecdXbx48bkTWE/TfqrJ6STmFx/Gws5ms6bpJngToP1QrV5lmW/soZMU2KJUKlmZ7IM9zzUej9smQH534cKFn+1IPavW6XRUrVatc/9ZDjkWi6lcLlv2DCQ3Pj7+TIUdM8Qg/SFUGXBHAKGnRJI5w6GhoZc6PIpOXsQl0jGccffuXa2trQXmlPUmH54YBi6iAuqtFMimJQU6cv3RlSR3/D6f44lZAo5X8dD/4GEmhnP6KkoKYv1St/+B8xDYE5lMxpJErsnzKf67UKEBiRP49vf37fX7+/smo4U89sn3r20vLP7G4dJWT7RFYsWX9FkJJZbX9voFACvPogEGIlBQCiKFpAT0EtVoNGpEZrPZtDlM/jQqgg8LmkyMRezlpP5acfzgvqVSSaurq5qZmdGdO3c0Njb2SkY2nDQgPAsq+jkDCwW+YNESjKkE/H0CI81kMuakDg8PLZDn83nTqFPm7+3t2cHhHDwuHW++XC4XCNR8DzLPs2x9fceTTuG1CIjeBgcHNT09bRnt6OjoU/j/wcGBdfgyvwjYo9lsanBwUOfPn7dM048lr1arBuG+DGeDs4OoxsrlslZWVsypsYf90buDg4PmJ/r6+izr9mtK6va3eGTBNzsC/0rBQ4e80+Y9SR7ZC/V6XYVCIZCFAxlTRdEhjH/pVToC13mBDf6NQMX3wpEPDAwE5LBSV3oP8uIdfqPRsNEgrzIQeDtxUGCshNQ9k1mSPXgIE0gX9LOSrNzc3d015+GbyIBzotGoZQMcRI1RqnlyCZwRpQz/xghZTjVibCwPgxLd46pUEr6akbpEOouNxbi3t6eVlRUVCgXl83nNz8/r2rVrr41a6acCFNyKbzgDRvNd4wREFERkR8hYBwYGDKP2clUyK3BdFjeBYWtrKyDHBFoaGRkx/gHegsr0TTCyzJ9LHHorAm8QllToUrcbGSIZYrpXasqz9OOgX1Tmy/r3garRaOj+/fsqlUr2HdnX3lH7fecTC6mrPPL3yTtzryAk4PAz9i+SeDJzKgJ+tru7a6OrqQyodkhE+I7sdeAuPpd/k2T3F3/k77VvUuO6Wq2WVcpUPkhLIdQ5WpXE9re0ExPN//Iv/6Jyuazd3V3LnOEPgAfIsCORiMEKBAzIYjIKbpovKb20NB6PK51OB+Sv/vg6FoqXuvmKAovFYgZ1MFIjnU7be5Mx4Aj5Pmi8GQ9OCcwD9YTT0dHxeQuzs7O6dOmSrly5onQ6/YuGf52WkZ154q9cLlsm12g0tLS0pHq9rmj0uBFtamrKuskp23d3d1WtVu1eSTIC2muuMQ447+vrU6FQsAar9fV1GxIWj8eVy+UM7vC8DtN2i8WiKaAIEr/1PT2JUeWQ6T6viY8slHtJ92y1WjV+wSdJ2WzWKunnJSJ7e3uqVqsmbd3f37fO2JN+Fxw3z75Wq+mvf/2rvvrqq8D5AThPryTkPZCjeqcZi8UsESSxw6+wr3G09M5IwaSHqoCExCt+/LQFKgJmBUnBM68JnpDMvqfGE8BcI3AZgRmpKNfv5e6e9AahODg4HnvN6OtXwRecxN2fOCi89957FlXJ+judjpG8Xnvsoy/lGLAPC4iHyM3tdSoEE4bapdNpyyYJLF7GRtOGj9BAEbyGY0PpdUCxBKbIvBL0xyiNcKyUs2QqKKRQUZGNZTIZzc/Pa2ZmRhMTExofHz+VMQ0+uyPr4e/+38jMIMHQp/PvzWZT6+vrBv+trq7q/v37GhgYUD6f1/T0tC5duqSZmRnDOH1lBwwH3BaPxzUyMhLQhHs7PDy0TCiXy9m0SoIBg8Y6nY5dbyqVMmy1XC7b+IDp6WlNTk6+9mMvcPInHfjHfvCNoTg4OAaI1mg0amQy1fnPGUPQstlsgOc5qfnKXjrea19//bU+++wzra+v234EPn4WfwWERCLHKAlfneI3SLqoar1s3at44BXY+7VazfB5H/DoxMeAtjmQxgcu7r/3VZ5vIAmiCoHj8O9NYGTeET6QoICstF6vv/Kq4FTVR1999ZWGhoZsVC9NTd6p1+t1yy4lGRHc19eniYkJRaNRu5nFYtF0uEhMPQETi8WsoY2o+iydNYvMN0L1jgsG2+a9fTSPxWIGX3jCy3disgh5gGwQv3kl2eZtNpsqFov67rvvlM1mNTU1pbGxMV28eNFOx/L/ndR6pbb+7z44gHsyqhhc07fGt1otbW9vKxqNWgOMJJtmSmXGs65Wq0ZqDgwMGJxIUPg5RQtySDYnpTuz5rl/YO2tVkuFQkGtVssC7OjoqIrFYqBSeZ2tv7//hU40o1dE6mbmZPaeoPTvf9Jgw4wqD5W+iPnfb7fbWl5e1jfffKNSqWQOnSAIzItx7T5r93wC1Y4kk4hyH9hbvheBRISEhqDBmkAcwevYv35WEMkN18B7c41A4ARfn9iScBEQPE+DcIMA4nsceA6clMd1v4524krBL8CBgQGNj48rn89rZGTEHF2tVtPBwYHBODgfDy/A1DP9kNIOuMk3s0BG+pI0m80GyC5fWrJYqBb8gvOKhXa7rUwmY5UNzo++Cg9h0WFIlEfLTCDyB1d41QLZEs6bw02oUPL5vK5evarz58+fzpP8f/sprJgMbHl52TYMJe6HH36oJ0+e2LWnUimbInvt2jU7QpPgWKvVTF2UyWR+0XGO4Me9p6+x4cjeWEMvQ5K+jvai2fqLGFsaONb3B3nzpP5JbHd3V998840++eQTbW5uKpFIWHWHA+8d2eCzeiAxkjMcMZm7b2Yk08ZHoCIikWI9enURn8H35oAZIGXmQEldZIF/85VaKpWy3yWhajablqxy7wh+/IwpqOw/D3Nvbm6qUqkEAuZvYadaKXhrtVpaWVnR2tqaOZB8Ph/oJWCRQDpx8z0uCPwC/EQE97OMaD0Hx9ve3tbIyIji8bgmJycldeeZELH9A2Oh8t7S8UOsVquq1+vWkbu1taX+/n5NT0+b3thrullsZCW98jWPpxKACI5cY61W08bGhsEKtVpN8Xhc2Wz21OCQn8oeGXdAiR6JRHT+/HlrioEsprzd2NiwTXP16lWTCksyOR5YMN2pp3msZn9/f2Bq7W+lxDhrBqGKs56dnbX91WuoBJ8XnCBu19bW9NFHH2l1ddUcOTCPXz+SAk2ioAckUKw/9hDJo68kPErA3qWaYp/hgGl+9aIH3p8Kl+SM5Ihkk7XMzwcHB21SKskrFQnoCIkn38s3nXEdIAZ0Hp/01LPXwX6RJzo8PFSlUlG1WtXm5qZBBCiHvKODqScb8LplSVaq5XI5qzJQuYAXkoFEIhE1Gg0tLi5qbGwsAFlJxwSoJJPB8f6oDmD8wfzAM1utltbW1uxcaQhOlCNcMxlsbzkO7+D/TMbkG3ngLL7++mul02m9++67ds2nYR4+woDfmGiKDh5i118fBNrm5qZtihs3bti9jkajNotne3vbxle8TFD4KbKz2WwGusfPAmT0InYaVQLrV+oeMfnZZ5/ZJON4PK7bt2/r1q1bgQBLcgYEg+zS32/gkcPDQ62trenHH3/U48ePrWOZ3gugmf7+fjv1jX4gVIFwbZ7E9cPsSEp8jwbwJQ5c6vbp9CqheqXS/qx2/p31zbWzVoGFIMHhPfz7+cQSxSNS0p2dnUBlQFLFtFKQjLNkp5KeUppRcg0PDyuXy2lsbOypVm5IHJ/Re7jHy9qIzEhaIX6QSqJy8rCSbzNHwQRhR3nJRkKZxKKC2EJTzywaSm8yf69g8GQZ34/F6uWtXkPN+9RqNT148MDUSqdlOHVvYL7c006no1qtpkqlYpWQ1O389HK8e/fuqdFo6ObNmzp//rz97sDAwE+ediXJRgjs7e1ZgD2pM/QO6teEWs6iHRwcGGe1vLxsVQHKMhKwdrutL774QkNDQ7p+/boSiYQODw9tTlKz2TSOj65pum3b7baePHmihw8f6smTJ0aMSsHmMyp/IFeyZEmGGJD1k9AhOuB1wDZAQVQAnhSHt6D6ODrqjq8mSfPJGa8bGxtTX1+fNazBMwBFsUaBvbzM3Y/WZ3owSS1Bzz+Tcrls3+2sBQJvv4qEg8OkK5WKstmscrmcVQ9+kBNQDKUYmbgniNDUM4QN6Radryw4Tmtihg/OnqwDKR76YP8ZOHQvZ2XD7OzsmLqGRYJj9XAZRK4vVT3eKQUVQ/y8WCxqaWlJo6Ojp3ae7rPkj6g0UqlUAMOlrO2V8nrtdqlUUrvdtlnz169ff640tN1ua3t724jtfD5vqqIX/Y5vS0Agyzw8PAyMW8YQaCwtLenHH3/U2tqaQR7VajWA5ZOwtFotffrpp6rX67px44b29/e1tLQUkCh3OscndC0vLxsOH4lE9PXXX+vx48d2/CeZNpg9n4eQwyd/vleB5Ii9X6vVDAXwAQZH7pvFIH8JOvCCvgeqF+v3nB6vB6XgmqkMqGSA3Hy1T0DzMlIqMKTGPnn8tQbUvWp7KaL5RW1gYEDz8/MmO4RsRoECtAG5TOnHg6a1HGcHCYzyCdUCM0g4HCOXyxmxi8OG7GGRgSXyOej3cfaePEbJw7GHlMosOrIzNrOvDno3CcEqFjs+UevWrVu6deuWdUefpiM8ODjQ4uKiEomEpqam1NfXp1qtprW1Na2vr+vLL7+0BU3myCYl8LHJbty4offff/9EM4qAKDY3N40HOivqoVdpNO39z//8jzY3NyXJuKa5uTnNzMyo2WzqyZMnWl5etmDAemIap9St9CByCRDJZFLj4+MGz4yOjlrS0tfXZ4mc1K0EkAGTjXtugj3JXqHqh+Clt4L36+/v1/b2tqkRJVnVTObNniAoUr1TwUvBngmSOr43FTJ/lmTQFb6CwOPVjsiuY7Hu+SFIiel54L18A9rh4aE2NjZUq9V+xdVxuvarEc0vaq1Wy8bqMs+F2fz+4XtH6AlqFgEZCsoBxmhD/gANUXHQ1g6R60dDk5VDkmJILuv1upFbBER6M3Dmvc1sSNkYzsd1UiF4Z8t14KA///xzHR0d6fLly3ZI+2k5z0qlopGRkcDBQYODg6rVanr8+LEtapyEJx/5XpT0vqP8eUYgnZ2d1cHBgWHOYVDoWqPR0L179/TZZ5/Z5FiSiYGBAa2trSmTyZiTZjibFzMQHJBuE8jJig8ODkxYQa/D6urqU5wfWTXPnArYnw/glTpep+/7D0gukH96SBIRB9k+42q89JTrkbq6f4IHEBUQsyeo+Qz2J5k9jp9uZuA2DCfPv9Eky+vYs1QMhUIhEPTeNHvlHUC7u7taXl7W+vq6MpmMZmZmAo7GL1QflSF5+HOtVtP29rZh1XQser0+RBfVBJmEd84EEqoMMgx6MHCQvieBMhhNNAsJpynJRn3jAOmJ8DJBvmMkcjzx8auvvlJfX5/GxsYC/MPLSjEJoOj9/TjhSqWiR48e6cmTJ4HDjagOPPxFBnhwcKAHDx5YX8eLnEONmuiXVJxvmu3t7emTTz7R//7v/1qTmtQl1SORiLa2trS9vW3OF5k02bUPAuD7VAc+iFM9Q4xGIhEbRYO8mgqht/HOj8JnPWG8XpKJEiCde7kgggHXiaIPrJ79SNKGAfH4ikSSqZ18/wLZPwkIY/Ol7mh39ijJmq92+vv77Vn4ERbNZlOFQsHGWZ9lzuB59krgo+cZB5Ink0klEgn7rKGhocDiYsH6AAEM5BtecKS+cQU5G52V5XLZsgOce19fX+B8Yt8h7R1qr/KIcdNUGVJXCnt4eGjdvpS2bAAyIIixVqulhYUFvffee5qamrLu6Jedp4S6ZH9/36Cbhw8f6sGDB1pdXdXm5maALBwYGDBHI8mcjdQdaUKF9vvf/1537tx56nzm0E5mzWZTH3zwgT7++GNbc75hEngDCIg1wvrqVcBJChC9fhAkFYRvKvXYN+vSK3v84DfWPIFI6mbXUlc8sr+/b71FwD1+oCUkrW/yIvmgv6m3h4ZghNNutY4PumEvS93khz3L3uN3OBiH98TZsydbrZaN5OH8ZIIX5xe8qjEUv7a9NvDR86xcLts8nmQyqWw2a9M3ceqUy51Ox0YQExRwslJ3rDA4JhkTZTFZMUPgYrGYka9I4+AVyJIpT9mAvpGKxc7v+dOx/HRRqhOgGC97IxNqt9taWVlRLBbT1NSUzp8/H+gAfhEDi4VPQRXx2Wef6fHjx7YRUXFI3aqF13on4onGcrmsjz/+WBsbG7p8+bImJiaUTqeVzWbfGlL4l1i73da3336ru3fvqtFoWJZPc5eXMRKMkZTieKl6cao8I9aiJEtmfAIDPOWl0/yb5716oVwSIt6r3W4HTgbj9X44Je/vJ6d6cpc95XkLL4vmOn2TnedSCFpU++xBKiHfN+EVhlQR7DmCJp+7u7trI7ZJSt8mey0qhV5DLUTHdCqVskwBrB+Hj0QNp4e+WTp2ZsggPQnssynfyYgDlxQYksei5XX8XOoeHkKQoYKBwxgcHLQR3gQbr9NmQRJEJNk8psnJSV28eFEzMzMaGxuzw4P47r3mH6XnBur1un744Qd98cUX+v777+3akQtTmsMbeKUHTsePCiAY8r36+vqUSqV08+ZNvfPOO0/N4vkpSamHKghOLxMAz5J1Oh19+OGH+uCDDyyDxQH29nnwHCQFBkni7LinvX9G/uk7inF6HJnq5/GwrsHUIWQTiYRxA/xMOoaJ4KE8P8Z1EKzIzH11TVaP8bPd3d2A5p8qGbURa05SgLeQZHLW3sDE37m+oaGhwEhqn1j6ptOtrS2rFN40O8l3ei2Dgv/MkZERjY2NKZ/P2wJiA0Aug9X7WelkT5DJZAVe6ucbdMjw4/G4ZTRsKK9mkBQ4e4BFS4ACk2QRQ9oRNAgivgkGnNQrn3AGNNFFo8fzgxYWFmzQHu8XjUYDmxYH324fjzBfX1/X3bt3tbKyEmizZzYSWC73UOpCClIXe+VzUF0xJoS1QbPU7du3re+iUCjoxx9/1NTUlDU3Hh4ejzcvlUoqFot6/PixOauFhQVdv37deJU3zR4/fqx/+7d/U7lcDhwLSwDurYz9SHNP/ErdDe4zWZy9HzPt35c169cdz5e16cdESMfcB1kzFSZrmyBAxu77j/xRlyRjrFOui38nywf2IjFiWqnUHWQndSscPyrDV++eZ/HwF4GY34UTrFQqdh78m2xnPij4zwabHB8ft6mfvuTzElKyhd6FIMkcGvipH7XhFx8LjWMHWcyHh4fWIMdryWQ4P8CTVGwe37jlM0L4BmAEz0vs7+8rnU4rEomoWq0qGo2axBb1FpWUH2cOxFCr1bS5uWnt9twn/qOSImB6ItA36vG9uZ+Dg4M23I6OVHiJZDKp2dlZXbhwQfV6XQ8ePFCz2VQul9PU1JRyuZz6+vq0sbFhZzeD16IBv3jxov7whz/o+vXrbxQcdXR0pP/6r//Sf/7nfwaUbVSiOHzWsodNcNSHh4cWjFmvfvy81B0Bzc/82vf8Ao7VJzxeGEFDKetICu4NPovXeIUda4X1RDMifB2Ete8+jkQitt75/kDB/Dv3gsAJl+jltNFoVMPDw3bPUQEixyUgtVotlctlNZvNgILpTbY3Jij02vDwsPL5vA2YYzIjmQoKAd+AxYKQgl3HZBW9LfUQaUNDQ0YkR6NRg4d8Vy9YLWU9mY7HLfk8T4yTfWcyGfu8ZDJpG5kKJhaL2YRGNgGZ5fDwsGWc8Af1ej0wOuBZWm5GEXhHwUbHIbC5WSJgspDWkNJeLuilgai3eAbxeNxwY4Iy3xNnwr9lMhm9//77+od/+IdnQmVn0RqNhv77v/9bf/vb3wIQnlcRIUUm0ErdNcr9RFbq1zdZO3yVb8Lid4BdPHzCM2B/83cSE6Z60ksEH8Aa9RwGCRmfzeeRZJB4sRc9jOXPaufMFNaUP2CLz+V7ECB7lYKsYdAD7tHBwYEqlYo1u/qA+DbYmSGaX9SYixSPx5VMJjU9Pa2RkRFrUMFhkjEB67AwwS69AsNvNql7Ghmlp9+kLPxOp2Pdnixo/g0nC5YpdTM6r+LAoVJ+s9Fw5r7RjqwSfTqfQwMgBJrUxetRegAR4Owh3L100feLsOngDcBpIQ4ZEnZ0dGTEP/d+cHAwMEKYKgv4gWfjBwZiXPfOzo4+/fRTxWIx3b59+7VKSl7WGC0xPDxsmTAdvJ4kBibCufOccbS+QY21g0MG9iPAEnB9cuDFBb56bLVaKpVKNg6FJMgHDA/d0p/Dd4OX8xMLgF85rpd1SFLkM3mp2wvE/urltujg5iRF7gW9Sqw17i0+4ODgwMbCv43B4EXsTAYFjHlLpVJJyWRSExMTGhkZMQiGrICFRHbvG2jI5H0TG1kMElkWJiQVw73IUCRZV6ikQEYDvu83LovcTyXl+3hl0tDQkIaGhgJn7bKRPOzgiXIcinfIfiNLXZx5ZGQkwJf4jcJm5kQ2qRvAPAnH59INTgWBY+I9PbyXTCZ1dHQ85JCg5Z0J92JtbU3/8R//ob6+Pt28efPMVwyeI0AC6u+5H73g1TI8T+45UmrexztVIM16vR4g7GnqhAPwgUeSBe1isRhwyqx3ztDw/ADZN5BWr9TVr7tnKf+oDnxy4KEwXzHz/akuuFe+oc13RVOJHh0d2bgVEqzQft7O9i77fzs4ODBZ6+DgoEZHRxWPxzU6OmqEJ+UocAikLjJSpGie6Nvd3TVYCSiJrNpDTSxe/o2NwTA4Fj7ZPZuMxevNv4au6Hg8rsHBQRsr4B0y74NM0TsIRoOwmXy2TTAhYyWgAC1xD6hMCIxUY72lPDAAgYDvzGfxc9+TQaBkw1O1eMy6XC7rT3/6k1qtlu7cuXOmlUno5lHbwMlIXWwe0QRQ4fDwsJ1aKMmyc+4p98//XApWAJ578AogngOTf0kuPMfEtfjgQVXjq1GpOy+LLJ3vB5zDmiLhgEMhSSLo+2YyBBnwf1SxPqDyXnxuf3+/qRHpAA/t5PZGBAVv+/v7Wl9fVyQS0ebmphGcVAk4T6+WkIInNuEoWXytVkuVSsXUQjg/VEd+ropXPXjdtNQlC4GOWNT+vXCkvaeTkd2lUin7DEhuynM6qL0UkM9BWUIW2tcXPKtC6hLge3t7pmziu+HEcVo4IzI5HAhZYK/eHWIVh+gluP39/UY+koFSwdAdu7i4qOvXr790I99vbawH1p4fLS11JdCoupg4jLPGaL70h7nw/jjw3h4TXt/f32+kKlUtcJRXmrFXCFQ+UFNh0D8BJ8I6IeHy18n6Iungz379+EZTppT6zD4ajdr+A/7l31jX/f39KpfLqlQq1hAY2ovbmSSaX9Si0eMRurOzswFYBydNhgrPwM+lbvMNmRXnRLMQ/WewUUdGRgJwCdCUz9b9OGkcP01KvN5nachG2ex0YnsnKnWbfqRuCc5/OFk/4RRHhPPG2XuYCqLbDyiEq/GlvScGJVl1w8bn+iCdgT9wOhCuVBN838PDQ83Nzen999/XxYsXA2O1z4IdHh6fSfDtt99qaWlJ29vbgSFrnniXZMGYf+tdk1LXqXqCHufPc8Op48jJ1IvFohqNhj0nf+KZh298NYy6zM9GAjLkdT5x8I6dtcV7kLSQXHhprO/B4dnDDfDvjLEm8Wk0Gtbn4Lm/0J62N5ZoflE7PDw+Dm9ra0uJREKDg4OanJy0kRq9ig6v7SarZ2EDIwEv+cVN6comJnP2lQPVBJuhVqsFOqE7nY5KpZIFEa6L+UzwC5TWZFee3PaTSL3DxemSjcJX+KY+Xu8DAhkbDoJAhBOC9CMLphrys3X8YmRmEqQiAZlr4Nq9tJIKY3d31w5KOgvW6XS0srKihw8f6ocfflCxWAwcYM998byT18rj/HD8nleQnuavWF+Mb6BfoFwuW6Zfq9UsEcL8pGCvjGKd+qYyrtNzQIeHhzYvzEvFe5MPzxNIMvkolRP7D+iMnh5+FolEbC/UajWTX/v+m9B+mb0VQQE7Ojoy5VK9XreDRYBkkslkoKeBAHB01D0n2OPpXonDsDIOsPHTWsmMfPcm50v0qiAgncGJ/WEeqJg8LuwJazYvozsikUhAkUTLPoEK8o+NyQb20kLPU3CtfnN7FRTBwFcdvr/DVyyeJPekoHd8Xp/OveJe93b/vo7W6Rx3Ly8uLgbgDO65VwXFYjHr7Ob+kXnDg3HvCCheicQz8zwAclImhfqGykgkYtp+LwogKPFn/wx8APIqO69q8/AqXIAPADw74CYPIUkyQtt3cEvdprxOp6P19XWbXRZWBadvb1VQ8NZut42cpmkmn88rlUoFCCupC8n4TcGZxTRekdmAp7OJCDRkYhC6SGqlbkfr4OBgAHpqNBpWMkvd7NBzIQQMSGfer1armTPvHfbHZsJ5cE1UJQQ3qQtTAXf4zN7zCcgE+/v77bpxFjgDqgCvsOIzPB7uHSCVzcbGhqampnTp0qWnyOjX1ZrNpj7//HNtbm6aQ0bCS6XHPemFavjuOFsCAb+DI/f9IkdHRzapVJJxFh5OarValnmj/EIiSw8KlTDBn4rOP+/e+UusWd6XNU7AIxhRUfomUx/g/fG4/jOR86ImDO3Xs7c2KHg7Ojqys6aRs2azWTuHGEe2s7NjUJN3WKlUyprnyKxxWD5D9Eod3pc2fiSBOzs7Acmr5wAYn4ETQJVERk4DHZANZC7VCZ+L1BV5qYeipGPNN0MCIZxxaPwZMhp4ieACuSh1x4X38gY4SIJsL7HsG6QImEzHLJfLOjw8VCqVeqHR3b+FbW1tBU6247QxnHvvGvHELvce58z9p1qD4+FZ8AzL5bKtP8/zeLIap8+a4T2j0agFAKk7ft73NVD99lYLvB55al/f8RGYrFN4Kfg1f00kGkCjrN/d3V3ryH9TZxG9jhYGBWdHR0eWEVcqFQ0NDWl8fNzmD4G/g9f61nqmWCI1BB/3J8nRqJRKpQKZEwQ1ZB34KQ6ez/HyUc8bIGP13EKvKujw8ND6LrxTx7HSRTo4OGjXjCPy85ggm+PxeODEKkkmnyUIQoQDGVABeELUf19sd3fXyG8cmHQ8N6hSqWh6elqzs7M6f/68VWyvmzUaDX333Xcql8tWhRHcUbhJ3blFNBh6XT7PW+oKHoAT6a2BRC6Xy4FxK1K3Y5lqEggGIpj390HbJw9UGXBbPCOeJTyZb5Lz8CprzUtRvVAD88KPvb097e7uqtFo2BGjob1aeyvUR7/UYrGY0um0jYeGoKZ8Zva8PxiEDmvGU4AFU4Uwiwg5H86CEh4nQMc08BQ9AAQqHInUzdS8EonNCSxFUKP68Z2zbPreDcv3wbFxZjUcgg8sfjY/ASGVSgUcBlCJdxYolTCqGd9dzeuHh4eVSCR09epV3bx5U9PT07/uAnhBW1lZ0b179/TRRx8ZvIizpgJoNpsG8/jxKFK3c7ivrzumQZKdRU4SQIVBsGBEij9QntdS8R0cdEdCUInxewRv5loB20jdcS4Y3I4P5lw/v+uFAr5BzYswPDRUr9fDQPArW6g+OiVrt9sqFAoqlUpaX19XPB7XxMSEjfZlA5AReuJ1cHAwkCG228dz6KVudzKblUBD8xqbF6weB+mVUH4Wkx/LIQXHZ3N94P9sZpwETtz/nhSUIuLYCIQ0MPkGIz9zie/oRyJ7hZbHoD1J6WWNjUbDsHHGaQBDxGIxjY+Pn2pQODo6UrVaVbVa1fj4uAU8FFq+k5zfl2Sk/tLSkj799FP98MMPFtC9yohgz30lw8a5wxMAI1EJHBwcqFQq2ej4XoKWgO8rC5IRoEBfofkq8ujoKDBzq9FoGMzD2gIyosr1zxeOyT9jf49Yu0hYeV8Or9nc3AxwKqH9thYGhRcwn9UUi0UNDg4qm80qnU4HsjTOePVnP0jdU6g8TEDLvtSdYgnpDIQgyfT/ZFeeqJRkr2MmkYcOWq3jg9qZHAl8RFVBNko14nsXIAIhHEulktLptAWWer2uer2uoaEhq44kGZyGEfwguOEWvHKl0+mYvNVDZgQkFCtcU6FQ0Pb2tvb39wNV2vOMzBonxv3c2NhQoVDQ5uam2u22bt68qYWFBRMUcE1ra2vWa1Cr1ay629vbU6FQUKVSCThGnj8B1ENHvgrgz/V63aA5FEZeFcR7+bXBfdvf3zd5M+usWCwaaTwwMGBd/n7dSN2ZXn4cPTARg+pqtZpVAp4g9oENQ9UG1EojXrvdVqVSsXsX2utlIXx0ChaJRKzpLJPJKJlMWgbl4R02F+3/vrU/EomoXC4bmeyHpEldOIWfAcN4UpuA4ccDA1dIXeKXvxNA/CgNehQIbGDLlUrFoAXkt8lkUplMxpwF10HfBZAF3eIETZw6U13JiMG4yaI96Sh1O2L5fywW0+zsrG7fvq25ubnnHg0KPLGysqKVlRULUvV6XY1Gw8ZDU43NzMxodnbWjnTc2dmx3ysUCvZ7BHHP3wDN4DzJzMnm/dqIxbon43EfaMKiGuPeeN7Iq7BYG9Vq1dYZgZRnD0zHPWdNeowfSaz/bNazF2KQTPT26dBHAAfFMy8WiyoUCgEiO7RXbydx92FQOGUjG5ucnFQmk7Gsanh42NQ3vsEIqAZHx2b0G43NzUaDaKYhDScPZ/GsUpzNz/kQBwcHBhEA/UhdkhdHCJwBnu9nzqTTaeM1kLAyZpnvx9kLXgJJICTDlbpTNwkAODlgLanb94CKh+vOZrNaWFjQlStXbAwGQ9DK5bIFucPD487ijY2NgPOG2/GBlMwfQYDUPamuWq1aBzqf5xv+pC50x7Nl5hUqpN4x1pxmRjWAigdnTnbt5/+g1uG5AwXyzPhuOGvus3fgXKsUhDP39vYMouMZwQMAH/IdfKDwcuhGo2GD6DwkGdpvZ2FQeA0skUgYdJPJZGzEg5/FxAbtHTXgj7XkZx6nZYCf78amO5Q/Q3T73gYCBAHGVzW8N41+/u+++ezw8FBjY2OBZj0Gt/G7ZLBIDnGMEMhkpMh6yZIJkNwXuBk/ERSIBEfE8Y0Q6JwUBvwClwLUg9qHKbh0lqfTaQ0PD5smHigHaIcgyKgHXk/w6A0E3A8OWYKLoQvXE8Y4eLJ9ggLPicqO6/DPyfc/wH8kEgmrRLguSYF1gwLMn0+Ogozgy3XzvgRkuB7PlVWrVSPQgf5Ce30sJJpfAwNLlbqH4ExNTWlmZkbJZDIgGcSxe0dNZufPNBgZGQnIFXHwOAnMj88AvsD5ECQGBgYCBHe73VY2mw2Q17wXZCLZPJzJyMiIstmshoaGtL6+bpAG1YyXOdI8hfNPJpNKJpOqVqsaGBiw0QY4Kz7bHzjf+z25d1tbW5YtM3QPQ27p+zO8yscH28HBQVMNEUAZIY7SDKxcUkCqiYLHE/yohnCSfuooa4MqCE6qd1wKVQjXBxdF4CUI9AZ84CA4CZ+1U3HSC8Oag7vhObMmCYDScZNZtVq170agozLx/QuhnS0LK4XfwHBGSFxpKKNZDphib29PqVTK4BuyfjJQCGUPzXis2AcOynoknQMDA+bgpOAhKb6DGjjKE+TwAjQlAQMBoeBEvaIGKK13LEdfX58mJyc1OTmpZDJp+nScKI6VAAZ8wXUTJKvVaiArxUmR1XrojQw9Eokon8+bIohA6Mn8RqNhR4b6+VKeryGoAHUlk0kLEPV63bgfKThSgvdKJBIBuIpnypkI4PTAd1RAnNLGM2ddAB9JsjErnquByCeQeKKf+0DFALdEfwRrsF6vq1gsWqAO7WxYCB+dEWNzJpNJDQ0NaWxsTNlsNiA9BGv2mWhvVSEp4ABxfjgIP7K7t6MUXFrqHttJAJFkRCMQgp/i6Tuk2+22DR1EnYND5ACk3plPXO/MzIzGxsZ0eHho2ef+/r5qtZp2dnaUSCQsoPkmMGCh/v5+y1Z7Z/cMDw9bUPBS3kwmE6ikvNRSOu4cJiP22vzeqonv7g9FikajNsQQwtWPqiYAcLod1RhVku8/6eWb2u22jVQHWgOiQnwALxSNRk0N1juKm7XXbDYDXdZ8HrDQ5uamQWl+MmpoZ8vCoHAGjYx4dHTUVB9kyGS9iUQiQEj6bmvegw3rdfIEEbJlP65Y6qqTvNMAx+dnZI/IX/v6+pTL5QJzi7zDR3FDZhqLxazT1Y/rSKVSGh0dteCTSCQ0PT2toaEhFYtFLS0t2fnOOD8cfO+4DIIWmTFBIpFIGAdCPwm8Rm+F1Ol0jPuoVqva2dkxKIzPIHOn0gB2wbED3fjuc/4vyRr/qJDgcHhOPLO+vj6T+zIl9ujoyCo/Ang8Hg+MuOC9JNkEU6pDf98IityzarWqcrls5214Qjy0s21hUHhDrL+/3wjQkZERjY6O2kaGIISv8Gol32MA3IQTxnHSGwCBStMT7+ElsUglfUc0eDSzk/L5vBKJhHZ3d7W1tWUQl1dN+QY7qXu8JBAa8AtVyODgoOr1upaXl60S4PtDSsfjccPBCZpo6vlsSUY4o9X3pLfvBPfNar4JjLMvfE8BMNDw8LAFUZoWGQ4odU/CgxAmqEqyyaC+GQ35L/fcd717gl2S3f9kMhmoeNrtthG/HmbiXnU6wfMImFcU2ptpYVB4Aw0HODw8rGw2axUEunTvcHHoZJY4lL6+PqXTaR0cHB9jigPyunskm36Oju+58L0PqGcgr6kIwLcJMv7v8BQ4XXB1ur8nJiY0OjpqvQeoiba2tlQqlYwch3Po1fJTDfi+Bqax4jBp5PJ4OvfHZ/tUZHAKVDg4dj4fGI2Kw5+e5sdY+JERDFf0Ul4+w/MbyHW5BgKP71U4ODiw4O6fmT+nAHUQ34GKLawE3g4Lg8IbbkAokUhEmUxGmUzGoJVoNGrzjpihg4ODfCTb5jxrHC1Za6+jJbiwFnyQIauu1+uW4Xu1jG9Q80ei4niBxcbHxwMjGnK5nLLZrI1q2N3d1YMHD/TkyRPjEzx0hTMlg0bNBFyGLJaAQp8BuvtEImGnivnvxjbxElfusx814vcJuD8BxauKEBJwbQwhhNCnyYtKDEWPn0oLYc935v7w/p1Ox0h7uodJGkJy+O20UJJ6Bo0M9STmm4EKhYIKhYKk7gHxqVTKyFmqCz+kDEwbiAUnBLTkxzwzb4i/o5giq/UHueNEqQ52d3etEvBBgUDRm41ns1mrgvb29rSysiJJGh0dVSKRUC6X0+bmphHAyDKl7sE8kgJ6eq6RIADEVCwWTd6JQ8bJA60RSCG5PW/CZxOYgMuQgEYikcCEUSScHpqDd6Ch0EtFpe6pZQzRo0qhGa5Wq1kQ8ZNTkbuG9nZbX1+fJiYmND4+fqLfD4PCG2hkko1GwyoFnD19Ab7Jys+xAfKQFFCkkKHSaYxDZ65/Op0ODL7z8lAqFX+gC6OePVTTbDY1OzurkZERU+2Mjo5qfHxcOzs75hCj0ajOnz+v5eVlVSoVq5aoPqhAotFooHt4aGjIcP9KpRKYu0TwoolN6pL0VERUSqiGfCD15Lkflw5uz2l/KysrdsAS4z/8mAmqK09aR6NR4y74fKk7FRc1Upj9hybJqspz587pzp07unLlihYWFpTP50/0+hA+egvNP8v+/v5AFoFGnXn7ZP1kzDSAka36sRfegI+GhoaUz+cVjUbtjAr6Mdrt40PkGacB4Xzx4kUNDw9bEEin05Y1A5nhkJeWlrS5uWlVCtUGDt03YfX19en8+fPa39/X9va2OeTt7W2Vy2Vtbm7+7JA2P+0UdRgQVCaTse5igjEKoXK5bEdt/hLHTfALx0WE1mvJZFK5XE65XE7vvPOOrl+/rqtXr2p2dlaZTMbk4Iyj+TkLg0JoTxnwEw1MYPRkxAQMnC3QB9CL1D1QnqF16OQbjYbq9br9Gzr4ZrNpPQ2zs7N2NGoymbQxHePj49YlTeNUu93Wt99+q+XlZYN2GP2MJDWXy2lkZESDg4Oampoy/qTVamlxcVH379/XkydPXtrZMvwPLoSK6bQz995xKKG93RaLxXT+/HldvHhRv/vd7/R3f/d31uvDsEqgYaDgk1gIH4X2lAE/Yb6D13cSJ5NJDQ8PB+b1U1WArTcaDcPU4/G48QW1Ws06djkXm/ctFos2IwpHi+P15C9dxvPz86pUKioUCtrb29P29rY6nY4ymYwmJyeVz+cViUSUy+WMnI1GozYCfWVl5Rdl33R4e/s1oJywQnh7janA8Xhc77zzjq5du2YnEM7Nzen8+fPG28FzUVnu7++rXC5rYGDgqZH2z7IwKIT2XMMZ9WaoOODn2dTUlA4PD7WwsCCp26CXSqVMkspAt0KhYN3SnFedTCY1ODioSqViGTnkLgTxjRs39MUXX6hQKOjw8FDT09Oam5vT/Py8RkZGjHSlOmGUyPLy8pnIvH+NyiO019s4zGt0dFTXr1/X5cuXtbCwoMuXLyufzyuZTGpkZETxeNwqSKYMwCmilKOSD4NCaK+Fra+vGzT093//95bF7OzsqFwu2/yi3d1dZbNZSTLyFIkr2T1dyQwSbLfb1tn7u9/9zgLF2NiYRkdHlc1mNT4+bjJPVEA7Ozt68uSJyuXyb3lrQgvNjP6cubk5jY2N6erVq7p69ary+bzm5+eVy+UC658xK36sC7OpULLxH8MTL1269NzrCINCaK/EdnZ29OGHH2pnZ0cLCwvKZDKmrWcaKzLXYrGoZrOpVqulZDJpFQWdyJTEHM+JrLW/v1+3bt3SyMiIEWucikfXLhvmyy+/1BdffHFmRjuHVcKbZ6zTfD6vq1evan5+Xu+9957OnTuneDyudDqtXC5nEwj8sEuk4PBqdM7TGIqYgiGGpVJJy8vL+qd/+qfnXldINIf2Sm1wcFA3btzQ9evXjaCmd4CuZTgMxkCMjo5qenpaExMTgQYuBucxBoL3Y+gekls6dvv6+rS9va179+7p448/VqPR+I3vRmhvk1EJsJbhBubn55VOp03Flk6nTVaKLNn39CDP7nQ6qtfrgXM2ms2mda2vra3p/v37unfvnlZWVuyY2edeZxgUQnvVhiLpzp07ymQyRjJD2OLQ6TFIJpN2XgPnSGez2cA4DkZ5N5tNra2taXFxUevr69awB/Fdq9VUKpWeIoZDC+00jd6eWCymubk53b59W9PT07p06ZKmpqY0Pj6u+fl5m0DgXyN1K0NkzNVqVbVazaDXZrOpzc3NAIRaKBS0tLSke/fu6dtvv1WlUrFGSexUx1wwHz600E7DotGozp07p3Pnzimfz5tqwh/OA+FMZzEjqOnQbjQaKhQKdn7y5uamfvzxx9Dhh/bKLRI5Pqd9YmJCyWRSc3NzunPnjhYWFnT+/HnNzMxoaGhI6XTaHD/iAWaDMe6eJIkOdioCTjdkJEuhUNDGxobu37+vBw8e6PHjx9ra2vpZldqpBoV//dd/1aNHj7S0tKTFxUXVarWTvCy00H7WYrGYpqenNT8/r4mJCWWzWZO07uzsaHh42MY5MMqiXC5rY2NDm5ubdgAOvx9O+AztVVl/f7/m5ua0sLCghYUFXbhwQZcvX1Yul1M+n7fjaqlwMbrS/aFIJDZSN1gQCA4ODlQsFlWpVLS9va3FxUV9//33evjwoUqlkinuTmKnGhRKpZJKpZK2t7e1urqq1dVVff3113r48KGWlpZUr9eNHAwttBc1GmympqaUy+XseEimsO7t7alSqahUKlmnczjcLbRXYQwlHB4e1tzcnGZmZnTu3DndunXLxkcAcfqzPpjOy1gY5o7xd8atcAwrc7FY281mUxsbG1pcXLRK4Pvvvw8cq/qidqpBAf0rm5CjCmu1mpaXl/Xw4UN98803un//vorFogqFgjY3NwOzdEILLbTQXneLRqMaGxvTuXPnNDY2pvHxcV25ckW///3vdeHCBTspL5VKPaUMkhSYTYVcFHUc51Z42Wi9XrdptpVKRaurq3rw4IGWlpa0vr6u9fX1U/OjpxoUpO6QM18KSbLGiGazaXNknjx5oocPH2plZUWLi4u6e/eutre3w6wutNBCe+0sl8vp6tWrmp6e1rlz57SwsKBr165pampKyWRS6XTapNN+Eu+zDGkoo1xarZadYsfAxf39fTUaDW1vb2tlZUUPHz60kSvlcvkpgvi07NSDQmihhRZaaG+2RX/rCwgttNBCC+31sTAohBZaaKGFZhYGhdBCCy200MzCoBBaaKGFFppZGBRCCy200EIzC4NCaKGFFlpoZmFQCC200EILzSwMCqGFFlpooZmFQSG00EILLTSz/wOWE3KYwkW/3wAAAABJRU5ErkJggg==;" parent="1" vertex="1">
          <mxGeometry x="-800" y="100" width="200" height="200" as="geometry" />
        </mxCell>
        <mxCell id="qkkkB0GDpSP-I1iQ6_yL-5" value="" style="shape=image;verticalLabelPosition=bottom;labelBackgroundColor=default;verticalAlign=top;aspect=fixed;imageAspect=0;image=data:image/png,iVBORw0KGgoAAAANSUhEUgAAAYUAAAGFCAYAAAASI+9IAAAAOXRFWHRTb2Z0d2FyZQBNYXRwbG90bGliIHZlcnNpb24zLjcuMSwgaHR0cHM6Ly9tYXRwbG90bGliLm9yZy/bCgiHAAAACXBIWXMAAA9hAAAPYQGoP6dpAABFa0lEQVR4nO29SXMc6XX9fTKzsrKyhqwRI0Gy2Wz1ILXskNqSQwo7ZGnh8N5bf0FvvbNXtsP2xqGwLXdY6kHNCQAB1DxlVmVlVf0XeM9lFi3rbUndDRI8vwiG2yRQKIDic/K599xzne12u4UQQggBwL3pNyCEEOLVQaIghBDCkCgIIYQwJApCCCEMiYIQQghDoiCEEMKQKAghhDAkCkIIIYzCl/1Ax3G+zvchhBDia+bLzCrrpiCEEMKQKAghhDAkCkIIIQyJghBCCEOiIIQQwpAoCCGEMCQKQgghDImCEEIIQ6IghBDCkCgIIYQwJApCCCEMiYIQQghDoiCEEMKQKAghhDAkCkIIIQyJghBCCEOiIIQQwpAoCCGEMCQKQgghDImCEEIIQ6IghBDCkCgIIYQwJApCCCEMiYIQQghDoiCEEMKQKAghhDAkCkIIIQyJghBCCEOiIIQQwpAoCCGEMCQKQgghDImCEEIIQ6IghBDCkCgIIYQwJApCCCEMiYIQQghDoiCEEMKQKAghhDAkCkIIIQyJghBCCEOiIIQQwpAoCCGEMCQKQgghDImCEEIIQ6IghBDCkCgIIYQwJApCCCEMiYIQQghDoiCEEMKQKAghhDAkCkIIIQyJghBCCEOiIIQQwpAoCCGEMCQKQgghDImCEEIIQ6IghBDCkCgIIYQwJApCCCEMiYIQQghDoiCEEMKQKAghhDAkCkIIIQyJghBCCEOiIIQQwpAoCCGEMCQKQgghDImCEEIIQ6IghBDCkCgIIYQwJApCCCEMiYIQQghDoiCEEMKQKAghhDAkCkIIIQyJghBCCEOiIIQQwpAoCCGEMCQKQgghDImCEEIIQ6IghBDCkCgIIYQwJApCCCEMiYIQQghDoiCEEMKQKAghhDAkCkIIIQyJghBCCEOiIIQQwpAoCCGEMCQKQgghDImCEEIIQ6IghBDCkCgIIYQwJApCCCEMiYIQQghDoiCEEMKQKAghhDAkCkIIIQyJghBCCEOiIIQQwpAoCCGEMCQKQgghDImCEEIIQ6IghBDCkCgIIYQwJApCCCEMiYIQQghDoiCEEMKQKAghhDAkCkIIIQyJghBCCEOiIIQQwpAoCCGEMCQKQgghDImCEEIIQ6IghBDCkCgIIYQwJApCCCEMiYIQQghDoiCEEMKQKAghhDAkCkIIIQyJghBCCEOiIIQQwpAoCCGEMCQKQgghDImCEEIIQ6IghBDCkCgIIYQwJApCCCEMiYIQQghDoiCEEMKQKAghhDAkCkIIIQyJghBCCEOiIIQQwpAoCCGEMCQKQgghDImCEEIIQ6IghBDCkCgIIYQwJApCCCEMiYIQQghDoiCEEMKQKAghhDAkCkIIIQyJghBCCEOiIIQQwpAoCCGEMCQKQgghDImCEEIIQ6IghBDCkCgIIYQwJApCCCEMiYIQQghDoiCEEMKQKAghhDAkCkIIIQyJghBCCEOiIIQQwpAoCCGEMCQKQgghDImCEEIIQ6IghBDCkCgIIYQwJApCCCEMiYIQQghDoiCEEMKQKAghhDAkCkIIIQyJghBCCEOiIIQQwpAoCCGEMCQKQgghDImCEEIIQ6IghBDCkCgIIYQwJApCCCEMiYIQQghDoiCEEMKQKAghhDAkCkIIIQyJghBCCEOiIIQQwpAoCCGEMCQKQgghDImCEEIIQ6IghBDCkCgIIYQwJApCCCEMiYIQQghDoiCEEMKQKAghhDAkCkIIIQyJghBCCEOiIIQQwpAoCCGEMCQKQgghDImCEEIIQ6IghBDCkCgIIYQwJApCCCEMiYIQQghDoiCEEMKQKAghhDAkCkIIIQyJghBCCKNw029ACLFLuVwGALiuiyzLUKlUUCqVsFgskCQJACAMQwRBgCzLsFqtMBwOb/Iti1uEREGIbxDHcX7j7/u+j729PaxWK1SrVTiOYwe/53lYLBaI4xir1Qqe56FUKqFUKmE2m2Gz2aBarSJNU6Rp+g1/R+K24Wy32+2X+sD/43/MQojfTrlcRhAE2G63ePjwIRqNBmazGbbbLdI0xWq1AnAtDKVSCdvtFqvVCsViEZVKBev1Gt1uF57nmTA4joPFYoH1eo0gCFAoFDAYDOA4DkqlElarFeI4xmKxuOHvXrxKfJnjXqIgxNdAo9FAo9FAoVDAyckJms0mptMpttstwjC0p3/XdeH7PpbLJQqFAhzHwWAwwHK5RBiGyLIMnudhuVyi0+mYGPBj6vU65vO5lZpqtRpWqxUKhQL6/T4uLi5QLBYBAMvlEqvVykRIvHlIFIT4higUCvA8Dw8ePECj0cBisUChUECWZahWqwiCAI7jwPM8NJtNOI6D9Xpt/YPxeIzZbGY9gsVigSAIAABZlmG5XKJarWKz2WC9XmO9XqNUKqFer+PevXs4Pj7Gv/zLv+D09BSTyQSbzQau66JYLKJWq2GxWGA+n9vtIYoiZFmGbrd7kz828Q3zZY579RSE+ANpNBp455130Gg0MBqNMJvNUCgUsN1uEQQBNpsNarUa1us1xuOxiQNw/fTuui5GoxG63a79o12v1zs3CYpHmqYIggDr9Rqu6yIMQ1SrVXS7XbRaLbz99tv4j//4D8RxjOFwaA3qarWKO3fumFCNx2P0ej2MRiPdHMQOuikI8XviOA7effddHB0dYbPZIE1TzGYzpGkK3/etYZxlGYrFInq9HnzfR6fTgeu61hReLpfYbrdIkgSFQsFee7vdIssyZFmGcrmMSqVi7iPXdeG6LsrlMg4PD7FcLlEqlbC/v2/C9PjxY4zHYxQKBSshFYtFeJ6H6XS6U05arVbo9Xo384MU3xgqHwnxFROGIYrFIqIoQr1eR5ZlVjryfR+u6yKOY6Rpak/p0+kUnufBcRxrOsdxjCzLUK/XrZcAAJvNBs1mE5vNBuPx2D6uUCig0WjA8zwTC9d10W630Ww2kWUZZrMZFouFCZHneVitVvB9H6enpwCuy1yj0QibzQZJksDzPHQ6Hbzzzjv41a9+hc8///wmf7zia0aiIMRXSBiG+Oijj7C3t4fhcIjZbGaW0DAM4fs+isUifN9Ht9u1WwOf6tM0tTLScrmE53nY399Hq9Wy10rTFMfHxyiVStZ8zs8gsJEMwFxHh4eHGI/HuLq6wuXlJer1OnzfR61WQxAEWC6XqNVqGI1GePLkid1cXNfFcDjEdrtFtVrF8fExzs/P8fjx4xv6CYuvG/UUhPiKKBaL+N73vodms4kkSTCZTOxwpUtos9mg3+9jvV4jTVMr+/DP2+02xuMxVqsVttstPM/DYDBAHMeI4xhhGCIMQ/R6PbOdck6hWCxiu91iOBxaL8HzPJtNODg4gOM4mEwmqNfrqFQqAIDFYmFN7yAI8OGHH2I6neLXv/41SqUSKpUKCoUCzs/Psd1usbe3hziOcXV1dcM/cXFT6KYgxG/B8zxEUYQHDx4AAOI4BgA7TJfLJTabjT1xO44D13WtnBTHMbbbLUqlkjV52TfgENpyucRoNEKj0UC1WjX3EA/t9XqN0WgE4LrR7DgOfN9HvV63clSxWMRqtcLh4SFKpRJGoxH6/T4mk4kJDAB861vfQqVSwccff4xHjx6hWq2iVqshSRIsl0sA13MVZ2dnGI/H3/BPW3zd6KYgxB/IgwcP0Ol07Il8tVphvV7bk/5ms8F2u0WxWMR6vUa1WrUeAwBUq1UAL1xGHEyja6hSqWA8HiOKIkRRtHPr4Ocx5mK73ZqraTabYTweo91uo1QqIUkS+/q1Wg2tVstuILyFRFFk/Ysf/ehH2NvbQ7/fR5Zl1gPh16zVavB9X83nNxCJghC/ATqLDg4O4Ps+ANh0MOcQeCgXi0VkWYaDgwOEYYiLiwukaYr1em0upEKhgNlshvV6bV9jNpvh/PwcSZKgXq+j3+/DcRzEcYz1eg3P89BoNLDZbFCpVDCfz63hvLe3h8ePH2M2m8F1XazXa0wmE3zxxRcmOrVaDcViEXEcW1N5NpshCAIEQYC3334bjUYDv/zlL02ELi4ukCSJ3VoGg4H9mXgzUPlIiN9Aq9XCO++8A9/3USgUkCQJsizDer2G4zjYbDYoFosolUo4OTnBZrPBaDSyWjydP5wrqFarWCwWWC6XyLLMZg0Gg4E5ilzXxWazsSwjik29XrcJ6M1mYz2JMAzhOI4NveXLUmEYolQqIcsyAMB0OoXv+zg4OEC9XjcHU6lUsl5Ir9dDv9/HdDq19xzHMS4uLr5U2UG8+sh9JMTvQaFQwP37981NxLLPdrvdObCbzaZZUOfzOUajEabTKQqFAur1urmHlsslisWiTRnz/8ZxbGUlAFY2ohAx/sJ1XTiOg1qthu12i3q9buUsTjmzoQxc/8NnJhL7CZVKxYboAFg2EktWQRDg4uICnufZ97JarRAEAWazmRrPtwSJghC/A57n4eDgAHt7e1anT9MUlUoFy+USi8UCDx48sDIMn+KzLMPjx48t4TSOYwulcxwHy+US5XLZnubp8vnwww+xXC5xenoKx3Hw7NkzFAoFi7lg2Yo1f8/zUKlUbF7BcZydCepyuWwT0xQzAIiiyAbf+L6r1Sqm0ykcx0Gr1UIURViv14jjGJ7n2dxDtVrFer3GZ599hsFgcJN/PeIrQKIgxO/AyckJvv3tb2OxWGA0GtkUcKFQwGazQbvdxt7eHrrdLi4vL600lCTJzsDYYrFAuVxGp9PBZDLBZDJBqVSygbdCoYBHjx4hiiIrCRUKBSwWC7sJANdisFgsbFI6P5nsui7m87n1LorFIt577z0sl0v0ej0kSYIwDOG6rjWpKQZsHpdKJTSbTdRqNezv72M+n6Pf71vpaz6fm/ANh0N8/PHH6i+85kgUhPgdaLfbZumks6hYLKLValmo3HA4tInlJEksRqJcLsNxHDiOg06ng1qthiiKcHh4iPPz850ht/39fWw2G2RZhtPTUzx+/BitVgvz+RyLxQKVSgXtdhue51n56fnz55aEyjLTcrm0f5fFYhH7+/sWfLdYLFCr1exmwljuKIqQpimGwyE6nQ5arRbG4zEmkwlc17UQPoodBXK9XuPy8hLT6fQm/4rEH4gsqUL8/8AhL8/z0G63EQQB9vb2sFgsMJvNUKvV0Gg00O/3bYqZf8bk0na7jUajgclkYgdxqVRCq9WyfsJqtcJsNkOSJFbOmU6nyLIMnU4HlUoF3/nOd/D06VPM53NcXl7CdV3s7e0hSRJUq1WUSiVzNm02G5to5i1gMBigUCjY1HMcxxak1+l0EAQB0jTFu+++i263a7eY+XxutloANm9RLpdRKBRQrVZxdnZ2Y39H4ptFoiDeWPb399FsNjGfz82Fs1wu8ezZM4RhCODaNjocDtHr9cw5RAcSl+DQlspD/zvf+Q42mw3Oz89RLpdRLBZRrVZtlmA6nWI8HuPy8hJJkqBSqaBYLOLi4sIOYQBoNpvwPA+Xl5dwHAeNRsNmCThXwKYy5yIA7LiKuIin1+vZkNvjx4/NLbW3t4fj42Pb2cAyFctPxWIRk8nEVn+K249EQbxxVCoVHB0d2YHNtZb8dXh4aPV7WkRZpikUCiYYvIr3+317Qqe7B7g+nCeTCaIosv0Ji8UCv/jFL+wpH4A1lAHg8vISxWIR9Xodh4eHmE6neO+99wAAg8HAht+2260d+Oxj5Lex1et129vAWI4oiqx/QREYDof2Pc5mM5uKbrfbO66ls7Mzm3gWtxuJgnijaDQaODk5weXlJfr9Pu7fv2+umzRN0Wq17Ml9vV6j0+nYZrM4jm1YDICF3KVpiocPH6LZbGK9XtsyG4oFYzB6vZ4F5pXLZZTLZcsv+uyzz+w9BkGAKIrw9OlTE6HNZoP9/X0cHx+bdXQ0GmGxWNiUNS2wxWLRklzTNLU+ADey+b5vTWrOSNDCyvgO3oYmkwmWyyWSJFGT+Q1BoiDeGNjkjeMYjuNgf3/ffPiLxQJ37tyx24Pv+5Y5RP8/4yboGOJw2fHxMY6PjwHArKWz2QzA9W3h2bNnlmyapqnFTYzHY1QqlR27KZ/Yf/nLX8L3fbz11lvmNOLCnXa7jTt37iCOY/z7v/+7NbE9z4PnebbpDbhuQNPZxPdHy2m1WoXv+2adZWmM8xaM5+ZrcvhOe59vN3IfiTeCTqeDH/3oR8iyzBrGpVIJvV7Pnv7L5TLa7bZNIlcqFfi+j8ViYQfkcrk0L3+n08HBwQHm87lFQ0RRhCdPniCOY1QqFYvD4HQxU1XZX2C5KcsyyzQajUaWahpFEVqtForFollWy+Wy9RtWqxW63S7Ozs4wn88RBAGOj4+tn1AoFDAYDGwQjU1w9h1c17WeAUP7arWa7XZ2XReNRsN2Rz9//hxPnz694b9N8fsi95EQ/x/vvfceisUiut2ulUEGg4E1evf29pBlmblueKiybDIcDm1oLAgCtFot3L9/H2maIo5jjMdjq7m3221bkhMEAer1upWAuNyGfQpaTJlJVCgUUKlU4LouqtUqsiyzUk8cx1Yamk6nSNMUhULBNrn96le/wnq9towl3lZ83zeXFQATOC7gAWA7oRmbUSgUzBbLj2VjW9xuJAri1nNycgLP83B2dmZ7DlirZ4QFs35837fwuPl8ju9+97u25IZlk8PDQ9y9e9cW6cxmM/i+bxlChUIBruvi6OgIADAcDrFYLBBFESaTic02sCTDoTfW9kulkr1P2k+jKLKVnCxbsaRULpfRarVwcHCA0WiELMssKmOxWFi5iOUnhvPN53MrifE9M/KbTiMKyuXlpc0/iNuNREHcao6Pj3H//n3rFbDcUqvV7CAeDocIwxB37tyxxmqn08Fbb71l+4ujKEKxWLQp5vPzcywWC4ueBq7r97xl8DbCQ5hlmslkYh/D3gbr/EmSmEhxUI03CvYMODDHGYYsy2wXAiO+6XSiS4l9BcJ+AW8mvIEwS4kBfP1+33Y6O46Dq6srdLvdG/l7FN8cEgVxa3Ecx+yco9HInEJpmmI+n9vhfefOHdRqNQyHQ3MgcaKZLpw0Te11z87O7ODkXgXiuq6VXjabjcVhcMGO67qIogij0chuJEEQWIzGYrGA67p2g2AvYbVamUhkWWZ5TIy2rlar5i7i7YJJqhSEarWKi4sLK00dHR3B9308f/4cwLU7qdFo7ATw8UbiOI5KR28IEgVxK/F9Hz/4wQ9QLpdxeXm5s5ayXC6bg6jVaqFer+PRo0dYrVb48MMPsdls0Ov17NBnPb3RaODRo0cmKgyuazab9roUBSaSrlYraxyzMZw/4LmCkwcubxWcJt5sNpZaGsexPd1nWYbz83PbAc2yDiefeTNxHMemntlkXq1WZjNdr9coFAo4ODiwXdJ0GfHm0u12rd8ibj8SBXEr4Z7i4XCIUqmEIAgQx7Ednpwy9jwPT5482XHZ9Ho9uzUw6vrg4ABZliEMQ2tAA7BBNjaPl8ul9QVY5mk0GgBg4XalUsnKMs1mc2eaerVa2ddk2B33MUdRhCAIMJ/PbeEOAMtAajQaCILAYir4XmezmU1cM16DIXuVSgV3797F4eEhvvjiC5yenmJvbw9hGKLb7Vrvg4t/xO1HoiBuHa7r2oL61WplA2i1Wg3L5RLz+dx6BKPRyGr2m80GFxcXVnNP09RirkulkvUPOAC23W4xnU4Rx7FtR6OjZ7Va4erqCq7rolarWQkqL0Z0Oi0WC5RKJbTbbfT7fZs74CFcKpWs1s/bCS2sLBGxrDQej+095ncz07308uvx58BZDVphAexMP/PGIm4/EgVx6zg+PkatVsNsNoPneRiPx3j8+LGFw3FIazAYIAgChGGI5XKJNE1xfn5uts8gCOD7Pg4PD+0JHngRS7Fer+G6Lvb395EkCXzft0U4PLSLxaLlJNHlA7y4YVAoRqMRLi8v4fu+WV97vZ7FWNAuWq1Wbc5hMpnY6+RziUqlEo6OjpCmKZ48eQLgxSY4NrHr9boN6F1dXVnJ6f79+wCubz50Obmua0N24vYjURC3infeeQc//vGP0e12sVqtcHx8bCWkNE1tQI0wHsLzPAwGA6v1s1lbLBYtbiJfforj2G4RbMrSKcQcIh6qm83GBsbYD+AQHSOteeCyh8F6P11ITDLlQc5Ii2azCeDaUcStb+xFUCgoBp7nmRMpH37nOI5FYXDQjl83TVM0m037xduGuL1IFMStYW9vD3/913+Nzz//HEmSWPpnpVLBW2+9BeD6iXo6ndp+hF6vZ7EQ/MXDMEkS3Lt3z3KPWLrh032r1YLruphOpwjDEFEU2QAbLZ+cE4jj2MpYy+VyJ9iO6zm5wnOxWCAMQ9y9exf9ft9SXMMwtKhrAJaaWi6X7RbCrzccDq03kSSJfVwURbi4uECSJKjX61bOoii5rourqysTStd1kSQJWq0WTk5O8Pz5c2Ug3XIkCuLW8K1vfQvPnz+3lZTD4dDC4g4ODlAul22bWJZlNn/AQ79SqdggWZZl2N/fR71ex+XlpdXneYPgSs5yuWzpp0EQWGOYswPce8AtahQE3/ctQI83CPYw1uu1BdllWYZarWZfh6LTaDRQr9fhOI41rpmnRPdUflYCgP1+/mcQRZFtXaNY0nmUH2RjxEYYhuot3HIkCuK1x3Vd/OxnP8MHH3yAi4sLa656nofz83NkWYbvfve76HQ6uLi4sCRT5v/4vo/JZAIA1rTlE/tnn31mIsCaPg9wHtCcBF4ulwiCANPp1CyvpVLJormvrq7sVsKbR7PZtL3JrN+v12u7QbDkNZlMrHSzt7eHer1uPQ7gOqyPSa+e59kthu+TO595yHOFZ7FYxHK5xHg8tgwouqzK5bKVmeI4xnQ61S3hDUCiIF5rPM/DX/3VX+EnP/kJnj17hjRNbSqZS+3prrm6usLz58/taZ1P5lw3WSqVcHl5aa+d7wvwaZ71f0ZGANdP4HQjjUYjTCYTC65jBDfLMWma2jBas9m0EDwANs3MwTcAtrKTsdZMcO33++YeWq/XWK/XaDab2Gw2mE6naLfbaDabOD09xenpqc0jsLE+Go3QarWQpqmt+uRsRKlUsrkICidvNBpgu/1IFMRrTRAE+JM/+RNcXV1ZzDVdRvTY3717F2ma4uzszJ6SWR7Jl2Tm8zkmk4kNgDGKOn8YLpdLNJtNu3VQUCaTiZWkaFmtVqtWCuLn0+bJeA3+Pks1wPX0NaekmdYahiGyLDOhK5VKFoTHr8FUU94GkiTBbDYzEeOuBQ6ycYiNDW02qPleOOhGuy5/HuJ2I1EQry2lUgl/+Zd/iV6vZ01gAHaQc5FNpVLBeDxGuVy2mni+VMNYh0KhYFbNl/sHWZah0Whgu91aJHY+XmIwGGC5XCIMQ5s6dhwHvu9bjAUPXgDWC+DtgbeRRqNhNXyG9vHPgBf7EVg+6vf7VtLi0/1wOMR0OrVJaEZ1ALBS1Wq1wnQ6tZWiy+XSMpkYAUKB48+WNw06r8TtRKIgXlv+4i/+Ah9++CFOT0/Nosk6OnAd+VAul1Gr1RBFkR2UjK2g64Yhcqy58/cpMnlBYAObBzf7BpVKxRrCAOxQpQOItw02nek+Wi6XFknteZ79N91ESZLYE/xyuYTv+7ZVjVEaJycnGA6HGAwGKBQKNkHNoToAJlJsiDO2gu+Fkdn5+HAKKdNY87uptZrz9iJREK8lBwcH+Oijj9BqtbBardDv9y16YrvdotVq2VrJu3fv4pNPPjE3z9HRkZVVmBDaaDTsZjCbzZAkiQXC8VBnfZ0+f5ZjgOsyVqPRsNIUAAuSo6OJByvwYqkOf7F0lI/M5udxVzMjMuiSStMUJycncF0Xl5eXGA6HKJfL5kpiWN56vbYpa85JsNzEBjnfT61W21m9yRsC4z+4A1rcXiQK4rWEsdGfffYZut2u7QbgXgPeFj766CMLoCsUCjaxW61WbXkNcN3kzW83cxwHq9XKVlFyBoAR047j2NNyuVzeiZigK4gHcL5klBeYfB+BE9EsD9F1VK1WMRqNsFwubdnNbDaD4zg4ODiwzWphGOLg4ADj8Rj9ft/WhpJ8DDdvHABM3KrVKgDY98/PZbkIgP0cxe1GoiBeO+7du4cf/OAHuLq6Qr/ft4yj1Wq102R+7733kCQJTk9PkSQJHjx4AM/zbDkOI6T5eVxnyRtBuVy2Q5SRGVxtyX0F+V0F3JVAMeBBO5lMrMHMg7lUKlmdn6WrLMtsmI4fy8/j0zlLOZyBODs7s8lrZhRR6PI7FABYr4TzFGx4A9eLg2hNTdMU4/EYYRiiWq1iOp1af0Zlo9uPREG8Vty7dw9//Md/DM/zbG9BqVRCt9u1rWObzQZvv/02kiTB2dmZuXmKxaJ5+Xm4JUkCx3HQ6XT+l4uHfYHtdmtb0gBYZAUA62FQIGjz5ABYpVKxRjOFJJ+dxIM8CAJz9jBywvM8C8vzfX/HukrbKBvbTE+lQACw0hQFgwN4+ZgL3/ctaI9lJMdxUK/X0Wg0LBOKcxri9iNREK8NpVIJ7777LtI0tRWZjGGgm6bX66HT6VjDmGFv+/v7WCwWttymWCzi6urKegecBGZ5Jx9HTYEol8v2tM1hMPYJarWaHcb5FZu0gwIvbKc8rCkYcRxbthF7FtzFwDmGarW6szqTQnF8fGwx2JeXl7i8vLQyE4P0uLiHfYK8uNCJlSQJoijC8fEx4jg24WHKKwBLTxW3G4mCeG34oz/6I5st6Ha78H3fLKY8pJMkwd7enm0Z45P/YDBAo9HAarUCACux8JDu9Xpot9u2aIbrOjudjm04G4/HAF4ssikWi2i320jTFGEYwvd9XF1d7Uw/U2j4i/2KfGOZhy2/N9d1MRqNUCwWLbZ7u91iMpnYQd1sNs0RNZ/PMR6PEcex5S9tt1t0Oh3LPspbb4HrPggPf76PwWBgDqR2u20fSwuu7/v2eeL2IlEQrwUsF/X7fQCwEg8zhji4dufOHbRaLZyenuLs7MzcMnTQvBxCxwnher1uhz4A6zkwcmI0GtmmtL29PURRZGWXXq9nu4vzNlMG4bE8xMnnfAxHqVSyp3VueuNqzjAMsb+/j3a7bU/3g8HAYrObzSaq1Sq22y3iODbHVa/Xs58R01O5lvPlfRB8z8xc4ucxgI+3Gt6OeCujuIrbh7P9klMoqieKm4LrIiuVyk40NA/2/Ca0H/7whzg+PsZkMsEnn3yC8XiMe/fu2R6BwWBgSaL5Bi4Pfh54XC5D4eDXOj4+huM4eOutt+C6Lj799FMr/bBezwM8/9/59Zos7bCkQ2srbwSO4+Dw8NB2GEwmE0yn052oCVppOZsRBIFlHFFgxuOxOY14A+L34ziO3SDY+AaA4XBoNyAuA2J+06NHj8yi+vnnn2u/wmvIlznudVMQrzyVSgUPHz4EAIuT4CEfBIENibXbbbz77rvmyd9sNtjb27P8odFohF6vh2KxiMPDQ/T7fdt9wNWX+cOaeUNxHKNUKuGjjz6yrCCWiZgYyqRU9gU4nAbAmsl56BKiINDKenh4uLP8ZjgcWimJwXt5eNBTmChCjPPgx3AamS4nltW4kKdSqeDzzz+3EhFD8MIwtJ4C91QDwBdffPH1/GWLG0eiIF5pPM/DT3/6U+zv7+PTTz8FACvN8MmZE7g//elPbdq22+3i6OgIDx8+xH/+539aeYlrKFkq8n3fDm2KDJ/EOb0LAN/97ndxcHBg/YSrqytbUpPfX8wSEAC71by8HY3RF/za/Hg2i9l8juPYklcdx8FoNLKJ5WKxaLsZ+Od0N+VdRvV6Hdvt1pxFLIlxpoMZSvkhO1YFsizDxcWFbahbrVaoVqv2tcTtRKIgXnkYLcGZAuA64pr1e6aO9vt9m1uYTCZ4++23zQLabDYtMoKlmGaziel0arZUHtT5PQvD4XBnRzEbu4vFwtxMWZbZ4btYLKyBy5mJfDmK5Rj2FmghZd+Aaa3FYtGe0OfzOQaDgZV4WC6jIORFJ1/2YrOYeyXy60F5uwiCAKenpxgOh/bzWa1Wlm+UZZmFBM5mM9tprZ7C7UWiIF5pOJHMgS6Wa4IggOu6GI/HNmk8nU4xGo3M7glc5/8cHBzYgTsejzEejxEEgZVaOFAGYKc0xXWbR0dH2G63ePz4MaIowmw2syEvPo3fuXMHq9UKz549MzsnD+I0TS0xlU/ZSZLY++ZNIR9yx21r9+7ds2gLADg/P4fjOHaL8X0fo9EIAEwQ2Fjn9jXP82zxD0P8aFPNC9/e3p7NWHBoj+6oyWRiNwz1Em43EgXxytJsNhGGIbrdrk3VMiSOT6qr1Qr1eh3f+973LA47jmPbjFYoFHBxcWFheLRq1mo1TCYTjMdjK7fkl+Iw1oKR22QwGOyUY3zfx3K5xNXVlcVFUCwoDCzNMFaDggO8CKqj64jBd/ltZ4eHhygUCvjiiy/sZsT465dLPhywy29koxWVtxQ2uhkJQoHg7YNuKIoObxCc9aCYituJREG8klSrVfzsZz8DAFxcXFgEA2vmnBZmTTxJEisdMURuMpmg2+3aUy4AG+Zqt9v2RM2naw618VAHrkWAlEolK/cwZC6/QyFfy69UKqhUKri4uLCDm2KTj6OO49gEhDMC/Br1eh2FQsFcPywD8XUmkwmKxaJ9XUZzUPzYw6Bo8Ptcr9cIgsDmKPg9A7BBOv4em9K8pTFeQ9xeJArilWR/fx/lchlpmqLdbmO1WmE4HFrUNQ/jw8NDADBr6mq1wvHxMcbjsS2kqdVq2Nvbw9XVlQ2xjcfjnadtPvVXKpWdDWmbzQZRFNnOAT5lNxoNDIdDi6Ggw4eiMJ1OTVDyT++s6fPrsbldLpcxGo1scI4W3PPzc5ydnaFQKKBcLuPo6MjmHRqNBnq9HtI0NXspI7jpPqLFlblF7I8Ui0VUq1VcXl7a+14ul4iiCABs2I3Na76erOm3H4mCeCX5yU9+gtVqZQc67aMMsev3+wjDEGEYmrWSg1offPCB3Sro3+/1ejsrMRllwRsBQ/AAYDwe/69yC3sZy+UStVoNYRhaeF2lUrE+RD4Lib/neR7K5bJlJjEgj41oWmL5+ew7XF1d4eLiwm4ezWbTIilqtZrNDLCctd1ubeAsPzjnui5ms5mVx8rlsv15vqTFfCTac7n+k7EZSkh9M5AoiFcO+v9Z586yzHYDLBYLzOdzTKdT+L6PyWSCP//zP8dms8G3v/1tbDYbtFot22XAp3J+PKMx+ETP3kSj0bA4B5ZXarWarc3MsszKVcB1aB2toPP53OYN4ji2GwZvBTyIgeseQhRFqNVqlkZK1xA3xLGJzentIAjMIcXobFpq2V9gaYhfIy9otO4CsIE0ALa/mtPMFJHFYoEwDHduX+LNQaIgXjk++OCDnT3FrJOzEcuguiAIUCqV8OTJE9TrdbOs/vd//7eVYnj489BO0xS+71taKl+fcRP5SWfWzmkN5VwBB+O4s+BlSytXerIezz3QFKHNZmOzDYziDoLA9jk4joN+v2+b3DhIRqHh+2BDOp+MSntsGIa4urqyA5/zEJPJxIbzHMdBHMfWEymVSkiSBO12G41Gw3o04s1CoiBeObhrgIcXewP5UDmWTdrtNuI4Nlsm5wf4RJ9faMODlSWY/BY0Opb4VEz3UX6RPV1DtIeyp1CpVFAul61UNZvNLEqb4jAej+G6rs0n0DrLWwkAs4Ky3HR4eLgzM/DyAiAKHf+b73c6nWI4HJoQsY/A74/vl30TCicAy0hiies3TWOL241EQbxS3L17F2+99ZbtNqCfn79c10Wr1QJwfZgzboGNXtb0WbPnYTebzWyHQj4ao1wu7ySF0pHjuq5NFTMym24lDrIBsNWXACziAnixdY0JqqVSyZrbtKNS0ChceSfUZrPBs2fPTLhqtZq9L942Dg8PzTJLUcx/Phvj1WrVojRo22XDPh/JUS6XUSwWUalU0O120e/3VTp6A5EoiFcKPj2zOcrmcKPRwNnZGebzuQ2yVatVO1TDMMSdO3dsxzLr8XEc70RH80md5ZY4jq1XwHq967o4ODhAq9WyxNH8Sk72ASqVipVg4ji26WKWXDj7wPIVHUyu69qgWn7nAW2fxWJxZzVopVJBtVrFZDKx6AvP8zAajWwnM8MCOZ/BfkF+WVChUECz2bS+AW9OtKnGcYzJZILJZLKTmireLCQK4pWCNsj89rHxeGxPwM1mE6VSCWma4u7du+j1ehgOh4iiyKaH+aQ8m82sPFIqlawxzKYrSzJsFrMhW6lUbKKYCamO49jOhPzKyziOTUiWyyWWy6W9d94QKA60iOZLSHT+cBagXC7bDAOtp5vNxnoPjO/m12YeEp/y+TrctcAbAgCbb8j/XPj7/J54w+D0s3jzkCiIVwbP89BqtTAej80VwzyjZrOJvb09Kwc1m02LYKjVamg0GhaLvVwuLa/nzp078DwPvV5vx8JJAeATO4fiWCZKksRipnnboJ+ftXZO/nJOYTaboVwu2xrLUqlkNwwexIvFApPJxHoU7AnwsGd8B1+PIX685TSbTXMFUVC4+GY2m9mth+LGZT7FYhFRFNl7oPhQSF3XtX4C8GJyW7x5SBTEK4Pruri8vESapoiiyJxAPNx4YLIe3u/3relMqyoAi71uNBo4PDy0XQlsEOcTQwGYc4iCwcE4HuzAdb+BjihOEHueh2q1CuDFEiAKBJvSfHrnHAWbw5y3oOOHU8j8nHxTnb0UloZKpRJqtZqV1ygQFEm6jfIJsvxeubWNje78z4vuKJbHxJuJREG8MrDEwiyhcrlsh3TeLbTdbtFsNm3QinMLo9HIZgKYdvr8+XM7ZOfzue1F5hM+B9/4tMzDOF8e8n3fyjJ09PAwT5LEHEZsFnPaeTgcWqmIN5pKpbITS8Fd0tz3wIY584Vou+X7ohvo4uLChuN4i2Gpim4pNs3ZpwBgKaf8GbD0xV0Mo9EI0+lUt4Q3GImCeGWoVCo4OjpCtVq1mAr2EhqNhjVHK5UKLi8vLfGTT8WsiXMimE/erVbLDltOAnNnApNKuZ8gSRIrAbH/UC6X0Ww2d/YqM03V8zwTFn7tXq9nkdp0PLGXMJ1OzQLLngFFBYDZaXkDyTePOZMAYGebGm89TGcNgsCaz/z5zWYzPH/+HNPpFO12225AFAOW0/IrScWbiURBvBJ4nodms4n1eo3nz5/bAZ8kCe7evbuzunK9Xludndk8nD8AYImlzOqh64buHrpzPM9DFEWYTqf2Gjx0mVfEzKA0TVGv17G3t4ftdouLiwsAsK/LfsNwOLTMo/xthnV+uoIAWHOazqggCEzgFouF7XWmNRd4sRaX3x/dTHQYcXKa2UYHBwfwPA9PnjzZaYCPRiNbJMTeghCAREG8IjA6mmLAILokSaxvAGDnyTw/S8AnejZeGfkMwBq7tIby1kFba6PRMEHqdru2WpNP3yzvcJEPG72cW+CynVqthnq9DuDFE38QBEjTFI7jIIqinZwj3kTY7AVg1lLmJ+UX6bBERZGiuPDjeaNgyej8/Nya38wu2mw2GI/HmM1mmE6nVjrKR2GINxuJgnglYOAbD/bJZGKOIB6U7A0Ui0VMJhN7ymXkRKVSMecQhYFP5oy6Pjg4wNHRkZVUFosF3n//fbz//vs4OzvD5eUl4jjGkydP7DDnjSQMQ9uexsa14ziYTqdI0xSDwcCmhSliFBhGdjDGmr/YQM4v9mHfgo4g2lfz8RT5BNQ0Tc2VlJ+UTpIEn332GQDY7aNarVo/Zbvd2hQ2900I4Wy/5L1Rkbni6yIIArzzzjsIw9AW4/CpNkkSOxhZCmKdPL8ch6Wl1WqFk5MTC8FjCSkIAnQ6Hfz4xz/Gn/7pn6JYLOL09BSffvopHj58iB/+8IdYLBY2xXt6eoqnT5/if/7nfzCdTrFYLKxvAcAG5vK5TPwYzgPk00dZXuLTOF+TbiPeOCgaFEB+v9wwx++dvRCWmGq12s7PbTabWb+CO60BmGuJsxBs4o/HY+t/iNvLlznudVMQNw6TS/lUT5tlfnhru93uHHxslNJ7PxgMLKaC8wOO41j4neu6OD4+xve//31bsHNycoIwDHF8fIwHDx7YUBhw/Y/n6uoKf/d3f4e///u/t0Pc9/0dgWCKK+cq+L4pCDzw8z0L3jyYecTDnWWiJElweXlpTiWW1vh0z/5DfjKbqbLsT3DYDrgWMFpO+R7yq0EpdNwAJ95sJAriximXyzYsxoN8NptZWaRcLqPb7eLq6sqGsJhdxEM4n080nU7hOI5ZMgGYX3+73SJJEgyHQ1xcXJij6OXD0HEcHBwc4G/+5m9Qq9Xwt3/7t7i4uLBeQz59lINjdAQBMGssw+WAF30G9jdYKmL/gO+ZGUq+72MwGJgAcLiuVqvtTCGzCV4sFs1yWqvVzMLLj+GCIODFjmuK5/7+PmazGYbD4Tfydy5eXSQK4sah/59NYga55Q89rq3cbDYW/8xbBe2dd+/eNWspl84wviIIAnz88ccYDAaWa8RwuCAI8P7775tzJ08YhvizP/sz/Nd//ZcNdfHGwF4AnUWMzgawM4DGhnh+OxubxoSi2O/3USwW0Wg0rHnOnwVLuBy+A2DzCNvt1vYwMAacQ3jAi9sCHU5cq8mhOUZbCCFREDfOaDRCo9EAAEtFZdgdUz653YwuHJZtWLNvtVqIomhnrzAtn4VCAQcHB1itVvjkk0/wy1/+EuVyGVEUod1uo9PpII5jS199mePjY9y9exf/+I//aH0AlnTYLwBeRF+zxJW/NbCMRKHj53F+gU3jarWKJEkwGo1sYRD7FewxUHDYCGd0BYAd5xJfmzcM3pQYjtfv902AOSwnhERB3CiO4+Dw8BAHBwdYLpcYj8fmiCmVStjb28P+/r7ZK7lIh5POruui3W6j1WrB8zyrw3MIi4LBmYH8YpnJZGICw4P9NzGbzSw7CYA5f7hbOR8ex5sBbwUsc4VhaDMRtNRyII3lLsJbAOce6vU6SqUSJpOJPdkDMFsueywsDzGYj98/ALO9clBuPp/vRF0IQSQK4kbZ29uzgTA+hWdZhkajYVbPX/3qV+a3H41GqFarODo6AnB92E2nU4zHY0wmE9t6xjIUn9IHg4E1pwHYk7vjOPj444/xySefoNlsWvOX9Ho9/Ou//is+//xzEwXaOmkR7XQ6thqUzWc+9VOE+DSfZRnW6zUmk4lFVjNGA4B9vud5tvGNsxssi7FBnG9683XZk2EG0nA4tEE2fjwjsikIzGcSApAoiBsmDEPbp8ys//xNgF5+APb0SzcSAFsZmd8uli/XMIW01+vZrYCunUKhYFvNfv7zn6NarVr5hjMI//Zv/4Z//ud/xpMnT+xGkC/1sFHMQThOKOcnkxlct91uLeKbArPZbFCv11Gr1exgZ9mL1lYKQn7qOf/z4VAebyn8/zkYx5tJfqI7vytBgiDySBTEjcF+AOvrrK3zwONhy8U2lUoF9XrdDtbZbGZP3Bxe4z4AABZTXS6XUS6X7WmdhzKfkKfTKT799FNbXpOfqv7FL36BJ0+eYLlc2pM24ySGw6FFZTCYLr+zgXV/1vIpFGz+xnFsllLeePhxzGjKJ7kCsOU7XPVJGyrfMwf9OIlNAfF93wRB29TEb0OiIG6Mg4MDnJycYD6fI45j9Ho9O6jzgXK1Wg3L5dIip3noMjQuyzIcHx/bQFav17O+AZfMcCgu791P09QcSqenp5hMJjv7E1zXxXw+t4YuBYluqOVyiXa7bbuO2VdgJDZ3JHAqmzlJbJbzvby8Uxp40bTOv89isWiHPEtCnP7mn7GkxbhxToVzsxoFQTMJ4v9CoiBujCAIbFnOYDBAHMd2ODLjqFaroVqtIggCzGYze2LmEhk+FVcqFQuj46AXyy35FFIAtp2NpSM6mTqdju1LAGDzBHQ/0QHFZjgPVd4GeLtYLBbWPOY8AP8sLxy8pbDExHIQACsL8b3kbxpMdeVyHcLvkdbSKIqsPEfLKYWSLiQhXkaiIG4EHph0AHGlJAfReADn46b5dDuZTLBcLncOveFwiH6/b01b2jZJ3g3EvkC9Xt/ZxMbyDZ1IaZqi0WjY561WKwyHQwvTi6LI5if45L5YLHBxcWHfEwfx+Lp51xH7G0EQWPBf/kZAJxFdVWwkc6aDKzqBawHg4Z+mKSaTCWazmS0aGg6HNqeQX0gkxMtIFMSNEAQBDg4ObDkOD3nGYrP+7fv+jr0yCAJLT+WCndlsZgcin/T51FytVhFFka3qpG2TU8n5BTUc6GLdnktrOHzW7/cxn89Rr9fheZ5FZHNgjQf04eGh3RT4OmzuMo+Jhz//vF6v2z4Hvp/8fgjOFvBn0Wq1sN1u0ev14HkekiTBdDq1rWzsVeQX7UwmE5uuFuL/QqIgbgRGOM/nc3vqZrz0wcEBzs/PbQsYD2rmIwGwfCSKCcso7DvwljAajWyFJQALkCuXy3AcB0mS2HxEfrUm3Uzz+dxWg9KVxCd8bnGjxbTb7VrJiZvZ6DLKx1JQbOiyqlarNu9ASywdQbz5MPmVNtrRaGT9DgYGcrtb/uuxNJWfsxDityFREDfCvXv3cHx8jCdPnuzUwumz562Ah6PrulYPZ4QDoy4cx8HR0ZEJBW2d+do512rml/GEYWiOovw+A8ZOp2mKq6srnJ2dIY5j628AMGcQS1FZltnrU3jytlJGgrNRzdhuxnCPRiMAsITT1WqFKIpQq9Us/oK3CsZ78LZBC2yhUMB4PEYYhiZMFM68BVWI34ZEQdwI77//Pnzfx/7+Pk5PT3FxcbGzc4A3iHq9br0GDrDxkARePEnzKZjefN/3rYTCpjWdTUmS2HQwLaV0HQEvykD8nDiOEYYhNpuNLfShEHAmgAF4bBSzwcxlNnRL5WO/AVj/gjMKTEFlv4S7qSlg3AnNHc/sVTCYz/d9NBoNuyWMx2NcXV2pqSy+NBIFcSNcXV2ZB7/T6VgNfTKZoN/vI45jm3SeTCZWYqrVapYeyoOZh2l+Yrler6PRaFgTmY1nPjXzhsESDw92TlGzrFOv19HpdCw6gxZQ3jgoELR78umdVlI2iSeTic1NsBzGWwx3HrCZzUM/v3eag2kUJza3Pc/byYPKz0YAsFWjQnxZJAriRsgPX3EGIQxD27hWrVYtuoLhc41Gw56QmS/EejoAc9YMh0ObkuaOBXr1eRDnLa1sVtdqNXutSqVijiLgOu+oUqlYQikzh/i95LOTsiwzVxWD/XiT4PsGXuxA4OfUarUdYWA5jYLAr8PBOCavsjzGfQye56Hf72M0Gin5VPzOSBTEjcAp4263a/X0ZrOJVqtlJZcgCLC/v2/hdbwZMA47nzCaX8zDXQKcPyiXy1ZfZ6MXeDElzB0FlUoF8/ncorA58JZfhsMGM99vqVSy1Z60irI/wZhvJrDyCZ9/xm1yrPtzwpm7FNgboQgC2JlgzpfIOP3NOYqrq6udGQYhviwSBXEjcO3ker3GfD43G+Xe3h4cx8GjR48AvBjyKhQKOw1gHsx0D0VRBAD29MyyCpvB0+nUmrOs1ed7FABMBFiyYcQGt74xnwiA2WizLLOmeJZldivIR2znIzb4pL9er21am5lNtJ1GUQTf91GpVDAajbBYLMytRJFhA5oiw610jUbDJruF+H2QKIgbgU/RQRCg0WjA8zwLrcsfpEwMpShw0peuGw59jcdjC8PjgNdqtUIYhjvOGzp4Op2OJZgyxTS/AIe3kvv378NxHJyfn5vgsCfAjWt0GPFQp3CwEc0GNyegKSLslzAOgyUizmbwBsFfFMh8L4QRGuw1jEYjXF1d7QzuCfG7IFEQNwJ7CYyiYEmHURa0nvIpmU/7rPXHcWyzBGEYWnOVBzSf9nl48mbByAraNxkfQedTvvFLYSiVSvb0z/fTaDQsypsW0ryg0ZXEJ3nW+5vNJgaDgc0d8AYAwBxEX3zxhZWNWPKqVCoW5/HyDoXJZGLN7H6/r9RT8QchURA3Aq2VtJ+y9h9FkZVIWGfnfACdNVEUWWmHhzxjG7hfgE/uvAGw9s7ZB04jswHNA5xlLTp/njx5stMcdl3XSlHAC0spF/iUSiXLKKpWqzuRGfx8NqwpFL1ebyf2Y7vdWnR3PoaD5Sr2GLhACADOzs5wcXGhkDvxByNREDdCGIZm3WSJh0New+HQhsAWiwVarRaKxaLFZHNmgeUk7i1g9hCdOYvFwl6bls1+v2+OHZao8hHeQRDYLAJwfYiz6ZvfxcCVlxQb2kh5gLPhzGEz4FoIu90uHMextFNGcvPr8ebCmAwu6qFrigLleR6azSZ837fd0RIE8VUgURA3Ap/682WX4XBoi+g5mRxFEa6urmzgKwgCyw/Ku3JYNuINgnMJfPLnf7NUxQZx/jDl0h3W6dm8ZT3fcRz0+32L2sg7hPjfDNyjpZTNYLqNXNe1Xgmttjz0ObTGwTfOZ7Bhzddi7yTLMgyHQ4xGIxvmE+IPRaIgboTLy0sAsMRO1srpBuJhnLduMimVVkzP89ButwHAGsEvx2bTdsrBNZZfPM+zpjMPXgoRn+4ZXcGSFJvbjOvm0z1tqXzKZ6mHAgHAJo3za0d5Y+C8Br9/3kQoAHRMUVzSNLVdE2osi68aiYK4UfLNUwDWT2ApiUFxzPfh0z6tqDz0eeNg85kHN28KcRzDcRyEYYjBYGB7EhqNhu0t5hIeLqiZzWZ4/vy5JbfyhpAXmPxUs+/7VurqdrsYDoc2VMagOsZo83UAWDxFfjCNi3JqtZq5tLgHejabWbOa4iPEV4Wz/ZKFSP7jE+Kr4OTkxJJRecCWy2UbTMvvWGDDlYti8lHVfGLP70Fgk5miQIHgocvXaLVaJkZcosN4iPl8jl//+te2BvTu3bvodruYTCbWL9hsNtbXAGArMOv1us1TsJHOCAw2o/N9BK7fZOmLyau0487nc7tNUEim0ynG47HmEcTvxJc57nVTEDfCeDy2wDmGt72814A3Aq6tbDQaVu5hlAM/lms6WY9nFAUjpLlnYD6f22vzwOUT+f379+3rJ0liDdy33nrLFuMA+F9uJD7Zc7KZ8wq1Ws12R19cXNj7o2WWQkQnU5Ik5sTiDmoG4bGPQJsugwCF+KqRKIgb4c6dO7ZzgNPBfLLnDAJ/j0/Q+YX3LOEA1zZT1uE5tcwyE28JtLuyNr9YLNDv9y3GgiWkk5MTW4YDXD9ZPX/+3G4wbCizrJWmqQnSer3Ger22J302zoHriAz+/ng8BgALAeRNKX9j4mtut1s0m00AsJmE9Xq9sxNaiK8SiYK4EVjD57Aa117yKZhxDXEcW7gcXUS0n3LKmeUm5gvxAGfQXn5zWbvdxtHRkdX82XPwPA9Pnz5FlmX4+c9/jiRJbCMaS1wALEmVtXwe3rwxBEGATqdjy2140ykWiztx2a7rmgMpX37iPgeKVRzHGI/H6PV6N/Z3Jd4sJArixmDztFqtWkIol89wqCxvJ6UzqFqtWnQFD1V+HsPrWFJaLBZWdgJgDqN6vW6prLPZDP1+H/1+H5999pktzlkul1bSWq1WSNMUcRyb1TQIAjSbTXMUsZzDeG7uRM7fdsrlMmq1ms0zMHbbdV0cHR1ZyitzlCh6QnxTSBTEjfD8+XNrynIfQLfbtfx/9gF4g2DphimivAmkaWqR0ty53Gg0bPK4UCig0+nY0zqJogjNZhPn5+f4p3/6J6xWK4u35iIeNoe5Czq/FQ64tpnSspq/NXDwjLMEeQspJ52ZX8QbU6PRMFFh5Pd0OsVsNjPbqlxG4ptAoiBuhCzLcH5+jk6ng/V6jX6/j+FwaKWVlxfO8EmbkdHAtQOH8wos6+TLQbR59no93LlzB0dHR7h37x4ePHiAf/iHf8Bms8Hjx48RhqG5nNgj4HwEZwPCMNwJvkuSxKK5gReTyPy4OI4teoOOJvYg8kNuURRZjlKv1zO7KW8fAKyJLcQ3gSyp4kbh4c04ad4KmETabDYtOXQ8HluOUb5Wz/kERlGvViv0+327WTCkLooifP/730cYhnj69Ckmk4mtymQJCYA9yXMG4WWx4FQ0y1sM9/M8z2423K/A6Wa6rDhDwXmFKIospmM8HttMhhBfB1/muJcoiBsnCAKbTJ7P55jP5zbF2263d2ymbPhut1sEQYBqtbrzBE4n0WKxsEG2/FQzA/G4x4AzAGxWh2FoLiGWffJWVPYt2AguFAomLkEQWEAdRYKT0BQFADYvwUE1NqT5vQnxdaE5BfFawCZuuVy2NFTP8xBFkVk49/b2rEbPA5f9Bz7pc5cCB9/yT9xBEKBSqVgA3mazsT7AfD633CMAFmfBGwjr/y/nJrGMxIlnRngzq4jfB29C/AdZLBatXMRy2GQyuZGfvRAvo5uCeGXgcFcYhpZAyhtCvV43FxCbs3Qm+b5v/QSu4mSpZrPZ2BM5n9pfXuGZny1g9tB8Prd5Cd/37YBnMzkvBsw0YlOZDXL2RJh1FMex7TugqPCfnxJOxTeBbgritYLx0AyrW6/XaDabiKJoZ1iNT/hcZsPICSaTlstlK9Xw9/O2VVpBaU1drVY228CMJD7pc08CABtQ403g5SA9PvXX63VbCsT3kh+Gy+cbCfGqIVEQrxQ8rDm1Ox6PbaMaA/COjo6szNTr9Xb6DPnyEYPmOBcAXAsKl/d4nmcx3bR7BkFg5SxGceejOLIss8A8lqvYtwjD0HoSzEhi72A6nSJJkh2xEuJVRKIgXinyNwIe5FmWod1u486dO0iSBLPZDKPRCOPxGIPBAJVKxZ7et9utWUHX67W5k9gIZpmo2WxaRDZvG/mmcrvdts9l7hGb38xT4g7oLMtsaI5RFGx0A0Cv15OrSLw2qKcgXmloSXUcBw8fPkS5XEa/38ejR48wHA53guno8uG8AGce+JReLpftJsCcJZaJ2A9geure3h5qtRqurq5wfn5uzWnGay+XS1uCw21sfI18wB8Ac1MJcdOopyBee8bjsT2QVKtVHBwc2CEOwJ7e6UqiMLB8xHyhMAyt5MSGM28HbCbnewfT6RSj0QibzQblcnlnQQ43xhUKBTx8+BAXFxc2F8G9D67r2v4FIV4nJArilSZfe+chS8sogJ3sIJaOGMtdKpWwWCys7s/9DEEQWIOZeUS8NdA9VK1WEQSBlbKq1SpGoxFms5nFZUynUzx79sxmJFzX3UlBFeJ1ROUj8drBWQHeFvJwYC3/P2u6hFgyiqII+/v7SNMUo9FoZ9dzXgza7Ta22y0Gg4ENxCVJgk6nA8dxrHzEgTstvBGvOppoFuL/IP+/Z+YeJUliziL2A5jMyoU9hUIBT58+NVcT13uORiMF1olXHomCEL8HjLr2PM8yj0qlkm2C49Sy7/sIwxDz+VwRFeK1QKIghBDC+DLHvfsNvA8hhBCvCRIFIYQQhkRBCCGEIVEQQghhSBSEEEIYEgUhhBCGREEIIYQhURBCCGFIFIQQQhgSBSGEEIZEQQghhCFREEIIYUgUhBBCGBIFIYQQhkRBCCGEIVEQQghhSBSEEEIYEgUhhBCGREEIIYQhURBCCGFIFIQQQhgSBSGEEIZEQQghhCFREEIIYUgUhBBCGBIFIYQQhkRBCCGEIVEQQghhSBSEEEIYEgUhhBCGREEIIYQhURBCCGFIFIQQQhgSBSGEEIZEQQghhCFREEIIYUgUhBBCGBIFIYQQhkRBCCGEIVEQQghhSBSEEEIYEgUhhBCGREEIIYQhURBCCGEUvuwHbrfbr/N9CCGEeAXQTUEIIYQhURBCCGFIFIQQQhgSBSGEEIZEQQghhCFREEIIYUgUhBBCGBIFIYQQhkRBCCGE8f8Akb30LkRnOZ4AAAAASUVORK5CYII=;" parent="1" vertex="1">
          <mxGeometry x="-800" y="360" width="200" height="200" as="geometry" />
        </mxCell>
        <mxCell id="qkkkB0GDpSP-I1iQ6_yL-6" value="" style="shape=image;verticalLabelPosition=bottom;labelBackgroundColor=default;verticalAlign=top;aspect=fixed;imageAspect=0;image=data:image/png,iVBORw0KGgoAAAANSUhEUgAAAYUAAAGFCAYAAAASI+9IAAAAOXRFWHRTb2Z0d2FyZQBNYXRwbG90bGliIHZlcnNpb24zLjcuMSwgaHR0cHM6Ly9tYXRwbG90bGliLm9yZy/bCgiHAAAACXBIWXMAAA9hAAAPYQGoP6dpAAA750lEQVR4nO3dWXMc13k+8Kf3bVbMYAYbCS4iJVGyLMeyXImr7FT5JuVPkM+Y61SucqELO7FiO5FkSia1kCDWAWZfenrv/l/g38eAuAEklhng+VWpLNLkoAHN9NPnnPe8R8qyLAMREREA+bIvgIiIZgdDgYiIBIYCEREJDAUiIhIYCkREJDAUiIhIYCgQEZHAUCAiIkE96R+UJOk8r4OIiM7ZSfYqc6RAREQCQ4GIiASGAhERCQwFIiISGApERCQwFIiISGAoEBGRwFAgIiKBoUBERAJDgYiIBIYCEREJDAUiIhIYCkREJDAUiIhIYCgQEZHAUCAiIoGhQEREAkOBiIgEhgIREQkMBSIiEhgKREQkMBSIiEhgKBARkcBQICIigaFAREQCQ4GIiASGAhERCQwFIiISGApERCQwFIiISGAoEBGRwFAgIiKBoUBERAJDgYiIBIYCEREJDAUiIhIYCkREJDAUiIhIYCgQEZHAUCAiIoGhQEREAkOBiIgEhgIREQkMBSIiEhgKREQkMBSIiEhgKBARkcBQICIigaFAREQCQ4GIiASGAhERCQwFIiISGApERCQwFIiISGAoEBGRwFAgIiKBoUBERAJDgYiIBIYCEREJDAUiIhIYCkREJDAUiIhIYCgQEZHAUCAiIoGhQEREAkOBiIgEhgIREQkMBSIiEhgKREQkMBSIiEhgKBARkcBQICIigaFAREQCQ4GIiASGAhERCQwFIiISGApERCQwFIiISGAoEBGRwFAgIiKBoUBERAJDgYiIBIYCEREJDAUiIhIYCkREJDAUiIhIYCgQEZHAUCAiIoGhQEREAkOBiIgEhgIREQkMBSIiEhgKREQkMBSIiEhgKBARkcBQICIigaFAREQCQ4GIiASGAhERCQwFIiISGApERCQwFIiISGAoEBGRwFAgIiKBoUBERAJDgYiIBIYCEREJDAUiIhIYCkREJDAUiIhIYCgQEZHAUCAiIoGhQEREAkOBiIgEhgIREQkMBSIiEhgKREQkMBSIiEhgKBARkcBQICI6JUmSLvsSzg1DgYjolLIsu+xLODcMBSKiE5AkCbIsX+lRAgCol30BRETzwDAMlEolSJKE0WgEz/MgyzLSNL3sSztTDAUiohMIwxC+76PRaGA0GuHGjRuYTqdIkgQLCwvodDoIggC6riNJEkRRhCiKLvuyT03KTjg5dtWHTERELyPLMhYWFjAej6HrOqrVKmRZxmAwAACsrKwgTVP4vo8wDBHHMVzXRZZl8DxvZtYgTnIdHCkQEb2Goiio1WqIogiKosDzPOi6LkJBkiQUi0VUq1UcHBxgPB6jWCwijmOoqorRaHS538ApXNuF5pWVFdTr9cu+DCKaA1EUodVqoVqtolKpIAgChGGIUqkETdNQLpdRKpXgeR6iKEK9XoeiKMiyDIVCAYuLi3Mz23LtQkFRFEiShDRNRcoTEb1OFEXwPA+u62I0GqHT6UCWZdRqNZTLZRiGAUmSYNs2Go0GLMsSi9KSJKHRaMxFMFybNQVFUaCqKgqFAmzbxv7+PsIwvOzLIqI5omkaTNNEHMcIggC1Wg0AYJomPM9Ds9kUVUlBEKDVaokppFKpBNd14fv+pV0/1xT+v7y+2LIslMtleJ7HQCCiU4uiCHEcQ9d12LaNOI7FwrIkSQiCALIso9VqiVHDZDJBmqbIsgyO4yAIgplZeH6RazFSUFUV9XodpVIJcRxjc3MTcRxf9mUR0RyzLAuWZYmbfBAEkCQJ1WpVrCUUCgXs7u6i1+tBURToug5ZljGdTi8lGK79SEFVVTQaDdi2jXq9jsXFRfz5z39mIBDRW/M8T0wV5dVH+c2+2WyiXC4jCAIYhgFVVcWUU7lcFnsYZnHEcGUXmvMpI9u2ce/ePdy/fx+TyQR7e3uXfWlEdIWkaSrWGoC/l6cahoEkScRMxdFwyLIMpVLpkq/8xa5sKNi2jRs3bqBer+PmzZuIoghffPHFZV8WEV1BxWIRQRBA0zTouo7JZIJ+vw8AKJfLUBQFURQhDEOMx2NEUSTaZsyaKxkKkiTBMAzUajVUq1XYtg3f9zEejy/70ojoChoOhwAO+yOlaSpmKSqVCpaWluD7PjRNw8rKCgzDAAD0ej1EUTRz67VXIhQURYFlWWIIZ9s2FhcXUavVcOPGDaiqit///vdcSyCicxGGIQaDgQiENE2RpilGoxHa7baYxv6Hf/gHMTqI41isSeRBMQuuxEJzvqKvaRoKhQJKpRJu3ryJjz/+GNPpFH/4wx/QbrdP9Fp5as/iAhARza68AqlSqcD3faiqijAMoaoqlpeXce/ePSwtLWFrawtBEGA6nSKOYxSLRei6joODg8v+FgDM+UghX0z2PA/T6RSSJMGyLLzzzjv4p3/6J/z85z/H7u4uPv/88xO9nmma+OCDD/Dpp5+iUqmc78UT0ZXjeR729vbE/6ZpCtu2US6XIUkSOp0OPv30U3z66aeo1WpQVRVJkiCOYyiKctmXD2DORwqO40BVVQwGA0iShLW1Ndy/fx/vv/8+Pv30U2xvb+OPf/wjkiQ50espigLbtrG1tcUWGET0RoIgwM7ODhYXFwEAk8kEvu8jiiJYloXf/va3KJfLmE6nCMMQ/X4fkiRB07QT36vO09yGgiRJ8DwPqqpClmVkWQZJkvDRRx/h1q1b6PV6ODg4ONUBGJ7n4eHDh5e6DZ2Irob8wdI0TSiKgjiOsbi4CM/zsLS0hLt37+Lp06cADqeeFEWBaZqXfv+Zy1CQJEn0HwnDUOxWXl9fx507d1CtVvHFF1/gD3/4A3q93olfN01TTKfTc7xyIrouoijCYDDA4uIiXNfFeDyGoij405/+hJs3b4oKyU6nI/Y6SJLEUHgTkiQhjmOx0r+wsIBf/vKX+MUvfoFKpYLRaITRaIT/+7//u/QfMBFdX1EU4eDgQOxy1jQNrVYLruuKaslyuYw4jhHHMSzLEhvcLstchkI+JVQsFmHbNhRFwXQ6heu6aLVaePLkCf7jP/7jVKMEIqLzkHdJVRQFo9EIaZqKdhf1eh3lchkPHz7EZDJBEARQFAVJklxaBeTchYIkSWL9oFAooNfrwXEcsUHNcRx8/vnn+P777y/7UomIAEBMdecPsrVaDVmW4eDgAEmSiH0Np1kDPS9zFwp5emZZJnqUe54HRVHg+z6+/vprPHnyZCZ+uEREuX6/j1qtBt/30W63MRwOoWkaRqMRisUiVFXFZDIRZzpfViXSXISCoiiiH7mu60iSBEmSYDqd4v79+ygUCnAcB7quYzwec+cyEc2cMAzx+PFjrKysIAxD0XbbdV0Ah6WrR1vxaJqGKIou/DrnIhTyKSPg8AdVq9VwcHCAfr+POI5Rr9fFFJKu6ygWi2i329yVTEQzJUkS7O7uQpIkKIoiDuUZjUbIskx0ZgiC4FICAZiTUMif/BVFQaVSQbPZxHvvvYdHjx6h3W4jjmOMRiNYloXHjx/PXIMpIqJcPi2UVxsVi0UkSQLTNFEsFpGmqTgI7DJmPWY6FBRFObb1u1qtwrIsrK2tidLTarWK5eVl6LqO/f197OzsYDwec5RARDNNkiSUSiW88847KJVKcBwHS0tL2NvbgyzLePbs2aWEwkz3PkrTFEmSiNX6YrGI9fV1rK6uYjQa4datW1hfX0e/3xf1wKPRCEEQXPal0xXFUSidlXyj2rNnzzAcDhHHMaIoQrVaheM4kOXLuT3P9EghyzKkaYrhcIg0TdFsNrGysoKFhQXYto3pdArf99Hv99FqtfDw4UOEYXjZl01X1PLyMlZWVjCZTPD48ePLvhyac/m9bTgcwvM8LCwswPM82LaNhYUFABBrDxc5YpjpkQJw2BbbcRyUy2WUSiXUajXxa0VRMB6P4bouHj9+zN3LdG5kWUa5XEaSJKhWq5d9OXTFjMdjsUa6vb2NZrOJtbU1UW15kWZupKAoilh9VxQFhmFgYWEBq6uruH37tlhL8DwPSZJgY2MDf/vb3zhlROeqXC5DlmVMJhOuV9GZC8MQT548werqKorFIgDgwYMHiOMYvV5PdFS9iPfezIWCruvwPA8AxHmnlUoFuq5jfX0dpmni0aNH0DQN9Xod+/v7DAQ6VwsLC7h37x76/T5M05yJ9sZ09ciyDNd18fHHH6NWqyFNU4zHY/i+j+l0emEPIzMXCnkgAIDv+6LtrKIocF1X9A2pVCrY2NhAt9u9xKulq07Xdfzyl7/E2toa9vb2kGUZNE3Dw4cPL/vS6IrJsgzffvstDMPAv/7rv8I0TRiGgW63e6EPvjOzppAvqOQ0TUOxWMTq6iocx8Hq6ioeP36Mv/zlLzAMA99//z3+/d//na2u6VwVi0XU63U0Gg385Cc/gaZpAICPP/54Zk7KoqshSRKMRiN88cUXePLkCUzTxI0bN/Duu+9e6EmQMzNSyHfy5W2x4ziG4ziIogiKoqBQKKDT6SCKInz//ff48ssvL23HH119+Sl8iqJga2tLjGB///vfYzQa4ebNm7Bt+1hbgtMoFoswDEOMfuM4RrVahe/7mEwmZ/mt0JzJz5nXNA0/+9nPkCQJXNcVh/YcbftzHmYmFPJ+RoqiQNd1cVbCcDiEYRh49OgR9vf34fs+tra2GAh0biRJwvLyMn7+85/DdV14ngfXdbGzs4NOpwMA+P7779+4jlxRFJTLZXGw+3Q6RaFQQKFQEM0d89YuaZpCURR89NFH+N///d+z/DZpRqmqis3NTVSrVdy9exd37tzBV199hWfPniGKonNv9jkzoZDL+4iXy2VEUYQgCDCdTrG1tSUCgdUfdJ7ykene3h4ePHgATdMwmUzw2WefHftzb/rhLJfLuHPnDmRZxurqqlifkGUZ9Xodd+7cEUfK/vd//zfu3buH5eVlPH78WDRPo6ur3W7j3/7t3/DNN9/gn//5n+E4DprNJhzHwXA4PPf738yFAnCYlKZpinOYx+MxJpPJha7A0/Vl2zaWlpaQpin29/extrYGTdNw7949fPXVV2/9+mEYIk1TNBoNqKoK13VhmiY6nY6YktrZ2YHjOFAUBcPhEO12W6xn0NUWhiHCMITv++IeuLCwgFu3buHx48fHinHOw8yFgizL4rAJ13Whqio6nQ7LAOnCTKdTPHr0CB999BHSNMVoNMJwOMT29vaZvL6u61haWsLq6iq2t7ehqip0XUehUMBgMEC320W5XMb+/r7Yk+N5HiRJOtYxmK62/f199Ho98TBQLpePjU7zE9rO2syFQrVaRZqmkCQJlUoFvV6PgUAXplwuQ9M0GIYhDm76r//6L7Tb7TPbMX/z5k38+te/xu7uLtI0xdramjh969tvv8XCwgK+/fZbbG9vw7Is3Lx5E6urqwCAzz//nMfMXhOtVgv/+Z//id/97ndYW1tDp9OBYRiiPDVfdz3rNYaZKUnN5ek3Ho+xv7/PklO6MJIkoVarYWlpCYZhIEkSqKqKYrF4Zr1nNE3Dv/zLv6DX60FRFMiyDEmSUK/XMR6PEYYhXNfFeDxGoVDAnTt30Gw2ARzONeedNOl6ePLkCf785z9DURQsLS2JQ8WAv/eGO2szNVLIn9C63S5HB3ThyuUybt68Cd/3MRgM8MMPP0CSJNHB8iz87ne/Q7PZRL/fR6lUwvvvvy928VuWJfp55ddTqVQgSZJ4OLpx4wZc10W322UF3jXxpz/9Cb7v46OPPkKz2cSjR4/O9evNVCiUSiUYhgFVVRkKdOHK5bJoKbCxsYEgCM58/l6WZcRxjMXFRYRhCEVR4HkeBoPBscPbbduG4zgADtcgDMNAoVDA/v4+KpUK7t27h0ePHvEs8msgSRJ88803og9cvr/lvNaWZmr6yPd9bG5uspcRXThJksQxroPBALVaDZZliRbGZ6FcLiPLMjx8+BC7u7tik+YPP/yAjY0NjEYjAMDi4iLW1tYgyzLa7TaSJIHv+2IjZ5IkuHPnzpleG822MAxF5dvi4iJM0zy3rzVTIwXWYNNlMQwDo9FITOU0Gg0sLi6i1Wqd2dcwTVPsSrVtG5PJBJ1OB4qioN/vQ1EUVKtVFAoFsbN5aWkJtVoNe3t7ov/+dDqF53lYWlqCoiiszrsmPM/DZ599htXVVViWdW6lqVJ2wjEIT5yiq6zRaECSJLiuK9oIlMtl7OzsnNkw3bZt3L59G4VCAUmSYGVlBY7joFKpoN/vo91uo9vtwjAM7O3tYTKZ4N69e2JEcHBwIBqm5U0iFxcXUa/Xsb29jR9++OFSjm+ki5U3CQ3D8NTrSid5L8/USIHoMiiKgslkIloX53sBzvo4RNu2sbi4iGazKc5lME0Tqqqi2WyK0YHrurBtG77vo9vtol6vI45jaJqGZrOJH374QXy4Dw4O8Mknn+BnP/sZTNPExsYG4jgWZd2qqqJQKOD27dv4y1/+8sZltdwfMTvy94Jt2xiNRmf+34WhQNdeqVTCzZs30e/3Rfmp53kwDAOmaZ7JMN22bVQqFbRaLVQqFayuriLLMnGAynA4hKZpYp9EHMeitYVlWVheXsbDhw+fG7nEcYzPP/8ck8kEN27cwIcffojBYIAwDKGqKlRVRbVaRbFYhKqq+MMf/vBGo4l8AxWPu718eSiUSiVMp9Mzr0JjKBABsCwL29vbiOMYt27dwsHBAXq93pk8hVWrVTSbTXQ6HbiuC9d1UavVUCgUoGkasizD06dPRffVd999F9PpFLIso1qtolKpoFAoIAiCFz7pZ1mGVquF27dvi15hANBsNuG6Lnzfx3A4xHg8RrPZxM7Ozqmf/LlmMVsGgwGiKDoW8Gc1mrvUUMi37bOsji5Lfvxrp9OBruuoVqtot9s4ODh4oxuhJEnQdR2qqiJNU4RhiHK5DF3XMRqNEIYh9vb20Gq10Gw28fHHH8O2bURRhP39fURRhL/85S9iEbnRaCAIAuzs7ODbb7996Yd+NBrhyy+/RBiG2N/fR7VaRZIkCMMQlmVhOp3i2bNnsCxLdA0YDocn/r4YCrMlTVN4nnfs/XBW00iXGgr5bk6GAl2WfN3g4OAAWZZB13XIsgxZlk99I1RVFeVyGc1mU7xGt9tFGIbo9Xpi6iXLMkiSBNM0IcsyyuUyer2eaJ0tSRL29vZgWRbu3r2LOI4xGAxE2+4X0TQNKysrGI/HYk3h0aNHsCwLmqah3++LHbC2bZ/qxMLzaKVAb89xnKs1fZTXhcdxzENF6NIsLS2h2+2KNYQoiqCqKpaXl8Vi887Ozivn4fMRr+M4cBwHnU4Hqqqi0WhA0zQEQSB2KefnhSRJgjiO8cUXX8CyLGRZhna7DV3XxWlvlmVhf39fHDyladpLbwCe52F3dxeNRgO1Wg3j8Rie54kF53xz3GnDTlUPbxFHQ0HXdViWBUmS4Pv+mfWEotPJDyIbjUZnGtqXOlIol8uYTCYMBbo0URRhaWkJ7XYbruuK8zyGwyEePHiA9957DxsbG9je3sbGxsZzfz/vjeT7PsbjMRRFETfgTqeDNE3FayqKgpWVFbzzzjsYj8fodDoYjUbodDpwHAf9fh/AYXfMRqOBn/70p+h0Omi1Wq99sjcMA7quI45jcVgVcDjtMxwOxU3jtIFQq9Wgqip2dnbE7+etnelyRVEEx3HEnhfg8L/Z25YlX1oo5Dsz2fCOLlve2iKv1Nnf34dpmjBNE+PxGLIsY2lpCbZtI01T+L6PcrksTkjLW1ynaXqsg2maprAsS3xgNU2DoihwXVfsbg6CQKxpHHVwcCCqh/INb6+SN8rLy1rzQ997vd4bP0WqqoooihgAMyrLMlEpd/T33talhIKiKCgWi+KoQ6LLkk8RybKMKIrE3L6maTBNE8ViUUwf2bYN0zTh+z6q1SqyLMPe3h6azSbq9Tp2dnbguq6Y4llcXDzWoyafZskPUEmSBAsLC+Iglfykwdzf/vY3mKaJd955B0EQiNHHix6kgiBAp9NBt9sVu6TzE96ePHly6ht7vmDuui5DYUYlSSL2s+TvibMoCLiUUJAk6ZXzo0QXJQxD1Go1cfNrNBri2MN+v4+7d+/i3r17YppzOBwiDENsbW0BOJzXrdVqYoRQKpUgyzIsy4JlWWItoVgsYjweo9frwfM8FItFOI6DOI6hqip+/vOfo9PpYDAYoNfrIY5jtFotLC4uYjQaIUmSV06z5p+lvLoon++vVCowDOPUN/Z8FMM+ZLMrr0Aql8sIguDMKsQubfooP2kqn0clehFJkqAoyrm1bxiNRigWi2Kap9vtolarwTAM8f97nodutwtZljGdTqHrOnzfh23bWFlZETXjjuPA8zxMp1NIkoTxeCxODwyCQCwY67oO4PAQlXzEMRwOsbq6imKxKEbPw+EQu7u7J/qw51NXk8nk2DGfX3zxxRs/6TMQZl/+gJ337DqT17zo3kdHWwhUq9VTlcbR9WJZFmzbFhu58iHyebSz1jQNi4uL6HQ6WFtbw+3bt+F5Hv74xz8ijmPRIK9cLotmZL1eT2xEM00TX3/9NdI0FdebT0npui52K1cqFdEYL01TvPvuu+IaCoUCdnZ2MJ1OMZlM8PTp0xMFgiRJWF9fx3A4xGAwEOWucRyLQMg/v/nXCcPwuZtIvlidj25o9hWLRSwvL2NjY+NE4T/TvY84SqBXWVtbE2cI7OzsiN5E+ajhrOvm7927h0qlAsdxRDlnvni7vb2Ng4MD8TXzG2uapnAcB5qmQVVVrK6uIo5j0X8ov6HHcSzKXSeTiVhTKJVKYtRx9IjFOI7FesbrFpkLhQJ0Xcfu7q6YQtJ1/YXrDo7jiMXxIAhE36X8KXNlZQWWZeHhw4dn+JOl8yTLsjix76xceChkWYZisYiVlZVzP0GI5oMkSfjggw9gGAa2traQZRmiKEKr1RIbwrIsQ5IkYgH0LGvj0zTF999/j5/+9KeixPTZs2e4f/8+fvOb3+DLL7/E119/LU4EtCxLjBjy+dxWq4V6vY5CoSDaTuSt4NM0xXg8RhAEsG0bhmGI6bCvv/5aTDXduHEDjUZDfP+apr22dYHruphOp8dCMk1TMVIAINYtisUiNE3D9vY20jSFpmmiIsqyLAB45QY5mj1xHJ/5NN+ljBTyQ0OIAIjzBMbjsThoBoDY7b6/v3/s9xzHERU7ZyUIAgyHQ+i6jlu3buHZs2cYDAa4ceMGarUaNE0T5ycfHBygWq3CMAx4ngfP88QIZjAYiJt5XnZ91GQyESGR/5380JQkSbC3t4c4jvHNN98gTdMXvsZRWZY9Fxr5iW66rovRQxRF2NvbO/bnptPpsdc+Wk5L88F1XSwvL2M4HM73QnMYhtjc3LyML00zKL8Z/nhK6OgNL39izve2nPXCc5Zl6HQ6uH//Pur1uqgw+tOf/iSmfACIufh+v49bt25heXlZTPFMJhPs7u5ic3PzhYEVhiH6/T6iKILneSiVSlhbW0OhUEC9Xke328V3332H1dXVN9psdlSSJK8NTfYzuhqWlpbQ7/fPbH32wkLhaPM7RVHYm50gSZK4MQZBgK2tLaRpCsMwEATBsZLlLMtgWRaSJBE1+2ctbx63sbEB0zSh6zoePnwIRVGO9f8ZjUbwfR+tVgsHBwfiz3722WeI4/iV7+00TREEAe7evYvbt2+j3W4jjmMRdOPxGH/961/P/Hujq2s6nYoy6rN4WLrwUMiH/ix3I03T4Louut0uTNNEqVQSFTpxHGNvbw+DwQBBEEDXdTiOgyiKji3MniVFUcQmsFKpBN/3oSjKc/tp8rMJxuMxkiRBr9dDq9U6cVAFQYBHjx6h1+thaWkJe3t7UBRF7IEgOo0nT54cW0N6WxcWCvkH5midNl1Psizj1q1bqFQqUFUVlUoFnU4H9XodwGGv+LzyR1EUdLtdZFmGbrcrFkbPQ14GalkWfN9HvV6Hpmn4+uuvj/25fD1M0zQsLCyg2+2+0cgl742U98XnOhu9iclkIh5U8inWt3FhoSDLsggD1kFfb2maotVq4ZNPPkG5XEYYhtjd3YXv+6JrbrfbhaqqGI1Gx5q75V1Hz4Npmuh0OkiSBLdu3cLq6ioKhcKxUJAkCbVaTQTa0RYDp5VlGSaTCXzfx8rKClRVPdUZB0TA4b3VcRwUi8Uzef9cWCioqgrHcdgRlQAcPm0/fvwYKysr4o1848YN7O3tQVVVmKYpFmTz9s152WRe6nnWdF1HqVTC/v4+Wq0WfN9/btNmfibBdDrF4uIi+v3+G7+n87MU8gcm13V5dgGdWhzHosvvWbx3LnRHMw//ppyu63j//fcxHo/x/vvvQ5ZlTCYTjMdjFAoFPH36FP1+XxwKk1cA5W2oz8Pi4iIajQZGo5HoUZS/7/MhuaqqYtrI930MBoM3Hq7newfyg1IkSWJFEJ2rk3x25Au4DoGBQDnDMPD+++/Dsiw8ffoUe3t78DwPk8kEe3t78H0fxWIRwGEb6bw657zeQ7Is4/79+wiCQDS0yw/KWVlZgSRJsG1brIVEUSSqod5EvmM53zhWq9Vg2/YZf1d0XaiqemZrbZd6yA5dX/lRrMViEXt7e5AkCeVyWRwnWS6XsbCwgCzLjrWfPi95G+x+v49arSa6To7HYxiGAVVVsbS0JBaEx+MxNE175Wv+eGScjzpM08SdO3cwmUwQxzEKhYKoYiJ6E0dHsm9bhXRh00ecOqKj3nvvPbiuC13X0Ww2US6X0W630el0xNnFYRhiPB6L8s+ju53PU6lUwtLSEmRZRqvVQqFQQKlUwmg0Qrfbhe/7MAxDlLDmH8L8nJC8jUXexC+f8mo0GuLPOo6DbreLfr/PNvL01vKS//yEv5cFw0w3xKPrrd1uo9vtwnEc1Ot1HBwcYH9/H7J8OKMZxzE6nQ4mkwnu3LkDy7IQx/Gxzp/nZTwei5v43bt3AUD0XbJtW4SBbdvQdV1MATmOg7W1NbHW8OzZM1FyG0URXNeF7/uiplxRFFSrVTiOg93dXS4w01vJOwC87fvowltnE/1Yo9GAoiio1WrwfR9ZlqHZbGJnZwebm5vHSlKB81ubsm0b77zzDp4+fYrJZALDMLC0tCQ6nHqehziOUSqVxNSPbduI4xiapj23WL68vCx2LOcb3fJrz8sI3333XWxubqLVap3L90TXw0lnYjhSoLmQnx/gOA5WV1eRZZk48nI0GqHf74vd8Plc/3k8VSdJgn6/j/X1dTx69AhxHKPb7cK2bYzHY0iSBNd10W63ARx+EMMwFFVDR0tlFUXB/v6+2KWsKAqWlpagqiq2t7fFGQ6tVuvCpsWIToKhQJfOdV00Gg0xxWKaJsIwhCzL4slG0zQRBq972nnT9asgCLC3t4fRaCTmZPMzl8MwfGHDvpdtxMxbceSjDFVVxT+maYqzDYbD4RtvfiPK5e+ryWTy1iPpC5k+4iIzvU7+/iqXy2g2m7AsC9vb26fu718qlbCysoL9/f1LP8RJkiQ0m02YpolutwvLsjAajVAoFKCqqgiM3d3dS71Ouj5mZvqIoUCvk78/BoMBBoPBG+3slWUZa2traDab8H3/0kMhyzL0ej3RADKfgnIcR2zEe11ZK9FFu5BQYFUFndabvGd0XRd7G2alnUq+5vBjpVJJnOFANEtYfUR0QfLNenln1el0CtM0MZ1OOZKmC3GS9xlDgegCqaoKWZbFXod8moyjaboIDAWiGWAYBsIwfOkHMj+/gaMFelP5aZave7hgKBARkTBzXVKJrpu8J00uPxtC0zRIkiTaeuTO61Q5opNiKBCdMV3Xxc0f+HsQSJKEQqEg9ifkT235qVmGYcA0TREMLFely8DpI6IzVK1WEQQBoigSnVTTNBUlsi/6uMmyDNM0YVkWXNcVu6cNwzi3o0fpeuKaAtEFMgwDtm1jOByiUChAlmV4nodGo4FisYh+v48kSXBwcPDCv5+PDPLD17nwTGeNoUB0QfLWHKPRSBwdmtN1HbIsi15Ovu8DeP4DqigKHMeBqqqYTqeikR7PWqCzMjNtLoiuMk3TUK/XxdRPfjNXVVW0uHjZh/FoO4+8wV6WZeIhjKMFumgcKRC9hXyXsq7riKIIk8kEaZrCsiyEYfjCE7DyqqMsy8Q51Hn77KMfR57IRmeN00dE56xeryPLMnieJ1pgy7IMXddfOkKQJEm0As8PDsr/Hnc203niPgWicyRJEtbX13Hjxg2x7wA4bOb3qh3KWZaJLqlHvSoQ6vU6HMc5u4snegmuKRC9oSzLsL29DcuysLq6iiiKMJ1Oz3w9QJZluK770sPYic4Sp4+I3lC5XBZ7EoDD4zzzPQf5saH5PgVVVd94feDormhOL9Hb4PQR0TnJdyfHcSzWCIC/N7/Lp4ayLEOWZdB1/aU7lG3bfu1DFzup0kXhSIHolGRZRqVSQaFQQBiGUFUVk8kE4/H4uXWCH/89y7KQJMmxM581TUMcxy98istLW7mzmc4CRwpEZ0iSJFQqFfFknyQJTNNEHMeYTqfHnuTzKZ9SqXRsjSGKomN9jwCIXx9tjpf/e5IkLEulC8WRAtEJSJKEarUK27YRhiHG4zHiOBZP8q7rihu9LMtwHAfT6fSVIwfgsFney/YycOManTXuaCY6Q4ZhoFKpoFQq4eDgAL7vo9frPXcedL4z+SReVlHEQKDLwlAgeo18kdhxHPi+L7qX2raNNE0RBAEsy0IUReIm/7oRwmlw1EAXidNHRK+gqipM0xSLw5VKBdVqFbquQ5IkxHGMjY0NBEEASZJg2zaSJHllv6PTyM9z5roCnQUuNBO9pXyxuNFoIEkS9Ho9tFotAEChUBDtKoDDD5zrumI381kckpOmKQOBLhSnj4heIa8Yypvc5WWlkiRhc3MT3W73pesCb3sz57QRXQaGAtErWJYFTdMQhiEajQYKhYKYHgqCQFQgvWwN4W2mfxgIdBkYCkSvsLq6CgAYDAYIggCqqsIwDKiqCs/zxP6CYrEI27bhOA5GoxGGw6EYYfDmTvOEoUD0ErZt46c//Sl2dnagqirG4zHG4zFU9fBjY1kWyuUySqUSVFXFYDAQ/+Sb1/I2F0TzgqFA9BLLy8toNBriiM1qtQpJkuD7PsIwhCRJiKII7XYbjuMgTVNxyA7RvGIoEL3EnTt3EMcxCoUC1tfX0e12YZomptMpnjx5gul0CtM0Ua/XYdu2OE1tf3//si+d6I0xFIhewjAMmKaJQqEA3/fh+z4GgwFarRYmkwlUVYXjOHBdF8PhEHEcw/O8515H13VkWfbSpndEs4ShQFfa2xxxGUURDMPAd999h8FgAMdxsLGxgXa7DeBw13K3233t6+fnKrDElOYBN6/RlaRpGmq1Gj799NM3fo04jrG1tYV2u40nT55gc3NTtLDOS1XTNBUjiqNkWRZdAI62ys4XqYlmFd+hdOVYloV3330XH374Ibrd7hu/zng8xtLSEtbX15EkiWiCJ8syDMOA53mixXUYhgAO22Lkh+686JxmHqlJs46hQFdOsVjE1tYWFhcX32rRd3d3F71eD2EYolQqwbIs0fwujmMEQYBCoYAgCMQUUpZlKJVKL1xbIJoHDAW6MvIjMqvVqnjCL5fL+Oqrr97o9VqtFgzDEN1RbdtGsViEqqrodDpwXfdY22xFUWAYBvr9/rGzFfIDeYjmAUOBroy7d+/CNE0sLy/j448/RqlUwubm5hu/nq7rYi0gDEN0u10xPfRj+Y1/Op2K0lSArSpo/nChma4ESZIgyzJu3LgBx3EQxzHCMMQPP/zwxq+ZLwp7nockSWAYhphCCoIAuq4fW1DOHa1GyrKMm9lorjAUaO7lC7vT6RTA4ZpCfvrZ2yw0Z1mGxcVFmKYJTdNgGAbCMBT9jvIzFX7cykKWZdE2O293QTQvOH1Ec89xHFQqFVQqFXS7XYzHY3z77bcv3Ux2GisrK7h58ybCMMRkMsH29jaAwzJT13WfGwXkU0d5SOi6LspYieYBQ4HmmqqqePDgAXq9Hvb29tDtdmFZFkzTFCejvSnf97G1tYVCoQDLstDr9RAEgWiVnabpcxvS8pA4j2M5iS4CQ4HmWn7ameu66Pf7ACBGB7VaDePx+I1vzEmSIIoiPHnyBLIsiz0Jp3E0lN5mdzXRReGaAs21JEmws7MDWZaxurqKjz76CIuLi7AsC/V6HYqivPFrp2mK27dv48GDB6jVagAOy07zEQLw4uqiH+9uPvp6RLOOIwWae5PJBLIsY3FxEbIs486dO7h37x6azSY2Njbg+/4bv3a320WlUkGpVBKjkjAMoWkaVFUV/56XrSqK8lZfj+iyMRRobpXLZRSLRbFHYDAY4OnTp6J0NAzDtz4nWVVVxHEMwzBQrVZhWRYGgwGAw/5KQRAgSRLUajVMJhOEYch1BJprDAWaW2maolQqQdd1dDodsbnMNE08evQIGxsbb135s7a2hmq1Ct/3sbe3J3Y1520uer0eDMNAFEVid3O+wY2jBppHDAWaW+PxGEEQYHNzE6ZpolgsIk1T0cH0LPYITKdTeJ6Hfr8PWZahKIoIAtu2USgUMB6P4bougMM1B1VVEUXRW49SiC4DQ4HmWhzHqNVq6PV6otrINE00Gg30er23fv2vv/4aSZJAkiRUq1V0Oh1kWQZN01Aul0UIOI6DKIqgKAomkwnbW9DcYijQXFIUBZVKBdVqFWEYYjgcotPpiP0D9Xodq6urePr06Vs9see9lACIqqNKpYJOp4NWqwXgsNR0MpmIw3RkWea6As0tlqTSXNJ1HfV6HXEco1gs4oMPPsDa2hoURRHz/dVq9Y0Ptclv/s1mE6ZpYmFhAbquI0kSTCYT0VIDwLEdzGmasvSU5pqUnXCcy/4tNGtkWYZpmnj//ffFk3m/34dlWVBVFcPhEMViEd98882pX1uSJCwtLWE8HkOWZTQaDezv7yMIAkRRJPofGYZx7DwFoll2kts9p49oLuULvZ7nYXNzE41GA/1+H4PBAI1GA+vr62IR+E3IsoxqtYpqtYo0TeH7PlRVRZqmYmdzmqai+R6rjOiq4EiB5pIsy6LKp1gs4le/+hXiOEa73cZgMECn08Ha2hpUVcXDhw9P/fqqqqJarUJRFAyHQwAQ01FxHGMwGIijOfOFaI4WaNZxpEBXVr6DGDhcdN7c3IRhGACATqeDyWSCR48eYWVl5dSvLcsylpaWoKoq2u226KWk6zriOBblp/l1ADxMh64OhgLNvXzayLIsADi2CJyfa3AasiyjVCphOp1C0zTRFTUfMRBdZQwFuhKyLBNhoKoqisUiyuUybNs+9WulaYqtrS24risqi/JGeK8aEaiqiizLWI5Kc41rCjT38rbWeZtqRVHEMZg/Pu/gJAqFAmRZxmg0QqFQgOu6KBQKYhopjmO2waa5dJLPAvcp0NzL22NblgXLsuA4zlvN9a+traFUKonup1mWwfM8sQfBMAwsLCy8VVtuolnFkQLNvbzVxNHmdyeZ7nmZarUqDuwhuko4UqBrIUmS597sb/MQw0Cg64wjBbqyjm4ye1N5t9W8/JVonnGfAl1rtm2L3cZvWhHE9td03XD6iK6kvOpIVVXoun7iv6eqKiqVihhlEF03nD6iKy1/3550wfm0f55onnChma69097cj7bBJrqOGAp0ZfGpn+j0GAp0ZZ02DCRJgq7rUFX12JqCJEnQNI3rDHQtsPqI6P/LskyUnnINja4rLjQT4fAs5jiORf8koquIC81EJ5R3OL1MfPCiWcCRAhEO39+qqkJRFB6tSVfWSW73DAW60vLjM4mIoUBEREdwTYHoFPjgQ8RQIBJO0yOJ6Kri9BER0TXB6SOiU5AkiQ8/dO0xFOjaO9oj6bL3KhBdNoYCXWtra2uoVquXfRlEM4OhQNea7/uYTCaXfRknwoZ8dBH4LqNrLYqiuTly823OmiY6KVYf0bWlaRqSJJnZm21+pCjRWWH1EdErzPpNV1VVPozRheNIga6tWQ8ForPGkQLRKzAQiJ7HUKBri6NfoufxOE66tuZppKCqKpIkEdcsy7JYIFfVw4/x0f8fAGq1Gur1Onq9HgaDAdI0RZIkF3/xNFe4pkDXlqIoc3WTNAwDYRgiyzIYhoEsyxBFEQqFAm7fvo1Wq4V2uy2CYXl5GY7jwDRNqKqK0WiEg4MDqKqKyWTCcyauoZPc7jlSoGsrSRKUy2UMh8PLvpQTCYLg2K91XUeSJJAkSXwPRxfPJ5MJptMp0jTF4uIi0jRFo9FAHMcYj8eiumle9mnQxWAo0JUkyzJ0XUcQBC99OqrX65hOpxd8Zaf34xGNqqqoVCrQdR22bQMAer0eoijCwsICOp0OJEmCoiiI4xiu6yIMQzQaDYxGI7E34+jP5cc/L13XEYbhhX+vdPkYCnQlZVn22inPTqdzQVfzdjRNO3YTVxQF4/EYiqKgVqtBVVWkaYrxeCzWGbIsw3A4hCRJ0HUdURRhb28PkiTBsqznynFrtRqazSYeP36MOI5RKpXQ7/ehadorg5WuHoYCXUlZlon593nn+/6xX+fTSI1GA7VaDVmWwfd9qKoKwzBg2zaCIEAQBCiVSpAkCf1+XwRGHMfHQlNRFIRhiG63C8dxkGWZCIS7d+9C0zTouo4nT56ItQiuR1xdDAW6sl61iDxvi8w5WZZhWRaAw5FOkiRwHAeVSgW2baNYLGJnZwe+7+POnTuoVCrY3NwUfz9feO71erh9+zaiKMLdu3cxGAzwzTffoFAooF6vIwgCLC4u4oMPPsCvfvUr+L4P13VhmiaePHmC//mf/8FgMEC/38d4PL6sHwedA4YCXVmO48DzvBf2NpJlee5CQZIk2LaNSqUCwzAgSRJUVUUYhiiVSgjDEDs7O2i1WigWizAMA57noV6vQ9d1uK6LZrOJnZ0dmKYJXddRLBbRarXg+z7CMMRwOIRpmnjw4AE+/PBDrK6u4saNG3AcB/v7+9jZ2cFPfvITFItFbG9vY2trC/1+H4uLi2i1Wvj+++8v+8dEb4mhQFeSZVmIouiFgaAoysw2wXuVLMvgui48z0OpVMLKygosy0KlUoGmafB9H7VaDdVqFQsLCyiXy5hOp1AUBbIsQ1VVlMtlqKoKRVGwsrKCcrmMyWSCb7/9FuVyGbqu4ze/+Q0ePHiA9fV1JEkCTdNQKBRwcHCAMAwxGo2wsbGBbrcrKph6vR4qlQo++eQTRFGELMvw17/+9UpM3103DAW6kjzPe+lCs+M4GI1GF3xFb07XdaiqCs/zxI09CAJ0u100m00Ah4vR7XYbtm2j0Wig0+ng66+/hmEYYkopSRKYpomPP/4YkiRhaWkJtm2j0+mgXq/D9304joMPPvgApmnCdV2sra2hVCphOp2K0cbu7i663S7SNEUYhnj27Jn4eeeL3rZtiwXueQzg64yhQFfWixreFYvF5+r9Z13+tK4oCnRdR7PZhOu6qNfrWF1dBXAYgrZtQ1EUmKaJer0O0zQxmUzQ6XQwnU6xurqKX//613AcB998841YVF5bW8P6+jp6vR4WFhZw69YtDIdD9Ho9KIoCwzBgGAZ2d3fFqEOSJHQ6HXS7XfHzzDfTSZIkSn0ZCPOHoUCvpSgKAIiyyKMtFmaVLMsoFAqYTCbHrnUymczdlEaSJHBdF8DhqCHLMiwsLKBaraJSqeCHH37AeDzGwsICCoUCdnd3YRgGTNNEv9+Hbdv4x3/8R8RxjGq1it3dXTx+/Bj1eh2GYUCWZYzHY9RqNSwsLCCKIiwtLWF9fR2+76PVasF1XXS7XXz77bfY2dnBxsYGDg4OXvg+qFarGA6HYs3m6J6JF5mH99N1wlCg18rr2l3XRZZlc/EBTtP0hVNE+Y7ebrd7CVd1erIsI8sysQZw8+ZNUX2UP5GnaQpN07C/v4/9/X3EcYx+vw/TNOF5Hj755BP86le/gmVZODg4gGEY+O1vf4tarYbpdIrt7W0Ui0UoioJ79+6hVCrBsiyMRiN89913ODg4wHQ6xebmJobDIabTqVjAz6fo8mmjpaUlAIcn2nmehziOIUkSZFl+6c1/Ht5P1wlD4ZqSJEn8UygUXtnqwXVdSJL03Id31s4jyG8++aLri+Q1+bNOkiQsLi5C13UcHBwgiiIkSYJisQhVVTGdTuE4jlhv0DQNlUoFSZIgiiJUq1UMBgM4joPFxUVomgbHcZAkCdbX16EoCnZ2drC5uYkPP/wQmqah3+9ja2sLURTh1q1bAIDFxUUAwFdffYXJZALP86BpmlhzACD2LZimiUqlgsFgAODvfXbytQeaDwyFayK/YeZDesuyYFkWbNtGr9d75d/Nsuy5m39ezTJLH/b8Ol/Vy6ff7yOKIlGBNCuhpqrqsemVfC9B/nt5j6J8n4HneZBlGY8fP8ZkMsG9e/dgGAb29vbguq6oToqiCOvr69B1HXEco1arAQC63S52dnagKArq9Trq9br4GvV6Hd1uF71eD6VSCXEcw7ZtOI6DtbU17Ozs4MaNG6Ip32QyEXsYxuOxGK3QfGKX1CtMVVUsLi6KXjf9fv+5eV5JksQO1+ugXC7D87yZCrOTkCQJhmGgVCqhWCyiUChgeXkZlmWhXq+j1WrB8zwkSYLxeIwsy1Cr1VCr1bC6uoqDgwOMx2OxuNztdtHpdGCaJn7xi1+IUFpYWBClqPkUm6qqGI/H2NnZgSRJ2NraQrvdhuu6mE6nIrwmkwl7Js24k3zOGQpXXF49oiiKmOM9jVmbInqd/HtNkuSFVUamaSIMw7mfx1YUBTdu3MC7774LSZLEHoXpdIrvvvsOhmHgwYMH8H0fQRCI6SfgsHne0dLWmzdvwrZt+L6PLMuwsrICXdfFovL29raodvJ9H5ZloVQq4eDgAMPhEK7rQlEUZFnGEcKMYyicg1m7ScqyDNu2j+3O9TxPzDWnaSo+/IPBQCxcnujN8aMpp3mgqipM04QkSVeu/cKPp7zyKaF8X4Bt26LXkaqqKBaL6PV6IiDzaqx2u42lpSWsra0hiiJMJhMxHVgqlcQeiLxhYF5gAPx9V3WxWMR4PEYcxwiCQDx8zEPX2euMoXAF5VUckiTh9u3beO+995CmKVqtFnZ2dtDr9ZBlmdjN6vs+yuUybNvGYDAQH96j89VXiW3bMAwDw+Fw7kcDP/aqB5J8dCTLMsrlMnzfF/sL4jhGr9eD4ziiWilvnpemKTzPA3D43rp//z7u3r2Lvb09PHz48LmpIEVRUCqVjlV3Hb2m/EHkqv3srwoesnMFyLIMx3FQKBTgOA5u3bqFZrOJRqMh6tDzfvlhGMK2bXECV97OID9UJa/dP81IZ9ZGRq8znU5f+rSaV+nkN8F586r/DvloLl87AoAwDEVpaD5yiKIIURQ91+lU0zTYto3xeIxnz55BlmWxP+XHXyd//RdhGMw/hsIMyztW3r59Gx9//DFM0xS7ViuVCoIgEE98URShXC4jiiJRR55vcJpOp9jd3UWWZaI3vuM4Yr75ukjT9EqOjl7m6KY3SZLQ7XZf+v3nDxCSJKHdbiMIgtf+rF6074ChMP8YCjNsOp2KKSHHcfDLX/4Suq5jfX0djuOg0+mgVCohyzJUq1W0221sbGyg0WhgOp1CkiRR1x4EATzPg+u60DQNxWIRsiy/NhTmaZTwOvOy8e48JEnyykaAeRFC/r7Jp58AvLTE97r+LK86hsIMy2vuVVVFu93Gl19+CcdxUK/XUS6XRRDkVSPT6RR/+9vfxLpDu91GGIZQFAW+72MymUBRFARBgL29vZcuIM/blNFJZVk2V4vmZ+11paJ5hZJlWSgUCgjD8FqNrOgQF5rnQP5UX6vV8O6772JlZQWlUgkARB+aTqcDWZaxtbV17PSsV5FlGcDzT3zzHAp5aSSfYt+coijQNA1JklyrPSzXAauPrpi8skSWZQwGA9y6dUscdpI/4bXbbdGp8iw+zPMcEHQ25rE0mV6MoXDFybKMmzdvQtd1jMdjDAYDMZVERPRjDIVrQNM00aqCUyb0tvL2J0mS8OHiCmIozJHL6inP6SGi6+Mkn3X5Aq6DTuCynvIZCER0FEOBiIgEhsIc4NQdEV0UhsIc4BQPEV0UhgIREQkMBSIiEhgKREQkMBRo7r2s9z8RnR67pNLc0jQNaZqyJw/RGeKOZiKia4I7momI6FQYCkREJDAUiIhIYCgQEZHAUCAiIoGhQEREAkOBiIgEhgIREQkMBSIiEhgKREQkMBSIiEhgKBARkcBQICIigaFAREQCQ4GIiASGAhERCQwFIiISGApERCQwFIiISGAoEBGRwFAgIiKBoUBERAJDgYiIBIYCEREJDAUiIhIYCkREJDAUiIhIYCgQEZHAUCAiIoGhQEREAkOBiIgEhgIREQkMBSIiEhgKREQkMBSIiEhgKBARkcBQICIigaFAREQCQ4GIiASGAhERCQwFIiISGApERCQwFIiISGAoEBGRwFAgIiKBoUBERIJ60j+YZdl5XgcREc0AjhSIiEhgKBARkcBQICIigaFAREQCQ4GIiASGAhERCQwFIiISGApERCQwFIiISPh/PgRJ0vCMASAAAAAASUVORK5CYII=;" parent="1" vertex="1">
          <mxGeometry x="-570" y="360" width="200" height="200" as="geometry" />
        </mxCell>
        <mxCell id="qkkkB0GDpSP-I1iQ6_yL-30" value="1) MIP" style="text;html=1;strokeColor=none;fillColor=none;align=center;verticalAlign=middle;whiteSpace=wrap;rounded=0;fontSize=20;horizontal=1;" parent="1" vertex="1">
          <mxGeometry x="-770" y="55" width="140" height="35" as="geometry" />
        </mxCell>
        <mxCell id="qkkkB0GDpSP-I1iQ6_yL-31" value="2) AIP" style="text;html=1;strokeColor=none;fillColor=none;align=center;verticalAlign=middle;whiteSpace=wrap;rounded=0;fontSize=20;horizontal=1;" parent="1" vertex="1">
          <mxGeometry x="-540" y="55" width="140" height="35" as="geometry" />
        </mxCell>
        <mxCell id="qkkkB0GDpSP-I1iQ6_yL-33" value="3) TUMOR MIP" style="text;html=1;strokeColor=none;fillColor=none;align=center;verticalAlign=middle;whiteSpace=wrap;rounded=0;fontSize=20;horizontal=1;" parent="1" vertex="1">
          <mxGeometry x="-815" y="320" width="230" height="35" as="geometry" />
        </mxCell>
        <mxCell id="qkkkB0GDpSP-I1iQ6_yL-34" value="4) MINIP" style="text;html=1;strokeColor=none;fillColor=none;align=center;verticalAlign=middle;whiteSpace=wrap;rounded=0;fontSize=20;horizontal=1;" parent="1" vertex="1">
          <mxGeometry x="-540" y="320" width="140" height="35" as="geometry" />
        </mxCell>
      </root>
    </mxGraphModel>
  </diagram>
</mxfile>
